<svg width="173" height="38" viewBox="0 0 173 38" fill="none" xmlns="http://www.w3.org/2000/svg">
<mask id="path-1-outside-1_425_8990" maskUnits="userSpaceOnUse" x="-0.917969" y="-0.09375" width="174" height="38" fill="black">
<rect fill="white" x="-0.917969" y="-0.09375" width="174" height="38"/>
<path d="M22.044 20.8922L22.17 24.4022C21.798 24.5942 21.252 24.7562 20.532 24.8882C19.812 25.0203 19.08 25.0863 18.336 25.0863C17.1 25.0863 16.002 24.8222 15.042 24.2942C14.082 23.7542 13.332 23.0102 12.792 22.0622C12.264 21.1022 12 20.0102 12 18.7862C12 17.4902 12.264 16.3382 12.792 15.3302C13.332 14.3222 14.082 13.5362 15.042 12.9722C16.002 12.4082 17.1 12.1262 18.336 12.1262C19.08 12.1262 19.818 12.1922 20.55 12.3242C21.282 12.4562 21.852 12.6302 22.26 12.8462L22.044 16.2302L21.162 16.2842C20.79 15.6242 20.544 14.7302 20.424 13.6022C19.872 13.3622 19.212 13.2422 18.444 13.2422C17.604 13.2422 16.872 13.4642 16.248 13.9082C15.624 14.3402 15.144 14.9642 14.808 15.7802C14.472 16.5842 14.304 17.5262 14.304 18.6062C14.304 19.6862 14.472 20.6342 14.808 21.4502C15.144 22.2542 15.624 22.8782 16.248 23.3222C16.872 23.7542 17.604 23.9702 18.444 23.9702C19.248 23.9702 19.914 23.8562 20.442 23.6282C20.502 23.1002 20.592 22.5902 20.712 22.0982C20.832 21.6062 20.976 21.1862 21.144 20.8382L22.044 20.8922ZM33.6467 23.6642C33.8627 23.7122 34.0907 23.7902 34.3307 23.8982C34.5707 24.0062 34.7747 24.1142 34.9427 24.2222L34.8347 24.9062H31.9907C30.5627 23.1662 29.3447 21.2702 28.3367 19.2182L27.0047 19.1822V23.6642C27.4247 23.7722 27.8327 23.9582 28.2287 24.2222L28.1207 24.9062H23.6747L23.5487 24.2222C23.9087 23.9822 24.3407 23.7962 24.8447 23.6642V13.5482C24.3407 13.4162 23.9087 13.2302 23.5487 12.9902L23.6747 12.3062H28.1207L28.2287 12.9902C27.8327 13.2542 27.4247 13.4402 27.0047 13.5482V17.9942L28.3187 17.8142L30.8207 13.9622C31.2647 13.2662 31.6487 12.7862 31.9727 12.5222C32.2967 12.2582 32.6867 12.1262 33.1427 12.1262C33.3467 12.1262 33.5447 12.1562 33.7367 12.2162C33.9287 12.2762 34.0847 12.3482 34.2047 12.4322V14.3223H32.0267L29.6867 17.7602C30.6707 19.6922 31.9907 21.6602 33.6467 23.6642ZM45.8208 23.6642C46.3008 23.7722 46.7208 23.9582 47.0808 24.2222L46.9728 24.9062H42.4548L42.3288 24.2222C42.7008 23.9582 43.0788 23.7722 43.4628 23.6642L42.5448 21.0542H38.0988L37.1988 23.6642C37.5828 23.7722 37.9608 23.9582 38.3328 24.2222L38.2068 24.9062H34.5888L34.4808 24.2222C34.8408 23.9582 35.2608 23.7722 35.7408 23.6642L39.8268 12.3062H41.6988L45.8208 23.6642ZM40.2588 14.8082L38.5128 19.8662H42.1308L40.3668 14.8082H40.2588ZM55.6505 23.6642C56.1545 23.7962 56.5865 23.9822 56.9465 24.2222L56.8205 24.9062H52.0865L51.9785 24.2222C52.1945 24.1022 52.4405 23.9942 52.7165 23.8982C53.0045 23.7902 53.2625 23.7122 53.4905 23.6642V19.6502C53.0825 19.9262 52.6085 20.1482 52.0685 20.3162C51.5285 20.4842 51.0065 20.5682 50.5025 20.5682C49.2785 20.5682 48.3365 20.2262 47.6765 19.5422C47.0165 18.8462 46.6865 17.8562 46.6865 16.5722V13.5482C46.1825 13.4162 45.7505 13.2302 45.3905 12.9902L45.5165 12.3062H49.9265L50.0525 12.9902C49.7405 13.2182 49.3385 13.4042 48.8465 13.5482V16.5722C48.8465 17.4602 49.0385 18.1382 49.4225 18.6062C49.8185 19.0622 50.3945 19.2902 51.1505 19.2902C51.5705 19.2902 51.9845 19.2122 52.3925 19.0562C52.8125 18.9002 53.1785 18.6902 53.4905 18.4262V13.5482C52.9985 13.4042 52.5965 13.2182 52.2845 12.9902L52.4105 12.3062H56.8205L56.9465 12.9902C56.5865 13.2302 56.1545 13.4162 55.6505 13.5482V23.6642ZM68.4804 23.6642C68.9604 23.7722 69.3804 23.9582 69.7404 24.2222L69.6324 24.9062H65.1144L64.9884 24.2222C65.3604 23.9582 65.7384 23.7722 66.1224 23.6642L65.2044 21.0542H60.7584L59.8584 23.6642C60.2424 23.7722 60.6204 23.9582 60.9924 24.2222L60.8664 24.9062H57.2484L57.1404 24.2222C57.5004 23.9582 57.9204 23.7722 58.4004 23.6642L62.4864 12.3062H64.3584L68.4804 23.6642ZM62.9184 14.8082L61.1724 19.8662H64.7904L63.0264 14.8082H62.9184ZM74.7582 13.5122V23.6642C75.2622 23.7962 75.6942 23.9822 76.0542 24.2222L75.9282 24.9062H71.4282L71.3022 24.2222C71.6622 23.9822 72.0942 23.7962 72.5982 23.6642V13.5122H70.1682C69.9762 14.4482 69.6642 15.2522 69.2322 15.9242L68.3502 15.7982L68.5122 12.3062H78.8442L79.0062 15.7982L78.1242 15.9242C77.6922 15.2522 77.3802 14.4482 77.1882 13.5122H74.7582ZM84.8983 17.1842C86.3983 17.1842 87.5683 17.5262 88.4083 18.2102C89.2603 18.8822 89.6863 19.8242 89.6863 21.0362C89.6863 22.2362 89.2603 23.1842 88.4083 23.8802C87.5683 24.5642 86.4043 24.9062 84.9163 24.9062H79.8403L79.7143 24.2222C80.0743 23.9822 80.5063 23.7962 81.0103 23.6642V13.5482C80.5063 13.4162 80.0743 13.2302 79.7143 12.9902L79.8403 12.3062H84.3403L84.4483 12.9902C84.0763 13.2422 83.6503 13.4282 83.1703 13.5482V17.1842H84.8983ZM84.6823 23.7902C85.5583 23.7902 86.2363 23.5502 86.7163 23.0702C87.2083 22.5782 87.4543 21.9002 87.4543 21.0362C87.4543 20.1482 87.2203 19.4702 86.7523 19.0022C86.2843 18.5342 85.5943 18.3002 84.6823 18.3002H83.1703V23.7902H84.6823ZM93.62 24.2222C93.98 23.9822 94.412 23.7962 94.916 23.6642V13.5482C94.412 13.4162 93.98 13.2302 93.62 12.9902L93.746 12.3062H98.156L98.282 12.9902C97.97 13.2182 97.568 13.4042 97.076 13.5482V23.6282H101.162V13.5482C100.658 13.3922 100.262 13.2062 99.974 12.9902L100.082 12.3062H104.384L104.51 12.9902C104.198 13.2182 103.796 13.4042 103.304 13.5482V23.6282H107.408V13.5482C106.94 13.4162 106.538 13.2302 106.202 12.9902L106.31 12.3062H110.738L110.846 12.9902C110.474 13.2422 110.048 13.4282 109.568 13.5482V23.6642C110.048 23.7842 110.474 23.9702 110.846 24.2222L110.738 24.9062H93.746L93.62 24.2222ZM116.888 12.3062C118.4 12.3062 119.576 12.6542 120.416 13.3502C121.256 14.0342 121.676 14.9942 121.676 16.2302C121.676 17.4662 121.256 18.4322 120.416 19.1282C119.576 19.8122 118.4 20.1543 116.888 20.1543H115.34V23.6642C115.568 23.7122 115.82 23.7902 116.096 23.8982C116.384 23.9942 116.636 24.1022 116.852 24.2222L116.744 24.9062H112.01L111.884 24.2222C112.244 23.9822 112.676 23.7962 113.18 23.6642V13.5482C112.676 13.4162 112.244 13.2302 111.884 12.9902L112.01 12.3062H116.888ZM116.69 19.0202C117.566 19.0202 118.244 18.7802 118.724 18.3002C119.204 17.8082 119.444 17.1182 119.444 16.2302C119.444 15.3422 119.204 14.6522 118.724 14.1602C118.244 13.6682 117.566 13.4222 116.69 13.4222H115.34V19.0202H116.69ZM122.52 24.2222C122.88 23.9822 123.312 23.7962 123.816 23.6642V13.5482C123.312 13.4162 122.88 13.2302 122.52 12.9902L122.646 12.3062H127.02L127.146 12.9902C126.75 13.2542 126.342 13.4402 125.922 13.5482V21.3062H126.03L131.466 13.6742V13.5482C131.262 13.5002 131.046 13.4222 130.818 13.3142C130.59 13.2062 130.398 13.0982 130.242 12.9902L130.35 12.3062H134.742L134.85 12.9902C134.694 13.0982 134.496 13.2062 134.256 13.3142C134.028 13.4102 133.8 13.4882 133.572 13.5482V23.6642C133.8 23.7242 134.028 23.8082 134.256 23.9162C134.496 24.0122 134.694 24.1142 134.85 24.2222L134.742 24.9062H130.35L130.242 24.2222C130.398 24.1142 130.59 24.0062 130.818 23.8982C131.046 23.7902 131.262 23.7122 131.466 23.6642V15.9062H131.34L125.922 23.5382V23.6642C126.342 23.7722 126.75 23.9582 127.146 24.2222L127.02 24.9062H122.646L122.52 24.2222ZM149.775 18.4802C149.775 19.4162 149.547 20.2562 149.091 21.0002C148.647 21.7322 147.975 22.3142 147.075 22.7462C146.187 23.1662 145.101 23.3762 143.817 23.3762V23.9522C144.273 24.0722 144.699 24.2642 145.095 24.5282L144.987 25.2123H140.577L140.451 24.5282C140.619 24.4082 140.823 24.2942 141.063 24.1862C141.303 24.0782 141.531 24.0002 141.747 23.9522V23.3762C140.439 23.3762 139.335 23.1722 138.435 22.7642C137.547 22.3562 136.881 21.8042 136.437 21.1082C135.993 20.4002 135.771 19.6082 135.771 18.7322C135.771 17.7962 135.993 16.9622 136.437 16.2302C136.893 15.4862 137.571 14.9042 138.471 14.4842C139.371 14.0522 140.463 13.8362 141.747 13.8362V13.2602C141.531 13.2122 141.303 13.1342 141.063 13.0262C140.823 12.9182 140.619 12.8042 140.451 12.6842L140.577 12.0002H144.987L145.095 12.6842C144.699 12.9482 144.273 13.1402 143.817 13.2602V13.8362C145.113 13.8362 146.205 14.0402 147.093 14.4482C147.993 14.8562 148.665 15.4142 149.109 16.1222C149.553 16.8182 149.775 17.6042 149.775 18.4802ZM137.985 18.6602C137.985 19.8242 138.303 20.7182 138.939 21.3422C139.575 21.9542 140.529 22.2603 141.801 22.2603V14.9522C140.553 14.9522 139.605 15.2762 138.957 15.9242C138.309 16.5722 137.985 17.4842 137.985 18.6602ZM147.561 18.5522C147.561 17.3882 147.243 16.5002 146.607 15.8882C145.983 15.2642 145.029 14.9522 143.745 14.9522V22.2603C144.993 22.2603 145.941 21.9362 146.589 21.2882C147.237 20.6402 147.561 19.7282 147.561 18.5522ZM156.396 13.5122V23.6642C156.9 23.7962 157.332 23.9822 157.692 24.2222L157.566 24.9062H153.066L152.94 24.2222C153.3 23.9822 153.732 23.7962 154.236 23.6642V13.5122H151.806C151.614 14.4482 151.302 15.2522 150.87 15.9242L149.988 15.7982L150.15 12.3062H160.482L160.644 15.7982L159.762 15.9242C159.33 15.2522 159.018 14.4482 158.826 13.5122H156.396Z"/>
</mask>
<path d="M22.044 20.8922L34.0363 20.4618C33.8145 14.283 28.9344 9.28409 22.7627 8.91379L22.044 20.8922ZM22.17 24.4022L27.6737 35.0657C31.8015 32.9352 34.3289 28.6139 34.1623 23.9718L22.17 24.4022ZM20.532 24.8882L18.3681 13.085L20.532 24.8882ZM15.042 24.2942L9.1589 34.7532C9.19218 34.7719 9.22555 34.7904 9.25901 34.8088L15.042 24.2942ZM12.792 22.0622L2.27744 27.8453C2.30624 27.8976 2.33542 27.9498 2.365 28.0017L12.792 22.0622ZM12.792 15.3302L2.21427 9.6636C2.19671 9.69637 2.17931 9.72923 2.16205 9.76217L12.792 15.3302ZM15.042 12.9722L21.1206 23.3188L21.1206 23.3188L15.042 12.9722ZM20.55 12.3242L22.6796 0.514726L22.6796 0.514724L20.55 12.3242ZM22.26 12.8462L34.2357 13.6107C34.5364 8.89943 32.0469 4.4496 27.8747 2.24079L22.26 12.8462ZM22.044 16.2302L22.7773 28.2078C28.8155 27.8381 33.6343 23.0318 34.0197 16.9947L22.044 16.2302ZM21.162 16.2842L10.7082 22.1764C12.9645 26.1795 17.3087 28.5426 21.8953 28.2618L21.162 16.2842ZM20.424 13.6022L32.3567 12.3328C31.8998 8.03775 29.1698 4.31962 25.2087 2.59741L20.424 13.6022ZM16.248 13.9082L23.0785 23.7746C23.1209 23.7452 23.1631 23.7156 23.2051 23.6857L16.248 13.9082ZM14.808 15.7802L25.8801 20.4074C25.8881 20.388 25.8962 20.3686 25.9042 20.3492L14.808 15.7802ZM14.808 21.4502L3.71189 26.0192C3.71988 26.0386 3.72792 26.058 3.736 26.0774L14.808 21.4502ZM16.248 23.3222L9.29097 33.0997C9.33296 33.1296 9.37514 33.1592 9.41751 33.1886L16.248 23.3222ZM20.442 23.6282L25.1993 34.645C29.1463 32.9406 31.8799 29.2549 32.3653 24.9832L20.442 23.6282ZM20.712 22.0982L32.3703 24.9417L32.3703 24.9417L20.712 22.0982ZM21.144 20.8382L21.8627 8.85979C17.0054 8.56835 12.4529 11.2391 10.3374 15.6213L21.144 20.8382ZM22.044 20.8922L10.0518 21.3227L10.1778 24.8327L22.17 24.4022L34.1623 23.9718L34.0363 20.4618L22.044 20.8922ZM22.17 24.4022L16.6663 13.7388C17.3391 13.3916 17.8583 13.2257 18.0682 13.1634C18.3024 13.094 18.4186 13.0757 18.3681 13.085L20.532 24.8882L22.696 36.6915C23.8481 36.4803 25.7484 36.0594 27.6737 35.0657L22.17 24.4022ZM20.532 24.8882L18.3681 13.085C18.3692 13.0848 18.3687 13.0849 18.3654 13.0852C18.3621 13.0855 18.3527 13.0863 18.336 13.0863V25.0863V37.0863C19.7939 37.0863 21.2505 36.9565 22.696 36.6915L20.532 24.8882ZM18.336 25.0863V13.0863C18.8589 13.0863 19.7962 13.2138 20.8251 13.7797L15.042 24.2942L9.25901 34.8088C12.2078 36.4307 15.3411 37.0863 18.336 37.0863V25.0863ZM15.042 24.2942L20.9252 13.8353C21.8424 14.3513 22.6713 15.1612 23.2191 16.1228L12.792 22.0622L2.365 28.0017C3.99272 30.8593 6.3217 33.1572 9.1589 34.7532L15.042 24.2942ZM12.792 22.0622L23.3066 16.2792C23.8631 17.291 24 18.2295 24 18.7862H12H3.12999e-05C3.12999e-05 21.791 0.664955 24.9135 2.27744 27.8453L12.792 22.0622ZM12 18.7862H24C24 19.1579 23.9121 19.9626 23.422 20.8983L12.792 15.3302L2.16205 9.76217C0.615923 12.7139 3.12999e-05 15.8226 3.12999e-05 18.7862H12ZM12.792 15.3302L23.3698 20.9969C22.8981 21.8773 22.1152 22.7345 21.1206 23.3188L15.042 12.9722L8.96344 2.62571C6.04887 4.33803 3.76592 6.76718 2.21427 9.6636L12.792 15.3302ZM15.042 12.9722L21.1206 23.3188C20.0402 23.9535 18.9959 24.1262 18.336 24.1262V12.1262V0.126249C15.2042 0.126249 11.9638 0.862987 8.96344 2.62571L15.042 12.9722ZM18.336 12.1262V24.1262C18.3661 24.1262 18.3914 24.1285 18.4204 24.1338L20.55 12.3242L22.6796 0.514724C21.2447 0.255961 19.794 0.126249 18.336 0.126249V12.1262ZM20.55 12.3242L18.4204 24.1338C18.4196 24.1336 18.3857 24.1275 18.3232 24.1128C18.2613 24.0983 18.1589 24.0724 18.023 24.0309C17.7766 23.9557 17.2773 23.7862 16.6454 23.4517L22.26 12.8462L27.8747 2.24079C25.9144 1.203 23.9811 0.749413 22.6796 0.514726L20.55 12.3242ZM22.26 12.8462L10.2844 12.0818L10.0684 15.4658L22.044 16.2302L34.0197 16.9947L34.2357 13.6107L22.26 12.8462ZM22.044 16.2302L21.3107 4.25268L20.4287 4.30668L21.162 16.2842L21.8953 28.2618L22.7773 28.2078L22.044 16.2302ZM21.162 16.2842L31.6159 10.3921C32.0042 11.081 32.1871 11.6391 32.2685 11.9351C32.3512 12.2356 32.3625 12.3871 32.3567 12.3328L20.424 13.6022L8.49137 14.8717C8.70622 16.8913 9.23676 19.5658 10.7082 22.1764L21.162 16.2842ZM20.424 13.6022L25.2087 2.59741C22.7921 1.54669 20.4214 1.24225 18.444 1.24225V13.2422V25.2422C18.0027 25.2422 16.952 25.1778 15.6393 24.6071L20.424 13.6022ZM18.444 13.2422V1.24225C15.3639 1.24225 12.144 2.10074 9.29097 4.13076L16.248 13.9082L23.2051 23.6857C21.6001 24.8278 19.8441 25.2422 18.444 25.2422V13.2422ZM16.248 13.9082L9.41752 4.04194C6.59704 5.99458 4.78261 8.61095 3.71189 11.2113L14.808 15.7802L25.9042 20.3492C25.5055 21.3176 24.651 22.6859 23.0785 23.7746L16.248 13.9082ZM14.808 15.7802L3.736 11.1531C2.65979 13.7284 2.30403 16.3061 2.30403 18.6062H14.304H26.304C26.304 18.7464 26.2843 19.4401 25.8801 20.4074L14.808 15.7802ZM14.304 18.6062H2.30403C2.30403 20.9126 2.66169 23.4688 3.71189 26.0192L14.808 21.4502L25.9042 16.8813C26.2824 17.7997 26.304 18.4599 26.304 18.6062H14.304ZM14.808 21.4502L3.736 26.0774C4.81399 28.6568 6.5998 31.1849 9.29097 33.0997L16.248 23.3222L23.2051 13.5448C24.6483 14.5716 25.4741 15.8517 25.8801 16.8231L14.808 21.4502ZM16.248 23.3222L9.41751 33.1886C12.261 35.1572 15.4353 35.9702 18.444 35.9702V23.9702V11.9702C19.7728 11.9702 21.483 12.3513 23.0786 13.4559L16.248 23.3222ZM18.444 23.9702V35.9702C20.2777 35.9702 22.6976 35.7253 25.1993 34.645L20.442 23.6282L15.6848 12.6115C17.1305 11.9872 18.2184 11.9702 18.444 11.9702V23.9702ZM20.442 23.6282L32.3653 24.9832C32.3711 24.9319 32.3755 24.9202 32.3703 24.9417L20.712 22.0982L9.05379 19.2548C8.80854 20.2603 8.63295 21.2686 8.51877 22.2733L20.442 23.6282ZM20.712 22.0982L32.3703 24.9417C32.3483 25.0318 32.2417 25.4523 31.9507 26.0552L21.144 20.8382L10.3374 15.6213C9.71033 16.9202 9.31575 18.1807 9.05379 19.2548L20.712 22.0982ZM21.144 20.8382L20.4253 32.8167L21.3253 32.8707L22.044 20.8922L22.7627 8.91379L21.8627 8.85979L21.144 20.8382ZM33.6467 23.6642L24.3964 31.3083C26.0975 33.3668 28.4366 34.7992 31.0436 35.3785L33.6467 23.6642ZM34.3307 23.8982L29.4063 34.8413L29.4064 34.8413L34.3307 23.8982ZM34.9427 24.2222L46.7959 26.0938C47.5379 21.3946 45.4337 16.7007 41.4318 14.1281L34.9427 24.2222ZM34.8347 24.9062V36.9062C40.7396 36.9062 45.7669 32.6104 46.6879 26.7778L34.8347 24.9062ZM31.9907 24.9062L22.7146 32.519C24.994 35.2964 28.3978 36.9062 31.9907 36.9062V24.9062ZM28.3367 19.2182L39.1074 13.9274C37.1414 9.92519 33.1183 7.3431 28.6609 7.22263L28.3367 19.2182ZM27.0047 19.1822L27.3289 7.18663C24.0913 7.09913 20.9558 8.32407 18.6348 10.5831C16.3139 12.8421 15.0047 15.9434 15.0047 19.1822L27.0047 19.1822ZM27.0047 23.6642H15.0047C15.0047 29.1407 18.7124 33.9223 24.0162 35.2862L27.0047 23.6642ZM28.2287 24.2222L40.0819 26.0938C40.8126 21.4661 38.7833 16.8364 34.8851 14.2376L28.2287 24.2222ZM28.1207 24.9062V36.9062C34.0256 36.9062 39.0529 32.6104 39.9739 26.7778L28.1207 24.9062ZM23.6747 24.9062L11.8733 27.0802C12.922 32.7734 17.8858 36.9062 23.6747 36.9062L23.6747 24.9062ZM23.5487 24.2222L16.8923 14.2376C12.9016 16.8981 10.8784 21.6793 11.7473 26.3962L23.5487 24.2222ZM24.8447 23.6642L27.885 35.2727C33.1635 33.8903 36.8447 29.1207 36.8447 23.6642L24.8447 23.6642ZM24.8447 13.5482H36.8447C36.8447 8.09177 33.1635 3.32223 27.885 1.93978L24.8447 13.5482ZM23.5487 12.9902L11.7473 10.8163C10.8784 15.5332 12.9016 20.3144 16.8923 22.9748L23.5487 12.9902ZM23.6747 12.3062V0.306249C17.8858 0.306249 12.922 4.43913 11.8733 10.1323L23.6747 12.3062ZM28.1207 12.3062L39.9739 10.4347C39.0529 4.60207 34.0256 0.306249 28.1207 0.306249L28.1207 12.3062ZM28.2287 12.9902L34.8851 22.9748C38.7833 20.3761 40.8126 15.7463 40.0819 11.1187L28.2287 12.9902ZM27.0047 13.5482L24.0162 1.92633C18.7124 3.29018 15.0047 8.07185 15.0047 13.5482L27.0047 13.5482ZM27.0047 17.9942H15.0047C15.0047 21.4609 16.5039 24.7581 19.1162 27.037C21.7286 29.3159 25.1988 30.3537 28.6333 29.8832L27.0047 17.9942ZM28.3187 17.8142L29.9473 29.7032C33.4033 29.2298 36.4821 27.2761 38.3822 24.3508L28.3187 17.8142ZM30.8207 13.9622L40.8842 20.4988C40.9021 20.4713 40.9198 20.4437 40.9375 20.416L30.8207 13.9622ZM33.7367 12.2162L30.1574 23.67L30.1574 23.67L33.7367 12.2162ZM34.2047 12.4322H46.2047C46.2047 8.51649 44.2942 4.84703 41.0863 2.60148L34.2047 12.4322ZM34.2047 14.3223V26.3223C40.8321 26.3223 46.2047 20.9497 46.2047 14.3223L34.2047 14.3223ZM32.0267 14.3223V2.32225C28.0553 2.32225 24.3411 4.28714 22.1065 7.57027L32.0267 14.3223ZM29.6867 17.7602L19.7665 11.0083C17.3024 14.6287 17.0062 19.3039 18.9937 23.2064L29.6867 17.7602ZM33.6467 23.6642L31.0436 35.3785C30.3284 35.2196 29.7762 35.0077 29.4063 34.8413L34.3307 23.8982L39.2551 12.9552C38.4053 12.5728 37.397 12.2049 36.2499 11.95L33.6467 23.6642ZM34.3307 23.8982L29.4064 34.8413C29.2639 34.7772 28.9136 34.6121 28.4536 34.3164L34.9427 24.2222L41.4318 14.1281C40.6358 13.6164 39.8775 13.2353 39.2551 12.9552L34.3307 23.8982ZM34.9427 24.2222L23.0896 22.3507L22.9816 23.0347L34.8347 24.9062L46.6879 26.7778L46.7959 26.0938L34.9427 24.2222ZM34.8347 24.9062V12.9063H31.9907V24.9062V36.9062H34.8347V24.9062ZM31.9907 24.9062L41.2668 17.2935C40.4338 16.2785 39.7146 15.1636 39.1074 13.9274L28.3367 19.2182L17.5661 24.5091C18.9748 27.3769 20.6916 30.054 22.7146 32.519L31.9907 24.9062ZM28.3367 19.2182L28.6609 7.22263L27.3289 7.18663L27.0047 19.1822L26.6805 31.1779L28.0125 31.2139L28.3367 19.2182ZM27.0047 19.1822H15.0047V23.6642H27.0047H39.0047V19.1822H27.0047ZM27.0047 23.6642L24.0162 35.2862C23.0092 35.0272 22.1893 34.6182 21.5723 34.2069L28.2287 24.2222L34.8851 14.2376C33.4762 13.2983 31.8403 12.5173 29.9932 12.0423L27.0047 23.6642ZM28.2287 24.2222L16.3756 22.3507L16.2676 23.0347L28.1207 24.9062L39.9739 26.7778L40.0819 26.0938L28.2287 24.2222ZM28.1207 24.9062V12.9062H23.6747V24.9062V36.9062H28.1207V24.9062ZM23.6747 24.9062L35.4762 22.7323L35.3502 22.0483L23.5487 24.2222L11.7473 26.3962L11.8733 27.0802L23.6747 24.9062ZM23.5487 24.2222L30.2051 34.2069C29.2585 34.838 28.4134 35.1343 27.885 35.2727L24.8447 23.6642L21.8044 12.0558C20.268 12.4582 18.559 13.1265 16.8923 14.2376L23.5487 24.2222ZM24.8447 23.6642H36.8447V13.5482H24.8447H12.8447V23.6642H24.8447ZM24.8447 13.5482L27.885 1.93978C28.4134 2.07817 29.2585 2.37454 30.2051 3.00565L23.5487 12.9902L16.8923 22.9748C18.559 24.086 20.268 24.7543 21.8044 25.1567L24.8447 13.5482ZM23.5487 12.9902L35.3502 15.1642L35.4762 14.4802L23.6747 12.3062L11.8733 10.1323L11.7473 10.8163L23.5487 12.9902ZM23.6747 12.3062V24.3062H28.1207V12.3062V0.306249H23.6747V12.3062ZM28.1207 12.3062L16.2676 14.1778L16.3756 14.8618L28.2287 12.9902L40.0819 11.1187L39.9739 10.4347L28.1207 12.3062ZM28.2287 12.9902L21.5723 3.00565C22.1893 2.59434 23.0092 2.18529 24.0162 1.92633L27.0047 13.5482L29.9932 25.1702C31.8403 24.6952 33.4762 23.9142 34.8851 22.9748L28.2287 12.9902ZM27.0047 13.5482H15.0047V17.9942H27.0047H39.0047V13.5482H27.0047ZM27.0047 17.9942L28.6333 29.8832L29.9473 29.7032L28.3187 17.8142L26.6901 5.92528L25.3761 6.10528L27.0047 17.9942ZM28.3187 17.8142L38.3822 24.3508L40.8842 20.4988L30.8207 13.9622L20.7572 7.4257L18.2552 11.2777L28.3187 17.8142ZM30.8207 13.9622L40.9375 20.416C41.0019 20.3151 40.96 20.3918 40.8121 20.5766C40.7338 20.6745 40.6004 20.8346 40.4115 21.0331C40.2266 21.2274 39.9407 21.509 39.5528 21.8251L31.9727 12.5222L24.3926 3.21943C22.5229 4.7429 21.3017 6.57156 20.704 7.50846L30.8207 13.9622ZM31.9727 12.5222L39.5528 21.8251C37.5362 23.4682 35.1796 24.1262 33.1427 24.1262V12.1262V0.126249C30.1938 0.126249 27.0572 1.04828 24.3926 3.21943L31.9727 12.5222ZM33.1427 12.1262V24.1262C32.1503 24.1262 31.1405 23.9772 30.1574 23.67L33.7367 12.2162L37.316 0.76249C35.9489 0.335272 34.5432 0.126249 33.1427 0.126249V12.1262ZM33.7367 12.2162L30.1574 23.67C29.5784 23.4891 28.5121 23.0953 27.3231 22.263L34.2047 12.4322L41.0863 2.60148C39.6574 1.60123 38.279 1.06342 37.316 0.762486L33.7367 12.2162ZM34.2047 12.4322H22.2047V14.3223H34.2047H46.2047V12.4322H34.2047ZM34.2047 14.3223V2.32225H32.0267V14.3223V26.3223H34.2047V14.3223ZM32.0267 14.3223L22.1065 7.57027L19.7665 11.0083L29.6867 17.7602L39.6069 24.5122L41.9469 21.0742L32.0267 14.3223ZM29.6867 17.7602L18.9937 23.2064C20.4462 26.0582 22.2873 28.756 24.3964 31.3083L33.6467 23.6642L42.8971 16.0202C41.6941 14.5645 40.8952 13.3263 40.3797 12.3141L29.6867 17.7602ZM45.8208 23.6642L34.5406 27.758C35.9363 31.6038 39.1952 34.4735 43.1866 35.3716L45.8208 23.6642ZM47.0808 24.2222L58.9339 26.0938C59.6344 21.6575 57.7989 17.2014 54.1771 14.5454L47.0808 24.2222ZM46.9728 24.9062V36.9062C52.8777 36.9062 57.905 32.6104 58.8259 26.7778L46.9728 24.9062ZM42.4548 24.9062L30.6533 27.0802C31.7021 32.7734 36.6658 36.9062 42.4548 36.9062V24.9062ZM42.3288 24.2222L35.3838 14.4362C31.576 17.1385 29.6814 21.8042 30.5273 26.3962L42.3288 24.2222ZM43.4628 23.6642L46.7117 35.2161C49.9038 34.3183 52.5822 32.1396 54.1111 29.1972C55.64 26.2547 55.8832 22.8108 54.783 19.6827L43.4628 23.6642ZM42.5448 21.0542L53.865 17.0727C52.1753 12.2686 47.6373 9.05425 42.5448 9.05425V21.0542ZM38.0988 21.0542V9.05425C32.9791 9.05425 28.4233 12.3024 26.7543 17.1424L38.0988 21.0542ZM37.1988 23.6642L25.8543 19.7524C24.7775 22.8751 25.0355 26.3035 26.5675 29.2299C28.0995 32.1563 30.77 34.3217 33.9498 35.2161L37.1988 23.6642ZM38.3328 24.2222L50.1342 26.3962C50.9801 21.8042 49.0855 17.1385 45.2777 14.4362L38.3328 24.2222ZM38.2068 24.9062V36.9062C43.9957 36.9062 48.9595 32.7734 50.0082 27.0802L38.2068 24.9062ZM34.5888 24.9062L22.7356 26.7778C23.6566 32.6104 28.6839 36.9062 34.5888 36.9062V24.9062ZM34.4808 24.2222L27.3844 14.5454C23.7626 17.2014 21.9271 21.6575 22.6276 26.0938L34.4808 24.2222ZM35.7408 23.6642L38.3749 35.3716C42.378 34.4709 45.6434 31.5873 47.0323 27.7263L35.7408 23.6642ZM39.8268 12.3062V0.306249C34.7656 0.306249 30.2485 3.48174 28.5352 8.24415L39.8268 12.3062ZM41.6988 12.3062L52.9789 8.21251C51.2565 3.46651 46.7476 0.306249 41.6988 0.306249V12.3062ZM40.2588 14.8082V2.80825C35.1405 2.80825 30.5857 6.05455 28.9156 10.8926L40.2588 14.8082ZM38.5128 19.8662L27.1696 15.9506C25.9036 19.6181 26.4889 23.6714 28.7407 26.8309C30.9925 29.9904 34.6329 31.8662 38.5128 31.8662V19.8662ZM42.1308 19.8662V31.8662C46.0173 31.8662 49.6632 29.9839 51.9139 26.8154C54.1646 23.6468 54.7413 19.5844 53.4615 15.9146L42.1308 19.8662ZM40.3668 14.8082L51.6975 10.8566C50.0166 6.03709 45.471 2.80825 40.3668 2.80825V14.8082ZM45.8208 23.6642L43.1866 35.3716C42.2208 35.1543 41.0866 34.7074 39.9844 33.8991L47.0808 24.2222L54.1771 14.5454C52.355 13.2091 50.3807 12.3902 48.4549 11.9569L45.8208 23.6642ZM47.0808 24.2222L35.2276 22.3507L35.1196 23.0347L46.9728 24.9062L58.8259 26.7778L58.9339 26.0938L47.0808 24.2222ZM46.9728 24.9062V12.9062H42.4548V24.9062V36.9062H46.9728V24.9062ZM42.4548 24.9062L54.2562 22.7323L54.1302 22.0483L42.3288 24.2222L30.5273 26.3962L30.6533 27.0802L42.4548 24.9062ZM42.3288 24.2222L49.2737 34.0083C48.6828 34.4277 47.827 34.9024 46.7117 35.2161L43.4628 23.6642L40.2138 12.1124C38.3305 12.6421 36.7188 13.4888 35.3838 14.4362L42.3288 24.2222ZM43.4628 23.6642L54.783 19.6827L53.865 17.0727L42.5448 21.0542L31.2246 25.0358L32.1426 27.6458L43.4628 23.6642ZM42.5448 21.0542V9.05425H38.0988V21.0542V33.0542H42.5448V21.0542ZM38.0988 21.0542L26.7543 17.1424L25.8543 19.7524L37.1988 23.6642L48.5432 27.5761L49.4432 24.9661L38.0988 21.0542ZM37.1988 23.6642L33.9498 35.2161C32.8345 34.9024 31.9788 34.4277 31.3878 34.0083L38.3328 24.2222L45.2777 14.4362C43.9428 13.4888 42.331 12.6421 40.4477 12.1124L37.1988 23.6642ZM38.3328 24.2222L26.5313 22.0483L26.4053 22.7323L38.2068 24.9062L50.0082 27.0802L50.1342 26.3962L38.3328 24.2222ZM38.2068 24.9062V12.9062H34.5888V24.9062V36.9062H38.2068V24.9062ZM34.5888 24.9062L46.4419 23.0347L46.3339 22.3507L34.4808 24.2222L22.6276 26.0938L22.7356 26.7778L34.5888 24.9062ZM34.4808 24.2222L41.5771 33.8991C40.475 34.7074 39.3407 35.1543 38.3749 35.3716L35.7408 23.6642L33.1066 11.9569C31.1808 12.3902 29.2066 13.2091 27.3844 14.5454L34.4808 24.2222ZM35.7408 23.6642L47.0323 27.7263L51.1183 16.3683L39.8268 12.3062L28.5352 8.24415L24.4492 19.6022L35.7408 23.6642ZM39.8268 12.3062V24.3062H41.6988V12.3062V0.306249H39.8268V12.3062ZM41.6988 12.3062L30.4186 16.4L34.5406 27.758L45.8208 23.6642L57.1009 19.5705L52.9789 8.21251L41.6988 12.3062ZM40.2588 14.8082L28.9156 10.8926L27.1696 15.9506L38.5128 19.8662L49.856 23.7819L51.602 18.7239L40.2588 14.8082ZM38.5128 19.8662V31.8662H42.1308V19.8662V7.86625H38.5128V19.8662ZM42.1308 19.8662L53.4615 15.9146L51.6975 10.8566L40.3668 14.8082L29.0361 18.7599L30.8001 23.8179L42.1308 19.8662ZM40.3668 14.8082V2.80825H40.2588V14.8082V26.8082H40.3668V14.8082ZM55.6505 23.6642H43.6505C43.6505 29.1207 47.3317 33.8903 52.6101 35.2727L55.6505 23.6642ZM56.9465 24.2222L68.7479 26.3962C69.6168 21.6793 67.5936 16.8981 63.6029 14.2376L56.9465 24.2222ZM56.8205 24.9062V36.9062C62.6094 36.9062 67.5732 32.7734 68.6219 27.0802L56.8205 24.9062ZM52.0865 24.9062L40.2333 26.7778C41.1542 32.6104 46.1816 36.9062 52.0865 36.9062V24.9062ZM51.9785 24.2222L46.1507 13.7324C41.7463 16.1793 39.3395 21.117 40.1253 26.0938L51.9785 24.2222ZM52.7165 23.8982L56.6587 35.2322C56.7495 35.2006 56.8399 35.168 56.9299 35.1342L52.7165 23.8982ZM53.4905 23.6642L55.9626 35.4068C61.5155 34.2378 65.4905 29.3389 65.4905 23.6642L53.4905 23.6642ZM53.4905 19.6502H65.4905C65.4905 15.2102 63.0387 11.1329 59.117 9.05109C55.1952 6.96923 50.4444 7.22302 46.7667 9.71085L53.4905 19.6502ZM52.0685 20.3162L48.5037 8.85797L48.5037 8.85797L52.0685 20.3162ZM47.6765 19.5422L38.969 27.7993C38.9929 27.8246 39.0169 27.8497 39.041 27.8747L47.6765 19.5422ZM46.6865 13.5482H58.6865C58.6865 8.09177 55.0052 3.32223 49.7268 1.93978L46.6865 13.5482ZM45.3905 12.9902L33.589 10.8163C32.7201 15.5332 34.7433 20.3144 38.734 22.9748L45.3905 12.9902ZM45.5165 12.3062V0.306249C39.7275 0.306249 34.7638 4.43913 33.715 10.1323L45.5165 12.3062ZM49.9265 12.3062L61.7279 10.1323C60.6791 4.43913 55.7154 0.306249 49.9265 0.306249V12.3062ZM50.0525 12.9902L57.1327 22.6789C60.854 19.9595 62.6889 15.3491 61.8539 10.8163L50.0525 12.9902ZM48.8465 13.5482L45.4757 2.0314C40.3611 3.52835 36.8465 8.21907 36.8465 13.5482H48.8465ZM49.4225 18.6062L40.1456 26.218C40.2165 26.3045 40.2887 26.39 40.3621 26.4745L49.4225 18.6062ZM52.3925 19.0562L48.2142 7.80715C48.1783 7.82047 48.1425 7.83396 48.1068 7.84763L52.3925 19.0562ZM53.4905 18.4262L61.2418 27.5869C63.9364 25.3068 65.4905 21.9561 65.4905 18.4262H53.4905ZM53.4905 13.5482H65.4905C65.4905 8.21907 61.9758 3.52835 56.8612 2.0314L53.4905 13.5482ZM52.2845 12.9902L40.483 10.8163C39.648 15.3491 41.483 19.9595 45.2042 22.6789L52.2845 12.9902ZM52.4105 12.3062V0.306249C46.6215 0.306249 41.6578 4.43913 40.609 10.1323L52.4105 12.3062ZM56.8205 12.3062L68.6219 10.1323C67.5732 4.43913 62.6094 0.306249 56.8205 0.306249V12.3062ZM56.9465 12.9902L63.6029 22.9748C67.5936 20.3144 69.6168 15.5332 68.7479 10.8163L56.9465 12.9902ZM55.6505 13.5482L52.6102 1.93978C47.3317 3.32223 43.6505 8.09177 43.6505 13.5482H55.6505ZM55.6505 23.6642L52.6101 35.2727C52.0818 35.1343 51.2367 34.838 50.29 34.2069L56.9465 24.2222L63.6029 14.2376C61.9362 13.1265 60.2271 12.4582 58.6908 12.0558L55.6505 23.6642ZM56.9465 24.2222L45.145 22.0483L45.019 22.7323L56.8205 24.9062L68.6219 27.0802L68.7479 26.3962L56.9465 24.2222ZM56.8205 24.9062V12.9062H52.0865V24.9062V36.9062H56.8205V24.9062ZM52.0865 24.9062L63.9396 23.0347L63.8316 22.3507L51.9785 24.2222L40.1253 26.0938L40.2333 26.7778L52.0865 24.9062ZM51.9785 24.2222L57.8062 34.7121C57.3219 34.9812 56.9201 35.1413 56.6587 35.2322L52.7165 23.8982L48.7742 12.5643C47.9609 12.8472 47.067 13.2233 46.1507 13.7324L51.9785 24.2222ZM52.7165 23.8982L56.9299 35.1342C56.819 35.1758 56.4798 35.298 55.9626 35.4068L53.4905 23.6642L51.0183 11.9217C50.0451 12.1265 49.1899 12.4047 48.503 12.6623L52.7165 23.8982ZM53.4905 23.6642H65.4905V19.6502H53.4905H41.4905V23.6642H53.4905ZM53.4905 19.6502L46.7667 9.71085C47.4633 9.23963 48.0846 8.98834 48.5037 8.85797L52.0685 20.3162L55.6333 31.7745C57.1323 31.3082 58.7016 30.6129 60.2142 29.5897L53.4905 19.6502ZM52.0685 20.3162L48.5037 8.85797C48.9789 8.71012 49.6603 8.56825 50.5025 8.56825V20.5682V32.5682C52.3526 32.5682 54.078 32.2584 55.6333 31.7745L52.0685 20.3162ZM50.5025 20.5682V8.56825C51.5498 8.56825 54.107 8.92475 56.3119 11.2098L47.6765 19.5422L39.041 27.8747C42.5659 31.5278 47.0071 32.5682 50.5025 32.5682V20.5682ZM47.6765 19.5422L56.3839 11.2852C58.4718 13.4869 58.6865 15.8487 58.6865 16.5722H46.6865H34.6865C34.6865 19.8638 35.5611 24.2056 38.969 27.7993L47.6765 19.5422ZM46.6865 16.5722H58.6865V13.5482H46.6865H34.6865V16.5722H46.6865ZM46.6865 13.5482L49.7268 1.93978C50.2551 2.07817 51.1002 2.37454 52.0469 3.00565L45.3905 12.9902L38.734 22.9748C40.4007 24.086 42.1098 24.7543 43.6461 25.1567L46.6865 13.5482ZM45.3905 12.9902L57.1919 15.1642L57.3179 14.4802L45.5165 12.3062L33.715 10.1323L33.589 10.8163L45.3905 12.9902ZM45.5165 12.3062V24.3062H49.9265V12.3062V0.306249H45.5165V12.3062ZM49.9265 12.3062L38.125 14.4802L38.251 15.1642L50.0525 12.9902L61.8539 10.8163L61.7279 10.1323L49.9265 12.3062ZM50.0525 12.9902L42.9722 3.30157C44.081 2.49135 45.0443 2.15766 45.4757 2.0314L48.8465 13.5482L52.2172 25.0651C53.6326 24.6508 55.4 23.9452 57.1327 22.6789L50.0525 12.9902ZM48.8465 13.5482H36.8465V16.5722H48.8465H60.8465V13.5482H48.8465ZM48.8465 16.5722H36.8465C36.8465 18.9797 37.3415 22.8006 40.1456 26.218L49.4225 18.6062L58.6993 10.9945C60.7354 13.4759 60.8465 15.9408 60.8465 16.5722H48.8465ZM49.4225 18.6062L40.3621 26.4745C43.5916 30.1933 47.8639 31.2902 51.1505 31.2902V19.2902V7.29025C51.961 7.29025 53.1777 7.41121 54.568 7.96157C56.0216 8.53693 57.3858 9.47474 58.4829 10.738L49.4225 18.6062ZM51.1505 19.2902V31.2902C53.0937 31.2902 54.9574 30.9228 56.6781 30.2649L52.3925 19.0562L48.1068 7.84763C49.0115 7.50172 50.0472 7.29025 51.1505 7.29025V19.2902ZM52.3925 19.0562L56.5707 30.3054C58.1685 29.7119 59.7713 28.8311 61.2418 27.5869L53.4905 18.4262L45.7391 9.26561C46.5856 8.54939 47.4564 8.08862 48.2142 7.80715L52.3925 19.0562ZM53.4905 18.4262H65.4905V13.5482H53.4905H41.4905V18.4262H53.4905ZM53.4905 13.5482L56.8612 2.0314C57.2926 2.15766 58.256 2.49135 59.3647 3.30157L52.2845 12.9902L45.2042 22.6789C46.937 23.9452 48.7043 24.6508 50.1197 25.0651L53.4905 13.5482ZM52.2845 12.9902L64.0859 15.1642L64.2119 14.4802L52.4105 12.3062L40.609 10.1323L40.483 10.8163L52.2845 12.9902ZM52.4105 12.3062V24.3062H56.8205V12.3062V0.306249H52.4105V12.3062ZM56.8205 12.3062L45.019 14.4802L45.145 15.1642L56.9465 12.9902L68.7479 10.8163L68.6219 10.1323L56.8205 12.3062ZM56.9465 12.9902L50.29 3.00565C51.2367 2.37454 52.0818 2.07817 52.6102 1.93978L55.6505 13.5482L58.6908 25.1567C60.2271 24.7543 61.9362 24.086 63.6029 22.9748L56.9465 12.9902ZM55.6505 13.5482H43.6505V23.6642H55.6505H67.6505V13.5482H55.6505ZM68.4804 23.6642L57.2002 27.758C58.5959 31.6038 61.8548 34.4735 65.8462 35.3716L68.4804 23.6642ZM69.7404 24.2222L81.5935 26.0938C82.294 21.6575 80.4585 17.2014 76.8367 14.5454L69.7404 24.2222ZM69.6324 24.9062V36.9062C75.5373 36.9062 80.5646 32.6104 81.4855 26.7778L69.6324 24.9062ZM65.1144 24.9062L53.3129 27.0802C54.3617 32.7734 59.3254 36.9062 65.1144 36.9062V24.9062ZM64.9884 24.2222L58.0434 14.4362C54.2356 17.1385 52.341 21.8042 53.1869 26.3962L64.9884 24.2222ZM66.1224 23.6642L69.3713 35.2161C72.5634 34.3183 75.2418 32.1396 76.7707 29.1972C78.2996 26.2547 78.5428 22.8108 77.4426 19.6827L66.1224 23.6642ZM65.2044 21.0542L76.5246 17.0727C74.8349 12.2686 70.2969 9.05425 65.2044 9.05425V21.0542ZM60.7584 21.0542V9.05425C55.6387 9.05425 51.0829 12.3024 49.4139 17.1424L60.7584 21.0542ZM59.8584 23.6642L48.5139 19.7524C47.4371 22.8751 47.6951 26.3035 49.2271 29.2299C50.7591 32.1563 53.4297 34.3217 56.6094 35.2161L59.8584 23.6642ZM60.9924 24.2222L72.7938 26.3962C73.6397 21.8042 71.7452 17.1385 67.9373 14.4362L60.9924 24.2222ZM60.8664 24.9062V36.9062C66.6553 36.9062 71.6191 32.7734 72.6678 27.0802L60.8664 24.9062ZM57.2484 24.9062L45.3952 26.7778C46.3162 32.6104 51.3435 36.9062 57.2484 36.9062V24.9062ZM57.1404 24.2222L50.044 14.5454C46.4222 17.2014 44.5867 21.6575 45.2872 26.0938L57.1404 24.2222ZM58.4004 23.6642L61.0345 35.3716C65.0376 34.4709 68.303 31.5873 69.6919 27.7263L58.4004 23.6642ZM62.4864 12.3062V0.306249C57.4252 0.306249 52.9081 3.48174 51.1948 8.24415L62.4864 12.3062ZM64.3584 12.3062L75.6385 8.21251C73.9161 3.46651 69.4073 0.306249 64.3584 0.306249V12.3062ZM62.9184 14.8082V2.80825C57.8002 2.80825 53.2453 6.05455 51.5752 10.8926L62.9184 14.8082ZM61.1724 19.8662L49.8292 15.9506C48.5632 19.6181 49.1485 23.6714 51.4003 26.8309C53.6521 29.9904 57.2925 31.8662 61.1724 31.8662V19.8662ZM64.7904 19.8662V31.8662C68.6769 31.8662 72.3228 29.9839 74.5735 26.8154C76.8242 23.6468 77.4009 19.5844 76.1211 15.9146L64.7904 19.8662ZM63.0264 14.8082L74.3571 10.8566C72.6762 6.03709 68.1306 2.80825 63.0264 2.80825V14.8082ZM68.4804 23.6642L65.8462 35.3716C64.8805 35.1543 63.7462 34.7074 62.644 33.8991L69.7404 24.2222L76.8367 14.5454C75.0146 13.2091 73.0403 12.3902 71.1145 11.9569L68.4804 23.6642ZM69.7404 24.2222L57.8872 22.3507L57.7792 23.0347L69.6324 24.9062L81.4855 26.7778L81.5935 26.0938L69.7404 24.2222ZM69.6324 24.9062V12.9062H65.1144V24.9062V36.9062H69.6324V24.9062ZM65.1144 24.9062L76.9158 22.7323L76.7898 22.0483L64.9884 24.2222L53.1869 26.3962L53.3129 27.0802L65.1144 24.9062ZM64.9884 24.2222L71.9333 34.0083C71.3424 34.4277 70.4867 34.9024 69.3713 35.2161L66.1224 23.6642L62.8734 12.1124C60.9901 12.6421 59.3784 13.4888 58.0434 14.4362L64.9884 24.2222ZM66.1224 23.6642L77.4426 19.6827L76.5246 17.0727L65.2044 21.0542L53.8842 25.0358L54.8022 27.6458L66.1224 23.6642ZM65.2044 21.0542V9.05425H60.7584V21.0542V33.0542H65.2044V21.0542ZM60.7584 21.0542L49.4139 17.1424L48.5139 19.7524L59.8584 23.6642L71.2029 27.5761L72.1029 24.9661L60.7584 21.0542ZM59.8584 23.6642L56.6094 35.2161C55.4941 34.9024 54.6384 34.4277 54.0474 34.0083L60.9924 24.2222L67.9373 14.4362C66.6024 13.4888 64.9907 12.6421 63.1073 12.1124L59.8584 23.6642ZM60.9924 24.2222L49.1909 22.0483L49.0649 22.7323L60.8664 24.9062L72.6678 27.0802L72.7938 26.3962L60.9924 24.2222ZM60.8664 24.9062V12.9062H57.2484V24.9062V36.9062H60.8664V24.9062ZM57.2484 24.9062L69.1015 23.0347L68.9935 22.3507L57.1404 24.2222L45.2872 26.0938L45.3952 26.7778L57.2484 24.9062ZM57.1404 24.2222L64.2367 33.8991C63.1346 34.7074 62.0003 35.1543 61.0345 35.3716L58.4004 23.6642L55.7662 11.9569C53.8405 12.3902 51.8662 13.2091 50.044 14.5454L57.1404 24.2222ZM58.4004 23.6642L69.6919 27.7263L73.7779 16.3683L62.4864 12.3062L51.1948 8.24415L47.1088 19.6022L58.4004 23.6642ZM62.4864 12.3062V24.3062H64.3584V12.3062V0.306249H62.4864V12.3062ZM64.3584 12.3062L53.0782 16.4L57.2002 27.758L68.4804 23.6642L79.7605 19.5705L75.6385 8.21251L64.3584 12.3062ZM62.9184 14.8082L51.5752 10.8926L49.8292 15.9506L61.1724 19.8662L72.5156 23.7819L74.2616 18.7239L62.9184 14.8082ZM61.1724 19.8662V31.8662H64.7904V19.8662V7.86625H61.1724V19.8662ZM64.7904 19.8662L76.1211 15.9146L74.3571 10.8566L63.0264 14.8082L51.6957 18.7599L53.4597 23.8179L64.7904 19.8662ZM63.0264 14.8082V2.80825H62.9184V14.8082V26.8082H63.0264V14.8082ZM74.7582 13.5122V1.51225C68.1307 1.51225 62.7582 6.88483 62.7582 13.5122L74.7582 13.5122ZM74.7582 23.6642H62.7582C62.7582 29.1207 66.4394 33.8903 71.7178 35.2727L74.7582 23.6642ZM76.0542 24.2222L87.8556 26.3962C88.7245 21.6793 86.7013 16.8981 82.7106 14.2376L76.0542 24.2222ZM75.9282 24.9062V36.9062C81.7171 36.9062 86.6809 32.7734 87.7296 27.0802L75.9282 24.9062ZM71.4282 24.9062L59.6267 27.0802C60.6755 32.7734 65.6392 36.9062 71.4282 36.9062V24.9062ZM71.3022 24.2222L64.6458 14.2376C60.6551 16.8981 58.6318 21.6793 59.5007 26.3962L71.3022 24.2222ZM72.5982 23.6642L75.6385 35.2727C80.9169 33.8903 84.5982 29.1207 84.5982 23.6642L72.5982 23.6642ZM72.5982 13.5122H84.5982C84.5982 6.88483 79.2256 1.51225 72.5982 1.51225V13.5122ZM70.1682 13.5122V1.51225C64.4702 1.51225 59.5579 5.51918 58.4129 11.1009L70.1682 13.5122ZM69.2322 15.9242L67.5351 27.8036C72.1814 28.4674 76.7883 26.3614 79.3263 22.4133L69.2322 15.9242ZM68.3502 15.7982L56.3631 15.2421C56.0765 21.4195 60.5313 26.8031 66.6531 27.6776L68.3502 15.7982ZM68.5122 12.3062V0.306249C62.101 0.306249 56.8222 5.34584 56.5251 11.7501L68.5122 12.3062ZM78.8442 12.3062L90.8313 11.7501C90.5342 5.34584 85.2554 0.306249 78.8442 0.306249V12.3062ZM79.0062 15.7982L80.7032 27.6776C86.8251 26.8031 91.2798 21.4195 90.9933 15.2421L79.0062 15.7982ZM78.1242 15.9242L68.03 22.4133C70.5681 26.3614 75.1749 28.4674 79.8212 27.8036L78.1242 15.9242ZM77.1882 13.5122L88.9434 11.1009C87.7984 5.51919 82.8861 1.51225 77.1882 1.51225V13.5122ZM74.7582 13.5122H62.7582V23.6642H74.7582H86.7582V13.5122H74.7582ZM74.7582 23.6642L71.7178 35.2727C71.1895 35.1343 70.3444 34.838 69.3978 34.2069L76.0542 24.2222L82.7106 14.2376C81.0439 13.1265 79.3348 12.4582 77.7985 12.0558L74.7582 23.6642ZM76.0542 24.2222L64.2527 22.0483L64.1267 22.7323L75.9282 24.9062L87.7296 27.0802L87.8556 26.3962L76.0542 24.2222ZM75.9282 24.9062V12.9062H71.4282V24.9062V36.9062H75.9282V24.9062ZM71.4282 24.9062L83.2296 22.7323L83.1036 22.0483L71.3022 24.2222L59.5007 26.3962L59.6267 27.0802L71.4282 24.9062ZM71.3022 24.2222L77.9586 34.2069C77.0119 34.838 76.1668 35.1343 75.6385 35.2727L72.5982 23.6642L69.5578 12.0558C68.0215 12.4582 66.3124 13.1265 64.6458 14.2376L71.3022 24.2222ZM72.5982 23.6642H84.5982V13.5122H72.5982H60.5982V23.6642H72.5982ZM72.5982 13.5122V1.51225H70.1682V13.5122V25.5122H72.5982V13.5122ZM70.1682 13.5122L58.4129 11.1009C58.4615 10.8643 58.6295 10.2262 59.138 9.43516L69.2322 15.9242L79.3263 22.4133C80.6988 20.2783 81.4909 18.0322 81.9234 15.9236L70.1682 13.5122ZM69.2322 15.9242L70.9292 4.04486L70.0472 3.91886L68.3502 15.7982L66.6531 27.6776L67.5351 27.8036L69.2322 15.9242ZM68.3502 15.7982L80.3373 16.3544L80.4993 12.8624L68.5122 12.3062L56.5251 11.7501L56.3631 15.2421L68.3502 15.7982ZM68.5122 12.3062V24.3062H78.8442V12.3062V0.306249H68.5122V12.3062ZM78.8442 12.3062L66.8571 12.8624L67.0191 16.3544L79.0062 15.7982L90.9933 15.2421L90.8313 11.7501L78.8442 12.3062ZM79.0062 15.7982L77.3091 3.91886L76.4271 4.04486L78.1242 15.9242L79.8212 27.8036L80.7032 27.6776L79.0062 15.7982ZM78.1242 15.9242L88.2183 9.43516C88.7268 10.2262 88.8949 10.8643 88.9434 11.1009L77.1882 13.5122L65.4329 15.9236C65.8655 18.0322 66.6575 20.2783 68.03 22.4133L78.1242 15.9242ZM77.1882 13.5122V1.51225H74.7582V13.5122V25.5122H77.1882V13.5122ZM88.4083 18.2102L80.8312 27.5155C80.8795 27.5548 80.9281 27.5937 80.9769 27.6322L88.4083 18.2102ZM88.4083 23.8802L95.9855 33.1855C95.9903 33.1815 95.9952 33.1775 96.0001 33.1736L88.4083 23.8802ZM79.8403 24.9062L68.0389 27.0802C69.0876 32.7734 74.0514 36.9062 79.8403 36.9062V24.9062ZM79.7143 24.2222L73.0579 14.2376C69.0672 16.8981 67.044 21.6793 67.9129 26.3962L79.7143 24.2222ZM81.0103 23.6642L84.0507 35.2727C89.3291 33.8903 93.0103 29.1207 93.0103 23.6642L81.0103 23.6642ZM81.0103 13.5482H93.0103C93.0103 8.09177 89.3291 3.32223 84.0507 1.93978L81.0103 13.5482ZM79.7143 12.9902L67.9129 10.8163C67.044 15.5332 69.0672 20.3144 73.0579 22.9748L79.7143 12.9902ZM79.8403 12.3062V0.306249C74.0514 0.306249 69.0876 4.43913 68.0389 10.1323L79.8403 12.3062ZM84.3403 12.3062L96.1935 10.4347C95.2726 4.60208 90.2452 0.306249 84.3403 0.306249V12.3062ZM84.4483 12.9902L91.1785 22.9253C95.0307 20.3157 97.0272 15.7146 96.3015 11.1187L84.4483 12.9902ZM83.1703 13.5482L80.2599 1.90654C74.9179 3.24204 71.1703 8.04184 71.1703 13.5482H83.1703ZM83.1703 17.1842H71.1703C71.1703 23.8117 76.5429 29.1842 83.1703 29.1842V17.1842ZM86.7163 23.0702L78.2311 14.585L78.2311 14.585L86.7163 23.0702ZM83.1703 18.3002V6.30025C76.5429 6.30025 71.1703 11.6728 71.1703 18.3002L83.1703 18.3002ZM83.1703 23.7902H71.1703C71.1703 30.4177 76.5429 35.7902 83.1703 35.7902V23.7902ZM84.8983 17.1842V29.1842C84.689 29.1842 82.8253 29.1392 80.8312 27.5155L88.4083 18.2102L95.9855 8.90502C92.3114 5.91329 88.1077 5.18425 84.8983 5.18425V17.1842ZM88.4083 18.2102L80.9769 27.6322C79.9709 26.8387 79.0515 25.7333 78.4329 24.3654C77.8325 23.0377 77.6863 21.8445 77.6863 21.0362H89.6863H101.686C101.686 16.639 99.9403 12.0225 95.8398 8.78826L88.4083 18.2102ZM89.6863 21.0362H77.6863C77.6863 20.2013 77.8397 19.0226 78.4212 17.7286C79.0161 16.4047 79.887 15.3464 80.8166 14.5869L88.4083 23.8802L96.0001 33.1736C99.9182 29.9729 101.686 25.4662 101.686 21.0362H89.6863ZM88.4083 23.8802L80.8312 14.575C82.8099 12.9638 84.6677 12.9062 84.9163 12.9062V24.9062V36.9062C88.141 36.9062 92.3267 36.1647 95.9855 33.1855L88.4083 23.8802ZM84.9163 24.9062V12.9062H79.8403V24.9062V36.9062H84.9163V24.9062ZM79.8403 24.9062L91.6418 22.7323L91.5158 22.0483L79.7143 24.2222L67.9129 26.3962L68.0389 27.0802L79.8403 24.9062ZM79.7143 24.2222L86.3707 34.2069C85.4241 34.838 84.579 35.1343 84.0507 35.2727L81.0103 23.6642L77.97 12.0558C76.4337 12.4582 74.7246 13.1265 73.0579 14.2376L79.7143 24.2222ZM81.0103 23.6642H93.0103V13.5482H81.0103H69.0103V23.6642H81.0103ZM81.0103 13.5482L84.0507 1.93978C84.579 2.07817 85.4241 2.37454 86.3708 3.00565L79.7143 12.9902L73.0579 22.9748C74.7246 24.086 76.4337 24.7543 77.97 25.1567L81.0103 13.5482ZM79.7143 12.9902L91.5158 15.1642L91.6418 14.4802L79.8403 12.3062L68.0389 10.1323L67.9129 10.8163L79.7143 12.9902ZM79.8403 12.3062V24.3062H84.3403V12.3062V0.306249H79.8403V12.3062ZM84.3403 12.3062L72.4872 14.1778L72.5952 14.8618L84.4483 12.9902L96.3015 11.1187L96.1935 10.4347L84.3403 12.3062ZM84.4483 12.9902L77.7182 3.05523C78.6215 2.44325 79.5141 2.09298 80.2599 1.90654L83.1703 13.5482L86.0808 25.19C87.7866 24.7635 89.5311 24.0412 91.1785 22.9253L84.4483 12.9902ZM83.1703 13.5482H71.1703V17.1842H83.1703H95.1703V13.5482H83.1703ZM83.1703 17.1842V29.1842H84.8983V17.1842V5.18425H83.1703V17.1842ZM84.6823 23.7902V35.7902C87.7749 35.7902 91.8695 34.8876 95.2016 31.5555L86.7163 23.0702L78.2311 14.585C80.6032 12.2129 83.3418 11.7902 84.6823 11.7902V23.7902ZM86.7163 23.0702L95.2016 31.5555C98.4611 28.2961 99.4543 24.2684 99.4543 21.0362H87.4543H75.4543C75.4543 19.5321 75.9556 16.8604 78.2311 14.585L86.7163 23.0702ZM87.4543 21.0362H99.4543C99.4543 18.0866 98.641 13.9203 95.2376 10.517L86.7523 19.0022L78.2671 27.4875C75.7997 25.0202 75.4543 22.2099 75.4543 21.0362H87.4543ZM86.7523 19.0022L95.2376 10.517C91.7786 7.05793 87.5489 6.30025 84.6823 6.30025V18.3002V30.3002C83.6397 30.3002 80.7901 30.0106 78.2671 27.4875L86.7523 19.0022ZM84.6823 18.3002V6.30025H83.1703V18.3002V30.3002H84.6823V18.3002ZM83.1703 18.3002H71.1703V23.7902H83.1703H95.1703V18.3002H83.1703ZM83.1703 23.7902V35.7902H84.6823V23.7902V11.7902H83.1703V23.7902ZM93.62 24.2222L86.9636 14.2376C82.9729 16.8981 80.9497 21.6793 81.8186 26.3962L93.62 24.2222ZM94.916 23.6642L97.9564 35.2727C103.235 33.8903 106.916 29.1207 106.916 23.6642L94.916 23.6642ZM94.916 13.5482H106.916C106.916 8.09177 103.235 3.32223 97.9564 1.93978L94.916 13.5482ZM93.62 12.9902L81.8186 10.8163C80.9497 15.5332 82.9729 20.3144 86.9636 22.9748L93.62 12.9902ZM93.746 12.3062V0.306249C87.9571 0.306249 82.9933 4.43913 81.9446 10.1323L93.746 12.3062ZM98.156 12.3062L109.957 10.1323C108.909 4.43913 103.945 0.306249 98.156 0.306249V12.3062ZM98.282 12.9902L105.362 22.6789C109.084 19.9595 110.918 15.3491 110.083 10.8163L98.282 12.9902ZM97.076 13.5482L93.7053 2.0314C88.5907 3.52835 85.076 8.21907 85.076 13.5482H97.076ZM97.076 23.6282H85.076C85.076 30.2557 90.4486 35.6282 97.076 35.6282V23.6282ZM101.162 23.6282V35.6282C107.789 35.6282 113.162 30.2557 113.162 23.6282L101.162 23.6282ZM101.162 13.5482H113.162C113.162 8.28761 109.736 3.64031 104.71 2.08482L101.162 13.5482ZM99.974 12.9902L88.1209 11.1187C87.4276 15.5092 89.2181 19.9233 92.774 22.5903L99.974 12.9902ZM100.082 12.3062V0.306249C94.1772 0.306249 89.1498 4.60207 88.2289 10.4347L100.082 12.3062ZM104.384 12.3062L116.185 10.1323C115.137 4.43912 110.173 0.306249 104.384 0.306249V12.3062ZM104.51 12.9902L111.59 22.6789C115.312 19.9595 117.146 15.3491 116.311 10.8163L104.51 12.9902ZM103.304 13.5482L99.9333 2.0314C94.8187 3.52835 91.304 8.21907 91.304 13.5482H103.304ZM103.304 23.6282H91.304C91.304 30.2557 96.6766 35.6282 103.304 35.6282V23.6282ZM107.408 23.6282V35.6282C114.035 35.6282 119.408 30.2557 119.408 23.6282L107.408 23.6282ZM107.408 13.5482H119.408C119.408 8.1754 115.837 3.45736 110.666 1.99885L107.408 13.5482ZM106.202 12.9902L94.3489 11.1187C93.64 15.6083 95.5286 20.1132 99.2272 22.755L106.202 12.9902ZM106.31 12.3062V0.306249C100.405 0.306249 95.3778 4.60208 94.4569 10.4347L106.31 12.3062ZM110.738 12.3062L122.591 10.4347C121.67 4.60207 116.643 0.306249 110.738 0.306249V12.3062ZM110.846 12.9902L117.576 22.9253C121.428 20.3157 123.425 15.7146 122.699 11.1187L110.846 12.9902ZM109.568 13.5482L106.658 1.90654C101.316 3.24204 97.568 8.04184 97.568 13.5482L109.568 13.5482ZM109.568 23.6642H97.568C97.568 29.1707 101.316 33.9705 106.658 35.306L109.568 23.6642ZM110.846 24.2222L122.699 26.0938C123.425 21.4979 121.428 16.8968 117.576 14.2872L110.846 24.2222ZM110.738 24.9062V36.9062C116.643 36.9062 121.67 32.6104 122.591 26.7778L110.738 24.9062ZM93.746 24.9062L81.9446 27.0802C82.9933 32.7734 87.9571 36.9062 93.746 36.9062V24.9062ZM93.62 24.2222L100.276 34.2069C99.3298 34.838 98.4847 35.1343 97.9564 35.2727L94.916 23.6642L91.8757 12.0558C90.3394 12.4582 88.6303 13.1265 86.9636 14.2376L93.62 24.2222ZM94.916 23.6642H106.916V13.5482H94.916H82.916V23.6642H94.916ZM94.916 13.5482L97.9564 1.93978C98.4847 2.07817 99.3298 2.37454 100.276 3.00565L93.62 12.9902L86.9636 22.9748C88.6303 24.086 90.3394 24.7543 91.8757 25.1567L94.916 13.5482ZM93.62 12.9902L105.421 15.1642L105.547 14.4802L93.746 12.3062L81.9446 10.1323L81.8186 10.8163L93.62 12.9902ZM93.746 12.3062V24.3062H98.156V12.3062V0.306249H93.746V12.3062ZM98.156 12.3062L86.3546 14.4802L86.4806 15.1642L98.282 12.9902L110.083 10.8163L109.957 10.1323L98.156 12.3062ZM98.282 12.9902L91.2018 3.30156C92.3105 2.49135 93.2739 2.15766 93.7053 2.0314L97.076 13.5482L100.447 25.0651C101.862 24.6508 103.63 23.9452 105.362 22.6789L98.282 12.9902ZM97.076 13.5482H85.076V23.6282H97.076H109.076V13.5482H97.076ZM97.076 23.6282V35.6282H101.162V23.6282V11.6282H97.076V23.6282ZM101.162 23.6282H113.162V13.5482H101.162H89.162V23.6282H101.162ZM101.162 13.5482L104.71 2.08482C104.885 2.13898 105.194 2.24461 105.589 2.4302C105.979 2.61362 106.541 2.91579 107.174 3.39025L99.974 12.9902L92.774 22.5903C94.5483 23.921 96.3501 24.6205 97.6138 25.0117L101.162 13.5482ZM99.974 12.9902L111.827 14.8618L111.935 14.1778L100.082 12.3062L88.2289 10.4347L88.1209 11.1187L99.974 12.9902ZM100.082 12.3062V24.3062H104.384V12.3062V0.306249H100.082V12.3062ZM104.384 12.3062L92.5826 14.4802L92.7086 15.1642L104.51 12.9902L116.311 10.8163L116.185 10.1323L104.384 12.3062ZM104.51 12.9902L97.4298 3.30156C98.5385 2.49135 99.5019 2.15766 99.9333 2.0314L103.304 13.5482L106.675 25.0651C108.09 24.6508 109.858 23.9452 111.59 22.6789L104.51 12.9902ZM103.304 13.5482H91.304V23.6282H103.304H115.304V13.5482H103.304ZM103.304 23.6282V35.6282H107.408V23.6282V11.6282H103.304V23.6282ZM107.408 23.6282H119.408V13.5482H107.408H95.408V23.6282H107.408ZM107.408 13.5482L110.666 1.99885C111.299 2.17749 112.206 2.53174 113.177 3.22545L106.202 12.9902L99.2272 22.755C100.87 23.9288 102.581 24.655 104.151 25.0976L107.408 13.5482ZM106.202 12.9902L118.055 14.8618L118.163 14.1778L106.31 12.3062L94.4569 10.4347L94.3489 11.1187L106.202 12.9902ZM106.31 12.3062V24.3062H110.738V12.3062V0.306249H106.31V12.3062ZM110.738 12.3062L98.8849 14.1778L98.9929 14.8618L110.846 12.9902L122.699 11.1187L122.591 10.4347L110.738 12.3062ZM110.846 12.9902L104.116 3.05523C105.019 2.44326 105.912 2.09298 106.658 1.90654L109.568 13.5482L112.478 25.19C114.184 24.7635 115.929 24.0412 117.576 22.9253L110.846 12.9902ZM109.568 13.5482H97.568V23.6642H109.568H121.568V13.5482H109.568ZM109.568 23.6642L106.658 35.306C105.912 35.1195 105.019 34.7692 104.116 34.1573L110.846 24.2222L117.576 14.2872C115.929 13.1713 114.184 12.449 112.478 12.0225L109.568 23.6642ZM110.846 24.2222L98.9929 22.3507L98.8849 23.0347L110.738 24.9062L122.591 26.7778L122.699 26.0938L110.846 24.2222ZM110.738 24.9062V12.9062H93.746V24.9062V36.9062H110.738V24.9062ZM93.746 24.9062L105.547 22.7323L105.421 22.0483L93.62 24.2222L81.8186 26.3962L81.9446 27.0802L93.746 24.9062ZM120.416 13.3502L112.76 22.5905C112.786 22.6123 112.813 22.6339 112.839 22.6555L120.416 13.3502ZM120.416 19.1282L127.994 28.4335C128.02 28.4119 128.046 28.3903 128.073 28.3685L120.416 19.1282ZM115.34 20.1543V8.15425C108.713 8.15425 103.34 13.5268 103.34 20.1543L115.34 20.1543ZM115.34 23.6642H103.34C103.34 29.3389 107.315 34.2378 112.868 35.4068L115.34 23.6642ZM116.096 23.8982L111.724 35.0732C111.914 35.1479 112.107 35.2176 112.302 35.2824L116.096 23.8982ZM116.852 24.2222L128.706 26.0938C129.491 21.117 127.085 16.1793 122.68 13.7324L116.852 24.2222ZM116.744 24.9062V36.9062C122.649 36.9062 127.677 32.6104 128.598 26.7778L116.744 24.9062ZM112.01 24.9062L100.209 27.0802C101.258 32.7734 106.221 36.9062 112.01 36.9062V24.9062ZM111.884 24.2222L105.228 14.2376C101.237 16.8981 99.2141 21.6793 100.083 26.3962L111.884 24.2222ZM113.18 23.6642L116.221 35.2727C121.499 33.8903 125.18 29.1207 125.18 23.6642L113.18 23.6642ZM113.18 13.5482H125.18C125.18 8.09177 121.499 3.32223 116.221 1.93978L113.18 13.5482ZM111.884 12.9902L100.083 10.8163C99.2141 15.5332 101.237 20.3144 105.228 22.9748L111.884 12.9902ZM112.01 12.3062V0.306249C106.221 0.306249 101.258 4.43913 100.209 10.1323L112.01 12.3062ZM118.724 18.3002L127.21 26.7855C127.245 26.7506 127.279 26.7155 127.314 26.6801L118.724 18.3002ZM118.724 14.1602L110.135 22.5401L110.135 22.5401L118.724 14.1602ZM115.34 13.4222V1.42225C108.713 1.42225 103.34 6.79483 103.34 13.4222L115.34 13.4222ZM115.34 19.0202H103.34C103.34 25.6477 108.713 31.0202 115.34 31.0202V19.0202ZM116.888 12.3062V24.3062C116.675 24.3062 114.774 24.2589 112.76 22.5905L120.416 13.3502L128.073 4.10999C124.379 1.04964 120.126 0.306249 116.888 0.306249V12.3062ZM120.416 13.3502L112.839 22.6555C111.831 21.8343 110.949 20.7221 110.368 19.3931C109.806 18.109 109.676 16.9745 109.676 16.2302H121.676H133.676C133.676 11.9577 132.048 7.3463 127.994 4.04502L120.416 13.3502ZM121.676 16.2302H109.676C109.676 15.4839 109.806 14.3625 110.357 13.097C110.925 11.7901 111.783 10.6975 112.76 9.88799L120.416 19.1282L128.073 28.3685C132.051 25.0725 133.676 20.5052 133.676 16.2302H121.676ZM120.416 19.1282L112.839 9.82302C114.848 8.18698 116.718 8.15425 116.888 8.15425V20.1543V32.1543C120.083 32.1543 124.304 31.4375 127.994 28.4335L120.416 19.1282ZM116.888 20.1543V8.15425H115.34V20.1543V32.1543H116.888V20.1543ZM115.34 20.1543H103.34V23.6642H115.34H127.34V20.1543H115.34ZM115.34 23.6642L112.868 35.4068C112.302 35.2875 111.907 35.145 111.724 35.0732L116.096 23.8982L120.469 12.7233C119.734 12.4355 118.835 12.137 117.813 11.9217L115.34 23.6642ZM116.096 23.8982L112.302 35.2824C112.039 35.1948 111.584 35.023 111.025 34.7121L116.852 24.2222L122.68 13.7324C121.689 13.1815 120.73 12.7937 119.891 12.5141L116.096 23.8982ZM116.852 24.2222L104.999 22.3507L104.891 23.0347L116.744 24.9062L128.598 26.7778L128.706 26.0938L116.852 24.2222ZM116.744 24.9062V12.9062H112.01V24.9062V36.9062H116.744V24.9062ZM112.01 24.9062L123.812 22.7323L123.686 22.0483L111.884 24.2222L100.083 26.3962L100.209 27.0802L112.01 24.9062ZM111.884 24.2222L118.541 34.2069C117.594 34.838 116.749 35.1343 116.221 35.2727L113.18 23.6642L110.14 12.0558C108.604 12.4582 106.895 13.1265 105.228 14.2376L111.884 24.2222ZM113.18 23.6642H125.18V13.5482H113.18H101.18V23.6642H113.18ZM113.18 13.5482L116.221 1.93978C116.749 2.07817 117.594 2.37454 118.541 3.00565L111.884 12.9902L105.228 22.9748C106.895 24.086 108.604 24.7543 110.14 25.1567L113.18 13.5482ZM111.884 12.9902L123.686 15.1642L123.812 14.4802L112.01 12.3062L100.209 10.1323L100.083 10.8163L111.884 12.9902ZM112.01 12.3062V24.3062H116.888V12.3062V0.306249H112.01V12.3062ZM116.69 19.0202V31.0202C119.783 31.0202 123.878 30.1176 127.21 26.7855L118.724 18.3002L110.239 9.81497C112.611 7.44285 115.35 7.02025 116.69 7.02025V19.0202ZM118.724 18.3002L127.314 26.6801C130.565 23.3475 131.444 19.2984 131.444 16.2302H119.444H107.444C107.444 14.9381 107.844 12.269 110.135 9.92037L118.724 18.3002ZM119.444 16.2302H131.444C131.444 13.1621 130.565 9.11303 127.314 5.78036L118.724 14.1602L110.135 22.5401C107.844 20.1915 107.444 17.5224 107.444 16.2302H119.444ZM118.724 14.1602L127.314 5.78037C123.997 2.38039 119.865 1.42225 116.69 1.42225V13.4222V25.4222C115.267 25.4222 112.492 24.9561 110.135 22.5401L118.724 14.1602ZM116.69 13.4222V1.42225H115.34V13.4222V25.4222H116.69V13.4222ZM115.34 13.4222H103.34V19.0202H115.34H127.34V13.4222H115.34ZM115.34 19.0202V31.0202H116.69V19.0202V7.02025H115.34V19.0202ZM122.52 24.2222L115.863 14.2376C111.873 16.8981 109.85 21.6793 110.718 26.3962L122.52 24.2222ZM123.816 23.6642L126.856 35.2727C132.135 33.8903 135.816 29.1207 135.816 23.6642L123.816 23.6642ZM123.816 13.5482H135.816C135.816 8.09177 132.135 3.32223 126.856 1.93978L123.816 13.5482ZM122.52 12.9902L110.718 10.8163C109.85 15.5332 111.873 20.3144 115.863 22.9748L122.52 12.9902ZM122.646 12.3062V0.306249C116.857 0.306249 111.893 4.43913 110.844 10.1323L122.646 12.3062ZM127.02 12.3062L138.821 10.1323C137.773 4.43913 132.809 0.306249 127.02 0.306249V12.3062ZM127.146 12.9902L133.802 22.9749C137.793 20.3144 139.816 15.5332 138.947 10.8163L127.146 12.9902ZM125.922 13.5482L122.933 1.92633C117.63 3.29018 113.922 8.07185 113.922 13.5482H125.922ZM125.922 21.3062H113.922C113.922 27.9337 119.294 33.3062 125.922 33.3062V21.3062ZM126.03 21.3062V33.3062C129.911 33.3062 133.552 31.4292 135.804 28.268L126.03 21.3062ZM131.466 13.6742L141.24 20.636C142.688 18.6033 143.466 16.1698 143.466 13.6742L131.466 13.6742ZM131.466 13.5482H143.466C143.466 7.97964 139.635 3.14268 134.214 1.86725L131.466 13.5482ZM130.818 13.3142L135.955 2.4694L135.955 2.46939L130.818 13.3142ZM130.242 12.9902L118.389 11.1187C117.67 15.6712 119.622 20.2331 123.411 22.8566L130.242 12.9902ZM130.35 12.3062V0.306249C124.445 0.306249 119.418 4.60207 118.497 10.4347L130.35 12.3062ZM134.742 12.3062L146.595 10.4347C145.674 4.60208 140.647 0.306249 134.742 0.306249V12.3062ZM134.85 12.9902L141.68 22.8566C145.47 20.2331 147.422 15.6712 146.703 11.1187L134.85 12.9902ZM134.256 13.3142L138.913 24.3739C139.002 24.3361 139.092 24.2972 139.18 24.2573L134.256 13.3142ZM133.572 13.5482L130.518 1.94335C125.246 3.33066 121.572 8.09701 121.572 13.5482L133.572 13.5482ZM133.572 23.6642H121.572C121.572 29.1155 125.246 33.8818 130.518 35.2691L133.572 23.6642ZM134.256 23.9162L129.119 34.7611C129.343 34.8671 129.569 34.9661 129.799 35.058L134.256 23.9162ZM134.85 24.2222L146.703 26.0938C147.422 21.5413 145.47 16.9794 141.68 14.3559L134.85 24.2222ZM134.742 24.9062V36.9062C140.647 36.9062 145.674 32.6104 146.595 26.7778L134.742 24.9062ZM130.35 24.9062L118.497 26.7778C119.418 32.6104 124.445 36.9062 130.35 36.9062V24.9062ZM130.242 24.2222L123.411 14.3559C119.622 16.9794 117.67 21.5413 118.389 26.0938L130.242 24.2222ZM130.818 23.8982L135.955 34.7431L135.955 34.7431L130.818 23.8982ZM131.466 23.6642L134.214 35.3453C139.635 34.0698 143.466 29.2329 143.466 23.6642H131.466ZM131.466 15.9062H143.466C143.466 9.27883 138.093 3.90625 131.466 3.90625V15.9062ZM131.34 15.9062V3.90625C127.452 3.90625 123.805 5.78968 121.555 8.9598L131.34 15.9062ZM125.922 23.5382L116.137 16.5918C114.696 18.6215 113.922 21.0491 113.922 23.5382H125.922ZM125.922 23.6642H113.922C113.922 29.1407 117.63 33.9223 122.933 35.2862L125.922 23.6642ZM127.146 24.2222L138.947 26.3962C139.816 21.6793 137.793 16.8981 133.802 14.2376L127.146 24.2222ZM127.02 24.9062V36.9062C132.809 36.9062 137.773 32.7734 138.821 27.0802L127.02 24.9062ZM122.646 24.9062L110.844 27.0802C111.893 32.7734 116.857 36.9062 122.646 36.9062V24.9062ZM122.52 24.2222L129.176 34.2069C128.23 34.838 127.385 35.1343 126.856 35.2727L123.816 23.6642L120.776 12.0558C119.239 12.4582 117.53 13.1265 115.863 14.2376L122.52 24.2222ZM123.816 23.6642H135.816V13.5482H123.816H111.816V23.6642H123.816ZM123.816 13.5482L126.856 1.93978C127.385 2.07817 128.23 2.37454 129.176 3.00565L122.52 12.9902L115.863 22.9748C117.53 24.086 119.239 24.7543 120.776 25.1567L123.816 13.5482ZM122.52 12.9902L134.321 15.1642L134.447 14.4802L122.646 12.3062L110.844 10.1323L110.718 10.8163L122.52 12.9902ZM122.646 12.3062V24.3062H127.02V12.3062V0.306249H122.646V12.3062ZM127.02 12.3062L115.218 14.4802L115.344 15.1642L127.146 12.9902L138.947 10.8163L138.821 10.1323L127.02 12.3062ZM127.146 12.9902L120.489 3.00565C121.106 2.59434 121.926 2.18529 122.933 1.92633L125.922 13.5482L128.91 25.1702C130.757 24.6952 132.393 23.9142 133.802 22.9749L127.146 12.9902ZM125.922 13.5482H113.922V21.3062H125.922H137.922V13.5482H125.922ZM125.922 21.3062V33.3062H126.03V21.3062V9.30625H125.922V21.3062ZM126.03 21.3062L135.804 28.268L141.24 20.636L131.466 13.6742L121.692 6.71248L116.256 14.3445L126.03 21.3062ZM131.466 13.6742H143.466V13.5482H131.466H119.466V13.6742H131.466ZM131.466 13.5482L134.214 1.86725C134.98 2.04746 135.568 2.28594 135.955 2.4694L130.818 13.3142L125.681 24.1591C126.524 24.5586 127.543 24.953 128.717 25.2293L131.466 13.5482ZM130.818 13.3142L135.955 2.46939C136.137 2.55582 136.55 2.76198 137.072 3.12394L130.242 12.9902L123.411 22.8566C124.246 23.4345 125.042 23.8567 125.681 24.1591L130.818 13.3142ZM130.242 12.9902L142.095 14.8618L142.203 14.1778L130.35 12.3062L118.497 10.4347L118.389 11.1187L130.242 12.9902ZM130.35 12.3062V24.3062H134.742V12.3062V0.306249H130.35V12.3062ZM134.742 12.3062L122.889 14.1778L122.997 14.8618L134.85 12.9902L146.703 11.1187L146.595 10.4347L134.742 12.3062ZM134.85 12.9902L128.019 3.12394C128.645 2.69088 129.14 2.45742 129.332 2.37119L134.256 13.3142L139.18 24.2573C139.852 23.9551 140.743 23.5056 141.68 22.8566L134.85 12.9902ZM134.256 13.3142L129.599 2.25463C129.867 2.14208 130.173 2.03401 130.518 1.94335L133.572 13.5482L136.626 25.1531C137.426 24.9425 138.189 24.6784 138.913 24.3739L134.256 13.3142ZM133.572 13.5482H121.572V23.6642H133.572H145.572V13.5482H133.572ZM133.572 23.6642L130.518 35.2691C129.982 35.128 129.514 34.9482 129.119 34.7611L134.256 23.9162L139.393 13.0714C138.542 12.6683 137.618 12.3205 136.626 12.0594L133.572 23.6642ZM134.256 23.9162L129.799 35.058C129.481 34.9309 128.816 34.6401 128.019 34.0886L134.85 24.2222L141.68 14.3559C140.572 13.5884 139.51 13.0936 138.713 12.7745L134.256 23.9162ZM134.85 24.2222L122.997 22.3507L122.889 23.0347L134.742 24.9062L146.595 26.7778L146.703 26.0938L134.85 24.2222ZM134.742 24.9062V12.9062H130.35V24.9062V36.9062H134.742V24.9062ZM130.35 24.9062L142.203 23.0347L142.095 22.3507L130.242 24.2222L118.389 26.0938L118.497 26.7778L130.35 24.9062ZM130.242 24.2222L137.072 34.0886C136.55 34.4505 136.137 34.6567 135.955 34.7431L130.818 23.8982L125.681 13.0534C125.042 13.3558 124.246 13.778 123.411 14.3559L130.242 24.2222ZM130.818 23.8982L135.955 34.7431C135.568 34.9266 134.98 35.165 134.214 35.3453L131.466 23.6642L128.717 11.9832C127.543 12.2595 126.524 12.6539 125.681 13.0534L130.818 23.8982ZM131.466 23.6642H143.466V15.9062H131.466H119.466V23.6642H131.466ZM131.466 15.9062V3.90625H131.34V15.9062V27.9062H131.466V15.9062ZM131.34 15.9062L121.555 8.9598L116.137 16.5918L125.922 23.5382L135.707 30.4847L141.125 22.8527L131.34 15.9062ZM125.922 23.5382H113.922V23.6642H125.922H137.922V23.5382H125.922ZM125.922 23.6642L122.933 35.2862C121.926 35.0272 121.106 34.6182 120.489 34.2069L127.146 24.2222L133.802 14.2376C132.393 13.2983 130.757 12.5173 128.91 12.0423L125.922 23.6642ZM127.146 24.2222L115.344 22.0483L115.218 22.7323L127.02 24.9062L138.821 27.0802L138.947 26.3962L127.146 24.2222ZM127.02 24.9062V12.9062H122.646V24.9062V36.9062H127.02V24.9062ZM122.646 24.9062L134.447 22.7323L134.321 22.0483L122.52 24.2222L110.718 26.3962L110.844 27.0802L122.646 24.9062ZM149.091 21.0002L138.86 14.7295C138.85 14.7453 138.841 14.7611 138.831 14.7769L149.091 21.0002ZM147.075 22.7462L152.206 33.5941C152.227 33.5843 152.247 33.5744 152.268 33.5645L147.075 22.7462ZM143.817 23.3762V11.3762C137.19 11.3762 131.817 16.7488 131.817 23.3762L143.817 23.3762ZM143.817 23.9522H131.817C131.817 29.4035 135.491 34.1698 140.763 35.5571L143.817 23.9522ZM145.095 24.5282L156.948 26.3998C157.679 21.7721 155.65 17.1424 151.752 14.5436L145.095 24.5282ZM144.987 25.2123V37.2123C150.892 37.2123 155.919 32.9164 156.84 27.0838L144.987 25.2123ZM140.577 25.2123L128.776 27.3862C129.824 33.0794 134.788 37.2123 140.577 37.2123V25.2123ZM140.451 24.5282L133.476 14.7634C129.688 17.4697 127.806 22.1233 128.65 26.7022L140.451 24.5282ZM141.063 24.1862L136.139 13.2432L136.139 13.2432L141.063 24.1862ZM141.747 23.9522L144.35 35.6665C149.841 34.4464 153.747 29.5766 153.747 23.9522H141.747ZM141.747 23.3762H153.747C153.747 16.7488 148.375 11.3762 141.747 11.3762V23.3762ZM138.435 22.7642L133.425 33.6684C133.444 33.6768 133.462 33.6853 133.48 33.6936L138.435 22.7642ZM136.437 21.1082L126.271 27.4837C126.287 27.5099 126.304 27.536 126.32 27.562L136.437 21.1082ZM136.437 16.2302L126.206 9.95951C126.196 9.97528 126.187 9.99108 126.177 10.0069L136.437 16.2302ZM138.471 14.4842L143.546 25.3584C143.585 25.34 143.625 25.3214 143.664 25.3025L138.471 14.4842ZM141.747 13.8362V25.8362C148.375 25.8362 153.747 20.4637 153.747 13.8362L141.747 13.8362ZM141.747 13.2602H153.747C153.747 7.63587 149.841 2.76611 144.35 1.54601L141.747 13.2602ZM141.063 13.0262L136.139 23.9693L136.139 23.9693L141.063 13.0262ZM140.451 12.6842L128.65 10.5103C127.806 15.0892 129.688 19.7428 133.476 22.4491L140.451 12.6842ZM140.577 12.0002V0.000249863C134.788 0.000249863 129.824 4.13313 128.776 9.8263L140.577 12.0002ZM144.987 12.0002L156.84 10.1287C155.919 4.29608 150.892 0.000249863 144.987 0.000249863V12.0002ZM145.095 12.6842L151.752 22.6689C155.65 20.0701 157.679 15.4404 156.948 10.8127L145.095 12.6842ZM143.817 13.2602L140.763 1.65535C135.491 3.04266 131.817 7.80901 131.817 13.2602L143.817 13.2602ZM143.817 13.8362H131.817C131.817 20.4637 137.19 25.8362 143.817 25.8362V13.8362ZM147.093 14.4482L142.083 25.3524C142.102 25.3608 142.12 25.3693 142.138 25.3776L147.093 14.4482ZM149.109 16.1222L138.943 22.4977C138.959 22.5239 138.976 22.55 138.992 22.576L149.109 16.1222ZM138.939 21.3422L130.535 29.908C130.563 29.9351 130.591 29.9622 130.619 29.9891L138.939 21.3422ZM141.801 22.2603V34.2603C148.429 34.2603 153.801 28.8877 153.801 22.2603L141.801 22.2603ZM141.801 14.9522H153.801C153.801 8.32483 148.429 2.95225 141.801 2.95225V14.9522ZM138.957 15.9242L147.442 24.4095L147.442 24.4095L138.957 15.9242ZM146.607 15.8882L138.122 24.3735C138.176 24.4279 138.231 24.4818 138.287 24.5351L146.607 15.8882ZM143.745 14.9522V2.95225C137.118 2.95225 131.745 8.32483 131.745 14.9522L143.745 14.9522ZM143.745 22.2603H131.745C131.745 28.8877 137.118 34.2603 143.745 34.2603V22.2603ZM146.589 21.2882L155.074 29.7735L155.074 29.7735L146.589 21.2882ZM149.775 18.4802H137.775C137.775 17.3701 138.075 16.0103 138.86 14.7295L149.091 21.0002L159.322 27.271C161.019 24.5022 161.775 21.4624 161.775 18.4802H149.775ZM149.091 21.0002L138.831 14.7769C139.784 13.2053 141.039 12.3326 141.882 11.928L147.075 22.7462L152.268 33.5645C154.911 32.2959 157.51 30.2592 159.351 27.2236L149.091 21.0002ZM147.075 22.7462L141.944 11.8984C142.514 11.629 142.995 11.4991 143.316 11.437C143.632 11.3759 143.813 11.3762 143.817 11.3762V23.3762V35.3762C146.353 35.3762 149.3 34.9683 152.206 33.5941L147.075 22.7462ZM143.817 23.3762H131.817V23.9522H143.817H155.817V23.3762H143.817ZM143.817 23.9522L140.763 35.5571C139.925 35.3366 139.135 34.9772 138.439 34.5129L145.095 24.5282L151.752 14.5436C150.263 13.5513 148.621 12.8079 146.871 12.3474L143.817 23.9522ZM145.095 24.5282L133.242 22.6567L133.134 23.3407L144.987 25.2123L156.84 27.0838L156.948 26.3998L145.095 24.5282ZM144.987 25.2123V13.2123H140.577V25.2123V37.2123H144.987V25.2123ZM140.577 25.2123L152.379 23.0383L152.253 22.3543L140.451 24.5282L128.65 26.7022L128.776 27.3862L140.577 25.2123ZM140.451 24.5282L147.426 34.2931C146.804 34.7374 146.282 34.9967 145.988 35.1293L141.063 24.1862L136.139 13.2432C135.364 13.5918 134.434 14.0791 133.476 14.7634L140.451 24.5282ZM141.063 24.1862L145.988 35.1293C145.618 35.2957 145.065 35.5076 144.35 35.6665L141.747 23.9522L139.144 12.238C137.997 12.4929 136.989 12.8608 136.139 13.2432L141.063 24.1862ZM141.747 23.9522H153.747V23.3762H141.747H129.747V23.9522H141.747ZM141.747 23.3762V11.3762C141.621 11.3762 142.316 11.3481 143.39 11.8349L138.435 22.7642L133.48 33.6936C136.354 34.9964 139.257 35.3762 141.747 35.3762V23.3762ZM138.435 22.7642L143.445 11.8601C144.261 12.2348 145.546 13.0741 146.554 14.6545L136.437 21.1082L126.32 27.562C128.217 30.5344 130.834 32.4777 133.425 33.6684L138.435 22.7642ZM136.437 21.1082L146.603 14.7328C147.417 16.0298 147.771 17.4671 147.771 18.7322H135.771H123.771C123.771 21.7494 124.569 24.7707 126.271 27.4837L136.437 21.1082ZM135.771 18.7322H147.771C147.771 19.7792 147.496 21.1362 146.697 22.4536L136.437 16.2302L126.177 10.0069C124.49 12.7883 123.771 15.8133 123.771 18.7322H135.771ZM136.437 16.2302L146.668 22.501C145.73 24.0319 144.475 24.9247 143.546 25.3584L138.471 14.4842L133.396 3.61005C130.667 4.88382 128.056 6.94062 126.206 9.95951L136.437 16.2302ZM138.471 14.4842L143.664 25.3025C142.548 25.8379 141.764 25.8362 141.747 25.8362V13.8362V1.83625C139.162 1.83625 136.194 2.26656 133.278 3.66597L138.471 14.4842ZM141.747 13.8362H153.747V13.2602H141.747H129.747V13.8362H141.747ZM141.747 13.2602L144.35 1.54601C145.065 1.70492 145.618 1.91677 145.988 2.08319L141.063 13.0262L136.139 23.9693C136.989 24.3517 137.997 24.7196 139.144 24.9745L141.747 13.2602ZM141.063 13.0262L145.988 2.08319C146.282 2.2158 146.804 2.47513 147.426 2.91945L140.451 12.6842L133.476 22.4491C134.434 23.1334 135.364 23.6207 136.139 23.9693L141.063 13.0262ZM140.451 12.6842L152.253 14.8582L152.379 14.1742L140.577 12.0002L128.776 9.8263L128.65 10.5103L140.451 12.6842ZM140.577 12.0002V24.0002H144.987V12.0002V0.000249863H140.577V12.0002ZM144.987 12.0002L133.134 13.8718L133.242 14.5558L145.095 12.6842L156.948 10.8127L156.84 10.1287L144.987 12.0002ZM145.095 12.6842L138.439 2.69965C139.135 2.23526 139.925 1.87594 140.763 1.65535L143.817 13.2602L146.871 24.8651C148.621 24.4046 150.263 23.6612 151.752 22.6689L145.095 12.6842ZM143.817 13.2602H131.817V13.8362H143.817H155.817V13.2602H143.817ZM143.817 13.8362V25.8362C143.921 25.8362 143.191 25.8614 142.083 25.3524L147.093 14.4482L152.103 3.54413C149.219 2.21914 146.305 1.83625 143.817 1.83625V13.8362ZM147.093 14.4482L142.138 25.3776C141.291 24.9933 139.965 24.128 138.943 22.4977L149.109 16.1222L159.275 9.74678C157.365 6.70053 154.696 4.71917 152.048 3.51886L147.093 14.4482ZM149.109 16.1222L138.992 22.576C138.13 21.2244 137.775 19.7447 137.775 18.4802H149.775H161.775C161.775 15.4638 160.976 12.4121 159.226 9.66846L149.109 16.1222ZM137.985 18.6602H125.985C125.985 22.0161 126.955 26.3955 130.535 29.908L138.939 21.3422L147.343 12.7765C149.651 15.041 149.985 17.6324 149.985 18.6602H137.985ZM138.939 21.3422L130.619 29.9891C134.312 33.5429 138.792 34.2603 141.801 34.2603V22.2603V10.2603C142.266 10.2603 144.839 10.3656 147.26 12.6954L138.939 21.3422ZM141.801 22.2603H153.801V14.9522H141.801H129.801V22.2603H141.801ZM141.801 14.9522V2.95225C138.551 2.95225 134.086 3.82434 130.472 7.43897L138.957 15.9242L147.442 24.4095C145.124 26.7282 142.555 26.9522 141.801 26.9522V14.9522ZM138.957 15.9242L130.472 7.43897C126.984 10.9269 125.985 15.2455 125.985 18.6602H137.985H149.985C149.985 19.723 149.634 22.2176 147.442 24.4095L138.957 15.9242ZM147.561 18.5522H159.561C159.561 15.2108 158.596 10.7714 154.928 7.24139L146.607 15.8882L138.287 24.5351C135.89 22.2291 135.561 19.5657 135.561 18.5522H147.561ZM146.607 15.8882L155.092 7.40297C151.367 3.67791 146.763 2.95225 143.745 2.95225V14.9522V26.9522C143.295 26.9522 140.599 26.8506 138.122 24.3735L146.607 15.8882ZM143.745 14.9522H131.745V22.2603H143.745H155.745V14.9522H143.745ZM143.745 22.2603V34.2603C146.995 34.2603 151.46 33.3882 155.074 29.7735L146.589 21.2882L138.104 12.803C140.422 10.4843 142.991 10.2603 143.745 10.2603V22.2603ZM146.589 21.2882L155.074 29.7735C158.562 26.2856 159.561 21.967 159.561 18.5522H147.561H135.561C135.561 17.4895 135.912 14.9949 138.104 12.803L146.589 21.2882ZM156.396 13.5122V1.51225C149.768 1.51225 144.396 6.88483 144.396 13.5122L156.396 13.5122ZM156.396 23.6642H144.396C144.396 29.1207 148.077 33.8903 153.356 35.2727L156.396 23.6642ZM157.692 24.2222L169.493 26.3962C170.362 21.6793 168.339 16.8981 164.348 14.2376L157.692 24.2222ZM157.566 24.9062V36.9062C163.355 36.9062 168.319 32.7734 169.367 27.0802L157.566 24.9062ZM153.066 24.9062L141.264 27.0802C142.313 32.7734 147.277 36.9062 153.066 36.9062V24.9062ZM152.94 24.2222L146.283 14.2376C142.293 16.8981 140.27 21.6793 141.138 26.3962L152.94 24.2222ZM154.236 23.6642L157.276 35.2727C162.555 33.8903 166.236 29.1207 166.236 23.6642L154.236 23.6642ZM154.236 13.5122H166.236C166.236 6.88483 160.863 1.51225 154.236 1.51225V13.5122ZM151.806 13.5122V1.51225C146.108 1.51225 141.196 5.51918 140.051 11.1009L151.806 13.5122ZM150.87 15.9242L149.173 27.8036C153.819 28.4674 158.426 26.3614 160.964 22.4133L150.87 15.9242ZM149.988 15.7982L138.001 15.2421C137.714 21.4195 142.169 26.8031 148.291 27.6776L149.988 15.7982ZM150.15 12.3062V0.306249C143.739 0.306249 138.46 5.34584 138.163 11.7501L150.15 12.3062ZM160.482 12.3062L172.469 11.7501C172.172 5.34584 166.893 0.306249 160.482 0.306249V12.3062ZM160.644 15.7982L162.341 27.6776C168.463 26.8031 172.918 21.4195 172.631 15.2421L160.644 15.7982ZM159.762 15.9242L149.668 22.4133C152.206 26.3614 156.813 28.4674 161.459 27.8036L159.762 15.9242ZM158.826 13.5122L170.581 11.1009C169.436 5.51919 164.524 1.51225 158.826 1.51225V13.5122ZM156.396 13.5122H144.396V23.6642H156.396H168.396V13.5122H156.396ZM156.396 23.6642L153.356 35.2727C152.827 35.1343 151.982 34.838 151.035 34.2069L157.692 24.2222L164.348 14.2376C162.682 13.1265 160.973 12.4582 159.436 12.0558L156.396 23.6642ZM157.692 24.2222L145.89 22.0483L145.764 22.7323L157.566 24.9062L169.367 27.0802L169.493 26.3962L157.692 24.2222ZM157.566 24.9062V12.9062H153.066V24.9062V36.9062H157.566V24.9062ZM153.066 24.9062L164.867 22.7323L164.741 22.0483L152.94 24.2222L141.138 26.3962L141.264 27.0802L153.066 24.9062ZM152.94 24.2222L159.596 34.2069C158.65 34.838 157.805 35.1343 157.276 35.2727L154.236 23.6642L151.196 12.0558C149.659 12.4582 147.95 13.1265 146.283 14.2376L152.94 24.2222ZM154.236 23.6642H166.236V13.5122H154.236H142.236V23.6642H154.236ZM154.236 13.5122V1.51225H151.806V13.5122V25.5122H154.236V13.5122ZM151.806 13.5122L140.051 11.1009C140.099 10.8643 140.267 10.2262 140.776 9.43516L150.87 15.9242L160.964 22.4133C162.337 20.2783 163.129 18.0322 163.561 15.9236L151.806 13.5122ZM150.87 15.9242L152.567 4.04486L151.685 3.91886L149.988 15.7982L148.291 27.6776L149.173 27.8036L150.87 15.9242ZM149.988 15.7982L161.975 16.3544L162.137 12.8624L150.15 12.3062L138.163 11.7501L138.001 15.2421L149.988 15.7982ZM150.15 12.3062V24.3062H160.482V12.3062V0.306249H150.15V12.3062ZM160.482 12.3062L148.495 12.8624L148.657 16.3544L160.644 15.7982L172.631 15.2421L172.469 11.7501L160.482 12.3062ZM160.644 15.7982L158.947 3.91886L158.065 4.04486L159.762 15.9242L161.459 27.8036L162.341 27.6776L160.644 15.7982ZM159.762 15.9242L169.856 9.43516C170.365 10.2262 170.533 10.8643 170.581 11.1009L158.826 13.5122L147.071 15.9236C147.503 18.0322 148.295 20.2783 149.668 22.4133L159.762 15.9242ZM158.826 13.5122V1.51225H156.396V13.5122V25.5122H158.826V13.5122Z" fill="#4E91FD" mask="url(#path-1-outside-1_425_8990)"/>
</svg>
