<svg width="298" height="117" viewBox="0 0 298 117" fill="none" xmlns="http://www.w3.org/2000/svg">
<mask id="mask0_382_5410" style="mask-type:luminance" maskUnits="userSpaceOnUse" x="0" y="0" width="298" height="117">
<path d="M298 0L0 1.5392e-05L6.04329e-06 117.002L298 117.002L298 0Z" fill="white"/>
</mask>
<g mask="url(#mask0_382_5410)">
<mask id="mask1_382_5410" style="mask-type:luminance" maskUnits="userSpaceOnUse" x="0" y="0" width="298" height="117">
<path d="M298 0L0 1.5392e-05L6.04329e-06 117.002L298 117.002L298 0Z" fill="white"/>
</mask>
<g mask="url(#mask1_382_5410)">
<path d="M14.7224 32.6382L8.75525 32.6382L8.75525 57.8078L2.95799e-06 57.8078L0 0.539078L8.75525 0.539077L8.75525 23.4763L14.7224 23.4763L14.7224 0.539077L23.4777 0.539077L23.4777 57.8041L14.7224 57.8041L14.7224 32.6382Z" fill="#404859"/>
<path d="M38.4316 58.4192L36.7251 58.4192C29.7532 58.4192 26.0332 54.6477 26.0332 47.5659L26.0332 36.0992L34.7117 36.0992L34.7117 46.1068C34.7117 48.724 35.5631 50.1107 37.5802 50.1107C39.5976 50.1107 40.445 48.724 40.445 45.1849L40.445 43.8782C40.445 39.7983 40.0576 38.3352 36.8823 34.2553L31.3025 27.1735C27.5825 22.4001 26.4972 18.7048 26.4972 13.0096L26.4972 11.162C26.4972 3.54287 30.3705 1.5168e-05 37.2657 1.48119e-05L38.8957 1.47277e-05C46.1017 1.43555e-05 48.8895 3.15431 48.8895 9.92768L48.8895 19.3182L40.445 19.3182L40.445 11.0819C40.445 9.15812 40.0576 7.69527 37.9676 7.69527C35.8776 7.69527 35.4096 9.00194 35.4096 11.6991L35.4096 12.7772C35.4096 16.0115 36.0309 17.7791 38.9723 21.5505L44.5523 28.7086C48.5021 33.7868 49.741 36.7124 49.741 43.1773L49.741 45.0248C49.741 53.4134 46.1017 58.4154 38.4279 58.4154L38.4316 58.4192Z" fill="#404859"/>
<path d="M72.1356 0.539077L72.1356 8.85145L60.9758 8.85145L60.9758 23.861L69.7309 23.861L69.7309 32.5582L60.9758 32.5582L60.9758 49.1068L72.5997 49.1068L72.5997 57.804L52.2207 57.8041L52.2207 0.539078L72.1317 0.539077L72.1356 0.539077Z" fill="#404859"/>
<path d="M96.236 47.0306L89.8817 47.0306L88.7194 57.8078L80.8926 57.8078L87.945 0.539078L98.3259 0.539077L105.842 57.8041L97.3983 57.8041L96.236 47.0269L96.236 47.0306ZM95.3045 38.486L92.98 17.3201L90.733 38.486L95.3045 38.486Z" fill="#404859"/>
<path d="M115.991 57.8041L107.236 57.8041L107.236 0.539078L121.414 0.539077C127.224 0.539077 130.169 3.00384 130.169 9.38862L130.169 19.5486C130.169 24.322 127.922 26.1696 126.372 26.8591C128.309 27.7047 130.169 29.2438 130.169 33.0953L130.169 53.183C130.169 55.4917 130.634 56.5697 131.021 57.4153L131.021 57.8L122.342 57.8C121.955 57.1829 121.491 56.1849 121.491 53.1067L121.491 35.8649C121.491 33.324 121.026 32.2457 118.238 32.2457L115.991 32.2457L115.991 57.8L115.991 57.8041ZM115.991 24.0896L118.315 24.0896C120.72 24.0896 121.491 22.5506 121.491 20.0096L121.491 12.0096C121.491 9.5448 120.95 8.31434 118.315 8.31434L115.991 8.31434L115.991 24.0934L115.991 24.0896Z" fill="#404859"/>
<path d="M147.837 8.85145L147.837 57.804L139.158 57.8041L139.158 8.85145L131.799 8.85145L131.799 0.539078L155.199 0.539077L155.199 8.85145L147.84 8.85145L147.837 8.85145Z" fill="#404859"/>
<path d="M178.75 47.0306L172.395 47.0306L171.234 57.8078L163.406 57.8078L170.459 0.539078L180.84 0.539077L188.357 57.8041L179.912 57.8041L178.75 47.0269L178.75 47.0306ZM177.818 38.486L175.494 17.3201L173.247 38.486L177.818 38.486Z" fill="#404859"/>
<path d="M197.66 0.539077L205.176 31.2515L205.176 0.539077L213.157 0.539077L213.157 57.804L206.028 57.804L197.66 24.8629L197.66 57.8041L189.756 57.8041L189.756 0.539078L197.66 0.539077Z" fill="#404859"/>
<path d="M216.41 0.539078L229.814 0.539077C237.33 0.539077 239.654 4.77148 239.654 11.5448L239.654 46.4133C239.654 53.4191 237.019 57.804 229.814 57.804L216.41 57.8041L216.41 0.539078ZM225.166 49.4916L227.256 49.4916C229.89 49.4916 230.665 48.1048 230.665 45.0269L230.665 12.7791C230.665 9.46865 229.814 8.31434 227.643 8.31434L225.166 8.31434L225.166 49.4916Z" fill="#404859"/>
<path d="M0 58.961L13.4032 58.961C20.9197 58.961 23.2437 63.1935 23.2437 69.967L23.2437 104.832C23.2437 111.838 20.6091 116.222 13.4032 116.222L2.95761e-06 116.222L0 58.961ZM8.75525 107.914L10.8491 107.914C13.4838 107.914 14.2584 106.527 14.2584 103.448L14.2584 71.1972C14.2584 67.8869 13.407 66.7324 11.2365 66.7324L8.75525 66.7324L8.75525 107.909L8.75525 107.914Z" fill="#404859"/>
<path d="M46.2587 58.961L46.2587 67.2734L35.1029 67.2734L35.1029 82.2827L43.8582 82.2827L43.8582 90.9802L35.1029 90.9802L35.1029 107.529L46.7267 107.529L46.7267 116.226L26.3477 116.226L26.3477 58.961L46.2587 58.961Z" fill="#404859"/>
<path d="M60.6679 116.841L58.9613 116.841C51.9895 116.841 48.2695 113.07 48.2695 105.988L48.2695 94.5207L56.948 94.5207L56.948 104.529C56.948 107.146 57.7994 108.533 59.8127 108.533C61.8261 108.533 62.6813 107.146 62.6813 103.607L62.6813 102.3C62.6813 98.2202 62.2939 96.7574 59.1186 92.6772L53.5388 85.595C49.8189 80.8218 48.7335 77.1269 48.7335 71.4312L48.7335 69.5838C48.7335 61.9647 52.6068 58.4219 59.5023 58.4219L61.1282 58.4219C68.3339 58.4219 71.1219 61.5762 71.1219 68.3497L71.1219 77.7403L62.6775 77.7403L62.6775 69.5036C62.6775 67.5799 62.2901 66.117 60.1962 66.117C58.1024 66.117 57.6384 67.4241 57.6384 70.1209L57.6384 71.1992C57.6384 74.4332 58.2597 76.2012 61.2011 79.9724L66.7812 87.1302C70.7308 92.2085 71.9739 95.1342 71.9739 101.599L71.9739 103.447C71.9739 111.835 68.3339 116.841 60.6602 116.841L60.6679 116.841Z" fill="#404859"/>
<path d="M83.2141 116.226L74.459 116.226L74.459 58.961L83.2141 58.961L83.2141 116.226Z" fill="#404859"/>
<path d="M94.6101 116.997C89.4982 116.997 86.2422 112.456 86.2422 106.529L86.2422 70.7383C86.2422 64.3494 88.7232 58.4219 97.0109 58.4219L98.7175 58.4219C108.094 58.4219 109.179 64.5017 109.179 71.2748L109.179 77.123L100.658 77.123L100.658 70.6581C100.658 68.117 100.036 66.7305 97.87 66.7305C96.0103 66.7305 95.1583 68.117 95.1583 70.6581L95.1583 104.14C95.1583 106.833 96.2436 108.22 98.0232 108.22C100.271 108.22 101.279 106.681 101.279 104.525L101.279 90.2085L97.329 90.2085L97.329 81.4352L109.57 81.4352L109.57 116.224L104.612 116.224C104.535 115.915 103.837 113.07 103.139 110.605C102.518 112.529 99.5766 116.994 95.1583 116.994L94.6179 116.994L94.6101 116.997Z" fill="#404859"/>
<path d="M120.488 58.961L128.004 89.6738L128.004 58.961L135.985 58.961L135.985 116.226L128.856 116.226L120.488 83.2852L120.488 116.226L112.584 116.226L112.584 58.961L120.488 58.961Z" fill="#404859"/>
<path d="M158.844 116.841L157.137 116.841C150.165 116.841 146.445 113.07 146.445 105.988L146.445 94.5207L155.124 94.5207L155.124 104.529C155.124 107.146 155.975 108.533 157.992 108.533C160.009 108.533 160.857 107.146 160.857 103.607L160.857 102.3C160.857 98.2202 160.469 96.7574 157.294 92.6772L151.714 85.595C147.995 80.8218 146.909 77.1269 146.909 71.4312L146.909 69.5838C146.909 61.9647 150.783 58.4219 157.678 58.4219L159.308 58.4219C166.513 58.4219 169.301 61.5762 169.301 68.3497L169.301 77.7403L160.857 77.7403L160.857 69.5036C160.857 67.5799 160.469 66.117 158.38 66.117C156.29 66.117 155.822 67.4241 155.822 70.1209L155.822 71.1992C155.822 74.4332 156.443 76.2012 159.384 79.9724L164.964 87.1302C168.914 92.2085 170.153 95.1342 170.153 101.599L170.153 103.447C170.153 111.835 166.513 116.841 158.84 116.841L158.844 116.841Z" fill="#404859"/>
<path d="M186.966 104.601L186.966 91.2868L195.567 91.2868L195.567 104.525C195.567 110.681 193.555 116.917 185.106 116.917L183.169 116.917C174.337 116.917 172.4 110.605 172.4 104.833L172.4 69.8883C172.4 64.0409 174.958 58.4219 182.858 58.4219L184.872 58.4219C194.479 58.4219 195.564 64.7344 195.564 70.3531L195.564 80.5898L186.962 80.5898L186.962 70.5056C186.962 68.0408 186.187 66.7344 184.017 66.7344C181.846 66.7344 181.305 67.9645 181.305 70.5056L181.305 104.525C181.305 107.066 182.157 108.449 184.093 108.449C186.183 108.449 186.962 106.909 186.962 104.601L186.966 104.601Z" fill="#404859"/>
<path d="M213.078 91.0604L207.111 91.0604L207.111 116.23L198.355 116.23L198.355 58.961L207.111 58.961L207.111 81.898L213.078 81.898L213.078 58.961L221.833 58.961L221.833 116.226L213.078 116.226L213.078 91.0565L213.078 91.0604Z" fill="#404859"/>
<path d="M248.799 103.45C248.799 111.454 246.088 116.921 237.643 116.921L236.17 116.921C227.803 116.921 224.857 111.458 224.857 103.45L224.857 71.5838C224.857 63.6562 227.879 58.4219 236.09 58.4219L237.562 58.4219C246.083 58.4219 248.795 63.6562 248.795 71.5075L248.795 103.45L248.799 103.45ZM239.89 71.1229C239.89 68.1209 238.882 66.7343 236.868 66.7343C234.621 66.7343 233.77 68.1972 233.77 71.1229L233.77 104.064C233.77 106.529 234.467 108.452 236.945 108.452C239.269 108.452 239.89 106.529 239.89 104.064L239.89 71.1229Z" fill="#404859"/>
<path d="M275.529 103.45C275.529 111.454 272.818 116.921 264.37 116.921L262.897 116.921C254.529 116.921 251.584 111.458 251.584 103.45L251.584 71.5838C251.584 63.6562 254.606 58.4219 262.821 58.4219L264.293 58.4219C272.815 58.4219 275.526 63.6562 275.526 71.5075L275.529 103.45ZM266.62 71.1229C266.62 68.1209 265.612 66.7343 263.599 66.7343C261.351 66.7343 260.501 68.1972 260.501 71.1229L260.501 104.064C260.501 106.529 261.194 108.452 263.676 108.452C266 108.452 266.62 106.529 266.62 104.064L266.62 71.1229Z" fill="#404859"/>
<path d="M287.301 58.961L287.301 107.372L297.992 107.372L297.992 116.222L278.545 116.222L278.545 58.961L287.301 58.961Z" fill="#404859"/>
</g>
</g>
</svg>
