<svg width="502" height="117" viewBox="0 0 502 117" fill="none" xmlns="http://www.w3.org/2000/svg">
<mask id="path-1-outside-1_382_5365" maskUnits="userSpaceOnUse" x="-0.533203" y="49.3984" width="86" height="56" fill="black">
<rect fill="white" x="-0.533203" y="49.3984" width="86" height="56"/>
<path d="M20.8348 76.3364C20.8348 76.8218 21.0688 77.2291 21.5368 77.5584C22.0048 77.8704 22.7328 78.2344 23.7208 78.6504C24.6048 79.0144 25.3328 79.3524 25.9048 79.6644C26.4768 79.9764 26.9621 80.3924 27.3608 80.9124C27.7595 81.4151 27.9588 82.0304 27.9588 82.7584C27.9588 83.9024 27.4908 84.8384 26.5548 85.5664C25.6361 86.2944 24.3795 86.6584 22.7848 86.6584C21.9701 86.6584 21.1208 86.5631 20.2368 86.3724C19.3701 86.1818 18.6421 85.9304 18.0528 85.6184L18.4428 81.9264H19.5868C20.1241 82.9491 20.4708 83.9024 20.6268 84.7864C21.1988 85.0638 21.8835 85.2024 22.6808 85.2024C23.4781 85.2024 24.0848 85.0378 24.5008 84.7084C24.9168 84.3618 25.1248 83.8938 25.1248 83.3044C25.1248 82.7498 24.8735 82.3078 24.3708 81.9784C23.8855 81.6318 23.1315 81.2504 22.1088 80.8344C21.2248 80.4704 20.5055 80.1411 19.9508 79.8464C19.4135 79.5518 18.9541 79.1618 18.5728 78.6764C18.1915 78.1738 18.0008 77.5758 18.0008 76.8824C18.0008 76.2411 18.1915 75.6518 18.5728 75.1144C18.9541 74.5771 19.5175 74.1438 20.2628 73.8144C21.0081 73.4851 21.9008 73.3204 22.9408 73.3204C23.6688 73.3204 24.4141 73.4071 25.1768 73.5804C25.9568 73.7364 26.6501 73.9531 27.2568 74.2304L26.8668 77.8184H25.7228C25.2375 76.7784 24.9341 75.8598 24.8128 75.0624C24.2061 74.8718 23.5908 74.7764 22.9668 74.7764C22.2561 74.7764 21.7188 74.9238 21.3548 75.2184C21.0081 75.4958 20.8348 75.8684 20.8348 76.3364ZM32.7308 76.3364C32.7308 76.8218 32.9648 77.2291 33.4328 77.5584C33.9008 77.8704 34.6288 78.2344 35.6168 78.6504C36.5008 79.0144 37.2288 79.3524 37.8008 79.6644C38.3728 79.9764 38.8581 80.3924 39.2568 80.9124C39.6555 81.4151 39.8548 82.0304 39.8548 82.7584C39.8548 83.9024 39.3868 84.8384 38.4508 85.5664C37.5321 86.2944 36.2755 86.6584 34.6808 86.6584C33.8661 86.6584 33.0168 86.5631 32.1328 86.3724C31.2661 86.1818 30.5381 85.9304 29.9488 85.6184L30.3388 81.9264H31.4828C32.0201 82.9491 32.3668 83.9024 32.5228 84.7864C33.0948 85.0638 33.7795 85.2024 34.5768 85.2024C35.3741 85.2024 35.9808 85.0378 36.3968 84.7084C36.8128 84.3618 37.0208 83.8938 37.0208 83.3044C37.0208 82.7498 36.7695 82.3078 36.2668 81.9784C35.7815 81.6318 35.0275 81.2504 34.0048 80.8344C33.1208 80.4704 32.4015 80.1411 31.8468 79.8464C31.3095 79.5518 30.8501 79.1618 30.4688 78.6764C30.0875 78.1738 29.8968 77.5758 29.8968 76.8824C29.8968 76.2411 30.0875 75.6518 30.4688 75.1144C30.8501 74.5771 31.4135 74.1438 32.1588 73.8144C32.9041 73.4851 33.7968 73.3204 34.8368 73.3204C35.5648 73.3204 36.3101 73.4071 37.0728 73.5804C37.8528 73.7364 38.5461 73.9531 39.1528 74.2304L38.7628 77.8184H37.6188C37.1335 76.7784 36.8301 75.8598 36.7088 75.0624C36.1021 74.8718 35.4868 74.7764 34.8628 74.7764C34.1521 74.7764 33.6148 74.9238 33.2508 75.2184C32.9041 75.4958 32.7308 75.8684 32.7308 76.3364ZM49.1206 86.6584C47.6472 86.6584 46.3559 86.2944 45.2466 85.5664C44.1372 84.8211 43.2792 83.7638 42.6726 82.3944C42.0659 81.0251 41.7626 79.4044 41.7626 77.5324C41.7626 75.6604 42.0746 73.9964 42.6986 72.5404C43.3399 71.0844 44.2152 69.9578 45.3246 69.1604C46.4512 68.3458 47.7166 67.9384 49.1206 67.9384C50.5939 67.9384 51.8852 68.3111 52.9946 69.0564C54.1039 69.8018 54.9619 70.8591 55.5686 72.2284C56.1752 73.5978 56.4786 75.2098 56.4786 77.0644C56.4786 78.9711 56.1579 80.6524 55.5166 82.1084C54.8752 83.5471 53.9912 84.6651 52.8646 85.4624C51.7552 86.2598 50.5072 86.6584 49.1206 86.6584ZM49.1206 85.0464C49.9352 85.0464 50.6459 84.7431 51.2526 84.1364C51.8766 83.5298 52.3532 82.6458 52.6826 81.4844C53.0292 80.3231 53.2026 78.9278 53.2026 77.2984C53.2026 75.6691 53.0292 74.2738 52.6826 73.1124C52.3532 71.9511 51.8766 71.0671 51.2526 70.4604C50.6459 69.8538 49.9352 69.5504 49.1206 69.5504C48.3059 69.5504 47.5866 69.8538 46.9626 70.4604C46.3559 71.0671 45.8792 71.9511 45.5326 73.1124C45.2032 74.2738 45.0386 75.6691 45.0386 77.2984C45.0386 78.9278 45.2032 80.3231 45.5326 81.4844C45.8792 82.6458 46.3559 83.5298 46.9626 84.1364C47.5866 84.7431 48.3059 85.0464 49.1206 85.0464ZM59.8317 85.4104C60.3691 85.0464 60.9844 84.7778 61.6777 84.6044V71.5784C60.9671 72.0638 60.1437 72.4018 59.2077 72.5924L58.6097 71.4744L62.4837 68.1984H64.7977V84.6044C65.5257 84.7951 66.1497 85.0638 66.6697 85.4104L66.4877 86.3984H59.9877L59.8317 85.4104Z"/>
</mask>
<path d="M20.8348 76.3364C20.8348 76.8218 21.0688 77.2291 21.5368 77.5584C22.0048 77.8704 22.7328 78.2344 23.7208 78.6504C24.6048 79.0144 25.3328 79.3524 25.9048 79.6644C26.4768 79.9764 26.9621 80.3924 27.3608 80.9124C27.7595 81.4151 27.9588 82.0304 27.9588 82.7584C27.9588 83.9024 27.4908 84.8384 26.5548 85.5664C25.6361 86.2944 24.3795 86.6584 22.7848 86.6584C21.9701 86.6584 21.1208 86.5631 20.2368 86.3724C19.3701 86.1818 18.6421 85.9304 18.0528 85.6184L18.4428 81.9264H19.5868C20.1241 82.9491 20.4708 83.9024 20.6268 84.7864C21.1988 85.0638 21.8835 85.2024 22.6808 85.2024C23.4781 85.2024 24.0848 85.0378 24.5008 84.7084C24.9168 84.3618 25.1248 83.8938 25.1248 83.3044C25.1248 82.7498 24.8735 82.3078 24.3708 81.9784C23.8855 81.6318 23.1315 81.2504 22.1088 80.8344C21.2248 80.4704 20.5055 80.1411 19.9508 79.8464C19.4135 79.5518 18.9541 79.1618 18.5728 78.6764C18.1915 78.1738 18.0008 77.5758 18.0008 76.8824C18.0008 76.2411 18.1915 75.6518 18.5728 75.1144C18.9541 74.5771 19.5175 74.1438 20.2628 73.8144C21.0081 73.4851 21.9008 73.3204 22.9408 73.3204C23.6688 73.3204 24.4141 73.4071 25.1768 73.5804C25.9568 73.7364 26.6501 73.9531 27.2568 74.2304L26.8668 77.8184H25.7228C25.2375 76.7784 24.9341 75.8598 24.8128 75.0624C24.2061 74.8718 23.5908 74.7764 22.9668 74.7764C22.2561 74.7764 21.7188 74.9238 21.3548 75.2184C21.0081 75.4958 20.8348 75.8684 20.8348 76.3364ZM32.7308 76.3364C32.7308 76.8218 32.9648 77.2291 33.4328 77.5584C33.9008 77.8704 34.6288 78.2344 35.6168 78.6504C36.5008 79.0144 37.2288 79.3524 37.8008 79.6644C38.3728 79.9764 38.8581 80.3924 39.2568 80.9124C39.6555 81.4151 39.8548 82.0304 39.8548 82.7584C39.8548 83.9024 39.3868 84.8384 38.4508 85.5664C37.5321 86.2944 36.2755 86.6584 34.6808 86.6584C33.8661 86.6584 33.0168 86.5631 32.1328 86.3724C31.2661 86.1818 30.5381 85.9304 29.9488 85.6184L30.3388 81.9264H31.4828C32.0201 82.9491 32.3668 83.9024 32.5228 84.7864C33.0948 85.0638 33.7795 85.2024 34.5768 85.2024C35.3741 85.2024 35.9808 85.0378 36.3968 84.7084C36.8128 84.3618 37.0208 83.8938 37.0208 83.3044C37.0208 82.7498 36.7695 82.3078 36.2668 81.9784C35.7815 81.6318 35.0275 81.2504 34.0048 80.8344C33.1208 80.4704 32.4015 80.1411 31.8468 79.8464C31.3095 79.5518 30.8501 79.1618 30.4688 78.6764C30.0875 78.1738 29.8968 77.5758 29.8968 76.8824C29.8968 76.2411 30.0875 75.6518 30.4688 75.1144C30.8501 74.5771 31.4135 74.1438 32.1588 73.8144C32.9041 73.4851 33.7968 73.3204 34.8368 73.3204C35.5648 73.3204 36.3101 73.4071 37.0728 73.5804C37.8528 73.7364 38.5461 73.9531 39.1528 74.2304L38.7628 77.8184H37.6188C37.1335 76.7784 36.8301 75.8598 36.7088 75.0624C36.1021 74.8718 35.4868 74.7764 34.8628 74.7764C34.1521 74.7764 33.6148 74.9238 33.2508 75.2184C32.9041 75.4958 32.7308 75.8684 32.7308 76.3364ZM49.1206 86.6584C47.6472 86.6584 46.3559 86.2944 45.2466 85.5664C44.1372 84.8211 43.2792 83.7638 42.6726 82.3944C42.0659 81.0251 41.7626 79.4044 41.7626 77.5324C41.7626 75.6604 42.0746 73.9964 42.6986 72.5404C43.3399 71.0844 44.2152 69.9578 45.3246 69.1604C46.4512 68.3458 47.7166 67.9384 49.1206 67.9384C50.5939 67.9384 51.8852 68.3111 52.9946 69.0564C54.1039 69.8018 54.9619 70.8591 55.5686 72.2284C56.1752 73.5978 56.4786 75.2098 56.4786 77.0644C56.4786 78.9711 56.1579 80.6524 55.5166 82.1084C54.8752 83.5471 53.9912 84.6651 52.8646 85.4624C51.7552 86.2598 50.5072 86.6584 49.1206 86.6584ZM49.1206 85.0464C49.9352 85.0464 50.6459 84.7431 51.2526 84.1364C51.8766 83.5298 52.3532 82.6458 52.6826 81.4844C53.0292 80.3231 53.2026 78.9278 53.2026 77.2984C53.2026 75.6691 53.0292 74.2738 52.6826 73.1124C52.3532 71.9511 51.8766 71.0671 51.2526 70.4604C50.6459 69.8538 49.9352 69.5504 49.1206 69.5504C48.3059 69.5504 47.5866 69.8538 46.9626 70.4604C46.3559 71.0671 45.8792 71.9511 45.5326 73.1124C45.2032 74.2738 45.0386 75.6691 45.0386 77.2984C45.0386 78.9278 45.2032 80.3231 45.5326 81.4844C45.8792 82.6458 46.3559 83.5298 46.9626 84.1364C47.5866 84.7431 48.3059 85.0464 49.1206 85.0464ZM59.8317 85.4104C60.3691 85.0464 60.9844 84.7778 61.6777 84.6044V71.5784C60.9671 72.0638 60.1437 72.4018 59.2077 72.5924L58.6097 71.4744L62.4837 68.1984H64.7977V84.6044C65.5257 84.7951 66.1497 85.0638 66.6697 85.4104L66.4877 86.3984H59.9877L59.8317 85.4104Z" fill="#A5D0FD"/>
<path d="M21.5368 77.5584L11.1779 92.2789C11.3016 92.366 11.4264 92.4515 11.5522 92.5354L21.5368 77.5584ZM23.7208 78.6504L16.7358 95.2399C16.7795 95.2583 16.8234 95.2766 16.8673 95.2946L23.7208 78.6504ZM25.9048 79.6644L17.2855 95.4666L17.2855 95.4666L25.9048 79.6644ZM27.3608 80.9124L13.0759 91.8642C13.1359 91.9425 13.1965 92.0203 13.2578 92.0975L27.3608 80.9124ZM26.5548 85.5664L15.5039 71.3581C15.4609 71.3915 15.418 71.4252 15.3753 71.459L26.5548 85.5664ZM20.2368 86.3724L16.3693 103.952C16.3934 103.957 16.4176 103.963 16.4417 103.968L20.2368 86.3724ZM18.0528 85.6184L0.152391 83.7275C-0.62001 91.0396 3.13256 98.0864 9.63082 101.527L18.0528 85.6184ZM18.4428 81.9264V63.9264C9.23367 63.9264 1.5098 70.8774 0.542391 80.0355L18.4428 81.9264ZM19.5868 81.9264L35.5212 73.5541C32.4106 67.634 26.2743 63.9264 19.5868 63.9264V81.9264ZM20.6268 84.7864L2.90069 87.9146C3.90444 93.6025 7.57672 98.4633 12.7739 100.983L20.6268 84.7864ZM24.5008 84.7084L35.6735 98.8213C35.7915 98.7278 35.9084 98.6328 36.0241 98.5364L24.5008 84.7084ZM24.3708 81.9784L13.9085 96.6256C14.105 96.766 14.3043 96.9024 14.5063 97.0347L24.3708 81.9784ZM22.1088 80.8344L15.2553 97.4786C15.279 97.4884 15.3027 97.4981 15.3264 97.5078L22.1088 80.8344ZM19.9508 79.8464L11.2958 95.6291C11.3656 95.6673 11.4357 95.7052 11.506 95.7425L19.9508 79.8464ZM18.5728 78.6764L4.23236 89.5554C4.29391 89.6365 4.35615 89.7171 4.41907 89.7972L18.5728 78.6764ZM18.5728 75.1144L33.2519 85.5319L33.2519 85.5319L18.5728 75.1144ZM20.2628 73.8144L27.5377 90.2788H27.5377L20.2628 73.8144ZM25.1768 73.5804L21.1876 91.1328C21.3402 91.1675 21.4933 91.2002 21.6467 91.2309L25.1768 73.5804ZM27.2568 74.2304L45.1514 76.1755C45.9895 68.4649 41.7943 61.0845 34.7405 57.8599L27.2568 74.2304ZM26.8668 77.8184V95.8184C36.0551 95.8184 43.7685 88.898 44.7614 79.7635L26.8668 77.8184ZM25.7228 77.8184L9.4115 85.4304C12.3689 91.7677 18.7294 95.8184 25.7228 95.8184V77.8184ZM24.8128 75.0624L42.6079 72.3545C41.5743 65.5621 36.7642 59.9505 30.2097 57.8906L24.8128 75.0624ZM21.3548 75.2184L32.5993 89.2741C32.6264 89.2524 32.6534 89.2307 32.6804 89.2088L21.3548 75.2184ZM20.8348 76.3364H2.8348C2.8348 83.785 6.90069 89.269 11.1779 92.2789L21.5368 77.5584L31.8957 62.8379C33.3507 63.8618 35.1727 65.5235 36.6182 68.0397C38.1219 70.6573 38.8348 73.5416 38.8348 76.3364H20.8348ZM21.5368 77.5584L11.5522 92.5354C13.4682 93.8127 15.4596 94.7026 16.7358 95.2399L23.7208 78.6504L30.7058 62.061C30.4666 61.9603 30.4089 61.9284 30.4836 61.9657C30.5262 61.987 30.6347 62.0422 30.7936 62.1321C30.9479 62.2193 31.2016 62.3683 31.5214 62.5815L21.5368 77.5584ZM23.7208 78.6504L16.8673 95.2946C17.1093 95.3943 17.2656 95.464 17.3498 95.5031C17.4388 95.5444 17.4073 95.533 17.2855 95.4666L25.9048 79.6644L34.5241 63.8623C33.1823 63.1304 31.811 62.5155 30.5743 62.0062L23.7208 78.6504ZM25.9048 79.6644L17.2855 95.4666C15.6382 94.5681 14.1975 93.3272 13.0759 91.8642L27.3608 80.9124L41.6457 69.9607C39.7268 67.4577 37.3154 65.3848 34.5241 63.8623L25.9048 79.6644ZM27.3608 80.9124L13.2578 92.0975C10.7967 88.9943 9.9588 85.5154 9.9588 82.7584H27.9588H45.9588C45.9588 78.5455 44.7223 73.8359 41.4638 69.7273L27.3608 80.9124ZM27.9588 82.7584H9.9588C9.9588 80.8009 10.3791 78.5266 11.5081 76.2686C12.627 74.0307 14.1338 72.4237 15.5039 71.3581L26.5548 85.5664L37.6057 99.7748C42.7397 95.7817 45.9588 89.6893 45.9588 82.7584H27.9588ZM26.5548 85.5664L15.3753 71.459C18.6146 68.8921 21.773 68.6584 22.7848 68.6584V86.6584V104.658C26.9859 104.658 32.6577 103.697 37.7343 99.6739L26.5548 85.5664ZM22.7848 86.6584V68.6584C23.3766 68.6584 23.8034 68.7278 24.0319 68.7771L20.2368 86.3724L16.4417 103.968C18.4382 104.398 20.5636 104.658 22.7848 104.658V86.6584ZM20.2368 86.3724L24.1043 68.7928C24.3354 68.8437 25.2446 69.059 26.4748 69.7103L18.0528 85.6184L9.63082 101.527C12.0397 102.802 14.4049 103.52 16.3693 103.952L20.2368 86.3724ZM18.0528 85.6184L35.9532 87.5093L36.3432 83.8173L18.4428 81.9264L0.542391 80.0355L0.152391 83.7275L18.0528 85.6184ZM18.4428 81.9264V99.9264H19.5868V81.9264V63.9264H18.4428V81.9264ZM19.5868 81.9264L3.65241 90.2987C3.56004 90.1229 3.14497 89.2988 2.90069 87.9146L20.6268 84.7864L38.3529 81.6583C37.7966 78.5061 36.6882 75.7753 35.5212 73.5541L19.5868 81.9264ZM20.6268 84.7864L12.7739 100.983C16.335 102.71 19.8368 103.202 22.6808 103.202V85.2024V67.2024C23.9301 67.2024 26.0626 67.4178 28.4797 68.5898L20.6268 84.7864ZM22.6808 85.2024V103.202C25.5845 103.202 30.8278 102.657 35.6735 98.8213L24.5008 84.7084L13.3281 70.5956C17.3418 67.4181 21.3717 67.2024 22.6808 67.2024V85.2024ZM24.5008 84.7084L36.0241 98.5364C40.9386 94.441 43.1248 88.6999 43.1248 83.3044H25.1248H7.1248C7.1248 81.4582 7.45833 79.1761 8.52019 76.7869C9.60084 74.3555 11.1906 72.3695 12.9775 70.8805L24.5008 84.7084ZM25.1248 83.3044H43.1248C43.1248 76.102 39.3112 70.2478 34.2353 66.9221L24.3708 81.9784L14.5063 97.0347C12.8016 95.9179 10.8104 94.1299 9.28907 91.4544C7.73477 88.7209 7.1248 85.8552 7.1248 83.3044H25.1248ZM24.3708 81.9784L34.8331 67.3312C32.618 65.749 30.3137 64.7398 28.8912 64.1611L22.1088 80.8344L15.3264 97.5078C15.5118 97.5831 15.4882 97.5813 15.3177 97.495C15.2261 97.4487 15.0604 97.3621 14.8395 97.2323C14.6231 97.1052 14.2997 96.9051 13.9085 96.6256L24.3708 81.9784ZM22.1088 80.8344L28.9623 64.1902C28.6927 64.0792 28.5096 63.9987 28.3993 63.9482C28.2832 63.895 28.2926 63.8956 28.3956 63.9504L19.9508 79.8464L11.506 95.7425C12.7712 96.4146 14.0772 96.9935 15.2553 97.4786L22.1088 80.8344ZM19.9508 79.8464L28.6058 64.0638C30.2126 64.945 31.6191 66.1462 32.7265 67.5556L18.5728 78.6764L4.41907 89.7972C6.28913 92.1773 8.61429 94.1585 11.2958 95.6291L19.9508 79.8464ZM18.5728 78.6764L32.9132 67.7975C35.143 70.7368 36.0008 74.058 36.0008 76.8824H18.0008H0.000797272C0.000797272 81.0936 1.23988 85.6108 4.23236 89.5554L18.5728 78.6764ZM18.0008 76.8824H36.0008C36.0008 80.0816 34.9678 83.1141 33.2519 85.5319L18.5728 75.1144L3.89367 64.697C1.41517 68.1894 0.000797272 72.4006 0.000797272 76.8824H18.0008ZM18.5728 75.1144L33.2519 85.5319C31.3578 88.2009 29.0619 89.6053 27.5377 90.2788L20.2628 73.8144L12.9879 57.3501C9.97304 58.6822 6.55047 60.9533 3.89367 64.697L18.5728 75.1144ZM20.2628 73.8144L27.5377 90.2788C25.4516 91.2006 23.7398 91.3204 22.9408 91.3204V73.3204V55.3204C20.0618 55.3204 16.5647 55.7696 12.9878 57.3501L20.2628 73.8144ZM22.9408 73.3204V91.3204C22.2312 91.3204 21.6374 91.2351 21.1876 91.1328L25.1768 73.5804L29.166 56.028C27.1908 55.5791 25.1064 55.3204 22.9408 55.3204V73.3204ZM25.1768 73.5804L21.6467 91.2309C21.3162 91.1648 20.6448 90.9995 19.7731 90.601L27.2568 74.2304L34.7405 57.8599C32.6554 56.9067 30.5974 56.3081 28.7069 55.93L25.1768 73.5804ZM27.2568 74.2304L9.3622 72.2854L8.9722 75.8734L26.8668 77.8184L44.7614 79.7635L45.1514 76.1755L27.2568 74.2304ZM26.8668 77.8184V59.8184H25.7228V77.8184V95.8184H26.8668V77.8184ZM25.7228 77.8184L42.0341 70.2065C42.037 70.2126 42.1176 70.3845 42.2237 70.7057C42.3278 71.0211 42.4906 71.5831 42.6079 72.3545L24.8128 75.0624L7.01766 77.7704C7.48079 80.8138 8.48001 83.4343 9.4115 85.4304L25.7228 77.8184ZM24.8128 75.0624L30.2097 57.8906C27.8904 57.1616 25.4565 56.7764 22.9668 56.7764V74.7764V92.7764C21.7251 92.7764 20.5218 92.5819 19.4159 92.2343L24.8128 75.0624ZM22.9668 74.7764V56.7764C20.1707 56.7764 14.8866 57.2959 10.0292 61.228L21.3548 75.2184L32.6804 89.2088C28.551 92.5517 24.3416 92.7764 22.9668 92.7764V74.7764ZM21.3548 75.2184L10.1103 61.1628C5.23369 65.0641 2.8348 70.7423 2.8348 76.3364H20.8348H38.8348C38.8348 78.361 38.4489 80.7963 37.2858 83.2971C36.1094 85.8264 34.4168 87.8201 32.5993 89.2741L21.3548 75.2184ZM33.4328 77.5584L23.0739 92.2789C23.1976 92.366 23.3224 92.4515 23.4482 92.5354L33.4328 77.5584ZM35.6168 78.6504L28.6318 95.2399C28.6756 95.2583 28.7194 95.2766 28.7633 95.2946L35.6168 78.6504ZM37.8008 79.6644L29.1815 95.4666L29.1815 95.4666L37.8008 79.6644ZM39.2568 80.9124L24.9719 91.8642C25.0319 91.9425 25.0926 92.0203 25.1539 92.0975L39.2568 80.9124ZM38.4508 85.5664L27.3999 71.3581C27.3569 71.3915 27.314 71.4252 27.2713 71.459L38.4508 85.5664ZM32.1328 86.3724L28.2653 103.952C28.2894 103.957 28.3136 103.963 28.3377 103.968L32.1328 86.3724ZM29.9488 85.6184L12.0484 83.7275C11.276 91.0396 15.0286 98.0864 21.5268 101.527L29.9488 85.6184ZM30.3388 81.9264V63.9264C21.1297 63.9264 13.4058 70.8774 12.4384 80.0355L30.3388 81.9264ZM31.4828 81.9264L47.4172 73.5541C44.3066 67.634 38.1704 63.9264 31.4828 63.9264V81.9264ZM32.5228 84.7864L14.7967 87.9146C15.8005 93.6025 19.4727 98.4633 24.6699 100.983L32.5228 84.7864ZM36.3968 84.7084L47.5695 98.8213C47.6875 98.7278 47.8044 98.6328 47.9201 98.5364L36.3968 84.7084ZM36.2668 81.9784L25.8045 96.6256C26.001 96.766 26.2003 96.9024 26.4023 97.0347L36.2668 81.9784ZM34.0048 80.8344L27.1513 97.4786C27.175 97.4884 27.1987 97.4981 27.2224 97.5078L34.0048 80.8344ZM31.8468 79.8464L23.1918 95.6291C23.2616 95.6673 23.3317 95.7052 23.402 95.7425L31.8468 79.8464ZM30.4688 78.6764L16.1284 89.5554C16.1899 89.6365 16.2522 89.7171 16.3151 89.7972L30.4688 78.6764ZM30.4688 75.1144L45.1479 85.5319L45.1479 85.5319L30.4688 75.1144ZM32.1588 73.8144L39.4338 90.2788L32.1588 73.8144ZM37.0728 73.5804L33.0836 91.1328C33.2362 91.1675 33.3893 91.2002 33.5427 91.2309L37.0728 73.5804ZM39.1528 74.2304L57.0474 76.1755C57.8855 68.4649 53.6904 61.0845 46.6365 57.8599L39.1528 74.2304ZM38.7628 77.8184V95.8184C47.9511 95.8184 55.6645 88.898 56.6574 79.7635L38.7628 77.8184ZM37.6188 77.8184L21.3075 85.4304C24.2649 91.7677 30.6254 95.8184 37.6188 95.8184V77.8184ZM36.7088 75.0624L54.504 72.3545C53.4703 65.5621 48.6602 59.9505 42.1057 57.8906L36.7088 75.0624ZM33.2508 75.2184L44.4953 89.2741C44.5224 89.2524 44.5494 89.2307 44.5764 89.2088L33.2508 75.2184ZM32.7308 76.3364H14.7308C14.7308 83.785 18.7967 89.269 23.0739 92.2789L33.4328 77.5584L43.7917 62.8379C45.2467 63.8618 47.0687 65.5235 48.5142 68.0397C50.0179 70.6573 50.7308 73.5416 50.7308 76.3364H32.7308ZM33.4328 77.5584L23.4482 92.5354C25.3643 93.8127 27.3557 94.7026 28.6318 95.2399L35.6168 78.6504L42.6018 62.061C42.3626 61.9603 42.3049 61.9284 42.3797 61.9657C42.4222 61.987 42.5307 62.0422 42.6896 62.1321C42.8439 62.2193 43.0976 62.3683 43.4174 62.5815L33.4328 77.5584ZM35.6168 78.6504L28.7633 95.2946C29.0054 95.3943 29.1616 95.464 29.2458 95.5031C29.3348 95.5444 29.3033 95.533 29.1815 95.4666L37.8008 79.6644L46.4202 63.8623C45.0784 63.1304 43.707 62.5155 42.4703 62.0062L35.6168 78.6504ZM37.8008 79.6644L29.1815 95.4666C27.5342 94.5681 26.0935 93.3272 24.9719 91.8642L39.2568 80.9124L53.5417 69.9607C51.6228 67.4577 49.2114 65.3848 46.4201 63.8623L37.8008 79.6644ZM39.2568 80.9124L25.1539 92.0975C22.6927 88.9943 21.8548 85.5154 21.8548 82.7584H39.8548H57.8548C57.8548 78.5455 56.6183 73.8359 53.3598 69.7273L39.2568 80.9124ZM39.8548 82.7584H21.8548C21.8548 80.8009 22.2751 78.5266 23.4041 76.2686C24.5231 74.0307 26.0298 72.4237 27.3999 71.3581L38.4508 85.5664L49.5017 99.7748C54.6357 95.7817 57.8548 89.6893 57.8548 82.7584H39.8548ZM38.4508 85.5664L27.2713 71.459C30.5106 68.8921 33.669 68.6584 34.6808 68.6584V86.6584V104.658C38.8819 104.658 44.5537 103.697 49.6303 99.6739L38.4508 85.5664ZM34.6808 86.6584V68.6584C35.2727 68.6584 35.6994 68.7278 35.9279 68.7771L32.1328 86.3724L28.3377 103.968C30.3342 104.398 32.4596 104.658 34.6808 104.658V86.6584ZM32.1328 86.3724L36.0003 68.7928C36.2314 68.8437 37.1406 69.059 38.3708 69.7103L29.9488 85.6184L21.5268 101.527C23.9357 102.802 26.3009 103.52 28.2653 103.952L32.1328 86.3724ZM29.9488 85.6184L47.8492 87.5093L48.2392 83.8173L30.3388 81.9264L12.4384 80.0355L12.0484 83.7275L29.9488 85.6184ZM30.3388 81.9264V99.9264H31.4828V81.9264V63.9264H30.3388V81.9264ZM31.4828 81.9264L15.5484 90.2987C15.4561 90.1229 15.041 89.2988 14.7967 87.9146L32.5228 84.7864L50.2489 81.6583C49.6926 78.5061 48.5842 75.7753 47.4172 73.5541L31.4828 81.9264ZM32.5228 84.7864L24.6699 100.983C28.2311 102.71 31.7328 103.202 34.5768 103.202V85.2024V67.2024C35.8261 67.2024 37.9586 67.4178 40.3757 68.5898L32.5228 84.7864ZM34.5768 85.2024V103.202C37.4805 103.202 42.7238 102.657 47.5695 98.8213L36.3968 84.7084L25.2242 70.5956C29.2378 67.4181 33.2677 67.2024 34.5768 67.2024V85.2024ZM36.3968 84.7084L47.9201 98.5364C52.8347 94.441 55.0208 88.6999 55.0208 83.3044H37.0208H19.0208C19.0208 81.4582 19.3543 79.1761 20.4162 76.7869C21.4969 74.3555 23.0866 72.3695 24.8735 70.8805L36.3968 84.7084ZM37.0208 83.3044H55.0208C55.0208 76.102 51.2073 70.2478 46.1313 66.9221L36.2668 81.9784L26.4023 97.0347C24.6976 95.9179 22.7064 94.1299 21.1851 91.4544C19.6308 88.7209 19.0208 85.8552 19.0208 83.3044H37.0208ZM36.2668 81.9784L46.7291 67.3312C44.514 65.749 42.2097 64.7398 40.7872 64.1611L34.0048 80.8344L27.2224 97.5078C27.4078 97.5831 27.3842 97.5813 27.2137 97.495C27.1221 97.4487 26.9564 97.3621 26.7356 97.2323C26.5191 97.1052 26.1957 96.9051 25.8045 96.6256L36.2668 81.9784ZM34.0048 80.8344L40.8583 64.1902C40.5888 64.0792 40.4056 63.9987 40.2953 63.9482C40.1792 63.895 40.1886 63.8956 40.2916 63.9504L31.8468 79.8464L23.402 95.7425C24.6672 96.4146 25.9732 96.9935 27.1513 97.4786L34.0048 80.8344ZM31.8468 79.8464L40.5018 64.0638C42.1087 64.945 43.5151 66.1462 44.6225 67.5556L30.4688 78.6764L16.3151 89.7972C18.1851 92.1773 20.5103 94.1585 23.1918 95.6291L31.8468 79.8464ZM30.4688 78.6764L44.8093 67.7975C47.0391 70.7368 47.8968 74.058 47.8968 76.8824H29.8968H11.8968C11.8968 81.0936 13.1359 85.6108 16.1284 89.5554L30.4688 78.6764ZM29.8968 76.8824H47.8968C47.8968 80.0816 46.8638 83.1141 45.1479 85.5319L30.4688 75.1144L15.7897 64.697C13.3112 68.1894 11.8968 72.4006 11.8968 76.8824H29.8968ZM30.4688 75.1144L45.1479 85.5319C43.2538 88.2009 40.9579 89.6053 39.4338 90.2788L32.1588 73.8144L24.8839 57.3501C21.8691 58.6822 18.4465 60.9533 15.7897 64.697L30.4688 75.1144ZM32.1588 73.8144L39.4338 90.2788C37.3476 91.2006 35.6358 91.3204 34.8368 91.3204V73.3204V55.3204C31.9578 55.3204 28.4607 55.7696 24.8839 57.3501L32.1588 73.8144ZM34.8368 73.3204V91.3204C34.1272 91.3204 33.5335 91.2351 33.0836 91.1328L37.0728 73.5804L41.062 56.028C39.0868 55.5791 37.0024 55.3204 34.8368 55.3204V73.3204ZM37.0728 73.5804L33.5427 91.2309C33.2122 91.1648 32.5408 90.9995 31.6691 90.601L39.1528 74.2304L46.6365 57.8599C44.5515 56.9067 42.4934 56.3081 40.6029 55.93L37.0728 73.5804ZM39.1528 74.2304L21.2582 72.2854L20.8682 75.8734L38.7628 77.8184L56.6574 79.7635L57.0474 76.1755L39.1528 74.2304ZM38.7628 77.8184V59.8184H37.6188V77.8184V95.8184H38.7628V77.8184ZM37.6188 77.8184L53.9301 70.2065C53.933 70.2126 54.0136 70.3845 54.1197 70.7057C54.2238 71.0211 54.3866 71.5831 54.504 72.3545L36.7088 75.0624L18.9137 77.7704C19.3768 80.8138 20.376 83.4343 21.3075 85.4304L37.6188 77.8184ZM36.7088 75.0624L42.1057 57.8906C39.7864 57.1616 37.3525 56.7764 34.8628 56.7764V74.7764V92.7764C33.6211 92.7764 32.4179 92.5819 31.3119 92.2343L36.7088 75.0624ZM34.8628 74.7764V56.7764C32.0667 56.7764 26.7826 57.2959 21.9252 61.228L33.2508 75.2184L44.5764 89.2088C40.447 92.5517 36.2376 92.7764 34.8628 92.7764V74.7764ZM33.2508 75.2184L22.0063 61.1628C17.1297 65.0641 14.7308 70.7423 14.7308 76.3364H32.7308H50.7308C50.7308 78.361 50.3449 80.7963 49.1818 83.2971C48.0054 85.8264 46.3128 87.8201 44.4953 89.2741L33.2508 75.2184ZM45.2466 85.5664L35.2081 100.507C35.2622 100.544 35.3164 100.58 35.3707 100.615L45.2466 85.5664ZM42.6726 82.3944L59.1297 75.1033V75.1033L42.6726 82.3944ZM42.6986 72.5404L26.2258 65.2846C26.2016 65.3396 26.1776 65.3947 26.154 65.4499L42.6986 72.5404ZM45.3246 69.1604L55.83 83.7767C55.8439 83.7667 55.8577 83.7568 55.8716 83.7467L45.3246 69.1604ZM52.9946 69.0564L63.033 54.1155L63.033 54.1155L52.9946 69.0564ZM55.5686 72.2284L39.1114 79.5196L39.1114 79.5196L55.5686 72.2284ZM55.5166 82.1084L71.957 89.4373C71.9678 89.413 71.9786 89.3887 71.9893 89.3643L55.5166 82.1084ZM52.8646 85.4624L42.4665 70.7696C42.4306 70.795 42.3948 70.8205 42.3591 70.8462L52.8646 85.4624ZM51.2526 84.1364L38.7052 71.2305C38.6446 71.2894 38.5844 71.3488 38.5246 71.4085L51.2526 84.1364ZM52.6826 81.4844L35.4346 76.3358C35.411 76.4149 35.3879 76.4942 35.3654 76.5736L52.6826 81.4844ZM52.6826 73.1124L35.3654 78.0233C35.3879 78.1027 35.411 78.182 35.4346 78.2611L52.6826 73.1124ZM51.2526 70.4604L38.5246 83.1884C38.5844 83.2481 38.6446 83.3074 38.7051 83.3663L51.2526 70.4604ZM46.9626 70.4604L34.4152 57.5545C34.3546 57.6134 34.2944 57.6728 34.2346 57.7325L46.9626 70.4604ZM45.5326 73.1124L28.2846 67.9638C28.261 68.0429 28.2379 68.1222 28.2154 68.2016L45.5326 73.1124ZM45.5326 81.4844L28.2154 86.3953C28.2379 86.4747 28.261 86.554 28.2846 86.6331L45.5326 81.4844ZM46.9626 84.1364L34.2346 96.8644C34.2944 96.9241 34.3546 96.9834 34.4151 97.0423L46.9626 84.1364ZM49.1206 86.6584V68.6584C50.7548 68.6584 52.9791 69.1111 55.1224 70.5176L45.2466 85.5664L35.3707 100.615C39.7327 103.478 44.5397 104.658 49.1206 104.658V86.6584ZM45.2466 85.5664L55.285 70.6255C57.3247 71.996 58.532 73.7541 59.1297 75.1033L42.6726 82.3944L26.2154 89.6856C28.0264 93.7734 30.9497 97.6462 35.2081 100.507L45.2466 85.5664ZM42.6726 82.3944L59.1297 75.1033C59.7609 76.5278 59.7626 77.5015 59.7626 77.5324H41.7626H23.7626C23.7626 81.3074 24.3709 85.5224 26.2154 89.6856L42.6726 82.3944ZM41.7626 77.5324H59.7626C59.7626 77.6618 59.7376 78.4774 59.2432 79.631L42.6986 72.5404L26.154 65.4499C24.4116 69.5155 23.7626 73.6591 23.7626 77.5324H41.7626ZM42.6986 72.5404L59.1713 79.7963C58.7325 80.7926 57.7345 82.4079 55.83 83.7767L45.3246 69.1604L34.8191 54.5442C30.696 57.5077 27.9473 61.3763 26.2258 65.2846L42.6986 72.5404ZM45.3246 69.1604L55.8716 83.7467C54.973 84.3965 53.8836 84.9758 52.6343 85.378C51.3867 85.7796 50.1853 85.9384 49.1206 85.9384V67.9384V49.9384C43.9693 49.9384 39.0055 51.517 34.7775 54.5741L45.3246 69.1604ZM49.1206 67.9384V85.9384C47.3997 85.9384 45.1164 85.4488 42.9562 83.9973L52.9946 69.0564L63.033 54.1155C58.654 51.1735 53.7881 49.9384 49.1206 49.9384V67.9384ZM52.9946 69.0564L42.9561 83.9973C40.9164 82.6269 39.7091 80.8688 39.1114 79.5196L55.5686 72.2284L72.0258 64.9373C70.2147 60.8495 67.2914 56.9767 63.033 54.1155L52.9946 69.0564ZM55.5686 72.2284L39.1114 79.5196C38.4888 78.1145 38.4786 77.1392 38.4786 77.0644H56.4786H74.4786C74.4786 73.2804 73.8616 69.0811 72.0257 64.9373L55.5686 72.2284ZM56.4786 77.0644H38.4786C38.4786 76.9596 38.4987 76.0901 39.0438 74.8526L55.5166 82.1084L71.9893 89.3643C73.8171 85.2148 74.4786 80.9827 74.4786 77.0644H56.4786ZM55.5166 82.1084L39.0761 74.7796C39.5617 73.6902 40.5989 72.0912 42.4665 70.7696L52.8646 85.4624L63.2626 100.155C67.3835 97.239 70.1887 93.404 71.957 89.4373L55.5166 82.1084ZM52.8646 85.4624L42.3591 70.8462C44.3598 69.4081 46.7982 68.6584 49.1206 68.6584V86.6584V104.658C54.2162 104.658 59.1506 103.111 63.37 100.079L52.8646 85.4624ZM49.1206 85.0464V103.046C54.984 103.046 60.1976 100.647 63.9805 96.8644L51.2526 84.1364L38.5246 71.4085C39.6676 70.2656 41.2181 69.1092 43.1984 68.2639C45.197 67.4108 47.2333 67.0464 49.1206 67.0464V85.0464ZM51.2526 84.1364L63.8 97.0423C67.3974 93.5449 69.1269 89.4733 69.9997 86.3953L52.6826 81.4844L35.3654 76.5736C35.5796 75.8183 36.3557 73.5147 38.7052 71.2305L51.2526 84.1364ZM52.6826 81.4844L69.9305 86.6331C70.9138 83.3391 71.2026 80.1128 71.2026 77.2984H53.2026H35.2026C35.2026 77.4848 35.1921 77.491 35.2099 77.348C35.2274 77.207 35.281 76.8504 35.4346 76.3358L52.6826 81.4844ZM53.2026 77.2984H71.2026C71.2026 74.484 70.9138 71.2578 69.9305 67.9638L52.6826 73.1124L35.4346 78.2611C35.281 77.7465 35.2274 77.3899 35.2099 77.2489C35.1921 77.1058 35.2026 77.1121 35.2026 77.2984H53.2026ZM52.6826 73.1124L69.9997 68.2016C69.1269 65.1236 67.3974 61.052 63.8 57.5545L51.2526 70.4604L38.7051 83.3663C36.3557 81.0822 35.5796 78.7786 35.3654 78.0233L52.6826 73.1124ZM51.2526 70.4604L63.9805 57.7325C60.1976 53.9496 54.984 51.5504 49.1206 51.5504V69.5504V87.5504C47.2333 87.5504 45.1971 87.1861 43.1984 86.333C41.2181 85.4877 39.6676 84.3313 38.5246 83.1884L51.2526 70.4604ZM49.1206 69.5504V51.5504C43.2783 51.5504 38.146 53.9273 34.4152 57.5545L46.9626 70.4604L59.51 83.3663C58.3998 84.4457 56.8921 85.5506 54.964 86.3636C53.0139 87.1859 51.0089 87.5504 49.1206 87.5504V69.5504ZM46.9626 70.4604L34.2346 57.7325C30.8241 61.143 29.1537 65.0525 28.2846 67.9638L45.5326 73.1124L62.7805 78.2611C62.6048 78.8497 61.8877 80.9912 59.6905 83.1884L46.9626 70.4604ZM45.5326 73.1124L28.2154 68.2016C27.3064 71.407 27.0386 74.5472 27.0386 77.2984H45.0386H63.0386C63.0386 77.0804 63.0501 77.0371 63.038 77.1395C63.0262 77.2393 62.9833 77.5521 62.8497 78.0233L45.5326 73.1124ZM45.0386 77.2984H27.0386C27.0386 80.0497 27.3064 83.1898 28.2154 86.3953L45.5326 81.4844L62.8497 76.5736C62.9833 77.0448 63.0262 77.3576 63.038 77.4574C63.0501 77.5598 63.0386 77.5165 63.0386 77.2984H45.0386ZM45.5326 81.4844L28.2846 86.6331C29.1537 89.5443 30.8241 93.4538 34.2346 96.8644L46.9626 84.1364L59.6905 71.4085C61.8877 73.6057 62.6048 75.7472 62.7805 76.3358L45.5326 81.4844ZM46.9626 84.1364L34.4151 97.0423C38.146 100.67 43.2783 103.046 49.1206 103.046V85.0464V67.0464C51.0089 67.0464 53.0139 67.4109 54.964 68.2333C56.8921 69.0463 58.3998 70.1512 59.51 71.2305L46.9626 84.1364ZM59.8317 85.4104L49.7365 70.5079C43.9582 74.4222 40.9635 81.3239 42.052 88.2178L59.8317 85.4104ZM61.6777 84.6044L66.0434 102.067C74.0564 100.064 79.6777 92.8641 79.6777 84.6044H61.6777ZM61.6777 71.5784H79.6777C79.6777 64.904 75.9846 58.7775 70.0824 55.6611C64.1802 52.5446 57.0382 52.9499 51.5264 56.714L61.6777 71.5784ZM59.2077 72.5924L43.3356 81.0822C47.0887 88.0988 55.0035 91.8185 62.8006 90.2302L59.2077 72.5924ZM58.6097 71.4744L46.9869 57.73C40.5043 63.2119 38.7334 72.4781 42.7376 79.9642L58.6097 71.4744ZM62.4837 68.1984V50.1984C58.2282 50.1984 54.1103 51.7062 50.8609 54.454L62.4837 68.1984ZM64.7977 68.1984H82.7978C82.7978 58.2573 74.7389 50.1984 64.7977 50.1984V68.1984ZM64.7977 84.6044H46.7977C46.7977 92.7892 52.3196 99.9435 60.2373 102.017L64.7977 84.6044ZM66.6698 85.4104L84.3719 88.6714C85.6753 81.5961 82.6404 74.4242 76.6544 70.4335L66.6698 85.4104ZM66.4877 86.3984V104.398C75.1712 104.398 82.6168 98.1991 84.1899 89.6594L66.4877 86.3984ZM59.9877 86.3984L42.208 89.2058C43.5894 97.9547 51.1304 104.398 59.9877 104.398V86.3984ZM59.8317 85.4104L69.927 100.313C68.5513 101.245 67.1887 101.781 66.0434 102.067L61.6777 84.6044L57.3121 67.1419C54.7801 67.7749 52.1869 68.8479 49.7365 70.5079L59.8317 85.4104ZM61.6777 84.6044H79.6777V71.5784H61.6777H43.6777V84.6044H61.6777ZM61.6777 71.5784L51.5264 56.714C53.0025 55.706 54.4607 55.1898 55.6149 54.9547L59.2077 72.5924L62.8006 90.2302C65.8268 89.6138 68.9316 88.4216 71.8291 86.4429L61.6777 71.5784ZM59.2077 72.5924L75.0799 64.1027L74.4819 62.9847L58.6097 71.4744L42.7376 79.9642L43.3356 81.0822L59.2077 72.5924ZM58.6097 71.4744L70.2326 85.2189L74.1066 81.9429L62.4837 68.1984L50.8609 54.454L46.9869 57.73L58.6097 71.4744ZM62.4837 68.1984V86.1984H64.7977V68.1984V50.1984H62.4837V68.1984ZM64.7977 68.1984H46.7977V84.6044H64.7977H82.7978V68.1984H64.7977ZM64.7977 84.6044L60.2373 102.017C59.4167 101.802 58.1251 101.347 56.6851 100.387L66.6698 85.4104L76.6544 70.4335C74.1744 68.7802 71.6348 67.788 69.3582 67.1917L64.7977 84.6044ZM66.6698 85.4104L48.9676 82.1495L48.7856 83.1375L66.4877 86.3984L84.1899 89.6594L84.3719 88.6714L66.6698 85.4104ZM66.4877 86.3984V68.3984H59.9877V86.3984V104.398H66.4877V86.3984ZM59.9877 86.3984L77.7675 83.5911L77.6115 82.6031L59.8317 85.4104L42.052 88.2178L42.208 89.2058L59.9877 86.3984Z" fill="#373F51" mask="url(#path-1-outside-1_382_5365)"/>
<path d="M132.547 27.2384H153.427V84.9584C153.427 94.8784 150.827 102.598 145.627 108.118C140.507 113.638 133.627 116.398 124.987 116.398C120.667 116.398 116.867 115.718 113.587 114.358C110.307 113.078 107.787 111.318 106.027 109.078C104.347 106.918 103.507 104.558 103.507 101.998C103.507 100.718 103.667 99.3984 103.987 98.0384C104.387 96.6784 104.907 95.5584 105.547 94.6784H114.187L116.467 107.878C119.027 109.078 121.627 109.678 124.267 109.678C129.547 109.678 133.547 107.878 136.267 104.278C138.987 100.678 140.347 94.9584 140.347 87.1184V77.5184C138.107 80.6384 135.307 83.1184 131.947 84.9584C128.587 86.7184 125.107 87.5984 121.507 87.5984C116.067 87.5984 111.667 85.8784 108.307 82.4384C105.027 78.9184 103.387 74.2384 103.387 68.3984V34.5584C101.787 34.2384 100.187 33.7584 98.5868 33.1184C97.0668 32.4784 95.7868 31.7584 94.7468 30.9584L95.4668 27.2384H116.347V67.7984C116.347 71.3184 117.227 74.1184 118.987 76.1984C120.827 78.1984 123.227 79.1984 126.187 79.1984C128.587 79.1984 131.067 78.3984 133.627 76.7984C136.267 75.1984 138.507 73.0784 140.347 70.4384V34.5584C138.827 34.2384 137.267 33.7584 135.667 33.1184C134.067 32.4784 132.747 31.7584 131.707 30.9584L132.547 27.2384ZM108.907 17.0384C106.507 17.0384 104.507 16.2784 102.907 14.7584C101.387 13.2384 100.627 11.3984 100.627 9.23844C100.627 7.07844 101.387 5.23844 102.907 3.71844C104.507 2.11843 106.507 1.31843 108.907 1.31843C111.307 1.31843 113.267 2.11843 114.787 3.71844C116.387 5.23844 117.187 7.07844 117.187 9.23844C117.187 11.3984 116.387 13.2384 114.787 14.7584C113.267 16.2784 111.307 17.0384 108.907 17.0384ZM145.987 17.0384C143.587 17.0384 141.587 16.2784 139.987 14.7584C138.467 13.2384 137.707 11.3984 137.707 9.23844C137.707 7.07844 138.467 5.23844 139.987 3.71844C141.587 2.11843 143.587 1.31843 145.987 1.31843C148.387 1.31843 150.347 2.11843 151.867 3.71844C153.467 5.23844 154.267 7.07844 154.267 9.23844C154.267 11.3984 153.467 13.2384 151.867 14.7584C150.347 16.2784 148.387 17.0384 145.987 17.0384ZM164.928 82.6784C165.968 81.8784 167.248 81.1584 168.768 80.5184C170.368 79.8784 171.968 79.3984 173.568 79.0784V34.5584C171.968 34.2384 170.368 33.7584 168.768 33.1184C167.248 32.4784 165.968 31.7584 164.928 30.9584L165.648 27.2384H186.528V79.0784C188.128 79.3984 189.688 79.8784 191.208 80.5184C192.808 81.1584 194.128 81.8784 195.168 82.6784L194.448 86.3984H165.648L164.928 82.6784ZM182.448 2.03844C183.488 1.39844 184.728 0.918434 186.168 0.598433C187.688 0.198434 189.088 -0.00156593 190.368 -0.00156593C192.048 -0.00156593 193.608 0.198434 195.048 0.598433C196.568 0.918434 197.728 1.39844 198.528 2.03844L182.928 19.7984H176.088L182.448 2.03844ZM197.399 111.838C201.239 109.118 203.959 105.838 205.559 101.998C207.159 98.2384 207.959 93.1984 207.959 86.8784V34.5584C206.439 34.2384 204.879 33.7584 203.279 33.1184C201.679 32.4784 200.359 31.7584 199.319 30.9584L200.159 27.2384H221.039V86.8784C221.039 94.5584 219.159 100.878 215.399 105.838C211.719 110.878 206.439 114.398 199.559 116.398L197.399 111.838ZM213.959 17.0384C211.559 17.0384 209.559 16.2784 207.959 14.7584C206.439 13.2384 205.679 11.3984 205.679 9.23844C205.679 7.07844 206.439 5.23844 207.959 3.71844C209.559 2.11843 211.559 1.31843 213.959 1.31843C216.359 1.31843 218.319 2.11843 219.839 3.71844C221.439 5.23844 222.239 7.07844 222.239 9.23844C222.239 11.3984 221.439 13.2384 219.839 14.7584C218.319 16.2784 216.359 17.0384 213.959 17.0384ZM267.73 27.2384H288.61V84.9584C288.61 94.8784 286.01 102.598 280.81 108.118C275.69 113.638 268.81 116.398 260.17 116.398C255.85 116.398 252.05 115.718 248.77 114.358C245.49 113.078 242.97 111.318 241.21 109.078C239.53 106.918 238.69 104.558 238.69 101.998C238.69 100.718 238.85 99.3984 239.17 98.0384C239.57 96.6784 240.09 95.5584 240.73 94.6784H249.37L251.65 107.878C254.21 109.078 256.81 109.678 259.45 109.678C264.73 109.678 268.73 107.878 271.45 104.278C274.17 100.678 275.53 94.9584 275.53 87.1184V77.5184C273.29 80.6384 270.49 83.1184 267.13 84.9584C263.77 86.7184 260.29 87.5984 256.69 87.5984C251.25 87.5984 246.85 85.8784 243.49 82.4384C240.21 78.9184 238.57 74.2384 238.57 68.3984V34.5584C236.97 34.2384 235.37 33.7584 233.77 33.1184C232.25 32.4784 230.97 31.7584 229.93 30.9584L230.65 27.2384H251.53V67.7984C251.53 71.3184 252.41 74.1184 254.17 76.1984C256.01 78.1984 258.41 79.1984 261.37 79.1984C263.77 79.1984 266.25 78.3984 268.81 76.7984C271.45 75.1984 273.69 73.0784 275.53 70.4384V34.5584C274.01 34.2384 272.45 33.7584 270.85 33.1184C269.25 32.4784 267.93 31.7584 266.89 30.9584L267.73 27.2384ZM335.291 27.2384H356.171V84.9584C356.171 94.8784 353.571 102.598 348.371 108.118C343.251 113.638 336.371 116.398 327.731 116.398C323.411 116.398 319.611 115.718 316.331 114.358C313.051 113.078 310.531 111.318 308.771 109.078C307.091 106.918 306.251 104.558 306.251 101.998C306.251 100.718 306.411 99.3984 306.731 98.0384C307.131 96.6784 307.651 95.5584 308.291 94.6784H316.931L319.211 107.878C321.771 109.078 324.371 109.678 327.011 109.678C332.291 109.678 336.291 107.878 339.011 104.278C341.731 100.678 343.091 94.9584 343.091 87.1184V77.5184C340.851 80.6384 338.051 83.1184 334.691 84.9584C331.331 86.7184 327.851 87.5984 324.251 87.5984C318.811 87.5984 314.411 85.8784 311.051 82.4384C307.771 78.9184 306.131 74.2384 306.131 68.3984V34.5584C304.531 34.2384 302.931 33.7584 301.331 33.1184C299.811 32.4784 298.531 31.7584 297.491 30.9584L298.211 27.2384H319.091V67.7984C319.091 71.3184 319.971 74.1184 321.731 76.1984C323.571 78.1984 325.971 79.1984 328.931 79.1984C331.331 79.1984 333.811 78.3984 336.371 76.7984C339.011 75.1984 341.251 73.0784 343.091 70.4384V34.5584C341.571 34.2384 340.011 33.7584 338.411 33.1184C336.811 32.4784 335.491 31.7584 334.451 30.9584L335.291 27.2384ZM333.131 2.03844C334.171 1.39844 335.411 0.918434 336.851 0.598433C338.371 0.198434 339.771 -0.00156593 341.051 -0.00156593C342.731 -0.00156593 344.291 0.198434 345.731 0.598433C347.251 0.918434 348.411 1.39844 349.211 2.03844L333.611 19.7984H326.771L333.131 2.03844ZM402.851 27.2384H423.731V84.9584C423.731 94.8784 421.131 102.598 415.931 108.118C410.811 113.638 403.931 116.398 395.291 116.398C390.971 116.398 387.171 115.718 383.891 114.358C380.611 113.078 378.091 111.318 376.331 109.078C374.651 106.918 373.811 104.558 373.811 101.998C373.811 100.718 373.971 99.3984 374.291 98.0384C374.691 96.6784 375.211 95.5584 375.851 94.6784H384.491L386.771 107.878C389.331 109.078 391.931 109.678 394.571 109.678C399.851 109.678 403.851 107.878 406.571 104.278C409.291 100.678 410.651 94.9584 410.651 87.1184V77.5184C408.411 80.6384 405.611 83.1184 402.251 84.9584C398.891 86.7184 395.411 87.5984 391.811 87.5984C386.371 87.5984 381.971 85.8784 378.611 82.4384C375.331 78.9184 373.691 74.2384 373.691 68.3984V34.5584C372.091 34.2384 370.491 33.7584 368.891 33.1184C367.371 32.4784 366.091 31.7584 365.051 30.9584L365.771 27.2384H386.651V67.7984C386.651 71.3184 387.531 74.1184 389.291 76.1984C391.131 78.1984 393.531 79.1984 396.491 79.1984C398.891 79.1984 401.371 78.3984 403.931 76.7984C406.571 75.1984 408.811 73.0784 410.651 70.4384V34.5584C409.131 34.2384 407.571 33.7584 405.971 33.1184C404.371 32.4784 403.051 31.7584 402.011 30.9584L402.851 27.2384ZM397.931 11.8784L382.811 21.8384L379.571 18.3584L397.331 -0.00156593H398.411L416.291 18.3584L413.051 21.8384L397.931 11.8784ZM470.412 27.2384H491.292V84.9584C491.292 94.8784 488.692 102.598 483.492 108.118C478.372 113.638 471.492 116.398 462.852 116.398C458.532 116.398 454.732 115.718 451.452 114.358C448.172 113.078 445.652 111.318 443.892 109.078C442.212 106.918 441.372 104.558 441.372 101.998C441.372 100.718 441.532 99.3984 441.852 98.0384C442.252 96.6784 442.772 95.5584 443.412 94.6784H452.052L454.332 107.878C456.892 109.078 459.492 109.678 462.132 109.678C467.412 109.678 471.412 107.878 474.132 104.278C476.852 100.678 478.212 94.9584 478.212 87.1184V77.5184C475.972 80.6384 473.172 83.1184 469.812 84.9584C466.452 86.7184 462.972 87.5984 459.372 87.5984C453.932 87.5984 449.532 85.8784 446.172 82.4384C442.892 78.9184 441.252 74.2384 441.252 68.3984V34.5584C439.652 34.2384 438.052 33.7584 436.452 33.1184C434.932 32.4784 433.652 31.7584 432.612 30.9584L433.332 27.2384H454.212V67.7984C454.212 71.3184 455.092 74.1184 456.852 76.1984C458.692 78.1984 461.092 79.1984 464.052 79.1984C466.452 79.1984 468.932 78.3984 471.492 76.7984C474.132 75.1984 476.372 73.0784 478.212 70.4384V34.5584C476.692 34.2384 475.132 33.7584 473.532 33.1184C471.932 32.4784 470.612 31.7584 469.572 30.9584L470.412 27.2384ZM454.572 16.6784C452.492 16.6784 450.692 15.9584 449.172 14.5184C447.732 13.0784 447.012 11.3184 447.012 9.23844C447.012 7.15843 447.732 5.39843 449.172 3.95843C450.692 2.43843 452.492 1.67843 454.572 1.67843C456.652 1.67843 458.412 2.43843 459.852 3.95843C461.372 5.39843 462.132 7.15843 462.132 9.23844C462.132 11.2384 461.372 12.9984 459.852 14.5184C458.412 15.9584 456.652 16.6784 454.572 16.6784ZM476.532 16.6784C474.452 16.6784 472.652 15.9584 471.132 14.5184C469.692 13.0784 468.972 11.3184 468.972 9.23844C468.972 7.15843 469.692 5.39843 471.132 3.95843C472.652 2.43843 474.452 1.67843 476.532 1.67843C478.612 1.67843 480.372 2.43843 481.812 3.95843C483.252 5.39843 483.972 7.15843 483.972 9.23844C483.972 11.2384 483.212 12.9984 481.692 14.5184C480.252 15.9584 478.532 16.6784 476.532 16.6784Z" fill="#EDEFF1"/>
</svg>
