<svg width="340" height="116" viewBox="0 0 340 116" fill="none" xmlns="http://www.w3.org/2000/svg">
<mask id="path-1-outside-1_382_5346" maskUnits="userSpaceOnUse" x="-0.533203" y="48.2031" width="89" height="56" fill="black">
<rect fill="white" x="-0.533203" y="48.2031" width="89" height="56"/>
<path d="M20.8348 75.1411C20.8348 75.6265 21.0688 76.0338 21.5368 76.3631C22.0048 76.6751 22.7328 77.0391 23.7208 77.4551C24.6048 77.8191 25.3328 78.1571 25.9048 78.4691C26.4768 78.7811 26.9621 79.1971 27.3608 79.7171C27.7595 80.2198 27.9588 80.8351 27.9588 81.5631C27.9588 82.7071 27.4908 83.6431 26.5548 84.3711C25.6361 85.0991 24.3795 85.4631 22.7848 85.4631C21.9701 85.4631 21.1208 85.3678 20.2368 85.1771C19.3701 84.9865 18.6421 84.7351 18.0528 84.4231L18.4428 80.7311H19.5868C20.1241 81.7538 20.4708 82.7071 20.6268 83.5911C21.1988 83.8685 21.8835 84.0071 22.6808 84.0071C23.4781 84.0071 24.0848 83.8425 24.5008 83.5131C24.9168 83.1665 25.1248 82.6985 25.1248 82.1091C25.1248 81.5545 24.8735 81.1125 24.3708 80.7831C23.8855 80.4365 23.1315 80.0551 22.1088 79.6391C21.2248 79.2751 20.5055 78.9458 19.9508 78.6511C19.4135 78.3565 18.9541 77.9665 18.5728 77.4811C18.1915 76.9785 18.0008 76.3805 18.0008 75.6871C18.0008 75.0458 18.1915 74.4565 18.5728 73.9191C18.9541 73.3818 19.5175 72.9485 20.2628 72.6191C21.0081 72.2898 21.9008 72.1251 22.9408 72.1251C23.6688 72.1251 24.4141 72.2118 25.1768 72.3851C25.9568 72.5411 26.6501 72.7578 27.2568 73.0351L26.8668 76.6231H25.7228C25.2375 75.5831 24.9341 74.6645 24.8128 73.8671C24.2061 73.6765 23.5908 73.5811 22.9668 73.5811C22.2561 73.5811 21.7188 73.7285 21.3548 74.0231C21.0081 74.3005 20.8348 74.6731 20.8348 75.1411ZM32.7308 75.1411C32.7308 75.6265 32.9648 76.0338 33.4328 76.3631C33.9008 76.6751 34.6288 77.0391 35.6168 77.4551C36.5008 77.8191 37.2288 78.1571 37.8008 78.4691C38.3728 78.7811 38.8581 79.1971 39.2568 79.7171C39.6555 80.2198 39.8548 80.8351 39.8548 81.5631C39.8548 82.7071 39.3868 83.6431 38.4508 84.3711C37.5321 85.0991 36.2755 85.4631 34.6808 85.4631C33.8661 85.4631 33.0168 85.3678 32.1328 85.1771C31.2661 84.9865 30.5381 84.7351 29.9488 84.4231L30.3388 80.7311H31.4828C32.0201 81.7538 32.3668 82.7071 32.5228 83.5911C33.0948 83.8685 33.7795 84.0071 34.5768 84.0071C35.3741 84.0071 35.9808 83.8425 36.3968 83.5131C36.8128 83.1665 37.0208 82.6985 37.0208 82.1091C37.0208 81.5545 36.7695 81.1125 36.2668 80.7831C35.7815 80.4365 35.0275 80.0551 34.0048 79.6391C33.1208 79.2751 32.4015 78.9458 31.8468 78.6511C31.3095 78.3565 30.8501 77.9665 30.4688 77.4811C30.0875 76.9785 29.8968 76.3805 29.8968 75.6871C29.8968 75.0458 30.0875 74.4565 30.4688 73.9191C30.8501 73.3818 31.4135 72.9485 32.1588 72.6191C32.9041 72.2898 33.7968 72.1251 34.8368 72.1251C35.5648 72.1251 36.3101 72.2118 37.0728 72.3851C37.8528 72.5411 38.5461 72.7578 39.1528 73.0351L38.7628 76.6231H37.6188C37.1335 75.5831 36.8301 74.6645 36.7088 73.8671C36.1021 73.6765 35.4868 73.5811 34.8628 73.5811C34.1521 73.5811 33.6148 73.7285 33.2508 74.0231C32.9041 74.3005 32.7308 74.6731 32.7308 75.1411ZM49.1206 85.4631C47.6472 85.4631 46.3559 85.0991 45.2466 84.3711C44.1372 83.6258 43.2792 82.5685 42.6726 81.1991C42.0659 79.8298 41.7626 78.2091 41.7626 76.3371C41.7626 74.4651 42.0746 72.8011 42.6986 71.3451C43.3399 69.8891 44.2152 68.7625 45.3246 67.9651C46.4512 67.1505 47.7166 66.7431 49.1206 66.7431C50.5939 66.7431 51.8852 67.1158 52.9946 67.8611C54.1039 68.6065 54.9619 69.6638 55.5686 71.0331C56.1752 72.4025 56.4786 74.0145 56.4786 75.8691C56.4786 77.7758 56.1579 79.4571 55.5166 80.9131C54.8752 82.3518 53.9912 83.4698 52.8646 84.2671C51.7552 85.0645 50.5072 85.4631 49.1206 85.4631ZM49.1206 83.8511C49.9352 83.8511 50.6459 83.5478 51.2526 82.9411C51.8766 82.3345 52.3532 81.4505 52.6826 80.2891C53.0292 79.1278 53.2026 77.7325 53.2026 76.1031C53.2026 74.4738 53.0292 73.0785 52.6826 71.9171C52.3532 70.7558 51.8766 69.8718 51.2526 69.2651C50.6459 68.6585 49.9352 68.3551 49.1206 68.3551C48.3059 68.3551 47.5866 68.6585 46.9626 69.2651C46.3559 69.8718 45.8792 70.7558 45.5326 71.9171C45.2032 73.0785 45.0386 74.4738 45.0386 76.1031C45.0386 77.7325 45.2032 79.1278 45.5326 80.2891C45.8792 81.4505 46.3559 82.3345 46.9626 82.9411C47.5866 83.5478 48.3059 83.8511 49.1206 83.8511ZM70.3219 80.1591L70.1139 85.2031H58.1799V82.9151L61.4299 80.1071C63.2153 78.5818 64.5239 77.1605 65.3559 75.8431C66.2053 74.5258 66.6299 73.1651 66.6299 71.7611C66.6299 70.7038 66.3526 69.8718 65.7979 69.2651C65.2606 68.6585 64.5066 68.3551 63.5359 68.3551C62.7213 68.3551 61.9846 68.5198 61.3259 68.8491C61.1873 70.3918 60.8319 71.6485 60.2599 72.6191L58.9859 72.5411L58.6999 67.8351C59.3066 67.5231 60.0953 67.2631 61.0659 67.0551C62.0366 66.8471 62.9726 66.7431 63.8739 66.7431C65.7806 66.7431 67.2626 67.1851 68.3199 68.0691C69.3946 68.9531 69.9319 70.1838 69.9319 71.7611C69.9319 73.3558 69.3773 74.8551 68.2679 76.2591C67.1586 77.6631 65.3733 79.2318 62.9119 80.9651L60.5719 82.7331V82.9151H67.9039C68.2333 81.7018 68.6146 80.7225 69.0479 79.9771L70.3219 80.1591Z"/>
</mask>
<path d="M20.8348 75.1411C20.8348 75.6265 21.0688 76.0338 21.5368 76.3631C22.0048 76.6751 22.7328 77.0391 23.7208 77.4551C24.6048 77.8191 25.3328 78.1571 25.9048 78.4691C26.4768 78.7811 26.9621 79.1971 27.3608 79.7171C27.7595 80.2198 27.9588 80.8351 27.9588 81.5631C27.9588 82.7071 27.4908 83.6431 26.5548 84.3711C25.6361 85.0991 24.3795 85.4631 22.7848 85.4631C21.9701 85.4631 21.1208 85.3678 20.2368 85.1771C19.3701 84.9865 18.6421 84.7351 18.0528 84.4231L18.4428 80.7311H19.5868C20.1241 81.7538 20.4708 82.7071 20.6268 83.5911C21.1988 83.8685 21.8835 84.0071 22.6808 84.0071C23.4781 84.0071 24.0848 83.8425 24.5008 83.5131C24.9168 83.1665 25.1248 82.6985 25.1248 82.1091C25.1248 81.5545 24.8735 81.1125 24.3708 80.7831C23.8855 80.4365 23.1315 80.0551 22.1088 79.6391C21.2248 79.2751 20.5055 78.9458 19.9508 78.6511C19.4135 78.3565 18.9541 77.9665 18.5728 77.4811C18.1915 76.9785 18.0008 76.3805 18.0008 75.6871C18.0008 75.0458 18.1915 74.4565 18.5728 73.9191C18.9541 73.3818 19.5175 72.9485 20.2628 72.6191C21.0081 72.2898 21.9008 72.1251 22.9408 72.1251C23.6688 72.1251 24.4141 72.2118 25.1768 72.3851C25.9568 72.5411 26.6501 72.7578 27.2568 73.0351L26.8668 76.6231H25.7228C25.2375 75.5831 24.9341 74.6645 24.8128 73.8671C24.2061 73.6765 23.5908 73.5811 22.9668 73.5811C22.2561 73.5811 21.7188 73.7285 21.3548 74.0231C21.0081 74.3005 20.8348 74.6731 20.8348 75.1411ZM32.7308 75.1411C32.7308 75.6265 32.9648 76.0338 33.4328 76.3631C33.9008 76.6751 34.6288 77.0391 35.6168 77.4551C36.5008 77.8191 37.2288 78.1571 37.8008 78.4691C38.3728 78.7811 38.8581 79.1971 39.2568 79.7171C39.6555 80.2198 39.8548 80.8351 39.8548 81.5631C39.8548 82.7071 39.3868 83.6431 38.4508 84.3711C37.5321 85.0991 36.2755 85.4631 34.6808 85.4631C33.8661 85.4631 33.0168 85.3678 32.1328 85.1771C31.2661 84.9865 30.5381 84.7351 29.9488 84.4231L30.3388 80.7311H31.4828C32.0201 81.7538 32.3668 82.7071 32.5228 83.5911C33.0948 83.8685 33.7795 84.0071 34.5768 84.0071C35.3741 84.0071 35.9808 83.8425 36.3968 83.5131C36.8128 83.1665 37.0208 82.6985 37.0208 82.1091C37.0208 81.5545 36.7695 81.1125 36.2668 80.7831C35.7815 80.4365 35.0275 80.0551 34.0048 79.6391C33.1208 79.2751 32.4015 78.9458 31.8468 78.6511C31.3095 78.3565 30.8501 77.9665 30.4688 77.4811C30.0875 76.9785 29.8968 76.3805 29.8968 75.6871C29.8968 75.0458 30.0875 74.4565 30.4688 73.9191C30.8501 73.3818 31.4135 72.9485 32.1588 72.6191C32.9041 72.2898 33.7968 72.1251 34.8368 72.1251C35.5648 72.1251 36.3101 72.2118 37.0728 72.3851C37.8528 72.5411 38.5461 72.7578 39.1528 73.0351L38.7628 76.6231H37.6188C37.1335 75.5831 36.8301 74.6645 36.7088 73.8671C36.1021 73.6765 35.4868 73.5811 34.8628 73.5811C34.1521 73.5811 33.6148 73.7285 33.2508 74.0231C32.9041 74.3005 32.7308 74.6731 32.7308 75.1411ZM49.1206 85.4631C47.6472 85.4631 46.3559 85.0991 45.2466 84.3711C44.1372 83.6258 43.2792 82.5685 42.6726 81.1991C42.0659 79.8298 41.7626 78.2091 41.7626 76.3371C41.7626 74.4651 42.0746 72.8011 42.6986 71.3451C43.3399 69.8891 44.2152 68.7625 45.3246 67.9651C46.4512 67.1505 47.7166 66.7431 49.1206 66.7431C50.5939 66.7431 51.8852 67.1158 52.9946 67.8611C54.1039 68.6065 54.9619 69.6638 55.5686 71.0331C56.1752 72.4025 56.4786 74.0145 56.4786 75.8691C56.4786 77.7758 56.1579 79.4571 55.5166 80.9131C54.8752 82.3518 53.9912 83.4698 52.8646 84.2671C51.7552 85.0645 50.5072 85.4631 49.1206 85.4631ZM49.1206 83.8511C49.9352 83.8511 50.6459 83.5478 51.2526 82.9411C51.8766 82.3345 52.3532 81.4505 52.6826 80.2891C53.0292 79.1278 53.2026 77.7325 53.2026 76.1031C53.2026 74.4738 53.0292 73.0785 52.6826 71.9171C52.3532 70.7558 51.8766 69.8718 51.2526 69.2651C50.6459 68.6585 49.9352 68.3551 49.1206 68.3551C48.3059 68.3551 47.5866 68.6585 46.9626 69.2651C46.3559 69.8718 45.8792 70.7558 45.5326 71.9171C45.2032 73.0785 45.0386 74.4738 45.0386 76.1031C45.0386 77.7325 45.2032 79.1278 45.5326 80.2891C45.8792 81.4505 46.3559 82.3345 46.9626 82.9411C47.5866 83.5478 48.3059 83.8511 49.1206 83.8511ZM70.3219 80.1591L70.1139 85.2031H58.1799V82.9151L61.4299 80.1071C63.2153 78.5818 64.5239 77.1605 65.3559 75.8431C66.2053 74.5258 66.6299 73.1651 66.6299 71.7611C66.6299 70.7038 66.3526 69.8718 65.7979 69.2651C65.2606 68.6585 64.5066 68.3551 63.5359 68.3551C62.7213 68.3551 61.9846 68.5198 61.3259 68.8491C61.1873 70.3918 60.8319 71.6485 60.2599 72.6191L58.9859 72.5411L58.6999 67.8351C59.3066 67.5231 60.0953 67.2631 61.0659 67.0551C62.0366 66.8471 62.9726 66.7431 63.8739 66.7431C65.7806 66.7431 67.2626 67.1851 68.3199 68.0691C69.3946 68.9531 69.9319 70.1838 69.9319 71.7611C69.9319 73.3558 69.3773 74.8551 68.2679 76.2591C67.1586 77.6631 65.3733 79.2318 62.9119 80.9651L60.5719 82.7331V82.9151H67.9039C68.2333 81.7018 68.6146 80.7225 69.0479 79.9771L70.3219 80.1591Z" fill="#A5D0FD"/>
<path d="M21.5368 76.3631L11.1779 91.0836C11.3016 91.1707 11.4264 91.2561 11.5522 91.34L21.5368 76.3631ZM23.7208 77.4551L16.7358 94.0446C16.7795 94.063 16.8234 94.0812 16.8673 94.0993L23.7208 77.4551ZM25.9048 78.4691L17.2855 94.2712L17.2855 94.2712L25.9048 78.4691ZM27.3608 79.7171L13.0759 90.6689C13.1359 90.7472 13.1965 90.825 13.2578 90.9022L27.3608 79.7171ZM26.5548 84.3711L15.5039 70.1628C15.4609 70.1962 15.418 70.2299 15.3753 70.2637L26.5548 84.3711ZM20.2368 85.1771L16.3693 102.757C16.3934 102.762 16.4176 102.767 16.4417 102.773L20.2368 85.1771ZM18.0528 84.4231L0.152391 82.5322C-0.62001 89.8443 3.13256 96.8911 9.63082 100.331L18.0528 84.4231ZM18.4428 80.7311V62.7311C9.23367 62.7311 1.5098 69.6821 0.542391 78.8402L18.4428 80.7311ZM19.5868 80.7311L35.5212 72.3588C32.4106 66.4387 26.2743 62.7311 19.5868 62.7311V80.7311ZM20.6268 83.5911L2.90069 86.7193C3.90444 92.4072 7.57672 97.2679 12.7739 99.7878L20.6268 83.5911ZM24.5008 83.5131L35.6735 97.6259C35.7915 97.5325 35.9084 97.4375 36.0241 97.3411L24.5008 83.5131ZM24.3708 80.7831L13.9085 95.4303C14.105 95.5707 14.3043 95.7071 14.5063 95.8394L24.3708 80.7831ZM22.1088 79.6391L15.2553 96.2833C15.279 96.2931 15.3027 96.3028 15.3264 96.3124L22.1088 79.6391ZM19.9508 78.6511L11.2958 94.4337C11.3656 94.472 11.4357 94.5099 11.506 94.5472L19.9508 78.6511ZM18.5728 77.4811L4.23236 88.3601C4.29391 88.4412 4.35615 88.5218 4.41907 88.6019L18.5728 77.4811ZM18.5728 73.9191L33.2519 84.3366L33.2519 84.3366L18.5728 73.9191ZM20.2628 72.6191L27.5377 89.0835H27.5377L20.2628 72.6191ZM25.1768 72.3851L21.1876 89.9375C21.3402 89.9722 21.4933 90.0049 21.6467 90.0356L25.1768 72.3851ZM27.2568 73.0351L45.1514 74.9802C45.9895 67.2696 41.7943 59.8892 34.7405 56.6646L27.2568 73.0351ZM26.8668 76.6231V94.6231C36.0551 94.6231 43.7685 87.7027 44.7614 78.5682L26.8668 76.6231ZM25.7228 76.6231L9.4115 84.2351C12.3689 90.5724 18.7294 94.6231 25.7228 94.6231V76.6231ZM24.8128 73.8671L42.6079 71.1592C41.5743 64.3668 36.7642 58.7552 30.2097 56.6952L24.8128 73.8671ZM21.3548 74.0231L32.5993 88.0788C32.6264 88.0571 32.6534 88.0354 32.6804 88.0135L21.3548 74.0231ZM20.8348 75.1411H2.8348C2.8348 82.5896 6.90069 88.0737 11.1779 91.0836L21.5368 76.3631L31.8957 61.6426C33.3507 62.6665 35.1727 64.3282 36.6182 66.8444C38.1219 69.4619 38.8348 72.3463 38.8348 75.1411H20.8348ZM21.5368 76.3631L11.5522 91.34C13.4682 92.6174 15.4596 93.5072 16.7358 94.0446L23.7208 77.4551L30.7058 60.8657C30.4666 60.765 30.4089 60.7331 30.4836 60.7704C30.5262 60.7917 30.6347 60.8469 30.7936 60.9367C30.9479 61.0239 31.2016 61.173 31.5214 61.3862L21.5368 76.3631ZM23.7208 77.4551L16.8673 94.0993C17.1093 94.199 17.2656 94.2687 17.3498 94.3078C17.4388 94.3491 17.4073 94.3377 17.2855 94.2712L25.9048 78.4691L34.5241 62.667C33.1823 61.9351 31.811 61.3201 30.5743 60.8109L23.7208 77.4551ZM25.9048 78.4691L17.2855 94.2712C15.6382 93.3727 14.1975 92.1319 13.0759 90.6689L27.3608 79.7171L41.6457 68.7654C39.7268 66.2624 37.3154 64.1895 34.5241 62.667L25.9048 78.4691ZM27.3608 79.7171L13.2578 90.9022C10.7967 87.799 9.9588 84.32 9.9588 81.5631H27.9588H45.9588C45.9588 77.3502 44.7223 72.6406 41.4638 68.532L27.3608 79.7171ZM27.9588 81.5631H9.9588C9.9588 79.6056 10.3791 77.3313 11.5081 75.0733C12.627 72.8354 14.1338 71.2284 15.5039 70.1628L26.5548 84.3711L37.6057 98.5795C42.7397 94.5864 45.9588 88.494 45.9588 81.5631H27.9588ZM26.5548 84.3711L15.3753 70.2637C18.6146 67.6968 21.773 67.4631 22.7848 67.4631V85.4631V103.463C26.9859 103.463 32.6577 102.501 37.7343 98.4785L26.5548 84.3711ZM22.7848 85.4631V67.4631C23.3766 67.4631 23.8034 67.5325 24.0319 67.5817L20.2368 85.1771L16.4417 102.773C18.4382 103.203 20.5636 103.463 22.7848 103.463V85.4631ZM20.2368 85.1771L24.1043 67.5975C24.3354 67.6484 25.2446 67.8637 26.4748 68.5149L18.0528 84.4231L9.63082 100.331C12.0397 101.607 14.4049 102.325 16.3693 102.757L20.2368 85.1771ZM18.0528 84.4231L35.9532 86.314L36.3432 82.622L18.4428 80.7311L0.542391 78.8402L0.152391 82.5322L18.0528 84.4231ZM18.4428 80.7311V98.7311H19.5868V80.7311V62.7311H18.4428V80.7311ZM19.5868 80.7311L3.65241 89.1034C3.56004 88.9276 3.14497 88.1035 2.90069 86.7193L20.6268 83.5911L38.3529 80.463C37.7966 77.3108 36.6882 74.58 35.5212 72.3588L19.5868 80.7311ZM20.6268 83.5911L12.7739 99.7878C16.335 101.514 19.8368 102.007 22.6808 102.007V84.0071V66.0071C23.9301 66.0071 26.0626 66.2225 28.4797 67.3945L20.6268 83.5911ZM22.6808 84.0071V102.007C25.5845 102.007 30.8278 101.462 35.6735 97.6259L24.5008 83.5131L13.3281 69.4003C17.3418 66.2228 21.3717 66.0071 22.6808 66.0071V84.0071ZM24.5008 83.5131L36.0241 97.3411C40.9386 93.2457 43.1248 87.5046 43.1248 82.1091H25.1248H7.1248C7.1248 80.2629 7.45833 77.9808 8.52019 75.5916C9.60084 73.1602 11.1906 71.1742 12.9775 69.6851L24.5008 83.5131ZM25.1248 82.1091H43.1248C43.1248 74.9067 39.3112 69.0525 34.2353 65.7268L24.3708 80.7831L14.5063 95.8394C12.8016 94.7226 10.8104 92.9345 9.28907 90.2591C7.73477 87.5256 7.1248 84.6599 7.1248 82.1091H25.1248ZM24.3708 80.7831L34.8331 66.1359C32.618 64.5537 30.3137 63.5445 28.8912 62.9658L22.1088 79.6391L15.3264 96.3124C15.5118 96.3878 15.4882 96.386 15.3177 96.2997C15.2261 96.2534 15.0604 96.1668 14.8395 96.037C14.6231 95.9099 14.2997 95.7098 13.9085 95.4303L24.3708 80.7831ZM22.1088 79.6391L28.9623 62.9949C28.6927 62.8839 28.5096 62.8033 28.3993 62.7528C28.2832 62.6997 28.2926 62.7003 28.3956 62.755L19.9508 78.6511L11.506 94.5472C12.7712 95.2193 14.0772 95.7982 15.2553 96.2833L22.1088 79.6391ZM19.9508 78.6511L28.6058 62.8685C30.2126 63.7497 31.6191 64.9509 32.7265 66.3603L18.5728 77.4811L4.41907 88.6019C6.28913 90.982 8.61429 92.9632 11.2958 94.4337L19.9508 78.6511ZM18.5728 77.4811L32.9132 66.6022C35.143 69.5415 36.0008 72.8627 36.0008 75.6871H18.0008H0.000797272C0.000797272 79.8983 1.23988 84.4155 4.23236 88.3601L18.5728 77.4811ZM18.0008 75.6871H36.0008C36.0008 78.8863 34.9678 81.9188 33.2519 84.3366L18.5728 73.9191L3.89367 63.5017C1.41517 66.9941 0.000797272 71.2052 0.000797272 75.6871H18.0008ZM18.5728 73.9191L33.2519 84.3366C31.3578 87.0056 29.0619 88.41 27.5377 89.0835L20.2628 72.6191L12.9879 56.1548C9.97304 57.4869 6.55047 59.758 3.89367 63.5017L18.5728 73.9191ZM20.2628 72.6191L27.5377 89.0835C25.4516 90.0053 23.7398 90.1251 22.9408 90.1251V72.1251V54.1251C20.0618 54.1251 16.5647 54.5743 12.9878 56.1548L20.2628 72.6191ZM22.9408 72.1251V90.1251C22.2312 90.1251 21.6374 90.0397 21.1876 89.9375L25.1768 72.3851L29.166 54.8327C27.1908 54.3838 25.1064 54.1251 22.9408 54.1251V72.1251ZM25.1768 72.3851L21.6467 90.0356C21.3162 89.9695 20.6448 89.8042 19.7731 89.4057L27.2568 73.0351L34.7405 56.6646C32.6554 55.7114 30.5974 55.1128 28.7069 54.7347L25.1768 72.3851ZM27.2568 73.0351L9.3622 71.0901L8.9722 74.6781L26.8668 76.6231L44.7614 78.5682L45.1514 74.9802L27.2568 73.0351ZM26.8668 76.6231V58.6231H25.7228V76.6231V94.6231H26.8668V76.6231ZM25.7228 76.6231L42.0341 69.0112C42.037 69.0173 42.1176 69.1892 42.2237 69.5104C42.3278 69.8258 42.4906 70.3878 42.6079 71.1592L24.8128 73.8671L7.01766 76.5751C7.48079 79.6185 8.48001 82.239 9.4115 84.2351L25.7228 76.6231ZM24.8128 73.8671L30.2097 56.6952C27.8904 55.9663 25.4565 55.5811 22.9668 55.5811V73.5811V91.5811C21.7251 91.5811 20.5218 91.3866 19.4159 91.039L24.8128 73.8671ZM22.9668 73.5811V55.5811C20.1707 55.5811 14.8866 56.1005 10.0292 60.0327L21.3548 74.0231L32.6804 88.0135C28.551 91.3564 24.3416 91.5811 22.9668 91.5811V73.5811ZM21.3548 74.0231L10.1103 59.9675C5.23369 63.8688 2.8348 69.547 2.8348 75.1411H20.8348H38.8348C38.8348 77.1657 38.4489 79.601 37.2858 82.1018C36.1094 84.6311 34.4168 86.6248 32.5993 88.0788L21.3548 74.0231ZM33.4328 76.3631L23.0739 91.0836C23.1976 91.1707 23.3224 91.2561 23.4482 91.34L33.4328 76.3631ZM35.6168 77.4551L28.6318 94.0446C28.6756 94.063 28.7194 94.0812 28.7633 94.0993L35.6168 77.4551ZM37.8008 78.4691L29.1815 94.2712L29.1815 94.2712L37.8008 78.4691ZM39.2568 79.7171L24.9719 90.6689C25.0319 90.7472 25.0926 90.825 25.1539 90.9022L39.2568 79.7171ZM38.4508 84.3711L27.3999 70.1628C27.3569 70.1962 27.314 70.2299 27.2713 70.2637L38.4508 84.3711ZM32.1328 85.1771L28.2653 102.757C28.2894 102.762 28.3136 102.767 28.3377 102.773L32.1328 85.1771ZM29.9488 84.4231L12.0484 82.5322C11.276 89.8443 15.0286 96.8911 21.5268 100.331L29.9488 84.4231ZM30.3388 80.7311V62.7311C21.1297 62.7311 13.4058 69.6821 12.4384 78.8402L30.3388 80.7311ZM31.4828 80.7311L47.4172 72.3588C44.3066 66.4387 38.1704 62.7311 31.4828 62.7311V80.7311ZM32.5228 83.5911L14.7967 86.7193C15.8005 92.4072 19.4727 97.2679 24.6699 99.7878L32.5228 83.5911ZM36.3968 83.5131L47.5695 97.6259C47.6875 97.5325 47.8044 97.4375 47.9201 97.3411L36.3968 83.5131ZM36.2668 80.7831L25.8045 95.4303C26.001 95.5707 26.2003 95.7071 26.4023 95.8394L36.2668 80.7831ZM34.0048 79.6391L27.1513 96.2833C27.175 96.2931 27.1987 96.3028 27.2224 96.3124L34.0048 79.6391ZM31.8468 78.6511L23.1918 94.4337C23.2616 94.472 23.3317 94.5099 23.402 94.5472L31.8468 78.6511ZM30.4688 77.4811L16.1284 88.3601C16.1899 88.4412 16.2522 88.5218 16.3151 88.6019L30.4688 77.4811ZM30.4688 73.9191L45.1479 84.3366L45.1479 84.3366L30.4688 73.9191ZM32.1588 72.6191L39.4338 89.0835L32.1588 72.6191ZM37.0728 72.3851L33.0836 89.9375C33.2362 89.9722 33.3893 90.0049 33.5427 90.0356L37.0728 72.3851ZM39.1528 73.0351L57.0474 74.9802C57.8855 67.2696 53.6904 59.8892 46.6365 56.6646L39.1528 73.0351ZM38.7628 76.6231V94.6231C47.9511 94.6231 55.6645 87.7027 56.6574 78.5682L38.7628 76.6231ZM37.6188 76.6231L21.3075 84.2351C24.2649 90.5724 30.6254 94.6231 37.6188 94.6231V76.6231ZM36.7088 73.8671L54.504 71.1592C53.4703 64.3668 48.6602 58.7552 42.1057 56.6952L36.7088 73.8671ZM33.2508 74.0231L44.4953 88.0788C44.5224 88.0571 44.5494 88.0354 44.5764 88.0135L33.2508 74.0231ZM32.7308 75.1411H14.7308C14.7308 82.5896 18.7967 88.0737 23.0739 91.0836L33.4328 76.3631L43.7917 61.6426C45.2467 62.6665 47.0687 64.3282 48.5142 66.8444C50.0179 69.4619 50.7308 72.3463 50.7308 75.1411H32.7308ZM33.4328 76.3631L23.4482 91.34C25.3643 92.6174 27.3557 93.5072 28.6318 94.0446L35.6168 77.4551L42.6018 60.8657C42.3626 60.765 42.3049 60.7331 42.3797 60.7704C42.4222 60.7917 42.5307 60.8469 42.6896 60.9367C42.8439 61.0239 43.0976 61.173 43.4174 61.3862L33.4328 76.3631ZM35.6168 77.4551L28.7633 94.0993C29.0054 94.199 29.1616 94.2687 29.2458 94.3078C29.3348 94.3491 29.3033 94.3377 29.1815 94.2712L37.8008 78.4691L46.4202 62.667C45.0784 61.9351 43.707 61.3201 42.4703 60.8109L35.6168 77.4551ZM37.8008 78.4691L29.1815 94.2712C27.5342 93.3727 26.0935 92.1319 24.9719 90.6689L39.2568 79.7171L53.5417 68.7654C51.6228 66.2624 49.2114 64.1895 46.4201 62.667L37.8008 78.4691ZM39.2568 79.7171L25.1539 90.9022C22.6927 87.799 21.8548 84.32 21.8548 81.5631H39.8548H57.8548C57.8548 77.3502 56.6183 72.6406 53.3598 68.532L39.2568 79.7171ZM39.8548 81.5631H21.8548C21.8548 79.6056 22.2751 77.3313 23.4041 75.0733C24.5231 72.8354 26.0298 71.2284 27.3999 70.1628L38.4508 84.3711L49.5017 98.5795C54.6357 94.5864 57.8548 88.494 57.8548 81.5631H39.8548ZM38.4508 84.3711L27.2713 70.2637C30.5106 67.6968 33.669 67.4631 34.6808 67.4631V85.4631V103.463C38.8819 103.463 44.5537 102.501 49.6303 98.4785L38.4508 84.3711ZM34.6808 85.4631V67.4631C35.2727 67.4631 35.6994 67.5325 35.9279 67.5817L32.1328 85.1771L28.3377 102.773C30.3342 103.203 32.4596 103.463 34.6808 103.463V85.4631ZM32.1328 85.1771L36.0003 67.5975C36.2314 67.6484 37.1406 67.8637 38.3708 68.5149L29.9488 84.4231L21.5268 100.331C23.9357 101.607 26.3009 102.325 28.2653 102.757L32.1328 85.1771ZM29.9488 84.4231L47.8492 86.314L48.2392 82.622L30.3388 80.7311L12.4384 78.8402L12.0484 82.5322L29.9488 84.4231ZM30.3388 80.7311V98.7311H31.4828V80.7311V62.7311H30.3388V80.7311ZM31.4828 80.7311L15.5484 89.1034C15.4561 88.9276 15.041 88.1035 14.7967 86.7193L32.5228 83.5911L50.2489 80.463C49.6926 77.3108 48.5842 74.58 47.4172 72.3588L31.4828 80.7311ZM32.5228 83.5911L24.6699 99.7878C28.2311 101.514 31.7328 102.007 34.5768 102.007V84.0071V66.0071C35.8261 66.0071 37.9586 66.2225 40.3757 67.3945L32.5228 83.5911ZM34.5768 84.0071V102.007C37.4805 102.007 42.7238 101.462 47.5695 97.6259L36.3968 83.5131L25.2242 69.4003C29.2378 66.2228 33.2677 66.0071 34.5768 66.0071V84.0071ZM36.3968 83.5131L47.9201 97.3411C52.8347 93.2457 55.0208 87.5046 55.0208 82.1091H37.0208H19.0208C19.0208 80.2629 19.3543 77.9808 20.4162 75.5916C21.4969 73.1602 23.0866 71.1742 24.8735 69.6851L36.3968 83.5131ZM37.0208 82.1091H55.0208C55.0208 74.9067 51.2073 69.0525 46.1313 65.7268L36.2668 80.7831L26.4023 95.8394C24.6976 94.7226 22.7064 92.9345 21.1851 90.2591C19.6308 87.5256 19.0208 84.6599 19.0208 82.1091H37.0208ZM36.2668 80.7831L46.7291 66.1359C44.514 64.5537 42.2097 63.5445 40.7872 62.9658L34.0048 79.6391L27.2224 96.3124C27.4078 96.3878 27.3842 96.386 27.2137 96.2997C27.1221 96.2534 26.9564 96.1668 26.7356 96.037C26.5191 95.9099 26.1957 95.7098 25.8045 95.4303L36.2668 80.7831ZM34.0048 79.6391L40.8583 62.9949C40.5888 62.8839 40.4056 62.8033 40.2953 62.7528C40.1792 62.6997 40.1886 62.7003 40.2916 62.755L31.8468 78.6511L23.402 94.5472C24.6672 95.2193 25.9732 95.7982 27.1513 96.2833L34.0048 79.6391ZM31.8468 78.6511L40.5018 62.8685C42.1087 63.7497 43.5151 64.9509 44.6225 66.3603L30.4688 77.4811L16.3151 88.6019C18.1851 90.982 20.5103 92.9632 23.1918 94.4337L31.8468 78.6511ZM30.4688 77.4811L44.8093 66.6022C47.0391 69.5415 47.8968 72.8627 47.8968 75.6871H29.8968H11.8968C11.8968 79.8983 13.1359 84.4155 16.1284 88.3601L30.4688 77.4811ZM29.8968 75.6871H47.8968C47.8968 78.8863 46.8638 81.9188 45.1479 84.3366L30.4688 73.9191L15.7897 63.5017C13.3112 66.9941 11.8968 71.2052 11.8968 75.6871H29.8968ZM30.4688 73.9191L45.1479 84.3366C43.2538 87.0056 40.9579 88.41 39.4338 89.0835L32.1588 72.6191L24.8839 56.1548C21.8691 57.4869 18.4465 59.758 15.7897 63.5017L30.4688 73.9191ZM32.1588 72.6191L39.4338 89.0835C37.3476 90.0053 35.6358 90.1251 34.8368 90.1251V72.1251V54.1251C31.9578 54.1251 28.4607 54.5743 24.8839 56.1548L32.1588 72.6191ZM34.8368 72.1251V90.1251C34.1272 90.1251 33.5335 90.0397 33.0836 89.9375L37.0728 72.3851L41.062 54.8327C39.0868 54.3838 37.0024 54.1251 34.8368 54.1251V72.1251ZM37.0728 72.3851L33.5427 90.0356C33.2122 89.9695 32.5408 89.8042 31.6691 89.4057L39.1528 73.0351L46.6365 56.6646C44.5515 55.7114 42.4934 55.1128 40.6029 54.7347L37.0728 72.3851ZM39.1528 73.0351L21.2582 71.0901L20.8682 74.6781L38.7628 76.6231L56.6574 78.5682L57.0474 74.9802L39.1528 73.0351ZM38.7628 76.6231V58.6231H37.6188V76.6231V94.6231H38.7628V76.6231ZM37.6188 76.6231L53.9301 69.0112C53.933 69.0173 54.0136 69.1892 54.1197 69.5104C54.2238 69.8258 54.3866 70.3878 54.504 71.1592L36.7088 73.8671L18.9137 76.5751C19.3768 79.6185 20.376 82.239 21.3075 84.2351L37.6188 76.6231ZM36.7088 73.8671L42.1057 56.6952C39.7864 55.9663 37.3525 55.5811 34.8628 55.5811V73.5811V91.5811C33.6211 91.5811 32.4179 91.3866 31.3119 91.039L36.7088 73.8671ZM34.8628 73.5811V55.5811C32.0667 55.5811 26.7826 56.1005 21.9252 60.0327L33.2508 74.0231L44.5764 88.0135C40.447 91.3564 36.2376 91.5811 34.8628 91.5811V73.5811ZM33.2508 74.0231L22.0063 59.9675C17.1297 63.8688 14.7308 69.547 14.7308 75.1411H32.7308H50.7308C50.7308 77.1657 50.3449 79.601 49.1818 82.1018C48.0054 84.6311 46.3128 86.6248 44.4953 88.0788L33.2508 74.0231ZM45.2466 84.3711L35.2081 99.312C35.2622 99.3483 35.3164 99.3843 35.3707 99.42L45.2466 84.3711ZM42.6726 81.1991L59.1297 73.908V73.908L42.6726 81.1991ZM42.6986 71.3451L26.2258 64.0893C26.2016 64.1442 26.1776 64.1994 26.154 64.2546L42.6986 71.3451ZM45.3246 67.9651L55.83 82.5814C55.8439 82.5714 55.8577 82.5614 55.8716 82.5514L45.3246 67.9651ZM52.9946 67.8611L63.033 52.9202L63.033 52.9202L52.9946 67.8611ZM55.5686 71.0331L39.1114 78.3243L39.1114 78.3243L55.5686 71.0331ZM55.5166 80.9131L71.957 88.242C71.9678 88.2177 71.9786 88.1933 71.9893 88.169L55.5166 80.9131ZM52.8646 84.2671L42.4665 69.5742C42.4306 69.5996 42.3948 69.6252 42.3591 69.6509L52.8646 84.2671ZM51.2526 82.9411L38.7052 70.0352C38.6446 70.0941 38.5844 70.1535 38.5246 70.2132L51.2526 82.9411ZM52.6826 80.2891L35.4346 75.1405C35.411 75.2196 35.3879 75.2989 35.3654 75.3783L52.6826 80.2891ZM52.6826 71.9171L35.3654 76.828C35.3879 76.9074 35.411 76.9867 35.4346 77.0658L52.6826 71.9171ZM51.2526 69.2651L38.5246 81.9931C38.5844 82.0528 38.6446 82.1121 38.7051 82.171L51.2526 69.2651ZM46.9626 69.2651L34.4152 56.3592C34.3546 56.4181 34.2944 56.4775 34.2346 56.5372L46.9626 69.2651ZM45.5326 71.9171L28.2846 66.7685C28.261 66.8476 28.2379 66.9269 28.2154 67.0063L45.5326 71.9171ZM45.5326 80.2891L28.2154 85.2C28.2379 85.2794 28.261 85.3587 28.2846 85.4378L45.5326 80.2891ZM46.9626 82.9411L34.2346 95.669C34.2944 95.7288 34.3546 95.7881 34.4151 95.847L46.9626 82.9411ZM49.1206 85.4631V67.4631C50.7548 67.4631 52.9791 67.9158 55.1224 69.3223L45.2466 84.3711L35.3707 99.42C39.7327 102.282 44.5397 103.463 49.1206 103.463V85.4631ZM45.2466 84.3711L55.285 69.4302C57.3247 70.8007 58.532 72.5588 59.1297 73.908L42.6726 81.1991L26.2154 88.4903C28.0264 92.5781 30.9497 96.4509 35.2081 99.312L45.2466 84.3711ZM42.6726 81.1991L59.1297 73.908C59.7609 75.3325 59.7626 76.3062 59.7626 76.3371H41.7626H23.7626C23.7626 80.1121 24.3709 84.3271 26.2154 88.4903L42.6726 81.1991ZM41.7626 76.3371H59.7626C59.7626 76.4665 59.7376 77.2821 59.2432 78.4357L42.6986 71.3451L26.154 64.2546C24.4116 68.3201 23.7626 72.4638 23.7626 76.3371H41.7626ZM42.6986 71.3451L59.1713 78.601C58.7325 79.5973 57.7345 81.2126 55.83 82.5814L45.3246 67.9651L34.8191 53.3488C30.696 56.3123 27.9473 60.181 26.2258 64.0893L42.6986 71.3451ZM45.3246 67.9651L55.8716 82.5514C54.973 83.2012 53.8836 83.7805 52.6343 84.1827C51.3867 84.5843 50.1853 84.7431 49.1206 84.7431V66.7431V48.7431C43.9693 48.7431 39.0055 50.3217 34.7775 53.3788L45.3246 67.9651ZM49.1206 66.7431V84.7431C47.3997 84.7431 45.1164 84.2534 42.9562 82.802L52.9946 67.8611L63.033 52.9202C58.654 49.9781 53.7881 48.7431 49.1206 48.7431V66.7431ZM52.9946 67.8611L42.9561 82.802C40.9164 81.4316 39.7091 79.6734 39.1114 78.3243L55.5686 71.0331L72.0258 63.742C70.2147 59.6541 67.2914 55.7814 63.033 52.9202L52.9946 67.8611ZM55.5686 71.0331L39.1114 78.3243C38.4888 76.9191 38.4786 75.9439 38.4786 75.8691H56.4786H74.4786C74.4786 72.0851 73.8616 67.8858 72.0257 63.742L55.5686 71.0331ZM56.4786 75.8691H38.4786C38.4786 75.7642 38.4987 74.8948 39.0438 73.6573L55.5166 80.9131L71.9893 88.169C73.8171 84.0195 74.4786 79.7873 74.4786 75.8691H56.4786ZM55.5166 80.9131L39.0761 73.5843C39.5617 72.4949 40.5989 70.8959 42.4665 69.5742L52.8646 84.2671L63.2626 98.96C67.3835 96.0437 70.1887 92.2087 71.957 88.242L55.5166 80.9131ZM52.8646 84.2671L42.3591 69.6509C44.3598 68.2128 46.7982 67.4631 49.1206 67.4631V85.4631V103.463C54.2162 103.463 59.1506 101.916 63.37 98.8834L52.8646 84.2671ZM49.1206 83.8511V101.851C54.984 101.851 60.1976 99.4519 63.9805 95.669L51.2526 82.9411L38.5246 70.2132C39.6676 69.0703 41.2181 67.9138 43.1984 67.0686C45.197 66.2155 47.2333 65.8511 49.1206 65.8511V83.8511ZM51.2526 82.9411L63.8 95.847C67.3974 92.3495 69.1269 88.2779 69.9997 85.2L52.6826 80.2891L35.3654 75.3783C35.5796 74.623 36.3557 72.3194 38.7052 70.0352L51.2526 82.9411ZM52.6826 80.2891L69.9305 85.4378C70.9138 82.1438 71.2026 78.9175 71.2026 76.1031H53.2026H35.2026C35.2026 76.2895 35.1921 76.2957 35.2099 76.1527C35.2274 76.0117 35.281 75.6551 35.4346 75.1405L52.6826 80.2891ZM53.2026 76.1031H71.2026C71.2026 73.2887 70.9138 70.0625 69.9305 66.7685L52.6826 71.9171L35.4346 77.0658C35.281 76.5512 35.2274 76.1945 35.2099 76.0536C35.1921 75.9105 35.2026 75.9168 35.2026 76.1031H53.2026ZM52.6826 71.9171L69.9997 67.0063C69.1269 63.9283 67.3974 59.8567 63.8 56.3592L51.2526 69.2651L38.7051 82.171C36.3557 79.8869 35.5796 77.5833 35.3654 76.828L52.6826 71.9171ZM51.2526 69.2651L63.9805 56.5372C60.1976 52.7543 54.984 50.3551 49.1206 50.3551V68.3551V86.3551C47.2333 86.3551 45.1971 85.9907 43.1984 85.1377C41.2181 84.2924 39.6676 83.136 38.5246 81.9931L51.2526 69.2651ZM49.1206 68.3551V50.3551C43.2783 50.3551 38.146 52.732 34.4152 56.3592L46.9626 69.2651L59.51 82.171C58.3998 83.2504 56.8921 84.3552 54.964 85.1683C53.0139 85.9906 51.0089 86.3551 49.1206 86.3551V68.3551ZM46.9626 69.2651L34.2346 56.5372C30.8241 59.9477 29.1537 63.8572 28.2846 66.7685L45.5326 71.9171L62.7805 77.0658C62.6048 77.6544 61.8877 79.7959 59.6905 81.993L46.9626 69.2651ZM45.5326 71.9171L28.2154 67.0063C27.3064 70.2117 27.0386 73.3519 27.0386 76.1031H45.0386H63.0386C63.0386 75.8851 63.0501 75.8418 63.038 75.9442C63.0262 76.044 62.9833 76.3568 62.8497 76.828L45.5326 71.9171ZM45.0386 76.1031H27.0386C27.0386 78.8543 27.3064 81.9945 28.2154 85.2L45.5326 80.2891L62.8497 75.3783C62.9833 75.8495 63.0262 76.1623 63.038 76.262C63.0501 76.3645 63.0386 76.3211 63.0386 76.1031H45.0386ZM45.5326 80.2891L28.2846 85.4378C29.1537 88.349 30.8241 92.2585 34.2346 95.669L46.9626 82.9411L59.6905 70.2132C61.8877 72.4104 62.6048 74.5519 62.7805 75.1405L45.5326 80.2891ZM46.9626 82.9411L34.4151 95.847C38.146 99.4743 43.2783 101.851 49.1206 101.851V83.8511V65.8511C51.0089 65.8511 53.0139 66.2156 54.964 67.038C56.8921 67.851 58.3998 68.9558 59.51 70.0352L46.9626 82.9411ZM70.3219 80.1591L88.3066 80.9008C88.6874 71.6681 82.0152 63.6468 72.8675 62.34L70.3219 80.1591ZM70.1139 85.2031V103.203C79.7666 103.203 87.7009 95.5892 88.0986 85.9448L70.1139 85.2031ZM58.1799 85.2031H40.1799C40.1799 95.1443 48.2388 103.203 58.1799 103.203V85.2031ZM58.1799 82.9151L46.4119 69.2948C42.4546 72.7139 40.1799 77.6852 40.1799 82.9151H58.1799ZM61.4299 80.1071L49.7376 66.4218C49.7123 66.4434 49.6871 66.465 49.6619 66.4868L61.4299 80.1071ZM65.3559 75.8431L50.2277 66.0894C50.1973 66.1365 50.1671 66.1838 50.1371 66.2313L65.3559 75.8431ZM65.7979 69.2651L52.3234 81.1998C52.3862 81.2707 52.4495 81.3411 52.5134 81.411L65.7979 69.2651ZM61.3259 68.8491L53.2761 52.7494C47.6947 55.5401 43.9569 61.0225 43.3982 67.2376L61.3259 68.8491ZM60.2599 72.6191L59.16 90.5855C65.9152 90.9991 72.3316 87.5884 75.7676 81.7576L60.2599 72.6191ZM58.9859 72.5411L41.0191 73.633C41.5708 82.7113 48.8079 89.9517 57.886 90.5075L58.9859 72.5411ZM58.6999 67.8351L50.4677 51.8279C44.1191 55.0929 40.3 61.8012 40.7331 68.927L58.6999 67.8351ZM61.0659 67.0551L64.8374 84.6556L64.8375 84.6556L61.0659 67.0551ZM68.3199 68.0691L56.7744 81.8785C56.8111 81.9093 56.848 81.9399 56.8851 81.9703L68.3199 68.0691ZM62.9119 80.9651L52.5479 66.2482C52.3836 66.3639 52.2213 66.4824 52.0609 66.6035L62.9119 80.9651ZM60.5719 82.7331L49.7209 68.3715C45.2184 71.7734 42.5719 77.09 42.5719 82.7331H60.5719ZM60.5719 82.9151H42.5719C42.5719 92.8563 50.6308 100.915 60.5719 100.915V82.9151ZM67.9039 82.9151V100.915C76.0291 100.915 83.147 95.4717 85.2754 87.6302L67.9039 82.9151ZM69.0479 79.9771L71.5935 62.158C64.3347 61.1211 57.1723 64.5909 53.4868 70.93L69.0479 79.9771ZM70.3219 80.1591L52.3372 79.4175L52.1292 84.4615L70.1139 85.2031L88.0986 85.9448L88.3066 80.9008L70.3219 80.1591ZM70.1139 85.2031V67.2031H58.1799V85.2031V103.203H70.1139V85.2031ZM58.1799 85.2031H76.1799V82.9151H58.1799H40.1799V85.2031H58.1799ZM58.1799 82.9151L69.9479 96.5355L73.1979 93.7275L61.4299 80.1071L49.6619 66.4868L46.4119 69.2948L58.1799 82.9151ZM61.4299 80.1071L73.1223 93.7925C75.6589 91.6253 78.4217 88.864 80.5747 85.455L65.3559 75.8431L50.1371 66.2313C50.2842 65.9985 50.3999 65.8435 50.4608 65.7655C50.5222 65.687 50.5433 65.6671 50.5085 65.7049C50.4742 65.7421 50.3967 65.8234 50.2658 65.9481C50.1353 66.0724 49.9615 66.2305 49.7376 66.4218L61.4299 80.1071ZM65.3559 75.8431L80.4842 85.5969C82.9827 81.7216 84.6299 77.0187 84.6299 71.7611H66.6299H48.6299C48.6299 69.3116 49.4278 67.33 50.2277 66.0894L65.3559 75.8431ZM66.6299 71.7611H84.6299C84.6299 67.5367 83.4612 61.9086 79.0825 57.1193L65.7979 69.2651L52.5134 81.411C49.244 77.835 48.6299 73.8709 48.6299 71.7611H66.6299ZM65.7979 69.2651L79.2725 57.3305C74.6444 52.1052 68.5463 50.3551 63.5359 50.3551V68.3551V86.3551C62.157 86.3551 60.2415 86.1389 58.1113 85.2819C55.9047 84.3942 53.9122 82.9936 52.3234 81.1998L65.7979 69.2651ZM63.5359 68.3551V50.3551C60.2279 50.3551 56.6902 51.0424 53.2761 52.7494L61.3259 68.8491L69.3758 84.9488C67.279 85.9972 65.2146 86.3551 63.5359 86.3551V68.3551ZM61.3259 68.8491L43.3982 67.2376C43.4141 67.0615 43.5613 65.5017 44.7522 63.4807L60.2599 72.6191L75.7676 81.7576C78.1026 77.7952 78.9605 73.7221 79.2537 70.4606L61.3259 68.8491ZM60.2599 72.6191L61.3599 54.6528L60.0859 54.5748L58.9859 72.5411L57.886 90.5075L59.16 90.5855L60.2599 72.6191ZM58.9859 72.5411L76.9528 71.4492L76.6668 66.7432L58.6999 67.8351L40.7331 68.927L41.0191 73.633L58.9859 72.5411ZM58.6999 67.8351L66.9322 83.8423C66.2433 84.1966 65.6961 84.3976 65.3821 84.5011C65.0603 84.6072 64.8647 84.6497 64.8374 84.6556L61.0659 67.0551L57.2944 49.4547C55.4095 49.8586 52.9651 50.5435 50.4677 51.8279L58.6999 67.8351ZM61.0659 67.0551L64.8375 84.6556C64.692 84.6867 64.3607 84.7431 63.8739 84.7431V66.7431V48.7431C61.5845 48.7431 59.3812 49.0075 57.2944 49.4547L61.0659 67.0551ZM63.8739 66.7431V84.7431C63.1678 84.7431 60.0053 84.5798 56.7744 81.8785L68.3199 68.0691L79.8655 54.2597C74.5199 49.7904 68.3934 48.7431 63.8739 48.7431V66.7431ZM68.3199 68.0691L56.8851 81.9703C55.313 80.6772 53.9414 78.9387 53.0328 76.8577C52.1517 74.8398 51.9319 73.0238 51.9319 71.7611H69.9319H87.9319C87.9319 65.6102 85.5727 58.9536 79.7548 54.1679L68.3199 68.0691ZM69.9319 71.7611H51.9319C51.9319 70.4215 52.1738 69.0807 52.6341 67.8363C53.0857 66.6157 53.6656 65.706 54.1445 65.0999L68.2679 76.2591L82.3914 87.4184C85.6877 83.2465 87.9319 77.8988 87.9319 71.7611H69.9319ZM68.2679 76.2591L54.1445 65.0999C54.4422 64.7231 54.5395 64.6825 54.216 64.9667C53.9146 65.2315 53.3834 65.6598 52.5479 66.2482L62.9119 80.9651L73.276 95.682C76.3298 93.5314 79.7221 90.7966 82.3914 87.4184L68.2679 76.2591ZM62.9119 80.9651L52.0609 66.6035L49.7209 68.3715L60.5719 82.7331L71.4229 97.0947L73.7629 95.3267L62.9119 80.9651ZM60.5719 82.7331H42.5719V82.9151H60.5719H78.5719V82.7331H60.5719ZM60.5719 82.9151V100.915H67.9039V82.9151V64.9151H60.5719V82.9151ZM67.9039 82.9151L85.2754 87.6302C85.3043 87.5239 85.2906 87.5955 85.2102 87.8018C85.133 88.0002 84.9493 88.439 84.6091 89.0243L69.0479 79.9771L53.4868 70.93C51.993 73.4993 51.1036 76.0959 50.5325 78.2L67.9039 82.9151ZM69.0479 79.9771L66.5024 97.7962L67.7764 97.9782L70.3219 80.1591L72.8675 62.34L71.5935 62.158L69.0479 79.9771Z" fill="#373F51" mask="url(#path-1-outside-1_382_5346)"/>
<path d="M119.627 19.2031C119.627 21.6831 120.387 23.8831 121.907 25.8031C123.427 27.6431 125.307 29.2831 127.547 30.7231C129.867 32.0831 132.987 33.7231 136.907 35.6431C141.947 38.1231 146.027 40.4031 149.147 42.4831C152.347 44.5631 155.027 47.2431 157.187 50.5231C159.427 53.7231 160.547 57.6431 160.547 62.2831C160.547 67.1631 159.307 71.4431 156.827 75.1231C154.347 78.7231 150.827 81.5231 146.267 83.5231C141.707 85.4431 136.347 86.4031 130.187 86.4031C125.707 86.4031 121.147 85.9231 116.507 84.9631C111.867 83.9231 108.067 82.6031 105.107 81.0031L106.307 58.4431L112.427 58.0831C114.507 62.4031 116.027 68.4831 116.987 76.3231C121.387 78.0831 125.627 78.9631 129.707 78.9631C134.667 78.9631 138.667 77.6831 141.707 75.1231C144.827 72.5631 146.387 69.2031 146.387 65.0431C146.387 62.2431 145.587 59.8031 143.987 57.7231C142.387 55.6431 140.387 53.8831 137.987 52.4431C135.587 51.0031 132.307 49.2431 128.147 47.1631C123.187 44.6831 119.187 42.4831 116.147 40.5631C113.187 38.5631 110.627 36.0431 108.467 33.0031C106.387 29.9631 105.347 26.3231 105.347 22.0831C105.347 17.8431 106.467 14.0431 108.707 10.6831C111.027 7.32312 114.267 4.72312 118.427 2.88312C122.667 0.96312 127.587 0.00312042 133.187 0.00312042C137.267 0.00312042 141.387 0.44312 145.547 1.32312C149.787 2.20312 153.347 3.36312 156.227 4.80312L154.787 27.3631L148.907 27.7231C146.427 23.2431 144.787 17.1631 143.987 9.48312C141.107 8.12312 137.707 7.44312 133.787 7.44312C129.547 7.44312 126.107 8.56312 123.467 10.8031C120.907 12.9631 119.627 15.7631 119.627 19.2031ZM126.587 112.563C127.627 111.523 128.587 110.203 129.467 108.603C130.347 107.083 130.987 105.603 131.387 104.163L124.667 98.6431C125.067 96.4831 125.947 94.7631 127.307 93.4831C128.747 92.2831 130.387 91.6831 132.227 91.6831C134.387 91.6831 136.147 92.4031 137.507 93.8431C138.867 95.2831 139.547 97.1231 139.547 99.3631C139.547 101.843 138.587 104.643 136.667 107.763C134.747 110.883 132.307 113.483 129.347 115.563L126.587 112.563ZM183.836 38.7631C183.836 41.0031 184.916 42.8831 187.076 44.4031C189.236 45.8431 192.596 47.5231 197.156 49.4431C201.236 51.1231 204.596 52.6831 207.236 54.1231C209.876 55.5631 212.116 57.4831 213.956 59.8831C215.796 62.2031 216.716 65.0431 216.716 68.4031C216.716 73.6831 214.556 78.0031 210.236 81.3631C205.996 84.7231 200.196 86.4031 192.836 86.4031C189.076 86.4031 185.156 85.9631 181.076 85.0831C177.076 84.2031 173.716 83.0431 170.996 81.6031L172.796 64.5631H178.076C180.556 69.2831 182.156 73.6831 182.876 77.7631C185.516 79.0431 188.676 79.6831 192.356 79.6831C196.036 79.6831 198.836 78.9231 200.756 77.4031C202.676 75.8031 203.636 73.6431 203.636 70.9231C203.636 68.3631 202.476 66.3231 200.156 64.8031C197.916 63.2031 194.436 61.4431 189.716 59.5231C185.636 57.8431 182.316 56.3231 179.756 54.9631C177.276 53.6031 175.156 51.8031 173.396 49.5631C171.636 47.2431 170.756 44.4831 170.756 41.2831C170.756 38.3231 171.636 35.6031 173.396 33.1231C175.156 30.6431 177.756 28.6431 181.196 27.1231C184.636 25.6031 188.756 24.8431 193.556 24.8431C196.916 24.8431 200.356 25.2431 203.876 26.0431C207.476 26.7631 210.676 27.7631 213.476 29.0431L211.676 45.6031H206.396C204.156 40.8031 202.756 36.5631 202.196 32.8831C199.396 32.0031 196.556 31.5631 193.676 31.5631C190.396 31.5631 187.916 32.2431 186.236 33.6031C184.636 34.8831 183.836 36.6031 183.836 38.7631ZM188.396 112.563C189.436 111.523 190.396 110.203 191.276 108.603C192.156 107.083 192.796 105.603 193.196 104.163L186.476 98.6431C186.876 96.4831 187.756 94.7631 189.116 93.4831C190.556 92.2831 192.196 91.6831 194.036 91.6831C196.196 91.6831 197.956 92.4031 199.316 93.8431C200.676 95.2831 201.356 97.1231 201.356 99.3631C201.356 101.843 200.396 104.643 198.476 107.763C196.556 110.883 194.116 113.483 191.156 115.563L188.396 112.563ZM265.721 9.24312V76.9231C269.081 77.8031 271.961 79.0431 274.361 80.6431L273.521 85.2031H243.521L242.681 80.6431C245.081 79.0431 247.961 77.8031 251.321 76.9231V9.24312H235.121C233.841 15.4831 231.761 20.8431 228.881 25.3231L223.001 24.4831L224.081 1.20312H292.961L294.041 24.4831L288.161 25.3231C285.281 20.8431 283.201 15.4831 281.921 9.24312H265.721ZM253.361 112.563C254.401 111.523 255.361 110.203 256.241 108.603C257.121 107.083 257.761 105.603 258.161 104.163L251.441 98.6431C251.841 96.4831 252.721 94.7631 254.081 93.4831C255.521 92.2831 257.161 91.6831 259.001 91.6831C261.161 91.6831 262.921 92.4031 264.281 93.8431C265.641 95.2831 266.321 97.1231 266.321 99.3631C266.321 101.843 265.361 104.643 263.441 107.763C261.521 110.883 259.081 113.483 256.121 115.563L253.361 112.563ZM318.541 86.4031C313.901 86.4031 310.261 85.1631 307.621 82.6831C304.981 80.1231 303.661 76.7231 303.661 72.4831V33.4831H294.421L293.461 29.0431C294.501 28.1631 296.021 27.3231 298.021 26.5231C300.021 25.6431 301.901 25.1231 303.661 24.9631L308.581 11.0431H316.741V26.0431H332.221V33.4831H316.741V70.6831C316.741 73.0031 317.341 74.8031 318.541 76.0831C319.741 77.3631 321.381 78.0031 323.461 78.0031C327.141 78.0031 330.581 76.5231 333.781 73.5631L336.901 78.4831C334.661 80.8831 331.901 82.8031 328.621 84.2431C325.421 85.6831 322.061 86.4031 318.541 86.4031ZM313.501 112.563C314.541 111.523 315.501 110.203 316.381 108.603C317.261 107.083 317.901 105.603 318.301 104.163L311.581 98.6431C311.981 96.4831 312.861 94.7631 314.221 93.4831C315.661 92.2831 317.301 91.6831 319.141 91.6831C321.301 91.6831 323.061 92.4031 324.421 93.8431C325.781 95.2831 326.461 97.1231 326.461 99.3631C326.461 101.843 325.501 104.643 323.581 107.763C321.661 110.883 319.221 113.483 316.261 115.563L313.501 112.563Z" fill="#EDEFF1"/>
</svg>
