<svg width="281" height="142" viewBox="0 0 281 142" fill="none" xmlns="http://www.w3.org/2000/svg">
<mask id="path-1-outside-1_382_5343" maskUnits="userSpaceOnUse" x="-0.533203" y="74.6016" width="90" height="56" fill="black">
<rect fill="white" x="-0.533203" y="74.6016" width="90" height="56"/>
<path d="M20.8348 101.54C20.8348 102.025 21.0688 102.432 21.5368 102.762C22.0048 103.074 22.7328 103.438 23.7208 103.854C24.6048 104.218 25.3328 104.556 25.9048 104.868C26.4768 105.18 26.9621 105.596 27.3608 106.116C27.7595 106.618 27.9588 107.234 27.9588 107.962C27.9588 109.106 27.4908 110.042 26.5548 110.77C25.6361 111.498 24.3795 111.862 22.7848 111.862C21.9701 111.862 21.1208 111.766 20.2368 111.576C19.3701 111.385 18.6421 111.134 18.0528 110.822L18.4428 107.13H19.5868C20.1241 108.152 20.4708 109.106 20.6268 109.99C21.1988 110.267 21.8835 110.406 22.6808 110.406C23.4781 110.406 24.0848 110.241 24.5008 109.912C24.9168 109.565 25.1248 109.097 25.1248 108.508C25.1248 107.953 24.8735 107.511 24.3708 107.182C23.8855 106.835 23.1315 106.454 22.1088 106.038C21.2248 105.674 20.5055 105.344 19.9508 105.05C19.4135 104.755 18.9541 104.365 18.5728 103.88C18.1915 103.377 18.0008 102.779 18.0008 102.086C18.0008 101.444 18.1915 100.855 18.5728 100.318C18.9541 99.7802 19.5175 99.3469 20.2628 99.0176C21.0081 98.6882 21.9008 98.5236 22.9408 98.5236C23.6688 98.5236 24.4141 98.6102 25.1768 98.7836C25.9568 98.9396 26.6501 99.1562 27.2568 99.4336L26.8668 103.022H25.7228C25.2375 101.982 24.9341 101.063 24.8128 100.266C24.2061 100.075 23.5908 99.9796 22.9668 99.9796C22.2561 99.9796 21.7188 100.127 21.3548 100.422C21.0081 100.699 20.8348 101.072 20.8348 101.54ZM32.7308 101.54C32.7308 102.025 32.9648 102.432 33.4328 102.762C33.9008 103.074 34.6288 103.438 35.6168 103.854C36.5008 104.218 37.2288 104.556 37.8008 104.868C38.3728 105.18 38.8581 105.596 39.2568 106.116C39.6555 106.618 39.8548 107.234 39.8548 107.962C39.8548 109.106 39.3868 110.042 38.4508 110.77C37.5321 111.498 36.2755 111.862 34.6808 111.862C33.8661 111.862 33.0168 111.766 32.1328 111.576C31.2661 111.385 30.5381 111.134 29.9488 110.822L30.3388 107.13H31.4828C32.0201 108.152 32.3668 109.106 32.5228 109.99C33.0948 110.267 33.7795 110.406 34.5768 110.406C35.3741 110.406 35.9808 110.241 36.3968 109.912C36.8128 109.565 37.0208 109.097 37.0208 108.508C37.0208 107.953 36.7695 107.511 36.2668 107.182C35.7815 106.835 35.0275 106.454 34.0048 106.038C33.1208 105.674 32.4015 105.344 31.8468 105.05C31.3095 104.755 30.8501 104.365 30.4688 103.88C30.0875 103.377 29.8968 102.779 29.8968 102.086C29.8968 101.444 30.0875 100.855 30.4688 100.318C30.8501 99.7802 31.4135 99.3469 32.1588 99.0176C32.9041 98.6882 33.7968 98.5236 34.8368 98.5236C35.5648 98.5236 36.3101 98.6102 37.0728 98.7836C37.8528 98.9396 38.5461 99.1562 39.1528 99.4336L38.7628 103.022H37.6188C37.1335 101.982 36.8301 101.063 36.7088 100.266C36.1021 100.075 35.4868 99.9796 34.8628 99.9796C34.1521 99.9796 33.6148 100.127 33.2508 100.422C32.9041 100.699 32.7308 101.072 32.7308 101.54ZM49.1206 111.862C47.6472 111.862 46.3559 111.498 45.2466 110.77C44.1372 110.024 43.2792 108.967 42.6726 107.598C42.0659 106.228 41.7626 104.608 41.7626 102.736C41.7626 100.864 42.0746 99.1996 42.6986 97.7436C43.3399 96.2876 44.2152 95.1609 45.3246 94.3636C46.4512 93.5489 47.7166 93.1416 49.1206 93.1416C50.5939 93.1416 51.8852 93.5142 52.9946 94.2596C54.1039 95.0049 54.9619 96.0622 55.5686 97.4316C56.1752 98.8009 56.4786 100.413 56.4786 102.268C56.4786 104.174 56.1579 105.856 55.5166 107.312C54.8752 108.75 53.9912 109.868 52.8646 110.666C51.7552 111.463 50.5072 111.862 49.1206 111.862ZM49.1206 110.25C49.9352 110.25 50.6459 109.946 51.2526 109.34C51.8766 108.733 52.3532 107.849 52.6826 106.688C53.0292 105.526 53.2026 104.131 53.2026 102.502C53.2026 100.872 53.0292 99.4769 52.6826 98.3156C52.3532 97.1542 51.8766 96.2702 51.2526 95.6636C50.6459 95.0569 49.9352 94.7536 49.1206 94.7536C48.3059 94.7536 47.5866 95.0569 46.9626 95.6636C46.3559 96.2702 45.8792 97.1542 45.5326 98.3156C45.2032 99.4769 45.0386 100.872 45.0386 102.502C45.0386 104.131 45.2032 105.526 45.5326 106.688C45.8792 107.849 46.3559 108.733 46.9626 109.34C47.5866 109.946 48.3059 110.25 49.1206 110.25ZM66.3397 102.164C67.6917 102.424 68.749 102.944 69.5117 103.724C70.2917 104.486 70.6817 105.448 70.6817 106.61C70.6817 107.667 70.413 108.594 69.8757 109.392C69.3557 110.172 68.6103 110.778 67.6397 111.212C66.669 111.645 65.5337 111.862 64.2337 111.862C63.0723 111.862 62.0497 111.697 61.1657 111.368C60.299 111.021 59.623 110.553 59.1377 109.964C58.6697 109.374 58.4357 108.716 58.4357 107.988C58.4357 107.693 58.4703 107.39 58.5397 107.078C58.609 106.748 58.7043 106.471 58.8257 106.246H60.9577L61.4777 109.704C62.2403 110.068 63.0463 110.25 63.8957 110.25C65.005 110.25 65.863 109.929 66.4697 109.288C67.0763 108.646 67.3797 107.754 67.3797 106.61C67.3797 105.466 67.0677 104.582 66.4437 103.958C65.8197 103.316 64.9357 102.996 63.7917 102.996H61.5817V101.228H63.7917C64.7797 101.228 65.5683 100.933 66.1577 100.344C66.747 99.7542 67.0417 98.9742 67.0417 98.0036C67.0417 96.9809 66.7557 96.1836 66.1837 95.6116C65.6117 95.0396 64.8143 94.7536 63.7917 94.7536C63.0637 94.7536 62.353 94.8749 61.6597 95.1176C61.4863 96.7296 61.1223 97.9949 60.5677 98.9136L59.2937 98.8356L59.0077 94.1296C59.649 93.8349 60.4377 93.6009 61.3737 93.4276C62.327 93.2369 63.2543 93.1416 64.1557 93.1416C65.369 93.1416 66.435 93.3409 67.3537 93.7396C68.2897 94.1209 69.009 94.6669 69.5117 95.3776C70.0317 96.0882 70.2917 96.9029 70.2917 97.8216C70.2917 98.8962 69.9363 99.7976 69.2257 100.526C68.515 101.236 67.553 101.722 66.3397 101.982V102.164Z"/>
</mask>
<path d="M20.8348 101.54C20.8348 102.025 21.0688 102.432 21.5368 102.762C22.0048 103.074 22.7328 103.438 23.7208 103.854C24.6048 104.218 25.3328 104.556 25.9048 104.868C26.4768 105.18 26.9621 105.596 27.3608 106.116C27.7595 106.618 27.9588 107.234 27.9588 107.962C27.9588 109.106 27.4908 110.042 26.5548 110.77C25.6361 111.498 24.3795 111.862 22.7848 111.862C21.9701 111.862 21.1208 111.766 20.2368 111.576C19.3701 111.385 18.6421 111.134 18.0528 110.822L18.4428 107.13H19.5868C20.1241 108.152 20.4708 109.106 20.6268 109.99C21.1988 110.267 21.8835 110.406 22.6808 110.406C23.4781 110.406 24.0848 110.241 24.5008 109.912C24.9168 109.565 25.1248 109.097 25.1248 108.508C25.1248 107.953 24.8735 107.511 24.3708 107.182C23.8855 106.835 23.1315 106.454 22.1088 106.038C21.2248 105.674 20.5055 105.344 19.9508 105.05C19.4135 104.755 18.9541 104.365 18.5728 103.88C18.1915 103.377 18.0008 102.779 18.0008 102.086C18.0008 101.444 18.1915 100.855 18.5728 100.318C18.9541 99.7802 19.5175 99.3469 20.2628 99.0176C21.0081 98.6882 21.9008 98.5236 22.9408 98.5236C23.6688 98.5236 24.4141 98.6102 25.1768 98.7836C25.9568 98.9396 26.6501 99.1562 27.2568 99.4336L26.8668 103.022H25.7228C25.2375 101.982 24.9341 101.063 24.8128 100.266C24.2061 100.075 23.5908 99.9796 22.9668 99.9796C22.2561 99.9796 21.7188 100.127 21.3548 100.422C21.0081 100.699 20.8348 101.072 20.8348 101.54ZM32.7308 101.54C32.7308 102.025 32.9648 102.432 33.4328 102.762C33.9008 103.074 34.6288 103.438 35.6168 103.854C36.5008 104.218 37.2288 104.556 37.8008 104.868C38.3728 105.18 38.8581 105.596 39.2568 106.116C39.6555 106.618 39.8548 107.234 39.8548 107.962C39.8548 109.106 39.3868 110.042 38.4508 110.77C37.5321 111.498 36.2755 111.862 34.6808 111.862C33.8661 111.862 33.0168 111.766 32.1328 111.576C31.2661 111.385 30.5381 111.134 29.9488 110.822L30.3388 107.13H31.4828C32.0201 108.152 32.3668 109.106 32.5228 109.99C33.0948 110.267 33.7795 110.406 34.5768 110.406C35.3741 110.406 35.9808 110.241 36.3968 109.912C36.8128 109.565 37.0208 109.097 37.0208 108.508C37.0208 107.953 36.7695 107.511 36.2668 107.182C35.7815 106.835 35.0275 106.454 34.0048 106.038C33.1208 105.674 32.4015 105.344 31.8468 105.05C31.3095 104.755 30.8501 104.365 30.4688 103.88C30.0875 103.377 29.8968 102.779 29.8968 102.086C29.8968 101.444 30.0875 100.855 30.4688 100.318C30.8501 99.7802 31.4135 99.3469 32.1588 99.0176C32.9041 98.6882 33.7968 98.5236 34.8368 98.5236C35.5648 98.5236 36.3101 98.6102 37.0728 98.7836C37.8528 98.9396 38.5461 99.1562 39.1528 99.4336L38.7628 103.022H37.6188C37.1335 101.982 36.8301 101.063 36.7088 100.266C36.1021 100.075 35.4868 99.9796 34.8628 99.9796C34.1521 99.9796 33.6148 100.127 33.2508 100.422C32.9041 100.699 32.7308 101.072 32.7308 101.54ZM49.1206 111.862C47.6472 111.862 46.3559 111.498 45.2466 110.77C44.1372 110.024 43.2792 108.967 42.6726 107.598C42.0659 106.228 41.7626 104.608 41.7626 102.736C41.7626 100.864 42.0746 99.1996 42.6986 97.7436C43.3399 96.2876 44.2152 95.1609 45.3246 94.3636C46.4512 93.5489 47.7166 93.1416 49.1206 93.1416C50.5939 93.1416 51.8852 93.5142 52.9946 94.2596C54.1039 95.0049 54.9619 96.0622 55.5686 97.4316C56.1752 98.8009 56.4786 100.413 56.4786 102.268C56.4786 104.174 56.1579 105.856 55.5166 107.312C54.8752 108.75 53.9912 109.868 52.8646 110.666C51.7552 111.463 50.5072 111.862 49.1206 111.862ZM49.1206 110.25C49.9352 110.25 50.6459 109.946 51.2526 109.34C51.8766 108.733 52.3532 107.849 52.6826 106.688C53.0292 105.526 53.2026 104.131 53.2026 102.502C53.2026 100.872 53.0292 99.4769 52.6826 98.3156C52.3532 97.1542 51.8766 96.2702 51.2526 95.6636C50.6459 95.0569 49.9352 94.7536 49.1206 94.7536C48.3059 94.7536 47.5866 95.0569 46.9626 95.6636C46.3559 96.2702 45.8792 97.1542 45.5326 98.3156C45.2032 99.4769 45.0386 100.872 45.0386 102.502C45.0386 104.131 45.2032 105.526 45.5326 106.688C45.8792 107.849 46.3559 108.733 46.9626 109.34C47.5866 109.946 48.3059 110.25 49.1206 110.25ZM66.3397 102.164C67.6917 102.424 68.749 102.944 69.5117 103.724C70.2917 104.486 70.6817 105.448 70.6817 106.61C70.6817 107.667 70.413 108.594 69.8757 109.392C69.3557 110.172 68.6103 110.778 67.6397 111.212C66.669 111.645 65.5337 111.862 64.2337 111.862C63.0723 111.862 62.0497 111.697 61.1657 111.368C60.299 111.021 59.623 110.553 59.1377 109.964C58.6697 109.374 58.4357 108.716 58.4357 107.988C58.4357 107.693 58.4703 107.39 58.5397 107.078C58.609 106.748 58.7043 106.471 58.8257 106.246H60.9577L61.4777 109.704C62.2403 110.068 63.0463 110.25 63.8957 110.25C65.005 110.25 65.863 109.929 66.4697 109.288C67.0763 108.646 67.3797 107.754 67.3797 106.61C67.3797 105.466 67.0677 104.582 66.4437 103.958C65.8197 103.316 64.9357 102.996 63.7917 102.996H61.5817V101.228H63.7917C64.7797 101.228 65.5683 100.933 66.1577 100.344C66.747 99.7542 67.0417 98.9742 67.0417 98.0036C67.0417 96.9809 66.7557 96.1836 66.1837 95.6116C65.6117 95.0396 64.8143 94.7536 63.7917 94.7536C63.0637 94.7536 62.353 94.8749 61.6597 95.1176C61.4863 96.7296 61.1223 97.9949 60.5677 98.9136L59.2937 98.8356L59.0077 94.1296C59.649 93.8349 60.4377 93.6009 61.3737 93.4276C62.327 93.2369 63.2543 93.1416 64.1557 93.1416C65.369 93.1416 66.435 93.3409 67.3537 93.7396C68.2897 94.1209 69.009 94.6669 69.5117 95.3776C70.0317 96.0882 70.2917 96.9029 70.2917 97.8216C70.2917 98.8962 69.9363 99.7976 69.2257 100.526C68.515 101.236 67.553 101.722 66.3397 101.982V102.164Z" fill="#A5D0FD"/>
<path d="M21.5368 102.762L11.1779 117.482C11.3016 117.569 11.4264 117.655 11.5522 117.738L21.5368 102.762ZM23.7208 103.854L16.7358 120.443C16.7795 120.461 16.8234 120.48 16.8673 120.498L23.7208 103.854ZM25.9048 104.868L17.2855 120.67L17.2855 120.67L25.9048 104.868ZM27.3608 106.116L13.0759 117.067C13.1359 117.146 13.1965 117.223 13.2578 117.301L27.3608 106.116ZM26.5548 110.77L15.5039 96.5612C15.4609 96.5947 15.418 96.6283 15.3753 96.6621L26.5548 110.77ZM20.2368 111.576L16.3693 129.155C16.3934 129.16 16.4176 129.166 16.4417 129.171L20.2368 111.576ZM18.0528 110.822L0.152391 108.931C-0.62001 116.243 3.13256 123.289 9.63082 126.73L18.0528 110.822ZM18.4428 107.13V89.1296C9.23367 89.1296 1.5098 96.0805 0.542391 105.239L18.4428 107.13ZM19.5868 107.13L35.5212 98.7573C32.4106 92.8372 26.2743 89.1296 19.5868 89.1296V107.13ZM20.6268 109.99L2.90069 113.118C3.90444 118.806 7.57672 123.666 12.7739 126.186L20.6268 109.99ZM24.5008 109.912L35.6735 124.024C35.7915 123.931 35.9084 123.836 36.0241 123.74L24.5008 109.912ZM24.3708 107.182L13.9085 121.829C14.105 121.969 14.3043 122.106 14.5063 122.238L24.3708 107.182ZM22.1088 106.038L15.2553 122.682C15.279 122.692 15.3027 122.701 15.3264 122.711L22.1088 106.038ZM19.9508 105.05L11.2958 120.832C11.3656 120.87 11.4357 120.908 11.506 120.946L19.9508 105.05ZM18.5728 103.88L4.23236 114.759C4.29391 114.84 4.35615 114.92 4.41907 115L18.5728 103.88ZM18.5728 100.318L33.2519 110.735L33.2519 110.735L18.5728 100.318ZM20.2628 99.0176L27.5377 115.482H27.5377L20.2628 99.0176ZM25.1768 98.7836L21.1876 116.336C21.3402 116.371 21.4933 116.403 21.6467 116.434L25.1768 98.7836ZM27.2568 99.4336L45.1514 101.379C45.9895 93.6681 41.7943 86.2876 34.7405 83.063L27.2568 99.4336ZM26.8668 103.022V121.022C36.0551 121.022 43.7685 114.101 44.7614 104.967L26.8668 103.022ZM25.7228 103.022L9.4115 110.633C12.3689 116.971 18.7294 121.022 25.7228 121.022V103.022ZM24.8128 100.266L42.6079 97.5576C41.5743 90.7652 36.7642 85.1537 30.2097 83.0937L24.8128 100.266ZM21.3548 100.422L32.5993 114.477C32.6264 114.456 32.6534 114.434 32.6804 114.412L21.3548 100.422ZM20.8348 101.54H2.8348C2.8348 108.988 6.90069 114.472 11.1779 117.482L21.5368 102.762L31.8957 88.0411C33.3507 89.0649 35.1727 90.7266 36.6182 93.2428C38.1219 95.8604 38.8348 98.7447 38.8348 101.54H20.8348ZM21.5368 102.762L11.5522 117.738C13.4682 119.016 15.4596 119.906 16.7358 120.443L23.7208 103.854L30.7058 87.2641C30.4666 87.1634 30.4089 87.1315 30.4836 87.1689C30.5262 87.1901 30.6347 87.2454 30.7936 87.3352C30.9479 87.4224 31.2016 87.5714 31.5214 87.7846L21.5368 102.762ZM23.7208 103.854L16.8673 120.498C17.1093 120.597 17.2656 120.667 17.3498 120.706C17.4388 120.748 17.4073 120.736 17.2855 120.67L25.9048 104.868L34.5241 89.0654C33.1823 88.3336 31.811 87.7186 30.5743 87.2094L23.7208 103.854ZM25.9048 104.868L17.2855 120.67C15.6382 119.771 14.1975 118.53 13.0759 117.067L27.3608 106.116L41.6457 95.1638C39.7268 92.6608 37.3154 90.5879 34.5241 89.0654L25.9048 104.868ZM27.3608 106.116L13.2578 117.301C10.7967 114.197 9.9588 110.718 9.9588 107.962H27.9588H45.9588C45.9588 103.749 44.7223 99.039 41.4638 94.9305L27.3608 106.116ZM27.9588 107.962H9.9588C9.9588 106.004 10.3791 103.73 11.5081 101.472C12.627 99.2339 14.1338 97.6268 15.5039 96.5612L26.5548 110.77L37.6057 124.978C42.7397 120.985 45.9588 114.892 45.9588 107.962H27.9588ZM26.5548 110.77L15.3753 96.6621C18.6146 94.0952 21.773 93.8616 22.7848 93.8616V111.862V129.862C26.9859 129.862 32.6577 128.9 37.7343 124.877L26.5548 110.77ZM22.7848 111.862V93.8616C23.3766 93.8616 23.8034 93.9309 24.0319 93.9802L20.2368 111.576L16.4417 129.171C18.4382 129.602 20.5636 129.862 22.7848 129.862V111.862ZM20.2368 111.576L24.1043 93.996C24.3354 94.0468 25.2446 94.2621 26.4748 94.9134L18.0528 110.822L9.63082 126.73C12.0397 128.005 14.4049 128.723 16.3693 129.155L20.2368 111.576ZM18.0528 110.822L35.9532 112.712L36.3432 109.02L18.4428 107.13L0.542391 105.239L0.152391 108.931L18.0528 110.822ZM18.4428 107.13V125.13H19.5868V107.13V89.1296H18.4428V107.13ZM19.5868 107.13L3.65241 115.502C3.56004 115.326 3.14497 114.502 2.90069 113.118L20.6268 109.99L38.3529 106.861C37.7966 103.709 36.6882 100.978 35.5212 98.7573L19.5868 107.13ZM20.6268 109.99L12.7739 126.186C16.335 127.913 19.8368 128.406 22.6808 128.406V110.406V92.4056C23.9301 92.4056 26.0626 92.621 28.4797 93.7929L20.6268 109.99ZM22.6808 110.406V128.406C25.5845 128.406 30.8278 127.861 35.6735 124.024L24.5008 109.912L13.3281 95.7987C17.3418 92.6213 21.3717 92.4056 22.6808 92.4056V110.406ZM24.5008 109.912L36.0241 123.74C40.9386 119.644 43.1248 113.903 43.1248 108.508H25.1248H7.1248C7.1248 106.661 7.45833 104.379 8.52019 101.99C9.60084 99.5586 11.1906 97.5727 12.9775 96.0836L24.5008 109.912ZM25.1248 108.508H43.1248C43.1248 101.305 39.3112 95.4509 34.2353 92.1253L24.3708 107.182L14.5063 122.238C12.8016 121.121 10.8104 119.333 9.28907 116.657C7.73477 113.924 7.1248 111.058 7.1248 108.508H25.1248ZM24.3708 107.182L34.8331 92.5344C32.618 90.9521 30.3137 89.9429 28.8912 89.3642L22.1088 106.038L15.3264 122.711C15.5118 122.786 15.4882 122.784 15.3177 122.698C15.2261 122.652 15.0604 122.565 14.8395 122.435C14.6231 122.308 14.2997 122.108 13.9085 121.829L24.3708 107.182ZM22.1088 106.038L28.9623 89.3934C28.6927 89.2824 28.5096 89.2018 28.3993 89.1513C28.2832 89.0981 28.2926 89.0988 28.3956 89.1535L19.9508 105.05L11.506 120.946C12.7712 121.618 14.0772 122.197 15.2553 122.682L22.1088 106.038ZM19.9508 105.05L28.6058 89.2669C30.2126 90.1481 31.6191 91.3494 32.7265 92.7588L18.5728 103.88L4.41907 115C6.28913 117.38 8.61429 119.362 11.2958 120.832L19.9508 105.05ZM18.5728 103.88L32.9132 93.0006C35.143 95.9399 36.0008 99.2611 36.0008 102.086H18.0008H0.000797272C0.000797272 106.297 1.23988 110.814 4.23236 114.759L18.5728 103.88ZM18.0008 102.086H36.0008C36.0008 105.285 34.9678 108.317 33.2519 110.735L18.5728 100.318L3.89367 89.9001C1.41517 93.3925 0.000797272 97.6037 0.000797272 102.086H18.0008ZM18.5728 100.318L33.2519 110.735C31.3578 113.404 29.0619 114.808 27.5377 115.482L20.2628 99.0176L12.9879 82.5532C9.97304 83.8853 6.55047 86.1564 3.89367 89.9001L18.5728 100.318ZM20.2628 99.0176L27.5377 115.482C25.4516 116.404 23.7398 116.524 22.9408 116.524V98.5236V80.5236C20.0618 80.5236 16.5647 80.9727 12.9878 82.5532L20.2628 99.0176ZM22.9408 98.5236V116.524C22.2312 116.524 21.6374 116.438 21.1876 116.336L25.1768 98.7836L29.166 81.2312C27.1908 80.7823 25.1064 80.5236 22.9408 80.5236V98.5236ZM25.1768 98.7836L21.6467 116.434C21.3162 116.368 20.6448 116.203 19.7731 115.804L27.2568 99.4336L34.7405 83.063C32.6554 82.1099 30.5974 81.5112 28.7069 81.1331L25.1768 98.7836ZM27.2568 99.4336L9.3622 97.4885L8.9722 101.076L26.8668 103.022L44.7614 104.967L45.1514 101.379L27.2568 99.4336ZM26.8668 103.022V85.0216H25.7228V103.022V121.022H26.8668V103.022ZM25.7228 103.022L42.0341 95.4096C42.037 95.4158 42.1176 95.5876 42.2237 95.9089C42.3278 96.2242 42.4906 96.7862 42.6079 97.5576L24.8128 100.266L7.01766 102.974C7.48079 106.017 8.48001 108.637 9.4115 110.633L25.7228 103.022ZM24.8128 100.266L30.2097 83.0937C27.8904 82.3648 25.4565 81.9796 22.9668 81.9796V99.9796V117.98C21.7251 117.98 20.5218 117.785 19.4159 117.437L24.8128 100.266ZM22.9668 99.9796V81.9796C20.1707 81.9796 14.8866 82.499 10.0292 86.4312L21.3548 100.422L32.6804 114.412C28.551 117.755 24.3416 117.98 22.9668 117.98V99.9796ZM21.3548 100.422L10.1103 86.3659C5.23369 90.2672 2.8348 95.9454 2.8348 101.54H20.8348H38.8348C38.8348 103.564 38.4489 105.999 37.2858 108.5C36.1094 111.029 34.4168 113.023 32.5993 114.477L21.3548 100.422ZM33.4328 102.762L23.0739 117.482C23.1976 117.569 23.3224 117.655 23.4482 117.738L33.4328 102.762ZM35.6168 103.854L28.6318 120.443C28.6756 120.461 28.7194 120.48 28.7633 120.498L35.6168 103.854ZM37.8008 104.868L29.1815 120.67L29.1815 120.67L37.8008 104.868ZM39.2568 106.116L24.9719 117.067C25.0319 117.146 25.0926 117.223 25.1539 117.301L39.2568 106.116ZM38.4508 110.77L27.3999 96.5612C27.3569 96.5947 27.314 96.6283 27.2713 96.6621L38.4508 110.77ZM32.1328 111.576L28.2653 129.155C28.2894 129.16 28.3136 129.166 28.3377 129.171L32.1328 111.576ZM29.9488 110.822L12.0484 108.931C11.276 116.243 15.0286 123.289 21.5268 126.73L29.9488 110.822ZM30.3388 107.13V89.1296C21.1297 89.1296 13.4058 96.0805 12.4384 105.239L30.3388 107.13ZM31.4828 107.13L47.4172 98.7573C44.3066 92.8372 38.1704 89.1296 31.4828 89.1296V107.13ZM32.5228 109.99L14.7967 113.118C15.8005 118.806 19.4727 123.666 24.6699 126.186L32.5228 109.99ZM36.3968 109.912L47.5695 124.024C47.6875 123.931 47.8044 123.836 47.9201 123.74L36.3968 109.912ZM36.2668 107.182L25.8045 121.829C26.001 121.969 26.2003 122.106 26.4023 122.238L36.2668 107.182ZM34.0048 106.038L27.1513 122.682C27.175 122.692 27.1987 122.701 27.2224 122.711L34.0048 106.038ZM31.8468 105.05L23.1918 120.832C23.2616 120.87 23.3317 120.908 23.402 120.946L31.8468 105.05ZM30.4688 103.88L16.1284 114.759C16.1899 114.84 16.2522 114.92 16.3151 115L30.4688 103.88ZM30.4688 100.318L45.1479 110.735L45.1479 110.735L30.4688 100.318ZM32.1588 99.0176L39.4338 115.482L32.1588 99.0176ZM37.0728 98.7836L33.0836 116.336C33.2362 116.371 33.3893 116.403 33.5427 116.434L37.0728 98.7836ZM39.1528 99.4336L57.0474 101.379C57.8855 93.6681 53.6904 86.2876 46.6365 83.063L39.1528 99.4336ZM38.7628 103.022V121.022C47.9511 121.022 55.6645 114.101 56.6574 104.967L38.7628 103.022ZM37.6188 103.022L21.3075 110.633C24.2649 116.971 30.6254 121.022 37.6188 121.022V103.022ZM36.7088 100.266L54.504 97.5576C53.4703 90.7652 48.6602 85.1537 42.1057 83.0937L36.7088 100.266ZM33.2508 100.422L44.4953 114.477C44.5224 114.456 44.5494 114.434 44.5764 114.412L33.2508 100.422ZM32.7308 101.54H14.7308C14.7308 108.988 18.7967 114.472 23.0739 117.482L33.4328 102.762L43.7917 88.0411C45.2467 89.0649 47.0687 90.7266 48.5142 93.2428C50.0179 95.8604 50.7308 98.7447 50.7308 101.54H32.7308ZM33.4328 102.762L23.4482 117.738C25.3643 119.016 27.3557 119.906 28.6318 120.443L35.6168 103.854L42.6018 87.2641C42.3626 87.1634 42.3049 87.1315 42.3797 87.1689C42.4222 87.1901 42.5307 87.2454 42.6896 87.3352C42.8439 87.4224 43.0976 87.5714 43.4174 87.7846L33.4328 102.762ZM35.6168 103.854L28.7633 120.498C29.0054 120.597 29.1616 120.667 29.2458 120.706C29.3348 120.748 29.3033 120.736 29.1815 120.67L37.8008 104.868L46.4202 89.0654C45.0784 88.3336 43.707 87.7186 42.4703 87.2094L35.6168 103.854ZM37.8008 104.868L29.1815 120.67C27.5342 119.771 26.0935 118.53 24.9719 117.067L39.2568 106.116L53.5417 95.1638C51.6228 92.6608 49.2114 90.5879 46.4201 89.0654L37.8008 104.868ZM39.2568 106.116L25.1539 117.301C22.6927 114.197 21.8548 110.718 21.8548 107.962H39.8548H57.8548C57.8548 103.749 56.6183 99.039 53.3598 94.9305L39.2568 106.116ZM39.8548 107.962H21.8548C21.8548 106.004 22.2751 103.73 23.4041 101.472C24.5231 99.2339 26.0298 97.6268 27.3999 96.5612L38.4508 110.77L49.5017 124.978C54.6357 120.985 57.8548 114.892 57.8548 107.962H39.8548ZM38.4508 110.77L27.2713 96.6621C30.5106 94.0952 33.669 93.8616 34.6808 93.8616V111.862V129.862C38.8819 129.862 44.5537 128.9 49.6303 124.877L38.4508 110.77ZM34.6808 111.862V93.8616C35.2727 93.8616 35.6994 93.9309 35.9279 93.9802L32.1328 111.576L28.3377 129.171C30.3342 129.602 32.4596 129.862 34.6808 129.862V111.862ZM32.1328 111.576L36.0003 93.996C36.2314 94.0468 37.1406 94.2621 38.3708 94.9134L29.9488 110.822L21.5268 126.73C23.9357 128.005 26.3009 128.723 28.2653 129.155L32.1328 111.576ZM29.9488 110.822L47.8492 112.712L48.2392 109.02L30.3388 107.13L12.4384 105.239L12.0484 108.931L29.9488 110.822ZM30.3388 107.13V125.13H31.4828V107.13V89.1296H30.3388V107.13ZM31.4828 107.13L15.5484 115.502C15.4561 115.326 15.041 114.502 14.7967 113.118L32.5228 109.99L50.2489 106.861C49.6926 103.709 48.5842 100.978 47.4172 98.7573L31.4828 107.13ZM32.5228 109.99L24.6699 126.186C28.2311 127.913 31.7328 128.406 34.5768 128.406V110.406V92.4056C35.8261 92.4056 37.9586 92.621 40.3757 93.7929L32.5228 109.99ZM34.5768 110.406V128.406C37.4805 128.406 42.7238 127.861 47.5695 124.024L36.3968 109.912L25.2242 95.7987C29.2378 92.6213 33.2677 92.4056 34.5768 92.4056V110.406ZM36.3968 109.912L47.9201 123.74C52.8347 119.644 55.0208 113.903 55.0208 108.508H37.0208H19.0208C19.0208 106.661 19.3543 104.379 20.4162 101.99C21.4969 99.5586 23.0866 97.5727 24.8735 96.0836L36.3968 109.912ZM37.0208 108.508H55.0208C55.0208 101.305 51.2073 95.4509 46.1313 92.1253L36.2668 107.182L26.4023 122.238C24.6976 121.121 22.7064 119.333 21.1851 116.657C19.6308 113.924 19.0208 111.058 19.0208 108.508H37.0208ZM36.2668 107.182L46.7291 92.5344C44.514 90.9521 42.2097 89.9429 40.7872 89.3642L34.0048 106.038L27.2224 122.711C27.4078 122.786 27.3842 122.784 27.2137 122.698C27.1221 122.652 26.9564 122.565 26.7356 122.435C26.5191 122.308 26.1957 122.108 25.8045 121.829L36.2668 107.182ZM34.0048 106.038L40.8583 89.3934C40.5888 89.2824 40.4056 89.2018 40.2953 89.1513C40.1792 89.0981 40.1886 89.0988 40.2916 89.1535L31.8468 105.05L23.402 120.946C24.6672 121.618 25.9732 122.197 27.1513 122.682L34.0048 106.038ZM31.8468 105.05L40.5018 89.2669C42.1087 90.1481 43.5151 91.3494 44.6225 92.7588L30.4688 103.88L16.3151 115C18.1851 117.38 20.5103 119.362 23.1918 120.832L31.8468 105.05ZM30.4688 103.88L44.8093 93.0006C47.0391 95.9399 47.8968 99.2611 47.8968 102.086H29.8968H11.8968C11.8968 106.297 13.1359 110.814 16.1284 114.759L30.4688 103.88ZM29.8968 102.086H47.8968C47.8968 105.285 46.8638 108.317 45.1479 110.735L30.4688 100.318L15.7897 89.9001C13.3112 93.3925 11.8968 97.6037 11.8968 102.086H29.8968ZM30.4688 100.318L45.1479 110.735C43.2538 113.404 40.9579 114.808 39.4338 115.482L32.1588 99.0176L24.8839 82.5532C21.8691 83.8853 18.4465 86.1564 15.7897 89.9001L30.4688 100.318ZM32.1588 99.0176L39.4338 115.482C37.3476 116.404 35.6358 116.524 34.8368 116.524V98.5236V80.5236C31.9578 80.5236 28.4607 80.9727 24.8839 82.5532L32.1588 99.0176ZM34.8368 98.5236V116.524C34.1272 116.524 33.5335 116.438 33.0836 116.336L37.0728 98.7836L41.062 81.2312C39.0868 80.7823 37.0024 80.5236 34.8368 80.5236V98.5236ZM37.0728 98.7836L33.5427 116.434C33.2122 116.368 32.5408 116.203 31.6691 115.804L39.1528 99.4336L46.6365 83.063C44.5515 82.1099 42.4934 81.5112 40.6029 81.1331L37.0728 98.7836ZM39.1528 99.4336L21.2582 97.4885L20.8682 101.076L38.7628 103.022L56.6574 104.967L57.0474 101.379L39.1528 99.4336ZM38.7628 103.022V85.0216H37.6188V103.022V121.022H38.7628V103.022ZM37.6188 103.022L53.9301 95.4096C53.933 95.4158 54.0136 95.5876 54.1197 95.9089C54.2238 96.2242 54.3866 96.7862 54.504 97.5576L36.7088 100.266L18.9137 102.974C19.3768 106.017 20.376 108.637 21.3075 110.633L37.6188 103.022ZM36.7088 100.266L42.1057 83.0937C39.7864 82.3648 37.3525 81.9796 34.8628 81.9796V99.9796V117.98C33.6211 117.98 32.4179 117.785 31.3119 117.437L36.7088 100.266ZM34.8628 99.9796V81.9796C32.0667 81.9796 26.7826 82.499 21.9252 86.4312L33.2508 100.422L44.5764 114.412C40.447 117.755 36.2376 117.98 34.8628 117.98V99.9796ZM33.2508 100.422L22.0063 86.3659C17.1297 90.2672 14.7308 95.9454 14.7308 101.54H32.7308H50.7308C50.7308 103.564 50.3449 105.999 49.1818 108.5C48.0054 111.029 46.3128 113.023 44.4953 114.477L33.2508 100.422ZM45.2466 110.77L35.2081 125.71C35.2622 125.747 35.3164 125.783 35.3707 125.818L45.2466 110.77ZM42.6726 107.598L59.1297 100.306V100.306L42.6726 107.598ZM42.6986 97.7436L26.2258 90.4877C26.2016 90.5427 26.1776 90.5978 26.154 90.653L42.6986 97.7436ZM45.3246 94.3636L55.83 108.98C55.8439 108.97 55.8577 108.96 55.8716 108.95L45.3246 94.3636ZM52.9946 94.2596L63.033 79.3187L63.033 79.3187L52.9946 94.2596ZM55.5686 97.4316L39.1114 104.723L39.1114 104.723L55.5686 97.4316ZM55.5166 107.312L71.957 114.64C71.9678 114.616 71.9786 114.592 71.9893 114.567L55.5166 107.312ZM52.8646 110.666L42.4665 95.9727C42.4306 95.9981 42.3948 96.0236 42.3591 96.0493L52.8646 110.666ZM51.2526 109.34L38.7052 96.4337C38.6446 96.4926 38.5844 96.5519 38.5246 96.6116L51.2526 109.34ZM52.6826 106.688L35.4346 101.539C35.411 101.618 35.3879 101.697 35.3654 101.777L52.6826 106.688ZM52.6826 98.3156L35.3654 103.226C35.3879 103.306 35.411 103.385 35.4346 103.464L52.6826 98.3156ZM51.2526 95.6636L38.5246 108.391C38.5844 108.451 38.6446 108.511 38.7051 108.569L51.2526 95.6636ZM46.9626 95.6636L34.4152 82.7577C34.3546 82.8166 34.2944 82.8759 34.2346 82.9356L46.9626 95.6636ZM45.5326 98.3156L28.2846 93.1669C28.261 93.246 28.2379 93.3253 28.2154 93.4047L45.5326 98.3156ZM45.5326 106.688L28.2154 111.598C28.2379 111.678 28.261 111.757 28.2846 111.836L45.5326 106.688ZM46.9626 109.34L34.2346 122.067C34.2944 122.127 34.3546 122.187 34.4151 122.245L46.9626 109.34ZM49.1206 111.862V93.8616C50.7548 93.8616 52.9791 94.3142 55.1224 95.7207L45.2466 110.77L35.3707 125.818C39.7327 128.681 44.5397 129.862 49.1206 129.862V111.862ZM45.2466 110.77L55.285 95.8287C57.3247 97.1991 58.532 98.9572 59.1297 100.306L42.6726 107.598L26.2154 114.889C28.0264 118.977 30.9497 122.849 35.2081 125.71L45.2466 110.77ZM42.6726 107.598L59.1297 100.306C59.7609 101.731 59.7626 102.705 59.7626 102.736H41.7626H23.7626C23.7626 106.511 24.3709 110.725 26.2154 114.889L42.6726 107.598ZM41.7626 102.736H59.7626C59.7626 102.865 59.7376 103.681 59.2432 104.834L42.6986 97.7436L26.154 90.653C24.4116 94.7186 23.7626 98.8622 23.7626 102.736H41.7626ZM42.6986 97.7436L59.1713 104.999C58.7325 105.996 57.7345 107.611 55.83 108.98L45.3246 94.3636L34.8191 79.7473C30.696 82.7108 27.9473 86.5794 26.2258 90.4877L42.6986 97.7436ZM45.3246 94.3636L55.8716 108.95C54.973 109.6 53.8836 110.179 52.6343 110.581C51.3867 110.983 50.1853 111.142 49.1206 111.142V93.1416V75.1416C43.9693 75.1416 39.0055 76.7201 34.7775 79.7773L45.3246 94.3636ZM49.1206 93.1416V111.142C47.3997 111.142 45.1164 110.652 42.9562 109.2L52.9946 94.2596L63.033 79.3187C58.654 76.3766 53.7881 75.1416 49.1206 75.1416V93.1416ZM52.9946 94.2596L42.9561 109.2C40.9164 107.83 39.7091 106.072 39.1114 104.723L55.5686 97.4316L72.0258 90.1404C70.2147 86.0526 67.2914 82.1798 63.033 79.3187L52.9946 94.2596ZM55.5686 97.4316L39.1114 104.723C38.4888 103.318 38.4786 102.342 38.4786 102.268H56.4786H74.4786C74.4786 98.4835 73.8616 94.2842 72.0257 90.1404L55.5686 97.4316ZM56.4786 102.268H38.4786C38.4786 102.163 38.4987 101.293 39.0438 100.056L55.5166 107.312L71.9893 114.567C73.8171 110.418 74.4786 106.186 74.4786 102.268H56.4786ZM55.5166 107.312L39.0761 99.9827C39.5617 98.8934 40.5989 97.2944 42.4665 95.9727L52.8646 110.666L63.2626 125.358C67.3835 122.442 70.1887 118.607 71.957 114.64L55.5166 107.312ZM52.8646 110.666L42.3591 96.0493C44.3598 94.6113 46.7982 93.8616 49.1206 93.8616V111.862V129.862C54.2162 129.862 59.1506 128.315 63.37 125.282L52.8646 110.666ZM49.1206 110.25V128.25C54.984 128.25 60.1976 125.85 63.9805 122.067L51.2526 109.34L38.5246 96.6116C39.6676 95.4687 41.2181 94.3123 43.1984 93.467C45.197 92.6139 47.2333 92.2496 49.1206 92.2496V110.25ZM51.2526 109.34L63.8 122.245C67.3974 118.748 69.1269 114.676 69.9997 111.598L52.6826 106.688L35.3654 101.777C35.5796 101.021 36.3557 98.7178 38.7052 96.4337L51.2526 109.34ZM52.6826 106.688L69.9305 111.836C70.9138 108.542 71.2026 105.316 71.2026 102.502H53.2026H35.2026C35.2026 102.688 35.1921 102.694 35.2099 102.551C35.2274 102.41 35.281 102.054 35.4346 101.539L52.6826 106.688ZM53.2026 102.502H71.2026C71.2026 99.6872 70.9138 96.4609 69.9305 93.1669L52.6826 98.3156L35.4346 103.464C35.281 102.95 35.2274 102.593 35.2099 102.452C35.1921 102.309 35.2026 102.315 35.2026 102.502H53.2026ZM52.6826 98.3156L69.9997 93.4047C69.1269 90.3267 67.3974 86.2551 63.8 82.7577L51.2526 95.6636L38.7051 108.569C36.3557 106.285 35.5796 103.982 35.3654 103.226L52.6826 98.3156ZM51.2526 95.6636L63.9805 82.9356C60.1976 79.1528 54.984 76.7536 49.1206 76.7536V94.7536V112.754C47.2333 112.754 45.1971 112.389 43.1984 111.536C41.2181 110.691 39.6676 109.534 38.5246 108.391L51.2526 95.6636ZM49.1206 94.7536V76.7536C43.2783 76.7536 38.146 79.1304 34.4152 82.7577L46.9626 95.6636L59.51 108.569C58.3998 109.649 56.8921 110.754 54.964 111.567C53.0139 112.389 51.0089 112.754 49.1206 112.754V94.7536ZM46.9626 95.6636L34.2346 82.9356C30.8241 86.3462 29.1537 90.2557 28.2846 93.1669L45.5326 98.3156L62.7805 103.464C62.6048 104.053 61.8877 106.194 59.6905 108.391L46.9626 95.6636ZM45.5326 98.3156L28.2154 93.4047C27.3064 96.6102 27.0386 99.7503 27.0386 102.502H45.0386H63.0386C63.0386 102.284 63.0501 102.24 63.038 102.343C63.0262 102.442 62.9833 102.755 62.8497 103.226L45.5326 98.3156ZM45.0386 102.502H27.0386C27.0386 105.253 27.3064 108.393 28.2154 111.598L45.5326 106.688L62.8497 101.777C62.9833 102.248 63.0262 102.561 63.038 102.66C63.0501 102.763 63.0386 102.72 63.0386 102.502H45.0386ZM45.5326 106.688L28.2846 111.836C29.1537 114.747 30.8241 118.657 34.2346 122.067L46.9626 109.34L59.6905 96.6116C61.8877 98.8088 62.6048 100.95 62.7805 101.539L45.5326 106.688ZM46.9626 109.34L34.4151 122.245C38.146 125.873 43.2783 128.25 49.1206 128.25V110.25V92.2496C51.0089 92.2496 53.0139 92.6141 54.964 93.4364C56.8921 94.2494 58.3998 95.3543 59.51 96.4337L46.9626 109.34ZM66.3397 102.164H48.3397C48.3397 110.794 54.4653 118.21 62.9404 119.84L66.3397 102.164ZM69.5117 103.724L56.6415 116.308C56.7358 116.404 56.8312 116.499 56.9276 116.594L69.5117 103.724ZM69.8757 109.392L54.9489 99.3322C54.9321 99.3571 54.9154 99.382 54.8988 99.407L69.8757 109.392ZM67.6397 111.212L74.9774 127.648L67.6397 111.212ZM61.1657 111.368L54.4806 128.08C54.6137 128.133 54.7474 128.185 54.8817 128.235L61.1657 111.368ZM59.1377 109.964L45.0417 121.157C45.108 121.241 45.1751 121.324 45.2429 121.406L59.1377 109.964ZM58.5397 107.078L76.111 110.982C76.1256 110.917 76.1398 110.851 76.1536 110.786L58.5397 107.078ZM58.8257 106.246V88.2456C52.2038 88.2456 46.1166 91.8814 42.9772 97.7118L58.8257 106.246ZM60.9577 106.246L78.7575 103.569C77.433 94.7605 69.8651 88.2456 60.9577 88.2456V106.246ZM61.4777 109.704L43.6778 112.38C44.5665 118.29 48.3308 123.374 53.7245 125.948L61.4777 109.704ZM66.4437 103.958L53.5426 116.51C53.5999 116.569 53.6576 116.627 53.7158 116.685L66.4437 103.958ZM61.5817 102.996H43.5817C43.5817 112.937 51.6405 120.996 61.5817 120.996V102.996ZM61.5817 101.228V83.2276C51.6405 83.2276 43.5817 91.2864 43.5817 101.228H61.5817ZM66.1577 100.344L53.4298 87.6156L53.4297 87.6156L66.1577 100.344ZM61.6597 95.1176L55.7134 78.1281C49.1565 80.423 44.5055 86.2861 43.7628 93.1932L61.6597 95.1176ZM60.5677 98.9136L59.4677 116.88C66.154 117.289 72.5144 113.952 75.9768 108.217L60.5677 98.9136ZM59.2937 98.8356L41.3268 99.9275C41.8785 109.006 49.1157 116.246 58.1937 116.802L59.2937 98.8356ZM59.0077 94.1296L51.4927 77.7734C44.7418 80.8751 40.5901 87.8058 41.0408 95.2215L59.0077 94.1296ZM61.3737 93.4276L64.6513 111.127C64.7356 111.111 64.8197 111.095 64.9038 111.078L61.3737 93.4276ZM67.3537 93.7396L60.188 110.252C60.3122 110.306 60.437 110.358 60.5623 110.409L67.3537 93.7396ZM69.5117 95.3776L54.8162 105.772C54.8719 105.851 54.9282 105.929 54.9851 106.007L69.5117 95.3776ZM69.2257 100.526L81.9536 113.253C82.0047 113.202 82.0555 113.151 82.106 113.099L69.2257 100.526ZM66.3397 101.982L62.5681 84.3811C54.2689 86.1595 48.3397 93.4939 48.3397 101.982H66.3397ZM66.3397 102.164L62.9404 119.84C61.637 119.589 59.0434 118.764 56.6415 116.308L69.5117 103.724L82.3818 91.1394C78.4546 87.123 73.7463 85.2581 69.7389 84.4874L66.3397 102.164ZM69.5117 103.724L56.9276 116.594C55.638 115.333 54.4908 113.711 53.7079 111.78C52.9343 109.872 52.6817 108.072 52.6817 106.61H70.6817H88.6817C88.6817 100.952 86.5805 95.2384 82.0958 90.8534L69.5117 103.724ZM70.6817 106.61H52.6817C52.6817 104.455 53.2845 101.802 54.9489 99.3322L69.8757 109.392L84.8025 119.451C87.5415 115.387 88.6817 110.879 88.6817 106.61H70.6817ZM69.8757 109.392L54.8988 99.407C56.5083 96.9927 58.5949 95.5372 60.302 94.7751L67.6397 111.212L74.9774 127.648C78.6258 126.019 82.2031 123.35 84.8526 119.376L69.8757 109.392ZM67.6397 111.212L60.302 94.7751C62.095 93.9746 63.5557 93.8616 64.2337 93.8616V111.862V129.862C67.5117 129.862 71.243 129.315 74.9774 127.648L67.6397 111.212ZM64.2337 111.862V93.8616C64.7391 93.8616 65.9188 93.9298 67.4496 94.5001L61.1657 111.368L54.8817 128.235C58.1805 129.464 61.4056 129.862 64.2337 129.862V111.862ZM61.1657 111.368L67.8507 94.655C69.1724 95.1837 71.2117 96.31 73.0324 98.5208L59.1377 109.964L45.2429 121.406C48.0343 124.796 51.4256 126.858 54.4806 128.08L61.1657 111.368ZM59.1377 109.964L73.2337 98.7697C75.2015 101.248 76.4357 104.505 76.4357 107.988H58.4357H40.4357C40.4357 112.926 42.1379 117.501 45.0417 121.157L59.1377 109.964ZM58.4357 107.988H76.4357C76.4357 109.112 76.3028 110.119 76.111 110.982L58.5397 107.078L40.9683 103.173C40.6379 104.66 40.4357 106.274 40.4357 107.988H58.4357ZM58.5397 107.078L76.1536 110.786C75.9729 111.644 75.5793 113.098 74.6742 114.779L58.8257 106.246L42.9772 97.7118C41.8294 99.8433 41.2451 101.853 40.9258 103.369L58.5397 107.078ZM58.8257 106.246V124.246H60.9577V106.246V88.2456H58.8257V106.246ZM60.9577 106.246L43.1578 108.922L43.6778 112.38L61.4777 109.704L79.2775 107.027L78.7575 103.569L60.9577 106.246ZM61.4777 109.704L53.7245 125.948C56.9211 127.474 60.3774 128.25 63.8957 128.25V110.25V92.2496C65.7152 92.2496 67.5596 92.6613 69.2308 93.4589L61.4777 109.704ZM63.8957 110.25V128.25C68.6019 128.25 74.7114 126.768 79.5461 121.657L66.4697 109.288L53.3932 96.918C57.0146 93.0897 61.4081 92.2496 63.8957 92.2496V110.25ZM66.4697 109.288L79.5461 121.657C84.1653 116.774 85.3797 110.946 85.3797 106.61H67.3797H49.3797C49.3797 104.561 49.9874 100.518 53.3932 96.918L66.4697 109.288ZM67.3797 106.61H85.3797C85.3797 102.168 84.0886 96.1466 79.1716 91.2296L66.4437 103.958L53.7158 116.685C50.0468 113.017 49.3797 108.763 49.3797 106.61H67.3797ZM66.4437 103.958L79.3447 91.4052C74.4528 86.3774 68.3703 84.9956 63.7917 84.9956V102.996V120.996C61.501 120.996 57.1865 120.255 53.5426 116.51L66.4437 103.958ZM63.7917 102.996V84.9956H61.5817V102.996V120.996H63.7917V102.996ZM61.5817 102.996H79.5817V101.228H61.5817H43.5817V102.996H61.5817ZM61.5817 101.228V119.228H63.7917V101.228V83.2276H61.5817V101.228ZM63.7917 101.228V119.228C68.6024 119.228 74.3028 117.654 78.8856 113.071L66.1577 100.344L53.4297 87.6156C54.9762 86.0692 56.8301 84.8901 58.8243 84.145C60.7614 83.4213 62.5004 83.2276 63.7917 83.2276V101.228ZM66.1577 100.344L78.8856 113.071C83.407 108.55 85.0417 102.899 85.0417 98.0036H67.0417H49.0417C49.0417 96.6664 49.2467 94.9023 49.9822 92.9553C50.7373 90.9565 51.9171 89.1283 53.4298 87.6156L66.1577 100.344ZM67.0417 98.0036H85.0417C85.0417 93.5343 83.6944 87.6664 78.9116 82.8836L66.1837 95.6116L53.4557 108.339C49.817 104.701 49.0417 100.427 49.0417 98.0036H67.0417ZM66.1837 95.6116L78.9116 82.8836C74.1288 78.1009 68.2609 76.7536 63.7917 76.7536V94.7536V112.754C61.3678 112.754 57.0945 111.978 53.4557 108.339L66.1837 95.6116ZM63.7917 94.7536V76.7536C61.0203 76.7536 58.3003 77.2227 55.7134 78.1281L61.6597 95.1176L67.606 112.107C66.4057 112.527 65.1071 112.754 63.7917 112.754V94.7536ZM61.6597 95.1176L43.7628 93.1932C43.7628 93.193 43.7963 92.8621 43.9582 92.2993C44.1184 91.7424 44.4587 90.769 45.1585 89.6099L60.5677 98.9136L75.9768 108.217C78.4032 104.199 79.2327 100.053 79.5565 97.042L61.6597 95.1176ZM60.5677 98.9136L61.6676 80.9472L60.3937 80.8692L59.2937 98.8356L58.1937 116.802L59.4677 116.88L60.5677 98.9136ZM59.2937 98.8356L77.2605 97.7437L76.9745 93.0377L59.0077 94.1296L41.0408 95.2215L41.3268 99.9275L59.2937 98.8356ZM59.0077 94.1296L66.5227 110.486C65.9528 110.748 65.4941 110.902 65.2002 110.99C64.9034 111.078 64.7107 111.116 64.6513 111.127L61.3737 93.4276L58.096 75.7285C56.1694 76.0853 53.8614 76.6851 51.4927 77.7734L59.0077 94.1296ZM61.3737 93.4276L64.9038 111.078C64.785 111.102 64.5283 111.142 64.1557 111.142V93.1416V75.1416C61.9804 75.1416 59.869 75.372 57.8436 75.7771L61.3737 93.4276ZM64.1557 93.1416V111.142C63.4139 111.142 61.956 111.019 60.188 110.252L67.3537 93.7396L74.5193 77.2274C70.914 75.6628 67.3241 75.1416 64.1557 75.1416V93.1416ZM67.3537 93.7396L60.5623 110.409C58.8419 109.708 56.5985 108.292 54.8162 105.772L69.5117 95.3776L84.2072 84.9832C81.4196 81.0421 77.7375 78.5335 74.145 77.0699L67.3537 93.7396ZM69.5117 95.3776L54.9851 106.007C53.1462 103.494 52.2917 100.548 52.2917 97.8216H70.2917H88.2917C88.2917 93.2574 86.9171 88.6829 84.0382 84.7484L69.5117 95.3776ZM70.2917 97.8216H52.2917C52.2917 96.3457 52.5425 94.5714 53.2795 92.7019C54.0238 90.8138 55.113 89.2143 56.3453 87.9519L69.2257 100.526L82.106 113.099C86.2981 108.805 88.2917 103.302 88.2917 97.8216H70.2917ZM69.2257 100.526L56.4977 87.7976C58.7602 85.5352 61.1871 84.6771 62.5681 84.3811L66.3397 101.982L70.1112 119.582C73.919 118.766 78.2698 116.937 81.9536 113.253L69.2257 100.526ZM66.3397 101.982H48.3397V102.164H66.3397H84.3397V101.982H66.3397Z" fill="#373F51" mask="url(#path-1-outside-1_382_5343)"/>
<path d="M113.387 42.2416C110.987 42.2416 108.987 41.4816 107.387 39.9616C105.867 38.4416 105.107 36.6016 105.107 34.4416C105.107 32.2816 105.867 30.4416 107.387 28.9216C108.987 27.3216 110.987 26.5216 113.387 26.5216C115.787 26.5216 117.747 27.3216 119.267 28.9216C120.867 30.4416 121.667 32.2816 121.667 34.4416C121.667 36.6016 120.867 38.4416 119.267 39.9616C117.747 41.4816 115.787 42.2416 113.387 42.2416ZM150.707 42.2416C148.307 42.2416 146.307 41.4816 144.707 39.9616C143.187 38.4416 142.427 36.6016 142.427 34.4416C142.427 32.2816 143.187 30.4416 144.707 28.9216C146.307 27.3216 148.307 26.5216 150.707 26.5216C153.107 26.5216 155.067 27.3216 156.587 28.9216C158.187 30.4416 158.987 32.2816 158.987 34.4416C158.987 36.6016 158.187 38.4416 156.587 39.9616C155.067 41.4816 153.107 42.2416 150.707 42.2416ZM136.907 52.4416H157.787V112.082C157.787 120.002 155.867 126.402 152.027 131.282C148.267 136.242 143.027 139.682 136.307 141.602L134.147 137.042C137.667 134.642 140.307 131.602 142.067 127.922C143.827 124.322 144.707 119.202 144.707 112.562V103.082C139.427 109.562 133.107 112.802 125.747 112.802C120.227 112.802 115.787 111.002 112.427 107.402C109.067 103.802 107.387 99.1216 107.387 93.3616V59.7616C105.787 59.4416 104.187 58.9616 102.587 58.3216C101.067 57.6816 99.7868 56.9616 98.7468 56.1616L99.4668 52.4416H120.347V92.8816C120.347 96.4816 121.267 99.3216 123.107 101.402C124.947 103.402 127.347 104.402 130.307 104.402C132.867 104.402 135.387 103.642 137.867 102.122C140.427 100.522 142.707 98.3616 144.707 95.6416V59.7616C143.187 59.4416 141.627 58.9616 140.027 58.3216C138.427 57.6816 137.107 56.9616 136.067 56.1616L136.907 52.4416ZM171.68 107.042C174.08 105.442 176.96 104.202 180.32 103.322V35.8816C176.96 35.0016 174.08 33.7616 171.68 32.1616L172.52 27.6016H202.52L203.24 32.1616C200.76 33.8416 197.92 35.0816 194.72 35.8816V103.322C197.92 104.122 200.76 105.362 203.24 107.042L202.52 111.602H172.52L171.68 107.042ZM190.28 2.04156C191.24 1.48156 192.44 1.00156 193.88 0.601554C195.4 0.201554 196.84 0.00155449 198.2 0.00155449C199.96 0.00155449 201.6 0.201554 203.12 0.601554C204.64 1.00156 205.72 1.48156 206.36 2.04156L190.76 19.8016H183.92L190.28 2.04156ZM227.611 45.0016H220.771L227.131 27.2416C228.171 26.6016 229.411 26.1216 230.851 25.8016C232.371 25.4016 233.771 25.2016 235.051 25.2016C236.731 25.2016 238.291 25.4016 239.731 25.8016C241.251 26.1216 242.411 26.6016 243.211 27.2416L227.611 45.0016ZM264.931 45.0016H258.091L264.451 27.2416C265.491 26.6016 266.731 26.1216 268.171 25.8016C269.691 25.4016 271.091 25.2016 272.371 25.2016C274.051 25.2016 275.611 25.4016 277.051 25.8016C278.571 26.1216 279.731 26.6016 280.531 27.2416L264.931 45.0016ZM247.771 52.4416H268.651V112.082C268.651 120.002 266.731 126.402 262.891 131.282C259.131 136.242 253.891 139.682 247.171 141.602L245.011 137.042C248.531 134.642 251.171 131.602 252.931 127.922C254.691 124.322 255.571 119.202 255.571 112.562V103.082C250.291 109.562 243.971 112.802 236.611 112.802C231.091 112.802 226.651 111.002 223.291 107.402C219.931 103.802 218.251 99.1216 218.251 93.3616V59.7616C216.651 59.4416 215.051 58.9616 213.451 58.3216C211.931 57.6816 210.651 56.9616 209.611 56.1616L210.331 52.4416H231.211V92.8816C231.211 96.4816 232.131 99.3216 233.971 101.402C235.811 103.402 238.211 104.402 241.171 104.402C243.731 104.402 246.251 103.642 248.731 102.122C251.291 100.522 253.571 98.3616 255.571 95.6416V59.7616C254.051 59.4416 252.491 58.9616 250.891 58.3216C249.291 57.6816 247.971 56.9616 246.931 56.1616L247.771 52.4416Z" fill="#EDEFF1"/>
</svg>
