<svg width="203" height="109" viewBox="0 0 203 109" fill="none" xmlns="http://www.w3.org/2000/svg">
<mask id="path-1-outside-1_382_5349" maskUnits="userSpaceOnUse" x="-0.533203" y="53" width="91" height="56" fill="black">
<rect fill="white" x="-0.533203" y="53" width="91" height="56"/>
<path d="M20.8348 79.938C20.8348 80.4233 21.0688 80.8307 21.5368 81.16C22.0048 81.472 22.7328 81.836 23.7208 82.252C24.6048 82.616 25.3328 82.954 25.9048 83.266C26.4768 83.578 26.9621 83.994 27.3608 84.514C27.7595 85.0167 27.9588 85.632 27.9588 86.36C27.9588 87.504 27.4908 88.44 26.5548 89.168C25.6361 89.896 24.3795 90.26 22.7848 90.26C21.9701 90.26 21.1208 90.1647 20.2368 89.974C19.3701 89.7833 18.6421 89.532 18.0528 89.22L18.4428 85.528H19.5868C20.1241 86.5507 20.4708 87.504 20.6268 88.388C21.1988 88.6653 21.8835 88.804 22.6808 88.804C23.4781 88.804 24.0848 88.6393 24.5008 88.31C24.9168 87.9633 25.1248 87.4953 25.1248 86.906C25.1248 86.3513 24.8735 85.9093 24.3708 85.58C23.8855 85.2333 23.1315 84.852 22.1088 84.436C21.2248 84.072 20.5055 83.7427 19.9508 83.448C19.4135 83.1533 18.9541 82.7633 18.5728 82.278C18.1915 81.7753 18.0008 81.1773 18.0008 80.484C18.0008 79.8427 18.1915 79.2533 18.5728 78.716C18.9541 78.1787 19.5175 77.7453 20.2628 77.416C21.0081 77.0867 21.9008 76.922 22.9408 76.922C23.6688 76.922 24.4141 77.0087 25.1768 77.182C25.9568 77.338 26.6501 77.5547 27.2568 77.832L26.8668 81.42H25.7228C25.2375 80.38 24.9341 79.4613 24.8128 78.664C24.2061 78.4733 23.5908 78.378 22.9668 78.378C22.2561 78.378 21.7188 78.5253 21.3548 78.82C21.0081 79.0973 20.8348 79.47 20.8348 79.938ZM32.7308 79.938C32.7308 80.4233 32.9648 80.8307 33.4328 81.16C33.9008 81.472 34.6288 81.836 35.6168 82.252C36.5008 82.616 37.2288 82.954 37.8008 83.266C38.3728 83.578 38.8581 83.994 39.2568 84.514C39.6555 85.0167 39.8548 85.632 39.8548 86.36C39.8548 87.504 39.3868 88.44 38.4508 89.168C37.5321 89.896 36.2755 90.26 34.6808 90.26C33.8661 90.26 33.0168 90.1647 32.1328 89.974C31.2661 89.7833 30.5381 89.532 29.9488 89.22L30.3388 85.528H31.4828C32.0201 86.5507 32.3668 87.504 32.5228 88.388C33.0948 88.6653 33.7795 88.804 34.5768 88.804C35.3741 88.804 35.9808 88.6393 36.3968 88.31C36.8128 87.9633 37.0208 87.4953 37.0208 86.906C37.0208 86.3513 36.7695 85.9093 36.2668 85.58C35.7815 85.2333 35.0275 84.852 34.0048 84.436C33.1208 84.072 32.4015 83.7427 31.8468 83.448C31.3095 83.1533 30.8501 82.7633 30.4688 82.278C30.0875 81.7753 29.8968 81.1773 29.8968 80.484C29.8968 79.8427 30.0875 79.2533 30.4688 78.716C30.8501 78.1787 31.4135 77.7453 32.1588 77.416C32.9041 77.0867 33.7968 76.922 34.8368 76.922C35.5648 76.922 36.3101 77.0087 37.0728 77.182C37.8528 77.338 38.5461 77.5547 39.1528 77.832L38.7628 81.42H37.6188C37.1335 80.38 36.8301 79.4613 36.7088 78.664C36.1021 78.4733 35.4868 78.378 34.8628 78.378C34.1521 78.378 33.6148 78.5253 33.2508 78.82C32.9041 79.0973 32.7308 79.47 32.7308 79.938ZM49.1206 90.26C47.6472 90.26 46.3559 89.896 45.2466 89.168C44.1372 88.4227 43.2792 87.3653 42.6726 85.996C42.0659 84.6267 41.7626 83.006 41.7626 81.134C41.7626 79.262 42.0746 77.598 42.6986 76.142C43.3399 74.686 44.2152 73.5593 45.3246 72.762C46.4512 71.9473 47.7166 71.54 49.1206 71.54C50.5939 71.54 51.8852 71.9127 52.9946 72.658C54.1039 73.4033 54.9619 74.4607 55.5686 75.83C56.1752 77.1993 56.4786 78.8113 56.4786 80.666C56.4786 82.5727 56.1579 84.254 55.5166 85.71C54.8752 87.1487 53.9912 88.2667 52.8646 89.064C51.7552 89.8613 50.5072 90.26 49.1206 90.26ZM49.1206 88.648C49.9352 88.648 50.6459 88.3447 51.2526 87.738C51.8766 87.1313 52.3532 86.2473 52.6826 85.086C53.0292 83.9247 53.2026 82.5293 53.2026 80.9C53.2026 79.2707 53.0292 77.8753 52.6826 76.714C52.3532 75.5527 51.8766 74.6687 51.2526 74.062C50.6459 73.4553 49.9352 73.152 49.1206 73.152C48.3059 73.152 47.5866 73.4553 46.9626 74.062C46.3559 74.6687 45.8792 75.5527 45.5326 76.714C45.2032 77.8753 45.0386 79.2707 45.0386 80.9C45.0386 82.5293 45.2032 83.9247 45.5326 85.086C45.8792 86.2473 46.3559 87.1313 46.9626 87.738C47.5866 88.3447 48.3059 88.648 49.1206 88.648ZM71.6097 85.294H68.9317V88.206C69.6251 88.3793 70.2404 88.648 70.7778 89.012L70.6217 90H63.7577L63.6017 89.012C63.9137 88.8387 64.2691 88.6827 64.6677 88.544C65.0837 88.388 65.4651 88.2753 65.8117 88.206V85.294H57.9077V83.552L65.0317 71.8H68.6977V72.216L59.8837 83.396V83.552H65.8117V78.872L68.9317 77.858V83.552H71.6097V85.294Z"/>
</mask>
<path d="M20.8348 79.938C20.8348 80.4233 21.0688 80.8307 21.5368 81.16C22.0048 81.472 22.7328 81.836 23.7208 82.252C24.6048 82.616 25.3328 82.954 25.9048 83.266C26.4768 83.578 26.9621 83.994 27.3608 84.514C27.7595 85.0167 27.9588 85.632 27.9588 86.36C27.9588 87.504 27.4908 88.44 26.5548 89.168C25.6361 89.896 24.3795 90.26 22.7848 90.26C21.9701 90.26 21.1208 90.1647 20.2368 89.974C19.3701 89.7833 18.6421 89.532 18.0528 89.22L18.4428 85.528H19.5868C20.1241 86.5507 20.4708 87.504 20.6268 88.388C21.1988 88.6653 21.8835 88.804 22.6808 88.804C23.4781 88.804 24.0848 88.6393 24.5008 88.31C24.9168 87.9633 25.1248 87.4953 25.1248 86.906C25.1248 86.3513 24.8735 85.9093 24.3708 85.58C23.8855 85.2333 23.1315 84.852 22.1088 84.436C21.2248 84.072 20.5055 83.7427 19.9508 83.448C19.4135 83.1533 18.9541 82.7633 18.5728 82.278C18.1915 81.7753 18.0008 81.1773 18.0008 80.484C18.0008 79.8427 18.1915 79.2533 18.5728 78.716C18.9541 78.1787 19.5175 77.7453 20.2628 77.416C21.0081 77.0867 21.9008 76.922 22.9408 76.922C23.6688 76.922 24.4141 77.0087 25.1768 77.182C25.9568 77.338 26.6501 77.5547 27.2568 77.832L26.8668 81.42H25.7228C25.2375 80.38 24.9341 79.4613 24.8128 78.664C24.2061 78.4733 23.5908 78.378 22.9668 78.378C22.2561 78.378 21.7188 78.5253 21.3548 78.82C21.0081 79.0973 20.8348 79.47 20.8348 79.938ZM32.7308 79.938C32.7308 80.4233 32.9648 80.8307 33.4328 81.16C33.9008 81.472 34.6288 81.836 35.6168 82.252C36.5008 82.616 37.2288 82.954 37.8008 83.266C38.3728 83.578 38.8581 83.994 39.2568 84.514C39.6555 85.0167 39.8548 85.632 39.8548 86.36C39.8548 87.504 39.3868 88.44 38.4508 89.168C37.5321 89.896 36.2755 90.26 34.6808 90.26C33.8661 90.26 33.0168 90.1647 32.1328 89.974C31.2661 89.7833 30.5381 89.532 29.9488 89.22L30.3388 85.528H31.4828C32.0201 86.5507 32.3668 87.504 32.5228 88.388C33.0948 88.6653 33.7795 88.804 34.5768 88.804C35.3741 88.804 35.9808 88.6393 36.3968 88.31C36.8128 87.9633 37.0208 87.4953 37.0208 86.906C37.0208 86.3513 36.7695 85.9093 36.2668 85.58C35.7815 85.2333 35.0275 84.852 34.0048 84.436C33.1208 84.072 32.4015 83.7427 31.8468 83.448C31.3095 83.1533 30.8501 82.7633 30.4688 82.278C30.0875 81.7753 29.8968 81.1773 29.8968 80.484C29.8968 79.8427 30.0875 79.2533 30.4688 78.716C30.8501 78.1787 31.4135 77.7453 32.1588 77.416C32.9041 77.0867 33.7968 76.922 34.8368 76.922C35.5648 76.922 36.3101 77.0087 37.0728 77.182C37.8528 77.338 38.5461 77.5547 39.1528 77.832L38.7628 81.42H37.6188C37.1335 80.38 36.8301 79.4613 36.7088 78.664C36.1021 78.4733 35.4868 78.378 34.8628 78.378C34.1521 78.378 33.6148 78.5253 33.2508 78.82C32.9041 79.0973 32.7308 79.47 32.7308 79.938ZM49.1206 90.26C47.6472 90.26 46.3559 89.896 45.2466 89.168C44.1372 88.4227 43.2792 87.3653 42.6726 85.996C42.0659 84.6267 41.7626 83.006 41.7626 81.134C41.7626 79.262 42.0746 77.598 42.6986 76.142C43.3399 74.686 44.2152 73.5593 45.3246 72.762C46.4512 71.9473 47.7166 71.54 49.1206 71.54C50.5939 71.54 51.8852 71.9127 52.9946 72.658C54.1039 73.4033 54.9619 74.4607 55.5686 75.83C56.1752 77.1993 56.4786 78.8113 56.4786 80.666C56.4786 82.5727 56.1579 84.254 55.5166 85.71C54.8752 87.1487 53.9912 88.2667 52.8646 89.064C51.7552 89.8613 50.5072 90.26 49.1206 90.26ZM49.1206 88.648C49.9352 88.648 50.6459 88.3447 51.2526 87.738C51.8766 87.1313 52.3532 86.2473 52.6826 85.086C53.0292 83.9247 53.2026 82.5293 53.2026 80.9C53.2026 79.2707 53.0292 77.8753 52.6826 76.714C52.3532 75.5527 51.8766 74.6687 51.2526 74.062C50.6459 73.4553 49.9352 73.152 49.1206 73.152C48.3059 73.152 47.5866 73.4553 46.9626 74.062C46.3559 74.6687 45.8792 75.5527 45.5326 76.714C45.2032 77.8753 45.0386 79.2707 45.0386 80.9C45.0386 82.5293 45.2032 83.9247 45.5326 85.086C45.8792 86.2473 46.3559 87.1313 46.9626 87.738C47.5866 88.3447 48.3059 88.648 49.1206 88.648ZM71.6097 85.294H68.9317V88.206C69.6251 88.3793 70.2404 88.648 70.7778 89.012L70.6217 90H63.7577L63.6017 89.012C63.9137 88.8387 64.2691 88.6827 64.6677 88.544C65.0837 88.388 65.4651 88.2753 65.8117 88.206V85.294H57.9077V83.552L65.0317 71.8H68.6977V72.216L59.8837 83.396V83.552H65.8117V78.872L68.9317 77.858V83.552H71.6097V85.294Z" fill="#A5D0FD"/>
<path d="M21.5368 81.16L11.1779 95.8805C11.3016 95.9675 11.4264 96.053 11.5522 96.1369L21.5368 81.16ZM23.7208 82.252L16.7358 98.8414C16.7795 98.8599 16.8234 98.8781 16.8673 98.8962L23.7208 82.252ZM25.9048 83.266L17.2855 99.0681L17.2855 99.0681L25.9048 83.266ZM27.3608 84.514L13.0759 95.4658C13.1359 95.544 13.1965 95.6218 13.2578 95.6991L27.3608 84.514ZM26.5548 89.168L15.5039 74.9597C15.4609 74.9931 15.418 75.0267 15.3753 75.0606L26.5548 89.168ZM20.2368 89.974L16.3693 107.554C16.3934 107.559 16.4176 107.564 16.4417 107.569L20.2368 89.974ZM18.0528 89.22L0.152391 87.3291C-0.62001 94.6412 3.13256 101.688 9.63082 105.128L18.0528 89.22ZM18.4428 85.528V67.528C9.23367 67.528 1.5098 74.4789 0.542391 83.6371L18.4428 85.528ZM19.5868 85.528L35.5212 77.1557C32.4106 71.2356 26.2743 67.528 19.5868 67.528V85.528ZM20.6268 88.388L2.90069 91.5161C3.90444 97.2041 7.57672 102.065 12.7739 104.585L20.6268 88.388ZM24.5008 88.31L35.6735 102.423C35.7915 102.329 35.9084 102.234 36.0241 102.138L24.5008 88.31ZM24.3708 85.58L13.9085 100.227C14.105 100.368 14.3043 100.504 14.5063 100.636L24.3708 85.58ZM22.1088 84.436L15.2553 101.08C15.279 101.09 15.3027 101.1 15.3264 101.109L22.1088 84.436ZM19.9508 83.448L11.2958 99.2306C11.3656 99.2689 11.4357 99.3067 11.506 99.3441L19.9508 83.448ZM18.5728 82.278L4.23236 93.157C4.29391 93.2381 4.35615 93.3187 4.41907 93.3988L18.5728 82.278ZM18.5728 78.716L33.2519 89.1334L33.2519 89.1334L18.5728 78.716ZM20.2628 77.416L27.5377 93.8804H27.5377L20.2628 77.416ZM25.1768 77.182L21.1876 94.7344C21.3402 94.7691 21.4933 94.8018 21.6467 94.8325L25.1768 77.182ZM27.2568 77.832L45.1514 79.7771C45.9895 72.0665 41.7943 64.6861 34.7405 61.4615L27.2568 77.832ZM26.8668 81.42V99.42C36.0551 99.42 43.7685 92.4996 44.7614 83.3651L26.8668 81.42ZM25.7228 81.42L9.4115 89.0319C12.3689 95.3693 18.7294 99.42 25.7228 99.42V81.42ZM24.8128 78.664L42.6079 75.956C41.5743 69.1637 36.7642 63.5521 30.2097 61.4921L24.8128 78.664ZM21.3548 78.82L32.5993 92.8756C32.6264 92.854 32.6534 92.8322 32.6804 92.8104L21.3548 78.82ZM20.8348 79.938H2.8348C2.8348 87.3865 6.90069 92.8706 11.1779 95.8805L21.5368 81.16L31.8957 66.4395C33.3507 67.4634 35.1727 69.1251 36.6182 71.6413C38.1219 74.2588 38.8348 77.1431 38.8348 79.938H20.8348ZM21.5368 81.16L11.5522 96.1369C13.4682 97.4143 15.4596 98.3041 16.7358 98.8414L23.7208 82.252L30.7058 65.6626C30.4666 65.5618 30.4089 65.53 30.4836 65.5673C30.5262 65.5886 30.6347 65.6438 30.7936 65.7336C30.9479 65.8208 31.2016 65.9699 31.5214 66.1831L21.5368 81.16ZM23.7208 82.252L16.8673 98.8962C17.1093 98.9959 17.2656 99.0656 17.3498 99.1047C17.4388 99.146 17.4073 99.1346 17.2855 99.0681L25.9048 83.266L34.5241 67.4639C33.1823 66.732 31.811 66.117 30.5743 65.6078L23.7208 82.252ZM25.9048 83.266L17.2855 99.0681C15.6382 98.1696 14.1975 96.9287 13.0759 95.4658L27.3608 84.514L41.6457 73.5622C39.7268 71.0593 37.3154 68.9864 34.5241 67.4639L25.9048 83.266ZM27.3608 84.514L13.2578 95.6991C10.7967 92.5959 9.9588 89.1169 9.9588 86.36H27.9588H45.9588C45.9588 82.1471 44.7223 77.4375 41.4638 73.3289L27.3608 84.514ZM27.9588 86.36H9.9588C9.9588 84.4025 10.3791 82.1282 11.5081 79.8702C12.627 77.6323 14.1338 76.0253 15.5039 74.9597L26.5548 89.168L37.6057 103.376C42.7397 99.3833 45.9588 93.2909 45.9588 86.36H27.9588ZM26.5548 89.168L15.3753 75.0606C18.6146 72.4936 21.773 72.26 22.7848 72.26V90.26V108.26C26.9859 108.26 32.6577 107.298 37.7343 103.275L26.5548 89.168ZM22.7848 90.26V72.26C23.3766 72.26 23.8034 72.3293 24.0319 72.3786L20.2368 89.974L16.4417 107.569C18.4382 108 20.5636 108.26 22.7848 108.26V90.26ZM20.2368 89.974L24.1043 72.3944C24.3354 72.4452 25.2446 72.6605 26.4748 73.3118L18.0528 89.22L9.63082 105.128C12.0397 106.403 14.4049 107.121 16.3693 107.554L20.2368 89.974ZM18.0528 89.22L35.9532 91.1109L36.3432 87.4189L18.4428 85.528L0.542391 83.6371L0.152391 87.3291L18.0528 89.22ZM18.4428 85.528V103.528H19.5868V85.528V67.528H18.4428V85.528ZM19.5868 85.528L3.65241 93.9003C3.56004 93.7245 3.14497 92.9004 2.90069 91.5161L20.6268 88.388L38.3529 85.2599C37.7966 82.1076 36.6882 79.3768 35.5212 77.1557L19.5868 85.528ZM20.6268 88.388L12.7739 104.585C16.335 106.311 19.8368 106.804 22.6808 106.804V88.804V70.804C23.9301 70.804 26.0626 71.0194 28.4797 72.1913L20.6268 88.388ZM22.6808 88.804V106.804C25.5845 106.804 30.8278 106.259 35.6735 102.423L24.5008 88.31L13.3281 74.1972C17.3418 71.0197 21.3717 70.804 22.6808 70.804V88.804ZM24.5008 88.31L36.0241 102.138C40.9386 98.0425 43.1248 92.3014 43.1248 86.906H25.1248H7.1248C7.1248 85.0598 7.45833 82.7777 8.52019 80.3885C9.60084 77.957 11.1906 75.9711 12.9775 74.482L24.5008 88.31ZM25.1248 86.906H43.1248C43.1248 79.7036 39.3112 73.8493 34.2353 70.5237L24.3708 85.58L14.5063 100.636C12.8016 99.5194 10.8104 97.7314 9.28907 95.0559C7.73477 92.3225 7.1248 89.4568 7.1248 86.906H25.1248ZM24.3708 85.58L34.8331 70.9328C32.618 69.3506 30.3137 68.3413 28.8912 67.7627L22.1088 84.436L15.3264 101.109C15.5118 101.185 15.4882 101.183 15.3177 101.097C15.2261 101.05 15.0604 100.964 14.8395 100.834C14.6231 100.707 14.2997 100.507 13.9085 100.227L24.3708 85.58ZM22.1088 84.436L28.9623 67.7918C28.6927 67.6808 28.5096 67.6002 28.3993 67.5497C28.2832 67.4966 28.2926 67.4972 28.3956 67.5519L19.9508 83.448L11.506 99.3441C12.7712 100.016 14.0772 100.595 15.2553 101.08L22.1088 84.436ZM19.9508 83.448L28.6058 67.6654C30.2126 68.5466 31.6191 69.7478 32.7265 71.1572L18.5728 82.278L4.41907 93.3988C6.28913 95.7789 8.61429 97.7601 11.2958 99.2306L19.9508 83.448ZM18.5728 82.278L32.9132 71.399C35.143 74.3383 36.0008 77.6595 36.0008 80.484H18.0008H0.000797272C0.000797272 84.6951 1.23988 89.2123 4.23236 93.157L18.5728 82.278ZM18.0008 80.484H36.0008C36.0008 83.6832 34.9678 86.7157 33.2519 89.1334L18.5728 78.716L3.89367 68.2986C1.41517 71.791 0.000797272 76.0021 0.000797272 80.484H18.0008ZM18.5728 78.716L33.2519 89.1334C31.3578 91.8024 29.0619 93.2069 27.5377 93.8804L20.2628 77.416L12.9879 60.9516C9.97304 62.2838 6.55047 64.5549 3.89367 68.2986L18.5728 78.716ZM20.2628 77.416L27.5377 93.8804C25.4516 94.8021 23.7398 94.922 22.9408 94.922V76.922V58.922C20.0618 58.922 16.5647 59.3712 12.9878 60.9516L20.2628 77.416ZM22.9408 76.922V94.922C22.2312 94.922 21.6374 94.8366 21.1876 94.7344L25.1768 77.182L29.166 59.6296C27.1908 59.1807 25.1064 58.922 22.9408 58.922V76.922ZM25.1768 77.182L21.6467 94.8325C21.3162 94.7663 20.6448 94.601 19.7731 94.2025L27.2568 77.832L34.7405 61.4615C32.6554 60.5083 30.5974 59.9097 28.7069 59.5315L25.1768 77.182ZM27.2568 77.832L9.3622 75.8869L8.9722 79.4749L26.8668 81.42L44.7614 83.3651L45.1514 79.7771L27.2568 77.832ZM26.8668 81.42V63.42H25.7228V81.42V99.42H26.8668V81.42ZM25.7228 81.42L42.0341 73.8081C42.037 73.8142 42.1176 73.9861 42.2237 74.3073C42.3278 74.6226 42.4906 75.1847 42.6079 75.956L24.8128 78.664L7.01766 81.372C7.48079 84.4154 8.48001 87.0359 9.4115 89.0319L25.7228 81.42ZM24.8128 78.664L30.2097 61.4921C27.8904 60.7632 25.4565 60.378 22.9668 60.378V78.378V96.378C21.7251 96.378 20.5218 96.1835 19.4159 95.8359L24.8128 78.664ZM22.9668 78.378V60.378C20.1707 60.378 14.8866 60.8974 10.0292 64.8296L21.3548 78.82L32.6804 92.8104C28.551 96.1533 24.3416 96.378 22.9668 96.378V78.378ZM21.3548 78.82L10.1103 64.7644C5.23369 68.6656 2.8348 74.3438 2.8348 79.938H20.8348H38.8348C38.8348 81.9626 38.4489 84.3979 37.2858 86.8987C36.1094 89.4279 34.4168 91.4217 32.5993 92.8756L21.3548 78.82ZM33.4328 81.16L23.0739 95.8805C23.1976 95.9675 23.3224 96.053 23.4482 96.1369L33.4328 81.16ZM35.6168 82.252L28.6318 98.8414C28.6756 98.8599 28.7194 98.8781 28.7633 98.8962L35.6168 82.252ZM37.8008 83.266L29.1815 99.0681L29.1815 99.0681L37.8008 83.266ZM39.2568 84.514L24.9719 95.4658C25.0319 95.544 25.0926 95.6218 25.1539 95.6991L39.2568 84.514ZM38.4508 89.168L27.3999 74.9597C27.3569 74.9931 27.314 75.0267 27.2713 75.0606L38.4508 89.168ZM32.1328 89.974L28.2653 107.554C28.2894 107.559 28.3136 107.564 28.3377 107.569L32.1328 89.974ZM29.9488 89.22L12.0484 87.3291C11.276 94.6412 15.0286 101.688 21.5268 105.128L29.9488 89.22ZM30.3388 85.528V67.528C21.1297 67.528 13.4058 74.4789 12.4384 83.6371L30.3388 85.528ZM31.4828 85.528L47.4172 77.1557C44.3066 71.2356 38.1704 67.528 31.4828 67.528V85.528ZM32.5228 88.388L14.7967 91.5161C15.8005 97.2041 19.4727 102.065 24.6699 104.585L32.5228 88.388ZM36.3968 88.31L47.5695 102.423C47.6875 102.329 47.8044 102.234 47.9201 102.138L36.3968 88.31ZM36.2668 85.58L25.8045 100.227C26.001 100.368 26.2003 100.504 26.4023 100.636L36.2668 85.58ZM34.0048 84.436L27.1513 101.08C27.175 101.09 27.1987 101.1 27.2224 101.109L34.0048 84.436ZM31.8468 83.448L23.1918 99.2306C23.2616 99.2689 23.3317 99.3067 23.402 99.3441L31.8468 83.448ZM30.4688 82.278L16.1284 93.157C16.1899 93.2381 16.2522 93.3187 16.3151 93.3988L30.4688 82.278ZM30.4688 78.716L45.1479 89.1334L45.1479 89.1334L30.4688 78.716ZM32.1588 77.416L39.4338 93.8804L32.1588 77.416ZM37.0728 77.182L33.0836 94.7344C33.2362 94.7691 33.3893 94.8018 33.5427 94.8325L37.0728 77.182ZM39.1528 77.832L57.0474 79.7771C57.8855 72.0665 53.6904 64.6861 46.6365 61.4615L39.1528 77.832ZM38.7628 81.42V99.42C47.9511 99.42 55.6645 92.4996 56.6574 83.3651L38.7628 81.42ZM37.6188 81.42L21.3075 89.0319C24.2649 95.3693 30.6254 99.42 37.6188 99.42V81.42ZM36.7088 78.664L54.504 75.956C53.4703 69.1637 48.6602 63.5521 42.1057 61.4921L36.7088 78.664ZM33.2508 78.82L44.4953 92.8756C44.5224 92.854 44.5494 92.8322 44.5764 92.8104L33.2508 78.82ZM32.7308 79.938H14.7308C14.7308 87.3865 18.7967 92.8706 23.0739 95.8805L33.4328 81.16L43.7917 66.4395C45.2467 67.4634 47.0687 69.1251 48.5142 71.6413C50.0179 74.2588 50.7308 77.1431 50.7308 79.938H32.7308ZM33.4328 81.16L23.4482 96.1369C25.3643 97.4143 27.3557 98.3041 28.6318 98.8414L35.6168 82.252L42.6018 65.6626C42.3626 65.5618 42.3049 65.53 42.3797 65.5673C42.4222 65.5886 42.5307 65.6438 42.6896 65.7336C42.8439 65.8208 43.0976 65.9699 43.4174 66.1831L33.4328 81.16ZM35.6168 82.252L28.7633 98.8962C29.0054 98.9959 29.1616 99.0656 29.2458 99.1047C29.3348 99.146 29.3033 99.1346 29.1815 99.0681L37.8008 83.266L46.4202 67.4639C45.0784 66.732 43.707 66.117 42.4703 65.6078L35.6168 82.252ZM37.8008 83.266L29.1815 99.0681C27.5342 98.1696 26.0935 96.9287 24.9719 95.4658L39.2568 84.514L53.5417 73.5622C51.6228 71.0593 49.2114 68.9864 46.4201 67.4639L37.8008 83.266ZM39.2568 84.514L25.1539 95.6991C22.6927 92.5959 21.8548 89.1169 21.8548 86.36H39.8548H57.8548C57.8548 82.1471 56.6183 77.4375 53.3598 73.3289L39.2568 84.514ZM39.8548 86.36H21.8548C21.8548 84.4025 22.2751 82.1282 23.4041 79.8702C24.5231 77.6323 26.0298 76.0253 27.3999 74.9597L38.4508 89.168L49.5017 103.376C54.6357 99.3833 57.8548 93.2909 57.8548 86.36H39.8548ZM38.4508 89.168L27.2713 75.0606C30.5106 72.4936 33.669 72.26 34.6808 72.26V90.26V108.26C38.8819 108.26 44.5537 107.298 49.6303 103.275L38.4508 89.168ZM34.6808 90.26V72.26C35.2727 72.26 35.6994 72.3293 35.9279 72.3786L32.1328 89.974L28.3377 107.569C30.3342 108 32.4596 108.26 34.6808 108.26V90.26ZM32.1328 89.974L36.0003 72.3944C36.2314 72.4452 37.1406 72.6605 38.3708 73.3118L29.9488 89.22L21.5268 105.128C23.9357 106.403 26.3009 107.121 28.2653 107.554L32.1328 89.974ZM29.9488 89.22L47.8492 91.1109L48.2392 87.4189L30.3388 85.528L12.4384 83.6371L12.0484 87.3291L29.9488 89.22ZM30.3388 85.528V103.528H31.4828V85.528V67.528H30.3388V85.528ZM31.4828 85.528L15.5484 93.9003C15.4561 93.7245 15.041 92.9004 14.7967 91.5161L32.5228 88.388L50.2489 85.2599C49.6926 82.1076 48.5842 79.3768 47.4172 77.1557L31.4828 85.528ZM32.5228 88.388L24.6699 104.585C28.2311 106.311 31.7328 106.804 34.5768 106.804V88.804V70.804C35.8261 70.804 37.9586 71.0194 40.3757 72.1913L32.5228 88.388ZM34.5768 88.804V106.804C37.4805 106.804 42.7238 106.259 47.5695 102.423L36.3968 88.31L25.2242 74.1972C29.2378 71.0197 33.2677 70.804 34.5768 70.804V88.804ZM36.3968 88.31L47.9201 102.138C52.8347 98.0425 55.0208 92.3014 55.0208 86.906H37.0208H19.0208C19.0208 85.0598 19.3543 82.7777 20.4162 80.3885C21.4969 77.957 23.0866 75.9711 24.8735 74.482L36.3968 88.31ZM37.0208 86.906H55.0208C55.0208 79.7036 51.2073 73.8493 46.1313 70.5237L36.2668 85.58L26.4023 100.636C24.6976 99.5194 22.7064 97.7314 21.1851 95.0559C19.6308 92.3225 19.0208 89.4568 19.0208 86.906H37.0208ZM36.2668 85.58L46.7291 70.9328C44.514 69.3506 42.2097 68.3413 40.7872 67.7627L34.0048 84.436L27.2224 101.109C27.4078 101.185 27.3842 101.183 27.2137 101.097C27.1221 101.05 26.9564 100.964 26.7356 100.834C26.5191 100.707 26.1957 100.507 25.8045 100.227L36.2668 85.58ZM34.0048 84.436L40.8583 67.7918C40.5888 67.6808 40.4056 67.6002 40.2953 67.5497C40.1792 67.4966 40.1886 67.4972 40.2916 67.5519L31.8468 83.448L23.402 99.3441C24.6672 100.016 25.9732 100.595 27.1513 101.08L34.0048 84.436ZM31.8468 83.448L40.5018 67.6654C42.1087 68.5466 43.5151 69.7478 44.6225 71.1572L30.4688 82.278L16.3151 93.3988C18.1851 95.7789 20.5103 97.7601 23.1918 99.2306L31.8468 83.448ZM30.4688 82.278L44.8093 71.399C47.0391 74.3383 47.8968 77.6595 47.8968 80.484H29.8968H11.8968C11.8968 84.6951 13.1359 89.2123 16.1284 93.157L30.4688 82.278ZM29.8968 80.484H47.8968C47.8968 83.6832 46.8638 86.7157 45.1479 89.1334L30.4688 78.716L15.7897 68.2986C13.3112 71.791 11.8968 76.0021 11.8968 80.484H29.8968ZM30.4688 78.716L45.1479 89.1334C43.2538 91.8024 40.9579 93.2069 39.4338 93.8804L32.1588 77.416L24.8839 60.9516C21.8691 62.2838 18.4465 64.5549 15.7897 68.2986L30.4688 78.716ZM32.1588 77.416L39.4338 93.8804C37.3476 94.8021 35.6358 94.922 34.8368 94.922V76.922V58.922C31.9578 58.922 28.4607 59.3712 24.8839 60.9516L32.1588 77.416ZM34.8368 76.922V94.922C34.1272 94.922 33.5335 94.8366 33.0836 94.7344L37.0728 77.182L41.062 59.6296C39.0868 59.1807 37.0024 58.922 34.8368 58.922V76.922ZM37.0728 77.182L33.5427 94.8325C33.2122 94.7663 32.5408 94.601 31.6691 94.2025L39.1528 77.832L46.6365 61.4615C44.5515 60.5083 42.4934 59.9097 40.6029 59.5315L37.0728 77.182ZM39.1528 77.832L21.2582 75.8869L20.8682 79.4749L38.7628 81.42L56.6574 83.3651L57.0474 79.7771L39.1528 77.832ZM38.7628 81.42V63.42H37.6188V81.42V99.42H38.7628V81.42ZM37.6188 81.42L53.9301 73.8081C53.933 73.8142 54.0136 73.9861 54.1197 74.3073C54.2238 74.6226 54.3866 75.1847 54.504 75.956L36.7088 78.664L18.9137 81.372C19.3768 84.4154 20.376 87.0359 21.3075 89.0319L37.6188 81.42ZM36.7088 78.664L42.1057 61.4921C39.7864 60.7632 37.3525 60.378 34.8628 60.378V78.378V96.378C33.6211 96.378 32.4179 96.1835 31.3119 95.8359L36.7088 78.664ZM34.8628 78.378V60.378C32.0667 60.378 26.7826 60.8974 21.9252 64.8296L33.2508 78.82L44.5764 92.8104C40.447 96.1533 36.2376 96.378 34.8628 96.378V78.378ZM33.2508 78.82L22.0063 64.7644C17.1297 68.6656 14.7308 74.3438 14.7308 79.938H32.7308H50.7308C50.7308 81.9626 50.3449 84.3979 49.1818 86.8987C48.0054 89.4279 46.3128 91.4217 44.4953 92.8756L33.2508 78.82ZM45.2466 89.168L35.2081 104.109C35.2622 104.145 35.3164 104.181 35.3707 104.217L45.2466 89.168ZM42.6726 85.996L59.1297 78.7048V78.7048L42.6726 85.996ZM42.6986 76.142L26.2258 68.8861C26.2016 68.9411 26.1776 68.9962 26.154 69.0515L42.6986 76.142ZM45.3246 72.762L55.83 87.3783C55.8439 87.3683 55.8577 87.3583 55.8716 87.3483L45.3246 72.762ZM52.9946 72.658L63.033 57.7171L63.033 57.7171L52.9946 72.658ZM55.5686 75.83L39.1114 83.1212L39.1114 83.1212L55.5686 75.83ZM55.5166 85.71L71.957 93.0389C71.9678 93.0146 71.9786 92.9902 71.9893 92.9659L55.5166 85.71ZM52.8646 89.064L42.4665 74.3711C42.4306 74.3965 42.3948 74.4221 42.3591 74.4477L52.8646 89.064ZM51.2526 87.738L38.7052 74.8321C38.6446 74.891 38.5844 74.9503 38.5246 75.0101L51.2526 87.738ZM52.6826 85.086L35.4346 79.9374C35.411 80.0165 35.3879 80.0957 35.3654 80.1752L52.6826 85.086ZM52.6826 76.714L35.3654 81.6248C35.3879 81.7043 35.411 81.7835 35.4346 81.8626L52.6826 76.714ZM51.2526 74.062L38.5246 86.7899C38.5844 86.8497 38.6446 86.909 38.7051 86.9679L51.2526 74.062ZM46.9626 74.062L34.4152 61.1561C34.3546 61.215 34.2944 61.2743 34.2346 61.3341L46.9626 74.062ZM45.5326 76.714L28.2846 71.5654C28.261 71.6445 28.2379 71.7237 28.2154 71.8032L45.5326 76.714ZM45.5326 85.086L28.2154 89.9968C28.2379 90.0763 28.261 90.1555 28.2846 90.2346L45.5326 85.086ZM46.9626 87.738L34.2346 100.466C34.2944 100.526 34.3546 100.585 34.4151 100.644L46.9626 87.738ZM49.1206 90.26V72.26C50.7548 72.26 52.9791 72.7126 55.1224 74.1191L45.2466 89.168L35.3707 104.217C39.7327 107.079 44.5397 108.26 49.1206 108.26V90.26ZM45.2466 89.168L55.285 74.2271C57.3247 75.5976 58.532 77.3557 59.1297 78.7048L42.6726 85.996L26.2154 93.2872C28.0264 97.375 30.9497 101.248 35.2081 104.109L45.2466 89.168ZM42.6726 85.996L59.1297 78.7048C59.7609 80.1294 59.7626 81.103 59.7626 81.134H41.7626H23.7626C23.7626 84.909 24.3709 89.1239 26.2154 93.2872L42.6726 85.996ZM41.7626 81.134H59.7626C59.7626 81.2633 59.7376 82.079 59.2432 83.2325L42.6986 76.142L26.154 69.0515C24.4116 73.117 23.7626 77.2606 23.7626 81.134H41.7626ZM42.6986 76.142L59.1713 83.3979C58.7325 84.3941 57.7345 86.0094 55.83 87.3783L45.3246 72.762L34.8191 58.1457C30.696 61.1092 27.9473 64.9779 26.2258 68.8861L42.6986 76.142ZM45.3246 72.762L55.8716 87.3483C54.973 87.998 53.8836 88.5774 52.6343 88.9796C51.3867 89.3812 50.1853 89.54 49.1206 89.54V71.54V53.54C43.9693 53.54 39.0055 55.1186 34.7775 58.1757L45.3246 72.762ZM49.1206 71.54V89.54C47.3997 89.54 45.1164 89.0503 42.9562 87.5989L52.9946 72.658L63.033 57.7171C58.654 54.775 53.7881 53.54 49.1206 53.54V71.54ZM52.9946 72.658L42.9561 87.5989C40.9164 86.2284 39.7091 84.4703 39.1114 83.1212L55.5686 75.83L72.0258 68.5388C70.2147 64.451 67.2914 60.5782 63.033 57.7171L52.9946 72.658ZM55.5686 75.83L39.1114 83.1212C38.4888 81.716 38.4786 80.7407 38.4786 80.666H56.4786H74.4786C74.4786 76.8819 73.8616 72.6826 72.0257 68.5388L55.5686 75.83ZM56.4786 80.666H38.4786C38.4786 80.5611 38.4987 79.6916 39.0438 78.4541L55.5166 85.71L71.9893 92.9659C73.8171 88.8164 74.4786 84.5842 74.4786 80.666H56.4786ZM55.5166 85.71L39.0761 78.3811C39.5617 77.2918 40.5989 75.6928 42.4665 74.3711L52.8646 89.064L63.2626 103.757C67.3835 100.841 70.1887 97.0055 71.957 93.0389L55.5166 85.71ZM52.8646 89.064L42.3591 74.4477C44.3598 73.0097 46.7982 72.26 49.1206 72.26V90.26V108.26C54.2162 108.26 59.1506 106.713 63.37 103.68L52.8646 89.064ZM49.1206 88.648V106.648C54.984 106.648 60.1976 104.249 63.9805 100.466L51.2526 87.738L38.5246 75.0101C39.6676 73.8672 41.2181 72.7107 43.1984 71.8655C45.197 71.0124 47.2333 70.648 49.1206 70.648V88.648ZM51.2526 87.738L63.8 100.644C67.3974 97.1464 69.1269 93.0748 69.9997 89.9968L52.6826 85.086L35.3654 80.1752C35.5796 79.4198 36.3557 77.1162 38.7052 74.8321L51.2526 87.738ZM52.6826 85.086L69.9305 90.2346C70.9138 86.9406 71.2026 83.7144 71.2026 80.9H53.2026H35.2026C35.2026 81.0864 35.1921 81.0926 35.2099 80.9495C35.2274 80.8086 35.281 80.4519 35.4346 79.9374L52.6826 85.086ZM53.2026 80.9H71.2026C71.2026 78.0856 70.9138 74.8594 69.9305 71.5654L52.6826 76.714L35.4346 81.8626C35.281 81.3481 35.2274 80.9914 35.2099 80.8505C35.1921 80.7074 35.2026 80.7136 35.2026 80.9H53.2026ZM52.6826 76.714L69.9997 71.8032C69.1269 68.7252 67.3974 64.6536 63.8 61.1561L51.2526 74.062L38.7051 86.9679C36.3557 84.6838 35.5796 82.3802 35.3654 81.6248L52.6826 76.714ZM51.2526 74.062L63.9805 61.3341C60.1976 57.5512 54.984 55.152 49.1206 55.152V73.152V91.152C47.2333 91.152 45.1971 90.7876 43.1984 89.9345C41.2181 89.0893 39.6676 87.9328 38.5246 86.7899L51.2526 74.062ZM49.1206 73.152V55.152C43.2783 55.152 38.146 57.5288 34.4152 61.1561L46.9626 74.062L59.51 86.9679C58.3998 88.0473 56.8921 89.1521 54.964 89.9652C53.0139 90.7875 51.0089 91.152 49.1206 91.152V73.152ZM46.9626 74.062L34.2346 61.3341C30.8241 64.7446 29.1537 68.6541 28.2846 71.5654L45.5326 76.714L62.7805 81.8626C62.6048 82.4512 61.8877 84.5927 59.6905 86.7899L46.9626 74.062ZM45.5326 76.714L28.2154 71.8032C27.3064 75.0086 27.0386 78.1488 27.0386 80.9H45.0386H63.0386C63.0386 80.682 63.0501 80.6386 63.038 80.7411C63.0262 80.8409 62.9833 81.1537 62.8497 81.6248L45.5326 76.714ZM45.0386 80.9H27.0386C27.0386 83.6512 27.3064 86.7914 28.2154 89.9968L45.5326 85.086L62.8497 80.1752C62.9833 80.6463 63.0262 80.9591 63.038 81.0589C63.0501 81.1614 63.0386 81.118 63.0386 80.9H45.0386ZM45.5326 85.086L28.2846 90.2346C29.1537 93.1459 30.8241 97.0554 34.2346 100.466L46.9626 87.738L59.6905 75.0101C61.8877 77.2073 62.6048 79.3488 62.7805 79.9374L45.5326 85.086ZM46.9626 87.738L34.4151 100.644C38.146 104.271 43.2783 106.648 49.1206 106.648V88.648V70.648C51.0089 70.648 53.0139 71.0125 54.964 71.8348C56.8921 72.6479 58.3998 73.7527 59.51 74.8321L46.9626 87.738ZM71.6097 85.294V103.294C81.5509 103.294 89.6097 95.2351 89.6097 85.294H71.6097ZM68.9317 85.294V67.294C58.9906 67.294 50.9317 75.3529 50.9317 85.294H68.9317ZM68.9317 88.206H50.9317C50.9317 96.4656 56.5531 103.665 64.5661 105.669L68.9317 88.206ZM70.7777 89.012L88.5575 91.8193C89.646 84.9255 86.6513 78.0238 80.873 74.1095L70.7777 89.012ZM70.6217 90V108C79.4791 108 87.0201 101.556 88.4015 92.8073L70.6217 90ZM63.7577 90L45.978 92.8073C47.3594 101.556 54.9004 108 63.7577 108V90ZM63.6017 89.012L54.8602 73.2772C48.2535 76.9475 44.6433 84.3541 45.822 91.8193L63.6017 89.012ZM64.6677 88.544L70.5811 105.545C70.7173 105.498 70.8529 105.449 70.988 105.398L64.6677 88.544ZM65.8117 88.206L69.3418 105.856C77.7555 104.174 83.8118 96.7863 83.8118 88.206H65.8117ZM65.8117 85.294H83.8118C83.8118 75.3529 75.7529 67.294 65.8117 67.294V85.294ZM57.9077 85.294H39.9077C39.9077 95.2351 47.9666 103.294 57.9077 103.294V85.294ZM57.9077 83.552L42.5151 74.2211C40.8095 77.0346 39.9077 80.2618 39.9077 83.552H57.9077ZM65.0317 71.8V53.8C58.7382 53.8 52.9016 57.0871 49.6391 62.4691L65.0317 71.8ZM68.6978 71.8H86.6977C86.6977 61.8589 78.6389 53.8 68.6978 53.8V71.8ZM68.6978 72.216L82.8332 83.36C85.3364 80.1848 86.6977 76.2593 86.6977 72.216H68.6978ZM59.8837 83.396L45.7483 72.252C43.2451 75.4272 41.8837 79.3527 41.8837 83.396H59.8837ZM59.8837 83.552H41.8837C41.8837 93.4931 49.9426 101.552 59.8837 101.552V83.552ZM65.8117 83.552V101.552C75.7529 101.552 83.8118 93.4931 83.8118 83.552H65.8117ZM65.8117 78.872L60.2482 61.7534C52.8324 64.1635 47.8117 71.0744 47.8117 78.872H65.8117ZM68.9317 77.858H86.9317C86.9317 72.0959 84.1731 66.682 79.5114 63.2953C74.8496 59.9086 68.8482 58.9584 63.3682 60.7394L68.9317 77.858ZM68.9317 83.552H50.9317C50.9317 93.4931 58.9906 101.552 68.9317 101.552V83.552ZM71.6097 83.552H89.6097C89.6097 73.6109 81.5509 65.552 71.6097 65.552V83.552ZM71.6097 85.294V67.294H68.9317V85.294V103.294H71.6097V85.294ZM68.9317 85.294H50.9317V88.206H68.9317H86.9317V85.294H68.9317ZM68.9317 88.206L64.5661 105.669C63.4208 105.382 62.0582 104.846 60.6825 103.915L70.7777 89.012L80.873 74.1095C78.4226 72.4495 75.8294 71.3764 73.2974 70.7434L68.9317 88.206ZM70.7777 89.012L52.998 86.2047L52.842 87.1927L70.6217 90L88.4015 92.8073L88.5575 91.8193L70.7777 89.012ZM70.6217 90V72H63.7577V90V108H70.6217V90ZM63.7577 90L81.5375 87.1927L81.3815 86.2047L63.6017 89.012L45.822 91.8193L45.978 92.8073L63.7577 90ZM63.6017 89.012L72.3433 104.747C71.6049 105.157 70.9885 105.403 70.5811 105.545L64.6677 88.544L58.7544 71.5431C57.5497 71.9621 56.2226 72.5203 54.8602 73.2772L63.6017 89.012ZM64.6677 88.544L70.988 105.398C70.716 105.5 70.15 105.695 69.3418 105.856L65.8117 88.206L62.2817 70.5555C60.7802 70.8558 59.4515 71.2761 58.3475 71.6901L64.6677 88.544ZM65.8117 88.206H83.8118V85.294H65.8117H47.8117V88.206H65.8117ZM65.8117 85.294V67.294H57.9077V85.294V103.294H65.8117V85.294ZM57.9077 85.294H75.9077V83.552H57.9077H39.9077V85.294H57.9077ZM57.9077 83.552L73.3004 92.8829L80.4244 81.1309L65.0317 71.8L49.6391 62.4691L42.5151 74.2211L57.9077 83.552ZM65.0317 71.8V89.8H68.6978V71.8V53.8H65.0317V71.8ZM68.6978 71.8H50.6978V72.216H68.6978H86.6977V71.8H68.6978ZM68.6978 72.216L54.5623 61.072L45.7483 72.252L59.8837 83.396L74.0192 94.54L82.8332 83.36L68.6978 72.216ZM59.8837 83.396H41.8837V83.552H59.8837H77.8837V83.396H59.8837ZM59.8837 83.552V101.552H65.8117V83.552V65.552H59.8837V83.552ZM65.8117 83.552H83.8118V78.872H65.8117H47.8117V83.552H65.8117ZM65.8117 78.872L71.3753 95.9906L74.4953 94.9766L68.9317 77.858L63.3682 60.7394L60.2482 61.7534L65.8117 78.872ZM68.9317 77.858H50.9317V83.552H68.9317H86.9317V77.858H68.9317ZM68.9317 83.552V101.552H71.6097V83.552V65.552H68.9317V83.552ZM71.6097 83.552H53.6097V85.294H71.6097H89.6097V83.552H71.6097Z" fill="#373F51" mask="url(#path-1-outside-1_382_5349)"/>
<path d="M108.547 86.28C109.587 85.48 110.867 84.76 112.387 84.12C113.987 83.48 115.587 83 117.187 82.68V8.4C113.907 7.84 110.827 6.4 107.947 4.08L108.667 -7.15256e-06H130.147V82.68C131.747 83 133.307 83.48 134.827 84.12C136.427 84.76 137.747 85.48 138.787 86.28L138.067 90H109.267L108.547 86.28ZM153.135 65.88C150.735 65.88 148.695 65.08 147.015 63.48C145.335 61.8 144.495 59.72 144.495 57.24C144.495 54.76 145.335 52.68 147.015 51C148.695 49.32 150.735 48.48 153.135 48.48C155.615 48.48 157.695 49.32 159.375 51C161.055 52.68 161.895 54.76 161.895 57.24C161.895 59.72 161.055 61.8 159.375 63.48C157.695 65.08 155.615 65.88 153.135 65.88ZM168.786 86.28C169.826 85.48 171.106 84.76 172.626 84.12C174.226 83.48 175.826 83 177.426 82.68V8.4C174.146 7.84 171.066 6.4 168.186 4.08L168.906 -7.15256e-06H190.386V82.68C191.986 83 193.546 83.48 195.066 84.12C196.666 84.76 197.986 85.48 199.026 86.28L198.306 90H169.506L168.786 86.28Z" fill="#EDEFF1"/>
</svg>
