<svg width="135" height="104" viewBox="0 0 135 104" fill="none" xmlns="http://www.w3.org/2000/svg">
<mask id="path-1-outside-1_382_5340" maskUnits="userSpaceOnUse" x="-0.533203" y="46.0781" width="90" height="58" fill="black">
<rect fill="white" x="-0.533203" y="46.0781" width="90" height="58"/>
<path d="M20.8348 75.0161C20.8348 75.5015 21.0688 75.9088 21.5368 76.2381C22.0048 76.5501 22.7328 76.9141 23.7208 77.3301C24.6048 77.6941 25.3328 78.0321 25.9048 78.3441C26.4768 78.6561 26.9621 79.0721 27.3608 79.5921C27.7595 80.0948 27.9588 80.7101 27.9588 81.4381C27.9588 82.5821 27.4908 83.5181 26.5548 84.2461C25.6361 84.9741 24.3795 85.3381 22.7848 85.3381C21.9701 85.3381 21.1208 85.2428 20.2368 85.0521C19.3701 84.8615 18.6421 84.6101 18.0528 84.2981L18.4428 80.6061H19.5868C20.1241 81.6288 20.4708 82.5821 20.6268 83.4661C21.1988 83.7435 21.8835 83.8821 22.6808 83.8821C23.4781 83.8821 24.0848 83.7175 24.5008 83.3881C24.9168 83.0415 25.1248 82.5735 25.1248 81.9841C25.1248 81.4295 24.8735 80.9875 24.3708 80.6581C23.8855 80.3115 23.1315 79.9301 22.1088 79.5141C21.2248 79.1501 20.5055 78.8208 19.9508 78.5261C19.4135 78.2315 18.9541 77.8415 18.5728 77.3561C18.1915 76.8535 18.0008 76.2555 18.0008 75.5621C18.0008 74.9208 18.1915 74.3315 18.5728 73.7941C18.9541 73.2568 19.5175 72.8235 20.2628 72.4941C21.0081 72.1648 21.9008 72.0001 22.9408 72.0001C23.6688 72.0001 24.4141 72.0868 25.1768 72.2601C25.9568 72.4161 26.6501 72.6328 27.2568 72.9101L26.8668 76.4981H25.7228C25.2375 75.4581 24.9341 74.5395 24.8128 73.7421C24.2061 73.5515 23.5908 73.4561 22.9668 73.4561C22.2561 73.4561 21.7188 73.6035 21.3548 73.8981C21.0081 74.1755 20.8348 74.5481 20.8348 75.0161ZM32.7308 75.0161C32.7308 75.5015 32.9648 75.9088 33.4328 76.2381C33.9008 76.5501 34.6288 76.9141 35.6168 77.3301C36.5008 77.6941 37.2288 78.0321 37.8008 78.3441C38.3728 78.6561 38.8581 79.0721 39.2568 79.5921C39.6555 80.0948 39.8548 80.7101 39.8548 81.4381C39.8548 82.5821 39.3868 83.5181 38.4508 84.2461C37.5321 84.9741 36.2755 85.3381 34.6808 85.3381C33.8661 85.3381 33.0168 85.2428 32.1328 85.0521C31.2661 84.8615 30.5381 84.6101 29.9488 84.2981L30.3388 80.6061H31.4828C32.0201 81.6288 32.3668 82.5821 32.5228 83.4661C33.0948 83.7435 33.7795 83.8821 34.5768 83.8821C35.3741 83.8821 35.9808 83.7175 36.3968 83.3881C36.8128 83.0415 37.0208 82.5735 37.0208 81.9841C37.0208 81.4295 36.7695 80.9875 36.2668 80.6581C35.7815 80.3115 35.0275 79.9301 34.0048 79.5141C33.1208 79.1501 32.4015 78.8208 31.8468 78.5261C31.3095 78.2315 30.8501 77.8415 30.4688 77.3561C30.0875 76.8535 29.8968 76.2555 29.8968 75.5621C29.8968 74.9208 30.0875 74.3315 30.4688 73.7941C30.8501 73.2568 31.4135 72.8235 32.1588 72.4941C32.9041 72.1648 33.7968 72.0001 34.8368 72.0001C35.5648 72.0001 36.3101 72.0868 37.0728 72.2601C37.8528 72.4161 38.5461 72.6328 39.1528 72.9101L38.7628 76.4981H37.6188C37.1335 75.4581 36.8301 74.5395 36.7088 73.7421C36.1021 73.5515 35.4868 73.4561 34.8628 73.4561C34.1521 73.4561 33.6148 73.6035 33.2508 73.8981C32.9041 74.1755 32.7308 74.5481 32.7308 75.0161ZM49.1206 85.3381C47.6472 85.3381 46.3559 84.9741 45.2466 84.2461C44.1372 83.5008 43.2792 82.4435 42.6726 81.0741C42.0659 79.7048 41.7626 78.0841 41.7626 76.2121C41.7626 74.3401 42.0746 72.6761 42.6986 71.2201C43.3399 69.7641 44.2152 68.6375 45.3246 67.8401C46.4512 67.0255 47.7166 66.6181 49.1206 66.6181C50.5939 66.6181 51.8852 66.9908 52.9946 67.7361C54.1039 68.4815 54.9619 69.5388 55.5686 70.9081C56.1752 72.2775 56.4786 73.8895 56.4786 75.7441C56.4786 77.6508 56.1579 79.3321 55.5166 80.7881C54.8752 82.2268 53.9912 83.3448 52.8646 84.1421C51.7552 84.9395 50.5072 85.3381 49.1206 85.3381ZM49.1206 83.7261C49.9352 83.7261 50.6459 83.4228 51.2526 82.8161C51.8766 82.2095 52.3532 81.3255 52.6826 80.1641C53.0292 79.0028 53.2026 77.6075 53.2026 75.9781C53.2026 74.3488 53.0292 72.9535 52.6826 71.7921C52.3532 70.6308 51.8766 69.7468 51.2526 69.1401C50.6459 68.5335 49.9352 68.2301 49.1206 68.2301C48.3059 68.2301 47.5866 68.5335 46.9626 69.1401C46.3559 69.7468 45.8792 70.6308 45.5326 71.7921C45.2032 72.9535 45.0386 74.3488 45.0386 75.9781C45.0386 77.6075 45.2032 79.0028 45.5326 80.1641C45.8792 81.3255 46.3559 82.2095 46.9626 82.8161C47.5866 83.4228 48.3059 83.7261 49.1206 83.7261ZM65.3697 73.3001C66.4617 73.3001 67.4324 73.5601 68.2817 74.0801C69.1311 74.5828 69.7897 75.2848 70.2577 76.1861C70.7257 77.0875 70.9597 78.1188 70.9597 79.2801C70.9597 80.4935 70.6824 81.5595 70.1277 82.4781C69.5904 83.3795 68.8277 84.0815 67.8397 84.5841C66.8517 85.0868 65.7251 85.3381 64.4597 85.3381C63.3504 85.3381 62.3624 85.1735 61.4957 84.8441C60.6291 84.5148 59.9531 84.0555 59.4677 83.4661C58.9824 82.8768 58.7397 82.2095 58.7397 81.4641C58.7397 81.1695 58.7744 80.8575 58.8437 80.5281C58.9131 80.1815 59.0084 79.8868 59.1297 79.6441H61.2617L61.7817 83.1541C62.4057 83.5355 63.1771 83.7261 64.0957 83.7261C65.2051 83.7261 66.0717 83.3448 66.6957 82.5821C67.3371 81.8195 67.6577 80.7448 67.6577 79.3581C67.6577 77.9888 67.3544 76.9228 66.7477 76.1601C66.1584 75.3801 65.3611 74.9901 64.3557 74.9901C63.8011 74.9901 63.2637 75.1028 62.7437 75.3281C62.2411 75.5535 61.8251 75.8481 61.4957 76.2121H59.7017L60.2477 66.8781H67.6577C67.9004 65.9595 68.2904 65.0495 68.8277 64.1481L70.1017 64.3301L69.8937 69.0881H61.9377L61.5997 74.5481H61.7557C62.6397 73.7161 63.8444 73.3001 65.3697 73.3001Z"/>
</mask>
<path d="M20.8348 75.0161C20.8348 75.5015 21.0688 75.9088 21.5368 76.2381C22.0048 76.5501 22.7328 76.9141 23.7208 77.3301C24.6048 77.6941 25.3328 78.0321 25.9048 78.3441C26.4768 78.6561 26.9621 79.0721 27.3608 79.5921C27.7595 80.0948 27.9588 80.7101 27.9588 81.4381C27.9588 82.5821 27.4908 83.5181 26.5548 84.2461C25.6361 84.9741 24.3795 85.3381 22.7848 85.3381C21.9701 85.3381 21.1208 85.2428 20.2368 85.0521C19.3701 84.8615 18.6421 84.6101 18.0528 84.2981L18.4428 80.6061H19.5868C20.1241 81.6288 20.4708 82.5821 20.6268 83.4661C21.1988 83.7435 21.8835 83.8821 22.6808 83.8821C23.4781 83.8821 24.0848 83.7175 24.5008 83.3881C24.9168 83.0415 25.1248 82.5735 25.1248 81.9841C25.1248 81.4295 24.8735 80.9875 24.3708 80.6581C23.8855 80.3115 23.1315 79.9301 22.1088 79.5141C21.2248 79.1501 20.5055 78.8208 19.9508 78.5261C19.4135 78.2315 18.9541 77.8415 18.5728 77.3561C18.1915 76.8535 18.0008 76.2555 18.0008 75.5621C18.0008 74.9208 18.1915 74.3315 18.5728 73.7941C18.9541 73.2568 19.5175 72.8235 20.2628 72.4941C21.0081 72.1648 21.9008 72.0001 22.9408 72.0001C23.6688 72.0001 24.4141 72.0868 25.1768 72.2601C25.9568 72.4161 26.6501 72.6328 27.2568 72.9101L26.8668 76.4981H25.7228C25.2375 75.4581 24.9341 74.5395 24.8128 73.7421C24.2061 73.5515 23.5908 73.4561 22.9668 73.4561C22.2561 73.4561 21.7188 73.6035 21.3548 73.8981C21.0081 74.1755 20.8348 74.5481 20.8348 75.0161ZM32.7308 75.0161C32.7308 75.5015 32.9648 75.9088 33.4328 76.2381C33.9008 76.5501 34.6288 76.9141 35.6168 77.3301C36.5008 77.6941 37.2288 78.0321 37.8008 78.3441C38.3728 78.6561 38.8581 79.0721 39.2568 79.5921C39.6555 80.0948 39.8548 80.7101 39.8548 81.4381C39.8548 82.5821 39.3868 83.5181 38.4508 84.2461C37.5321 84.9741 36.2755 85.3381 34.6808 85.3381C33.8661 85.3381 33.0168 85.2428 32.1328 85.0521C31.2661 84.8615 30.5381 84.6101 29.9488 84.2981L30.3388 80.6061H31.4828C32.0201 81.6288 32.3668 82.5821 32.5228 83.4661C33.0948 83.7435 33.7795 83.8821 34.5768 83.8821C35.3741 83.8821 35.9808 83.7175 36.3968 83.3881C36.8128 83.0415 37.0208 82.5735 37.0208 81.9841C37.0208 81.4295 36.7695 80.9875 36.2668 80.6581C35.7815 80.3115 35.0275 79.9301 34.0048 79.5141C33.1208 79.1501 32.4015 78.8208 31.8468 78.5261C31.3095 78.2315 30.8501 77.8415 30.4688 77.3561C30.0875 76.8535 29.8968 76.2555 29.8968 75.5621C29.8968 74.9208 30.0875 74.3315 30.4688 73.7941C30.8501 73.2568 31.4135 72.8235 32.1588 72.4941C32.9041 72.1648 33.7968 72.0001 34.8368 72.0001C35.5648 72.0001 36.3101 72.0868 37.0728 72.2601C37.8528 72.4161 38.5461 72.6328 39.1528 72.9101L38.7628 76.4981H37.6188C37.1335 75.4581 36.8301 74.5395 36.7088 73.7421C36.1021 73.5515 35.4868 73.4561 34.8628 73.4561C34.1521 73.4561 33.6148 73.6035 33.2508 73.8981C32.9041 74.1755 32.7308 74.5481 32.7308 75.0161ZM49.1206 85.3381C47.6472 85.3381 46.3559 84.9741 45.2466 84.2461C44.1372 83.5008 43.2792 82.4435 42.6726 81.0741C42.0659 79.7048 41.7626 78.0841 41.7626 76.2121C41.7626 74.3401 42.0746 72.6761 42.6986 71.2201C43.3399 69.7641 44.2152 68.6375 45.3246 67.8401C46.4512 67.0255 47.7166 66.6181 49.1206 66.6181C50.5939 66.6181 51.8852 66.9908 52.9946 67.7361C54.1039 68.4815 54.9619 69.5388 55.5686 70.9081C56.1752 72.2775 56.4786 73.8895 56.4786 75.7441C56.4786 77.6508 56.1579 79.3321 55.5166 80.7881C54.8752 82.2268 53.9912 83.3448 52.8646 84.1421C51.7552 84.9395 50.5072 85.3381 49.1206 85.3381ZM49.1206 83.7261C49.9352 83.7261 50.6459 83.4228 51.2526 82.8161C51.8766 82.2095 52.3532 81.3255 52.6826 80.1641C53.0292 79.0028 53.2026 77.6075 53.2026 75.9781C53.2026 74.3488 53.0292 72.9535 52.6826 71.7921C52.3532 70.6308 51.8766 69.7468 51.2526 69.1401C50.6459 68.5335 49.9352 68.2301 49.1206 68.2301C48.3059 68.2301 47.5866 68.5335 46.9626 69.1401C46.3559 69.7468 45.8792 70.6308 45.5326 71.7921C45.2032 72.9535 45.0386 74.3488 45.0386 75.9781C45.0386 77.6075 45.2032 79.0028 45.5326 80.1641C45.8792 81.3255 46.3559 82.2095 46.9626 82.8161C47.5866 83.4228 48.3059 83.7261 49.1206 83.7261ZM65.3697 73.3001C66.4617 73.3001 67.4324 73.5601 68.2817 74.0801C69.1311 74.5828 69.7897 75.2848 70.2577 76.1861C70.7257 77.0875 70.9597 78.1188 70.9597 79.2801C70.9597 80.4935 70.6824 81.5595 70.1277 82.4781C69.5904 83.3795 68.8277 84.0815 67.8397 84.5841C66.8517 85.0868 65.7251 85.3381 64.4597 85.3381C63.3504 85.3381 62.3624 85.1735 61.4957 84.8441C60.6291 84.5148 59.9531 84.0555 59.4677 83.4661C58.9824 82.8768 58.7397 82.2095 58.7397 81.4641C58.7397 81.1695 58.7744 80.8575 58.8437 80.5281C58.9131 80.1815 59.0084 79.8868 59.1297 79.6441H61.2617L61.7817 83.1541C62.4057 83.5355 63.1771 83.7261 64.0957 83.7261C65.2051 83.7261 66.0717 83.3448 66.6957 82.5821C67.3371 81.8195 67.6577 80.7448 67.6577 79.3581C67.6577 77.9888 67.3544 76.9228 66.7477 76.1601C66.1584 75.3801 65.3611 74.9901 64.3557 74.9901C63.8011 74.9901 63.2637 75.1028 62.7437 75.3281C62.2411 75.5535 61.8251 75.8481 61.4957 76.2121H59.7017L60.2477 66.8781H67.6577C67.9004 65.9595 68.2904 65.0495 68.8277 64.1481L70.1017 64.3301L69.8937 69.0881H61.9377L61.5997 74.5481H61.7557C62.6397 73.7161 63.8444 73.3001 65.3697 73.3001Z" fill="#A5D0FD"/>
<path d="M21.5368 76.2381L11.1779 90.9586C11.3016 91.0457 11.4264 91.1311 11.5522 91.215L21.5368 76.2381ZM23.7208 77.3301L16.7358 93.9196C16.7795 93.938 16.8234 93.9562 16.8673 93.9743L23.7208 77.3301ZM25.9048 78.3441L17.2855 94.1462L17.2855 94.1462L25.9048 78.3441ZM27.3608 79.5921L13.0759 90.5439C13.1359 90.6222 13.1965 90.7 13.2578 90.7772L27.3608 79.5921ZM26.5548 84.2461L15.5039 70.0378C15.4609 70.0712 15.418 70.1049 15.3753 70.1387L26.5548 84.2461ZM20.2368 85.0521L16.3693 102.632C16.3934 102.637 16.4176 102.642 16.4417 102.648L20.2368 85.0521ZM18.0528 84.2981L0.152391 82.4072C-0.62001 89.7193 3.13256 96.7661 9.63082 100.206L18.0528 84.2981ZM18.4428 80.6061V62.6061C9.23367 62.6061 1.5098 69.5571 0.542391 78.7152L18.4428 80.6061ZM19.5868 80.6061L35.5212 72.2338C32.4106 66.3137 26.2743 62.6061 19.5868 62.6061V80.6061ZM20.6268 83.4661L2.90069 86.5943C3.90444 92.2822 7.57672 97.1429 12.7739 99.6628L20.6268 83.4661ZM24.5008 83.3881L35.6735 97.5009C35.7915 97.4075 35.9084 97.3125 36.0241 97.2161L24.5008 83.3881ZM24.3708 80.6581L13.9085 95.3053C14.105 95.4457 14.3043 95.5821 14.5063 95.7144L24.3708 80.6581ZM22.1088 79.5141L15.2553 96.1583C15.279 96.1681 15.3027 96.1778 15.3264 96.1874L22.1088 79.5141ZM19.9508 78.5261L11.2958 94.3087C11.3656 94.347 11.4357 94.3849 11.506 94.4222L19.9508 78.5261ZM18.5728 77.3561L4.23236 88.2351C4.29391 88.3162 4.35615 88.3968 4.41907 88.4769L18.5728 77.3561ZM18.5728 73.7941L33.2519 84.2116L33.2519 84.2116L18.5728 73.7941ZM20.2628 72.4941L27.5377 88.9585H27.5377L20.2628 72.4941ZM25.1768 72.2601L21.1876 89.8125C21.3402 89.8472 21.4933 89.8799 21.6467 89.9106L25.1768 72.2601ZM27.2568 72.9101L45.1514 74.8552C45.9895 67.1446 41.7943 59.7642 34.7405 56.5396L27.2568 72.9101ZM26.8668 76.4981V94.4981C36.0551 94.4981 43.7685 87.5777 44.7614 78.4432L26.8668 76.4981ZM25.7228 76.4981L9.4115 84.1101C12.3689 90.4474 18.7294 94.4981 25.7228 94.4981V76.4981ZM24.8128 73.7421L42.6079 71.0342C41.5743 64.2418 36.7642 58.6302 30.2097 56.5702L24.8128 73.7421ZM21.3548 73.8981L32.5993 87.9538C32.6264 87.9321 32.6534 87.9104 32.6804 87.8885L21.3548 73.8981ZM20.8348 75.0161H2.8348C2.8348 82.4646 6.90069 87.9487 11.1779 90.9586L21.5368 76.2381L31.8957 61.5176C33.3507 62.5415 35.1727 64.2032 36.6182 66.7194C38.1219 69.3369 38.8348 72.2213 38.8348 75.0161H20.8348ZM21.5368 76.2381L11.5522 91.215C13.4682 92.4924 15.4596 93.3822 16.7358 93.9196L23.7208 77.3301L30.7058 60.7407C30.4666 60.64 30.4089 60.6081 30.4836 60.6454C30.5262 60.6667 30.6347 60.7219 30.7936 60.8117C30.9479 60.8989 31.2016 61.048 31.5214 61.2612L21.5368 76.2381ZM23.7208 77.3301L16.8673 93.9743C17.1093 94.074 17.2656 94.1437 17.3498 94.1828C17.4388 94.2241 17.4073 94.2127 17.2855 94.1462L25.9048 78.3441L34.5241 62.542C33.1823 61.8101 31.811 61.1951 30.5743 60.6859L23.7208 77.3301ZM25.9048 78.3441L17.2855 94.1462C15.6382 93.2477 14.1975 92.0069 13.0759 90.5439L27.3608 79.5921L41.6457 68.6404C39.7268 66.1374 37.3154 64.0645 34.5241 62.542L25.9048 78.3441ZM27.3608 79.5921L13.2578 90.7772C10.7967 87.674 9.9588 84.195 9.9588 81.4381H27.9588H45.9588C45.9588 77.2252 44.7223 72.5156 41.4638 68.407L27.3608 79.5921ZM27.9588 81.4381H9.9588C9.9588 79.4806 10.3791 77.2063 11.5081 74.9483C12.627 72.7104 14.1338 71.1034 15.5039 70.0378L26.5548 84.2461L37.6057 98.4545C42.7397 94.4614 45.9588 88.369 45.9588 81.4381H27.9588ZM26.5548 84.2461L15.3753 70.1387C18.6146 67.5718 21.773 67.3381 22.7848 67.3381V85.3381V103.338C26.9859 103.338 32.6577 102.376 37.7343 98.3535L26.5548 84.2461ZM22.7848 85.3381V67.3381C23.3766 67.3381 23.8034 67.4075 24.0319 67.4567L20.2368 85.0521L16.4417 102.648C18.4382 103.078 20.5636 103.338 22.7848 103.338V85.3381ZM20.2368 85.0521L24.1043 67.4725C24.3354 67.5234 25.2446 67.7387 26.4748 68.3899L18.0528 84.2981L9.63082 100.206C12.0397 101.482 14.4049 102.2 16.3693 102.632L20.2368 85.0521ZM18.0528 84.2981L35.9532 86.189L36.3432 82.497L18.4428 80.6061L0.542391 78.7152L0.152391 82.4072L18.0528 84.2981ZM18.4428 80.6061V98.6061H19.5868V80.6061V62.6061H18.4428V80.6061ZM19.5868 80.6061L3.65241 88.9784C3.56004 88.8026 3.14497 87.9785 2.90069 86.5943L20.6268 83.4661L38.3529 80.338C37.7966 77.1858 36.6882 74.455 35.5212 72.2338L19.5868 80.6061ZM20.6268 83.4661L12.7739 99.6628C16.335 101.389 19.8368 101.882 22.6808 101.882V83.8821V65.8821C23.9301 65.8821 26.0626 66.0975 28.4797 67.2695L20.6268 83.4661ZM22.6808 83.8821V101.882C25.5845 101.882 30.8278 101.337 35.6735 97.5009L24.5008 83.3881L13.3281 69.2753C17.3418 66.0978 21.3717 65.8821 22.6808 65.8821V83.8821ZM24.5008 83.3881L36.0241 97.2161C40.9386 93.1207 43.1248 87.3796 43.1248 81.9841H25.1248H7.1248C7.1248 80.1379 7.45833 77.8558 8.52019 75.4666C9.60084 73.0352 11.1906 71.0492 12.9775 69.5601L24.5008 83.3881ZM25.1248 81.9841H43.1248C43.1248 74.7817 39.3112 68.9275 34.2353 65.6018L24.3708 80.6581L14.5063 95.7144C12.8016 94.5976 10.8104 92.8095 9.28907 90.1341C7.73477 87.4006 7.1248 84.5349 7.1248 81.9841H25.1248ZM24.3708 80.6581L34.8331 66.0109C32.618 64.4287 30.3137 63.4195 28.8912 62.8408L22.1088 79.5141L15.3264 96.1874C15.5118 96.2628 15.4882 96.261 15.3177 96.1747C15.2261 96.1284 15.0604 96.0418 14.8395 95.912C14.6231 95.7849 14.2997 95.5848 13.9085 95.3053L24.3708 80.6581ZM22.1088 79.5141L28.9623 62.8699C28.6927 62.7589 28.5096 62.6783 28.3993 62.6278C28.2832 62.5747 28.2926 62.5753 28.3956 62.63L19.9508 78.5261L11.506 94.4222C12.7712 95.0943 14.0772 95.6732 15.2553 96.1583L22.1088 79.5141ZM19.9508 78.5261L28.6058 62.7435C30.2126 63.6247 31.6191 64.8259 32.7265 66.2353L18.5728 77.3561L4.41907 88.4769C6.28913 90.857 8.61429 92.8382 11.2958 94.3087L19.9508 78.5261ZM18.5728 77.3561L32.9132 66.4772C35.143 69.4165 36.0008 72.7377 36.0008 75.5621H18.0008H0.000797272C0.000797272 79.7733 1.23988 84.2905 4.23236 88.2351L18.5728 77.3561ZM18.0008 75.5621H36.0008C36.0008 78.7613 34.9678 81.7938 33.2519 84.2116L18.5728 73.7941L3.89367 63.3767C1.41517 66.8691 0.000797272 71.0802 0.000797272 75.5621H18.0008ZM18.5728 73.7941L33.2519 84.2116C31.3578 86.8806 29.0619 88.285 27.5377 88.9585L20.2628 72.4941L12.9879 56.0298C9.97304 57.3619 6.55047 59.633 3.89367 63.3767L18.5728 73.7941ZM20.2628 72.4941L27.5377 88.9585C25.4516 89.8803 23.7398 90.0001 22.9408 90.0001V72.0001V54.0001C20.0618 54.0001 16.5647 54.4493 12.9878 56.0298L20.2628 72.4941ZM22.9408 72.0001V90.0001C22.2312 90.0001 21.6374 89.9147 21.1876 89.8125L25.1768 72.2601L29.166 54.7077C27.1908 54.2588 25.1064 54.0001 22.9408 54.0001V72.0001ZM25.1768 72.2601L21.6467 89.9106C21.3162 89.8445 20.6448 89.6792 19.7731 89.2807L27.2568 72.9101L34.7405 56.5396C32.6554 55.5864 30.5974 54.9878 28.7069 54.6097L25.1768 72.2601ZM27.2568 72.9101L9.3622 70.9651L8.9722 74.5531L26.8668 76.4981L44.7614 78.4432L45.1514 74.8552L27.2568 72.9101ZM26.8668 76.4981V58.4981H25.7228V76.4981V94.4981H26.8668V76.4981ZM25.7228 76.4981L42.0341 68.8862C42.037 68.8923 42.1176 69.0642 42.2237 69.3854C42.3278 69.7008 42.4906 70.2628 42.6079 71.0342L24.8128 73.7421L7.01766 76.4501C7.48079 79.4935 8.48001 82.114 9.4115 84.1101L25.7228 76.4981ZM24.8128 73.7421L30.2097 56.5702C27.8904 55.8413 25.4565 55.4561 22.9668 55.4561V73.4561V91.4561C21.7251 91.4561 20.5218 91.2616 19.4159 90.914L24.8128 73.7421ZM22.9668 73.4561V55.4561C20.1707 55.4561 14.8866 55.9755 10.0292 59.9077L21.3548 73.8981L32.6804 87.8885C28.551 91.2314 24.3416 91.4561 22.9668 91.4561V73.4561ZM21.3548 73.8981L10.1103 59.8425C5.23369 63.7438 2.8348 69.422 2.8348 75.0161H20.8348H38.8348C38.8348 77.0407 38.4489 79.476 37.2858 81.9768C36.1094 84.5061 34.4168 86.4998 32.5993 87.9538L21.3548 73.8981ZM33.4328 76.2381L23.0739 90.9586C23.1976 91.0457 23.3224 91.1311 23.4482 91.215L33.4328 76.2381ZM35.6168 77.3301L28.6318 93.9196C28.6756 93.938 28.7194 93.9562 28.7633 93.9743L35.6168 77.3301ZM37.8008 78.3441L29.1815 94.1462L29.1815 94.1462L37.8008 78.3441ZM39.2568 79.5921L24.9719 90.5439C25.0319 90.6222 25.0926 90.7 25.1539 90.7772L39.2568 79.5921ZM38.4508 84.2461L27.3999 70.0378C27.3569 70.0712 27.314 70.1049 27.2713 70.1387L38.4508 84.2461ZM32.1328 85.0521L28.2653 102.632C28.2894 102.637 28.3136 102.642 28.3377 102.648L32.1328 85.0521ZM29.9488 84.2981L12.0484 82.4072C11.276 89.7193 15.0286 96.7661 21.5268 100.206L29.9488 84.2981ZM30.3388 80.6061V62.6061C21.1297 62.6061 13.4058 69.5571 12.4384 78.7152L30.3388 80.6061ZM31.4828 80.6061L47.4172 72.2338C44.3066 66.3137 38.1704 62.6061 31.4828 62.6061V80.6061ZM32.5228 83.4661L14.7967 86.5943C15.8005 92.2822 19.4727 97.1429 24.6699 99.6628L32.5228 83.4661ZM36.3968 83.3881L47.5695 97.5009C47.6875 97.4075 47.8044 97.3125 47.9201 97.2161L36.3968 83.3881ZM36.2668 80.6581L25.8045 95.3053C26.001 95.4457 26.2003 95.5821 26.4023 95.7144L36.2668 80.6581ZM34.0048 79.5141L27.1513 96.1583C27.175 96.1681 27.1987 96.1778 27.2224 96.1874L34.0048 79.5141ZM31.8468 78.5261L23.1918 94.3087C23.2616 94.347 23.3317 94.3849 23.402 94.4222L31.8468 78.5261ZM30.4688 77.3561L16.1284 88.2351C16.1899 88.3162 16.2522 88.3968 16.3151 88.4769L30.4688 77.3561ZM30.4688 73.7941L45.1479 84.2116L45.1479 84.2116L30.4688 73.7941ZM32.1588 72.4941L39.4338 88.9585L32.1588 72.4941ZM37.0728 72.2601L33.0836 89.8125C33.2362 89.8472 33.3893 89.8799 33.5427 89.9106L37.0728 72.2601ZM39.1528 72.9101L57.0474 74.8552C57.8855 67.1446 53.6904 59.7642 46.6365 56.5396L39.1528 72.9101ZM38.7628 76.4981V94.4981C47.9511 94.4981 55.6645 87.5777 56.6574 78.4432L38.7628 76.4981ZM37.6188 76.4981L21.3075 84.1101C24.2649 90.4474 30.6254 94.4981 37.6188 94.4981V76.4981ZM36.7088 73.7421L54.504 71.0342C53.4703 64.2418 48.6602 58.6302 42.1057 56.5702L36.7088 73.7421ZM33.2508 73.8981L44.4953 87.9538C44.5224 87.9321 44.5494 87.9104 44.5764 87.8885L33.2508 73.8981ZM32.7308 75.0161H14.7308C14.7308 82.4646 18.7967 87.9487 23.0739 90.9586L33.4328 76.2381L43.7917 61.5176C45.2467 62.5415 47.0687 64.2032 48.5142 66.7194C50.0179 69.3369 50.7308 72.2213 50.7308 75.0161H32.7308ZM33.4328 76.2381L23.4482 91.215C25.3643 92.4924 27.3557 93.3822 28.6318 93.9196L35.6168 77.3301L42.6018 60.7407C42.3626 60.64 42.3049 60.6081 42.3797 60.6454C42.4222 60.6667 42.5307 60.7219 42.6896 60.8117C42.8439 60.8989 43.0976 61.048 43.4174 61.2612L33.4328 76.2381ZM35.6168 77.3301L28.7633 93.9743C29.0054 94.074 29.1616 94.1437 29.2458 94.1828C29.3348 94.2241 29.3033 94.2127 29.1815 94.1462L37.8008 78.3441L46.4202 62.542C45.0784 61.8101 43.707 61.1951 42.4703 60.6859L35.6168 77.3301ZM37.8008 78.3441L29.1815 94.1462C27.5342 93.2477 26.0935 92.0069 24.9719 90.5439L39.2568 79.5921L53.5417 68.6404C51.6228 66.1374 49.2114 64.0645 46.4201 62.542L37.8008 78.3441ZM39.2568 79.5921L25.1539 90.7772C22.6927 87.674 21.8548 84.195 21.8548 81.4381H39.8548H57.8548C57.8548 77.2252 56.6183 72.5156 53.3598 68.407L39.2568 79.5921ZM39.8548 81.4381H21.8548C21.8548 79.4806 22.2751 77.2063 23.4041 74.9483C24.5231 72.7104 26.0298 71.1034 27.3999 70.0378L38.4508 84.2461L49.5017 98.4545C54.6357 94.4614 57.8548 88.369 57.8548 81.4381H39.8548ZM38.4508 84.2461L27.2713 70.1387C30.5106 67.5718 33.669 67.3381 34.6808 67.3381V85.3381V103.338C38.8819 103.338 44.5537 102.376 49.6303 98.3535L38.4508 84.2461ZM34.6808 85.3381V67.3381C35.2727 67.3381 35.6994 67.4075 35.9279 67.4567L32.1328 85.0521L28.3377 102.648C30.3342 103.078 32.4596 103.338 34.6808 103.338V85.3381ZM32.1328 85.0521L36.0003 67.4725C36.2314 67.5234 37.1406 67.7387 38.3708 68.3899L29.9488 84.2981L21.5268 100.206C23.9357 101.482 26.3009 102.2 28.2653 102.632L32.1328 85.0521ZM29.9488 84.2981L47.8492 86.189L48.2392 82.497L30.3388 80.6061L12.4384 78.7152L12.0484 82.4072L29.9488 84.2981ZM30.3388 80.6061V98.6061H31.4828V80.6061V62.6061H30.3388V80.6061ZM31.4828 80.6061L15.5484 88.9784C15.4561 88.8026 15.041 87.9785 14.7967 86.5943L32.5228 83.4661L50.2489 80.338C49.6926 77.1858 48.5842 74.455 47.4172 72.2338L31.4828 80.6061ZM32.5228 83.4661L24.6699 99.6628C28.2311 101.389 31.7328 101.882 34.5768 101.882V83.8821V65.8821C35.8261 65.8821 37.9586 66.0975 40.3757 67.2695L32.5228 83.4661ZM34.5768 83.8821V101.882C37.4805 101.882 42.7238 101.337 47.5695 97.5009L36.3968 83.3881L25.2242 69.2753C29.2378 66.0978 33.2677 65.8821 34.5768 65.8821V83.8821ZM36.3968 83.3881L47.9201 97.2161C52.8347 93.1207 55.0208 87.3796 55.0208 81.9841H37.0208H19.0208C19.0208 80.1379 19.3543 77.8558 20.4162 75.4666C21.4969 73.0352 23.0866 71.0492 24.8735 69.5601L36.3968 83.3881ZM37.0208 81.9841H55.0208C55.0208 74.7817 51.2073 68.9275 46.1313 65.6018L36.2668 80.6581L26.4023 95.7144C24.6976 94.5976 22.7064 92.8095 21.1851 90.1341C19.6308 87.4006 19.0208 84.5349 19.0208 81.9841H37.0208ZM36.2668 80.6581L46.7291 66.0109C44.514 64.4287 42.2097 63.4195 40.7872 62.8408L34.0048 79.5141L27.2224 96.1874C27.4078 96.2628 27.3842 96.261 27.2137 96.1747C27.1221 96.1284 26.9564 96.0418 26.7356 95.912C26.5191 95.7849 26.1957 95.5848 25.8045 95.3053L36.2668 80.6581ZM34.0048 79.5141L40.8583 62.8699C40.5888 62.7589 40.4056 62.6783 40.2953 62.6278C40.1792 62.5747 40.1886 62.5753 40.2916 62.63L31.8468 78.5261L23.402 94.4222C24.6672 95.0943 25.9732 95.6732 27.1513 96.1583L34.0048 79.5141ZM31.8468 78.5261L40.5018 62.7435C42.1087 63.6247 43.5151 64.8259 44.6225 66.2353L30.4688 77.3561L16.3151 88.4769C18.1851 90.857 20.5103 92.8382 23.1918 94.3087L31.8468 78.5261ZM30.4688 77.3561L44.8093 66.4772C47.0391 69.4165 47.8968 72.7377 47.8968 75.5621H29.8968H11.8968C11.8968 79.7733 13.1359 84.2905 16.1284 88.2351L30.4688 77.3561ZM29.8968 75.5621H47.8968C47.8968 78.7613 46.8638 81.7938 45.1479 84.2116L30.4688 73.7941L15.7897 63.3767C13.3112 66.8691 11.8968 71.0802 11.8968 75.5621H29.8968ZM30.4688 73.7941L45.1479 84.2116C43.2538 86.8806 40.9579 88.285 39.4338 88.9585L32.1588 72.4941L24.8839 56.0298C21.8691 57.3619 18.4465 59.633 15.7897 63.3767L30.4688 73.7941ZM32.1588 72.4941L39.4338 88.9585C37.3476 89.8803 35.6358 90.0001 34.8368 90.0001V72.0001V54.0001C31.9578 54.0001 28.4607 54.4493 24.8839 56.0298L32.1588 72.4941ZM34.8368 72.0001V90.0001C34.1272 90.0001 33.5335 89.9147 33.0836 89.8125L37.0728 72.2601L41.062 54.7077C39.0868 54.2588 37.0024 54.0001 34.8368 54.0001V72.0001ZM37.0728 72.2601L33.5427 89.9106C33.2122 89.8445 32.5408 89.6792 31.6691 89.2807L39.1528 72.9101L46.6365 56.5396C44.5515 55.5864 42.4934 54.9878 40.6029 54.6097L37.0728 72.2601ZM39.1528 72.9101L21.2582 70.9651L20.8682 74.5531L38.7628 76.4981L56.6574 78.4432L57.0474 74.8552L39.1528 72.9101ZM38.7628 76.4981V58.4981H37.6188V76.4981V94.4981H38.7628V76.4981ZM37.6188 76.4981L53.9301 68.8862C53.933 68.8923 54.0136 69.0642 54.1197 69.3854C54.2238 69.7008 54.3866 70.2628 54.504 71.0342L36.7088 73.7421L18.9137 76.4501C19.3768 79.4935 20.376 82.114 21.3075 84.1101L37.6188 76.4981ZM36.7088 73.7421L42.1057 56.5702C39.7864 55.8413 37.3525 55.4561 34.8628 55.4561V73.4561V91.4561C33.6211 91.4561 32.4179 91.2616 31.3119 90.914L36.7088 73.7421ZM34.8628 73.4561V55.4561C32.0667 55.4561 26.7826 55.9755 21.9252 59.9077L33.2508 73.8981L44.5764 87.8885C40.447 91.2314 36.2376 91.4561 34.8628 91.4561V73.4561ZM33.2508 73.8981L22.0063 59.8425C17.1297 63.7438 14.7308 69.422 14.7308 75.0161H32.7308H50.7308C50.7308 77.0407 50.3449 79.476 49.1818 81.9768C48.0054 84.5061 46.3128 86.4998 44.4953 87.9538L33.2508 73.8981ZM45.2466 84.2461L35.2081 99.187C35.2622 99.2233 35.3164 99.2593 35.3707 99.295L45.2466 84.2461ZM42.6726 81.0741L59.1297 73.783L42.6726 81.0741ZM42.6986 71.2201L26.2258 63.9643C26.2016 64.0192 26.1776 64.0744 26.154 64.1296L42.6986 71.2201ZM45.3246 67.8401L55.83 82.4564C55.8439 82.4464 55.8577 82.4364 55.8716 82.4264L45.3246 67.8401ZM52.9946 67.7361L63.033 52.7952L63.033 52.7952L52.9946 67.7361ZM55.5686 70.9081L39.1114 78.1993L39.1114 78.1993L55.5686 70.9081ZM55.5166 80.7881L71.957 88.117C71.9678 88.0927 71.9786 88.0683 71.9893 88.044L55.5166 80.7881ZM52.8646 84.1421L42.4665 69.4492C42.4306 69.4746 42.3948 69.5002 42.3591 69.5259L52.8646 84.1421ZM51.2526 82.8161L38.7052 69.9102C38.6446 69.9691 38.5844 70.0285 38.5246 70.0882L51.2526 82.8161ZM52.6826 80.1641L35.4346 75.0155C35.411 75.0946 35.3879 75.1739 35.3654 75.2533L52.6826 80.1641ZM52.6826 71.7921L35.3654 76.703C35.3879 76.7824 35.411 76.8617 35.4346 76.9408L52.6826 71.7921ZM51.2526 69.1401L38.5246 81.8681C38.5844 81.9278 38.6446 81.9871 38.7051 82.046L51.2526 69.1401ZM46.9626 69.1401L34.4152 56.2342C34.3546 56.2931 34.2944 56.3525 34.2346 56.4122L46.9626 69.1401ZM45.5326 71.7921L28.2846 66.6435C28.261 66.7226 28.2379 66.8019 28.2154 66.8813L45.5326 71.7921ZM45.5326 80.1641L28.2154 85.075C28.2379 85.1544 28.261 85.2337 28.2846 85.3128L45.5326 80.1641ZM46.9626 82.8161L34.2346 95.544C34.2944 95.6038 34.3546 95.6631 34.4151 95.722L46.9626 82.8161ZM49.1206 85.3381V67.3381C50.7548 67.3381 52.9791 67.7908 55.1224 69.1973L45.2466 84.2461L35.3707 99.295C39.7327 102.157 44.5397 103.338 49.1206 103.338V85.3381ZM45.2466 84.2461L55.285 69.3052C57.3247 70.6757 58.532 72.4338 59.1297 73.783L42.6726 81.0741L26.2154 88.3653C28.0264 92.4531 30.9497 96.3259 35.2081 99.187L45.2466 84.2461ZM42.6726 81.0741L59.1297 73.783C59.7609 75.2075 59.7626 76.1812 59.7626 76.2121H41.7626H23.7626C23.7626 79.9871 24.3709 84.2021 26.2154 88.3653L42.6726 81.0741ZM41.7626 76.2121H59.7626C59.7626 76.3415 59.7376 77.1571 59.2432 78.3107L42.6986 71.2201L26.154 64.1296C24.4116 68.1951 23.7626 72.3388 23.7626 76.2121H41.7626ZM42.6986 71.2201L59.1713 78.476C58.7325 79.4723 57.7345 81.0876 55.83 82.4564L45.3246 67.8401L34.8191 53.2238C30.696 56.1873 27.9473 60.056 26.2258 63.9643L42.6986 71.2201ZM45.3246 67.8401L55.8716 82.4264C54.973 83.0762 53.8836 83.6555 52.6343 84.0577C51.3867 84.4593 50.1853 84.6181 49.1206 84.6181V66.6181V48.6181C43.9693 48.6181 39.0055 50.1967 34.7775 53.2538L45.3246 67.8401ZM49.1206 66.6181V84.6181C47.3997 84.6181 45.1164 84.1284 42.9562 82.677L52.9946 67.7361L63.033 52.7952C58.654 49.8531 53.7881 48.6181 49.1206 48.6181V66.6181ZM52.9946 67.7361L42.9561 82.677C40.9164 81.3066 39.7091 79.5484 39.1114 78.1993L55.5686 70.9081L72.0258 63.617C70.2147 59.5291 67.2914 55.6564 63.033 52.7952L52.9946 67.7361ZM55.5686 70.9081L39.1114 78.1993C38.4888 76.7941 38.4786 75.8189 38.4786 75.7441H56.4786H74.4786C74.4786 71.9601 73.8616 67.7608 72.0257 63.617L55.5686 70.9081ZM56.4786 75.7441H38.4786C38.4786 75.6392 38.4987 74.7698 39.0438 73.5323L55.5166 80.7881L71.9893 88.044C73.8171 83.8945 74.4786 79.6623 74.4786 75.7441H56.4786ZM55.5166 80.7881L39.0761 73.4593C39.5617 72.3699 40.5989 70.7709 42.4665 69.4492L52.8646 84.1421L63.2626 98.835C67.3835 95.9187 70.1887 92.0837 71.957 88.117L55.5166 80.7881ZM52.8646 84.1421L42.3591 69.5259C44.3598 68.0878 46.7982 67.3381 49.1206 67.3381V85.3381V103.338C54.2162 103.338 59.1506 101.791 63.37 98.7584L52.8646 84.1421ZM49.1206 83.7261V101.726C54.984 101.726 60.1976 99.3269 63.9805 95.544L51.2526 82.8161L38.5246 70.0882C39.6676 68.9453 41.2181 67.7888 43.1984 66.9436C45.197 66.0905 47.2333 65.7261 49.1206 65.7261V83.7261ZM51.2526 82.8161L63.8 95.722C67.3974 92.2245 69.1269 88.1529 69.9997 85.075L52.6826 80.1641L35.3654 75.2533C35.5796 74.498 36.3557 72.1944 38.7052 69.9102L51.2526 82.8161ZM52.6826 80.1641L69.9305 85.3128C70.9138 82.0188 71.2026 78.7925 71.2026 75.9781H53.2026H35.2026C35.2026 76.1645 35.1921 76.1707 35.2099 76.0277C35.2274 75.8867 35.281 75.5301 35.4346 75.0155L52.6826 80.1641ZM53.2026 75.9781H71.2026C71.2026 73.1637 70.9138 69.9375 69.9305 66.6435L52.6826 71.7921L35.4346 76.9408C35.281 76.4262 35.2274 76.0695 35.2099 75.9286C35.1921 75.7855 35.2026 75.7918 35.2026 75.9781H53.2026ZM52.6826 71.7921L69.9997 66.8813C69.1269 63.8033 67.3974 59.7317 63.8 56.2342L51.2526 69.1401L38.7051 82.046C36.3557 79.7619 35.5796 77.4583 35.3654 76.703L52.6826 71.7921ZM51.2526 69.1401L63.9805 56.4122C60.1976 52.6293 54.984 50.2301 49.1206 50.2301V68.2301V86.2301C47.2333 86.2301 45.1971 85.8657 43.1984 85.0127C41.2181 84.1674 39.6676 83.011 38.5246 81.8681L51.2526 69.1401ZM49.1206 68.2301V50.2301C43.2783 50.2301 38.146 52.607 34.4152 56.2342L46.9626 69.1401L59.51 82.046C58.3998 83.1254 56.8921 84.2302 54.964 85.0433C53.0139 85.8656 51.0089 86.2301 49.1206 86.2301V68.2301ZM46.9626 69.1401L34.2346 56.4122C30.8241 59.8227 29.1537 63.7322 28.2846 66.6435L45.5326 71.7921L62.7805 76.9408C62.6048 77.5294 61.8877 79.6709 59.6905 81.868L46.9626 69.1401ZM45.5326 71.7921L28.2154 66.8813C27.3064 70.0867 27.0386 73.2269 27.0386 75.9781H45.0386H63.0386C63.0386 75.7601 63.0501 75.7168 63.038 75.8192C63.0262 75.919 62.9833 76.2318 62.8497 76.703L45.5326 71.7921ZM45.0386 75.9781H27.0386C27.0386 78.7293 27.3064 81.8695 28.2154 85.075L45.5326 80.1641L62.8497 75.2533C62.9833 75.7245 63.0262 76.0373 63.038 76.137C63.0501 76.2395 63.0386 76.1961 63.0386 75.9781H45.0386ZM45.5326 80.1641L28.2846 85.3128C29.1537 88.224 30.8241 92.1335 34.2346 95.544L46.9626 82.8161L59.6905 70.0882C61.8877 72.2854 62.6048 74.4269 62.7805 75.0155L45.5326 80.1641ZM46.9626 82.8161L34.4151 95.722C38.146 99.3493 43.2783 101.726 49.1206 101.726V83.7261V65.7261C51.0089 65.7261 53.0139 66.0906 54.964 66.913C56.8921 67.726 58.3998 68.8308 59.51 69.9102L46.9626 82.8161ZM68.2817 74.0801L58.883 89.4314C58.9596 89.4784 59.0366 89.5247 59.114 89.5705L68.2817 74.0801ZM70.2577 76.1861L54.2828 84.4808L54.2828 84.4808L70.2577 76.1861ZM70.1278 82.4781L54.7186 73.1745C54.7012 73.2033 54.6839 73.2321 54.6667 73.261L70.1278 82.4781ZM67.8397 84.5841L59.6775 68.5411V68.5411L67.8397 84.5841ZM61.4958 84.8441L55.1018 101.67L61.4958 84.8441ZM59.4678 83.4661L73.3625 72.0234L73.3625 72.0234L59.4678 83.4661ZM58.8438 80.5281L76.4576 84.2363C76.4701 84.177 76.4823 84.1176 76.4942 84.0582L58.8438 80.5281ZM59.1297 79.6441V61.6441C52.3119 61.6441 46.0791 65.4962 43.0301 71.5943L59.1297 79.6441ZM61.2617 79.6441L79.0674 77.0062C77.7599 68.1803 70.1841 61.6441 61.2617 61.6441V79.6441ZM61.7817 83.1541L43.9761 85.792C44.7581 91.0708 47.8422 95.7305 52.3956 98.5132L61.7817 83.1541ZM66.6957 82.5821L52.9192 70.9973C52.8672 71.0592 52.8157 71.1213 52.7645 71.1838L66.6957 82.5821ZM66.7477 76.1601L52.3861 87.0111C52.4763 87.1304 52.5679 87.2486 52.6609 87.3655L66.7477 76.1601ZM62.7437 75.3281L55.5868 58.8121C55.5179 58.842 55.4492 58.8722 55.3807 58.903L62.7437 75.3281ZM61.4958 76.2121V94.2121C66.582 94.2121 71.4309 92.0602 74.8434 88.2886L61.4958 76.2121ZM59.7017 76.2121L41.7325 75.161C41.443 80.1089 43.2066 84.9573 46.6075 88.5628C50.0083 92.1684 54.7454 94.2121 59.7017 94.2121V76.2121ZM60.2477 66.8781V48.8781C50.7149 48.8781 42.8351 56.3104 42.2785 65.827L60.2477 66.8781ZM67.6577 66.8781V84.8781C75.8284 84.8781 82.9741 79.3749 85.0608 71.4752L67.6577 66.8781ZM68.8278 64.1481L71.3733 46.329C64.1856 45.3022 57.0847 48.6944 53.3667 54.931L68.8278 64.1481ZM70.1017 64.3301L88.0846 65.1163C88.4889 55.8675 81.8119 47.8203 72.6473 46.511L70.1017 64.3301ZM69.8937 69.0881V87.0881C79.5291 87.0881 87.4558 79.5005 87.8766 69.8743L69.8937 69.0881ZM61.9377 69.0881V51.0881C52.4285 51.0881 44.5597 58.4849 43.9721 67.976L61.9377 69.0881ZM61.5998 74.5481L43.6341 73.436C43.3272 78.3935 45.0825 83.2575 48.4845 86.8766C51.8865 90.4957 56.6327 92.5481 61.5998 92.5481V74.5481ZM61.7557 74.5481V92.5481C66.341 92.5481 70.7534 90.7983 74.0923 87.6557L61.7557 74.5481ZM65.3698 73.3001V91.3001C63.4756 91.3001 61.1322 90.8085 58.883 89.4314L68.2817 74.0801L77.6805 58.7288C73.7326 56.3117 69.4479 55.3001 65.3698 55.3001V73.3001ZM68.2817 74.0801L59.114 89.5705C56.9786 88.3067 55.3188 86.4761 54.2828 84.4808L70.2577 76.1861L86.2327 67.8915C84.2607 64.0935 81.2836 60.8589 77.4495 58.5897L68.2817 74.0801ZM70.2577 76.1861L54.2828 84.4808C53.2405 82.4733 52.9597 80.5888 52.9597 79.2801H70.9597H88.9597C88.9597 75.6488 88.211 71.7016 86.2327 67.8914L70.2577 76.1861ZM70.9597 79.2801H52.9597C52.9597 77.6525 53.3652 75.4161 54.7186 73.1745L70.1278 82.4781L85.5369 91.7818C87.9997 87.7028 88.9597 83.3344 88.9597 79.2801H70.9597ZM70.1278 82.4781L54.6667 73.261C55.9693 71.076 57.8159 69.4882 59.6775 68.5411L67.8397 84.5841L76.002 100.627C79.8396 98.6747 83.2116 95.6829 85.5888 91.6953L70.1278 82.4781ZM67.8397 84.5841L59.6775 68.5411C61.5549 67.586 63.2919 67.3381 64.4597 67.3381V85.3381V103.338C68.1583 103.338 72.1486 102.588 76.002 100.627L67.8397 84.5841ZM64.4597 85.3381V67.3381C65.1166 67.3381 66.3561 67.4353 67.8897 68.018L61.4958 84.8441L55.1018 101.67C58.3688 102.912 61.5842 103.338 64.4597 103.338V85.3381ZM61.4958 84.8441L67.8897 68.018C69.3239 68.563 71.4724 69.7282 73.3625 72.0234L59.4678 83.4661L45.573 94.9089C48.4338 98.3827 51.9343 100.467 55.1018 101.67L61.4958 84.8441ZM59.4678 83.4661L73.3625 72.0234C75.4609 74.5715 76.7397 77.9253 76.7397 81.4641H58.7397H40.7397C40.7397 86.4936 42.5039 91.1821 45.573 94.9089L59.4678 83.4661ZM58.7397 81.4641H76.7397C76.7397 82.5767 76.6095 83.5148 76.4576 84.2363L58.8438 80.5281L41.2299 76.8199C40.9393 78.2001 40.7397 79.7622 40.7397 81.4641H58.7397ZM58.8438 80.5281L76.4942 84.0582C76.3389 84.8345 76.0018 86.1492 75.2294 87.694L59.1297 79.6441L43.0301 71.5943C42.015 73.6244 41.4872 75.5284 41.1933 76.998L58.8438 80.5281ZM59.1297 79.6441V97.6441H61.2617V79.6441V61.6441H59.1297V79.6441ZM61.2617 79.6441L43.4561 82.282L43.9761 85.792L61.7817 83.1541L79.5874 80.5162L79.0674 77.0062L61.2617 79.6441ZM61.7817 83.1541L52.3956 98.5132C56.4866 101.013 60.7064 101.726 64.0957 101.726V83.7261V65.7261C65.6477 65.7261 68.3249 66.0577 71.1679 67.7951L61.7817 83.1541ZM64.0957 83.7261V101.726C69.8376 101.726 76.1269 99.4805 80.627 93.9804L66.6957 82.5821L52.7645 71.1838C54.1732 69.4622 56.0585 67.9632 58.3285 66.9645C60.5379 65.9923 62.578 65.7261 64.0957 65.7261V83.7261ZM66.6957 82.5821L80.4723 94.1669C84.7409 89.0907 85.6577 83.3366 85.6577 79.3581H67.6577H49.6577C49.6577 78.153 49.9332 74.5483 52.9192 70.9973L66.6957 82.5821ZM67.6577 79.3581H85.6577C85.6577 75.5371 84.8261 69.9726 80.8346 64.9547L66.7477 76.1601L52.6609 87.3655C49.8827 83.873 49.6577 80.4405 49.6577 79.3581H67.6577ZM66.7477 76.1601L81.1094 65.3091C77.0064 59.8788 70.8163 56.9901 64.3557 56.9901V74.9901V92.9901C62.4827 92.9901 60.1713 92.6125 57.7988 91.452C55.4097 90.2834 53.6195 88.6435 52.3861 87.0111L66.7477 76.1601ZM64.3557 74.9901V56.9901C61.2847 56.9901 58.3155 57.6297 55.5868 58.8121L62.7437 75.3281L69.9007 91.8441C68.212 92.5759 66.3175 92.9901 64.3557 92.9901V74.9901ZM62.7437 75.3281L55.3807 58.903C52.882 60.0231 50.3429 61.7098 48.1481 64.1357L61.4958 76.2121L74.8434 88.2886C73.3073 89.9864 71.6002 91.0838 70.1068 91.7533L62.7437 75.3281ZM61.4958 76.2121V58.2121H59.7017V76.2121V94.2121H61.4958V76.2121ZM59.7017 76.2121L77.671 77.2633L78.217 67.9293L60.2477 66.8781L42.2785 65.827L41.7325 75.161L59.7017 76.2121ZM60.2477 66.8781V84.8781H67.6577V66.8781V48.8781H60.2477V66.8781ZM67.6577 66.8781L85.0608 71.4752C84.8327 72.3389 84.5224 72.9734 84.2888 73.3653L68.8278 64.1481L53.3667 54.931C52.0584 57.1255 50.9682 59.58 50.2547 62.2811L67.6577 66.8781ZM68.8278 64.1481L66.2822 81.9672L67.5562 82.1492L70.1017 64.3301L72.6473 46.511L71.3733 46.329L68.8278 64.1481ZM70.1017 64.3301L52.1189 63.544L51.9109 68.302L69.8937 69.0881L87.8766 69.8743L88.0846 65.1163L70.1017 64.3301ZM69.8937 69.0881V51.0881H61.9377V69.0881V87.0881H69.8937V69.0881ZM61.9377 69.0881L43.9721 67.976L43.6341 73.436L61.5998 74.5481L79.5654 75.6603L79.9034 70.2003L61.9377 69.0881ZM61.5998 74.5481V92.5481H61.7557V74.5481V56.5481H61.5998V74.5481ZM61.7557 74.5481L74.0923 87.6557C70.8388 90.7179 67.2009 91.3001 65.3698 91.3001V73.3001V55.3001C60.488 55.3001 54.4407 56.7144 49.4192 61.4405L61.7557 74.5481Z" fill="#373F51" mask="url(#path-1-outside-1_382_5340)"/>
<path d="M100.547 81.3581C101.587 80.5581 102.867 79.8381 104.387 79.1981C105.987 78.5581 107.587 78.0781 109.187 77.7581V33.2381C107.587 32.9181 105.987 32.4381 104.387 31.7981C102.867 31.1581 101.587 30.4381 100.547 29.6381L101.267 25.9181H122.147V77.7581C123.747 78.0781 125.307 78.5581 126.827 79.1981C128.427 79.8381 129.747 80.5581 130.787 81.3581L130.067 85.0781H101.267L100.547 81.3581ZM115.187 15.7181C112.787 15.7181 110.787 14.9581 109.187 13.4381C107.667 11.9181 106.907 10.0781 106.907 7.91812C106.907 5.75812 107.667 3.91812 109.187 2.39812C110.787 0.79812 112.787 -0.00188112 115.187 -0.00188112C117.587 -0.00188112 119.547 0.79812 121.067 2.39812C122.667 3.91812 123.467 5.75812 123.467 7.91812C123.467 10.0781 122.667 11.9181 121.067 13.4381C119.547 14.9581 117.587 15.7181 115.187 15.7181Z" fill="#EDEFF1"/>
</svg>
