<svg width="502" height="115" viewBox="0 0 502 115" fill="none" xmlns="http://www.w3.org/2000/svg">
<mask id="path-1-outside-1_382_5352" maskUnits="userSpaceOnUse" x="-0.273438" y="59" width="133" height="56" fill="black">
<rect fill="white" x="-0.273438" y="59" width="133" height="56"/>
<path d="M28.3486 86.432C29.7006 86.6747 30.7579 87.1947 31.5206 87.992C32.3006 88.7893 32.6906 89.7947 32.6906 91.008C32.6906 92.568 32.0752 93.79 30.8446 94.674C29.6312 95.558 27.9239 96 25.7226 96H18.1826L18.0006 95.012C18.5206 94.6653 19.1446 94.3967 19.8726 94.206V79.594C19.1446 79.4033 18.5206 79.1347 18.0006 78.788L18.1826 77.8H25.4366C27.4472 77.8 29.0246 78.2073 30.1686 79.022C31.3299 79.8367 31.9106 80.946 31.9106 82.35C31.9106 83.3553 31.5899 84.2047 30.9486 84.898C30.3246 85.574 29.4579 86.0247 28.3486 86.25V86.432ZM28.7646 82.61C28.7646 81.5873 28.4439 80.7987 27.8026 80.244C27.1786 79.6893 26.2859 79.412 25.1246 79.412H22.9406V85.782H25.1246C26.2686 85.782 27.1612 85.5047 27.8026 84.95C28.4439 84.378 28.7646 83.598 28.7646 82.61ZM25.3846 94.388C26.7192 94.388 27.7332 94.0847 28.4266 93.478C29.1372 92.8713 29.4926 91.996 29.4926 90.852C29.4926 89.7253 29.1372 88.8587 28.4266 88.252C27.7159 87.628 26.7019 87.316 25.3846 87.316H22.9406V94.388H25.3846ZM47.28 94.258L47.436 95.142C47.0893 95.4367 46.6387 95.6793 46.084 95.87C45.5293 96.0433 44.9747 96.13 44.42 96.13C43.796 96.13 43.25 95.9827 42.782 95.688L42.6 94.102H42.444C41.924 94.778 41.3 95.3067 40.572 95.688C39.8613 96.0693 39.1247 96.26 38.362 96.26C37.166 96.26 36.2213 95.9567 35.528 95.35C34.852 94.726 34.514 93.8767 34.514 92.802C34.514 91.6233 35.008 90.6873 35.996 89.994C37.0013 89.3007 38.3447 88.954 40.026 88.954C40.7887 88.954 41.5947 89.0147 42.444 89.136V87.238C42.444 86.3193 42.2273 85.6173 41.794 85.132C41.3607 84.6293 40.7367 84.378 39.922 84.378C39.1247 84.378 38.4573 84.508 37.92 84.768L37.582 87.498H35.45C35.19 87.134 35.06 86.6833 35.06 86.146C35.06 85.5567 35.2767 85.0193 35.71 84.534C36.1607 84.0313 36.7587 83.6413 37.504 83.364C38.2667 83.0693 39.116 82.922 40.052 82.922C41.7333 82.922 43.016 83.312 43.9 84.092C44.8013 84.872 45.252 85.9813 45.252 87.42V94.258H47.28ZM39.376 94.44C39.8787 94.44 40.4073 94.2753 40.962 93.946C41.5167 93.6167 42.0107 93.166 42.444 92.594V90.332H40.494C39.4713 90.332 38.6827 90.5227 38.128 90.904C37.5907 91.268 37.322 91.8053 37.322 92.516C37.322 93.14 37.4953 93.6167 37.842 93.946C38.206 94.2753 38.7173 94.44 39.376 94.44ZM59.2108 94.414C59.5574 94.4833 59.8954 94.5873 60.2248 94.726C60.5714 94.8647 60.8574 95.0207 61.0828 95.194L60.9268 96H55.0768L54.8948 95.194C55.3281 94.8473 55.8308 94.5873 56.4028 94.414V84.716H52.7108L52.5028 88.148C52.3294 90.904 51.9481 92.9493 51.3588 94.284C50.7694 95.6013 49.9461 96.26 48.8888 96.26C48.5941 96.26 48.2994 96.1993 48.0048 96.078C47.7274 95.974 47.4934 95.844 47.3028 95.688V93.426H49.8768C50.0848 93.01 50.2754 92.3427 50.4488 91.424C50.6221 90.488 50.7521 89.396 50.8388 88.148L51.0468 84.768C50.3014 84.5947 49.6774 84.3347 49.1748 83.988L49.3308 83.182H60.9268L61.0828 83.988C60.8574 84.1613 60.5714 84.3173 60.2248 84.456C59.8954 84.5947 59.5574 84.6987 59.2108 84.768V94.414ZM74.9767 82.922C76.2074 82.922 77.2994 83.1993 78.2527 83.754C79.2061 84.2913 79.9427 85.054 80.4627 86.042C81.0001 87.0127 81.2687 88.148 81.2687 89.448C81.2687 90.8 80.9914 91.996 80.4367 93.036C79.8994 94.0587 79.1541 94.856 78.2007 95.428C77.2474 95.9827 76.1727 96.26 74.9767 96.26C73.1394 96.26 71.6661 95.7313 70.5567 94.674C69.4647 93.6167 68.8494 92.1173 68.7107 90.176H66.7607V94.414C67.3327 94.5873 67.8354 94.8473 68.2687 95.194L68.0867 96H62.2367L62.0807 95.194C62.3061 95.0207 62.5834 94.8647 62.9127 94.726C63.2594 94.5873 63.6061 94.4833 63.9527 94.414V84.768C63.6061 84.6987 63.2594 84.5947 62.9127 84.456C62.5834 84.3173 62.3061 84.1613 62.0807 83.988L62.2367 83.182H68.0867L68.2687 83.988C67.8354 84.3347 67.3327 84.5947 66.7607 84.768V88.616H68.7367C68.8407 87.5587 69.1701 86.5967 69.7247 85.73C70.2967 84.8633 71.0334 84.1787 71.9347 83.676C72.8534 83.1733 73.8674 82.922 74.9767 82.922ZM74.9767 94.804C75.9474 94.804 76.7447 94.3707 77.3687 93.504C77.9927 92.6373 78.3047 91.3287 78.3047 89.578C78.3047 87.8793 77.9841 86.588 77.3427 85.704C76.7187 84.82 75.9301 84.378 74.9767 84.378C73.9887 84.378 73.1827 84.8113 72.5587 85.678C71.9347 86.5447 71.6227 87.8447 71.6227 89.578C71.6227 91.294 71.9347 92.594 72.5587 93.478C73.2001 94.362 74.0061 94.804 74.9767 94.804ZM82.407 83.182H94.627L94.445 87.654H93.353C92.8157 86.7353 92.4517 85.756 92.261 84.716H89.921V94.414C90.2677 94.4833 90.6057 94.5873 90.935 94.726C91.2817 94.8647 91.5677 95.0207 91.793 95.194L91.637 96H85.397L85.241 95.194C85.4664 95.0207 85.7437 94.8647 86.073 94.726C86.4197 94.5873 86.7664 94.4833 87.113 94.414V84.716H84.799C84.6257 85.7213 84.253 86.7007 83.681 87.654H82.589L82.407 83.182ZM101.862 88.148C103.561 88.148 104.887 88.4947 105.84 89.188C106.793 89.864 107.27 90.826 107.27 92.074C107.27 93.322 106.793 94.2927 105.84 94.986C104.887 95.662 103.561 96 101.862 96H95.8041L95.6481 95.194C95.8735 95.0207 96.1508 94.8647 96.4801 94.726C96.8268 94.5873 97.1735 94.4833 97.5201 94.414V84.768C97.1735 84.6987 96.8268 84.5947 96.4801 84.456C96.1508 84.3173 95.8735 84.1613 95.6481 83.988L95.8041 83.182H102.07L102.252 83.988C102.027 84.1613 101.741 84.3173 101.394 84.456C101.047 84.5947 100.709 84.6987 100.38 84.768V88.148H101.862ZM112.21 94.414C112.539 94.4833 112.877 94.5873 113.224 94.726C113.571 94.8647 113.857 95.0207 114.082 95.194L113.9 96H108.05L107.894 95.194C108.293 94.8473 108.787 94.5873 109.376 94.414V84.768C109.047 84.6987 108.709 84.5947 108.362 84.456C108.015 84.3173 107.729 84.1613 107.504 83.988L107.686 83.182H113.9L114.082 83.988C113.857 84.1613 113.571 84.3173 113.224 84.456C112.877 84.5947 112.539 84.6987 112.21 84.768V94.414ZM101.42 94.544C102.339 94.544 103.049 94.336 103.552 93.92C104.055 93.4867 104.306 92.8713 104.306 92.074C104.306 91.2767 104.055 90.6613 103.552 90.228C103.049 89.7947 102.339 89.578 101.42 89.578H100.328V94.544H101.42Z"/>
</mask>
<path d="M28.3486 86.432C29.7006 86.6747 30.7579 87.1947 31.5206 87.992C32.3006 88.7893 32.6906 89.7947 32.6906 91.008C32.6906 92.568 32.0752 93.79 30.8446 94.674C29.6312 95.558 27.9239 96 25.7226 96H18.1826L18.0006 95.012C18.5206 94.6653 19.1446 94.3967 19.8726 94.206V79.594C19.1446 79.4033 18.5206 79.1347 18.0006 78.788L18.1826 77.8H25.4366C27.4472 77.8 29.0246 78.2073 30.1686 79.022C31.3299 79.8367 31.9106 80.946 31.9106 82.35C31.9106 83.3553 31.5899 84.2047 30.9486 84.898C30.3246 85.574 29.4579 86.0247 28.3486 86.25V86.432ZM28.7646 82.61C28.7646 81.5873 28.4439 80.7987 27.8026 80.244C27.1786 79.6893 26.2859 79.412 25.1246 79.412H22.9406V85.782H25.1246C26.2686 85.782 27.1612 85.5047 27.8026 84.95C28.4439 84.378 28.7646 83.598 28.7646 82.61ZM25.3846 94.388C26.7192 94.388 27.7332 94.0847 28.4266 93.478C29.1372 92.8713 29.4926 91.996 29.4926 90.852C29.4926 89.7253 29.1372 88.8587 28.4266 88.252C27.7159 87.628 26.7019 87.316 25.3846 87.316H22.9406V94.388H25.3846ZM47.28 94.258L47.436 95.142C47.0893 95.4367 46.6387 95.6793 46.084 95.87C45.5293 96.0433 44.9747 96.13 44.42 96.13C43.796 96.13 43.25 95.9827 42.782 95.688L42.6 94.102H42.444C41.924 94.778 41.3 95.3067 40.572 95.688C39.8613 96.0693 39.1247 96.26 38.362 96.26C37.166 96.26 36.2213 95.9567 35.528 95.35C34.852 94.726 34.514 93.8767 34.514 92.802C34.514 91.6233 35.008 90.6873 35.996 89.994C37.0013 89.3007 38.3447 88.954 40.026 88.954C40.7887 88.954 41.5947 89.0147 42.444 89.136V87.238C42.444 86.3193 42.2273 85.6173 41.794 85.132C41.3607 84.6293 40.7367 84.378 39.922 84.378C39.1247 84.378 38.4573 84.508 37.92 84.768L37.582 87.498H35.45C35.19 87.134 35.06 86.6833 35.06 86.146C35.06 85.5567 35.2767 85.0193 35.71 84.534C36.1607 84.0313 36.7587 83.6413 37.504 83.364C38.2667 83.0693 39.116 82.922 40.052 82.922C41.7333 82.922 43.016 83.312 43.9 84.092C44.8013 84.872 45.252 85.9813 45.252 87.42V94.258H47.28ZM39.376 94.44C39.8787 94.44 40.4073 94.2753 40.962 93.946C41.5167 93.6167 42.0107 93.166 42.444 92.594V90.332H40.494C39.4713 90.332 38.6827 90.5227 38.128 90.904C37.5907 91.268 37.322 91.8053 37.322 92.516C37.322 93.14 37.4953 93.6167 37.842 93.946C38.206 94.2753 38.7173 94.44 39.376 94.44ZM59.2108 94.414C59.5574 94.4833 59.8954 94.5873 60.2248 94.726C60.5714 94.8647 60.8574 95.0207 61.0828 95.194L60.9268 96H55.0768L54.8948 95.194C55.3281 94.8473 55.8308 94.5873 56.4028 94.414V84.716H52.7108L52.5028 88.148C52.3294 90.904 51.9481 92.9493 51.3588 94.284C50.7694 95.6013 49.9461 96.26 48.8888 96.26C48.5941 96.26 48.2994 96.1993 48.0048 96.078C47.7274 95.974 47.4934 95.844 47.3028 95.688V93.426H49.8768C50.0848 93.01 50.2754 92.3427 50.4488 91.424C50.6221 90.488 50.7521 89.396 50.8388 88.148L51.0468 84.768C50.3014 84.5947 49.6774 84.3347 49.1748 83.988L49.3308 83.182H60.9268L61.0828 83.988C60.8574 84.1613 60.5714 84.3173 60.2248 84.456C59.8954 84.5947 59.5574 84.6987 59.2108 84.768V94.414ZM74.9767 82.922C76.2074 82.922 77.2994 83.1993 78.2527 83.754C79.2061 84.2913 79.9427 85.054 80.4627 86.042C81.0001 87.0127 81.2687 88.148 81.2687 89.448C81.2687 90.8 80.9914 91.996 80.4367 93.036C79.8994 94.0587 79.1541 94.856 78.2007 95.428C77.2474 95.9827 76.1727 96.26 74.9767 96.26C73.1394 96.26 71.6661 95.7313 70.5567 94.674C69.4647 93.6167 68.8494 92.1173 68.7107 90.176H66.7607V94.414C67.3327 94.5873 67.8354 94.8473 68.2687 95.194L68.0867 96H62.2367L62.0807 95.194C62.3061 95.0207 62.5834 94.8647 62.9127 94.726C63.2594 94.5873 63.6061 94.4833 63.9527 94.414V84.768C63.6061 84.6987 63.2594 84.5947 62.9127 84.456C62.5834 84.3173 62.3061 84.1613 62.0807 83.988L62.2367 83.182H68.0867L68.2687 83.988C67.8354 84.3347 67.3327 84.5947 66.7607 84.768V88.616H68.7367C68.8407 87.5587 69.1701 86.5967 69.7247 85.73C70.2967 84.8633 71.0334 84.1787 71.9347 83.676C72.8534 83.1733 73.8674 82.922 74.9767 82.922ZM74.9767 94.804C75.9474 94.804 76.7447 94.3707 77.3687 93.504C77.9927 92.6373 78.3047 91.3287 78.3047 89.578C78.3047 87.8793 77.9841 86.588 77.3427 85.704C76.7187 84.82 75.9301 84.378 74.9767 84.378C73.9887 84.378 73.1827 84.8113 72.5587 85.678C71.9347 86.5447 71.6227 87.8447 71.6227 89.578C71.6227 91.294 71.9347 92.594 72.5587 93.478C73.2001 94.362 74.0061 94.804 74.9767 94.804ZM82.407 83.182H94.627L94.445 87.654H93.353C92.8157 86.7353 92.4517 85.756 92.261 84.716H89.921V94.414C90.2677 94.4833 90.6057 94.5873 90.935 94.726C91.2817 94.8647 91.5677 95.0207 91.793 95.194L91.637 96H85.397L85.241 95.194C85.4664 95.0207 85.7437 94.8647 86.073 94.726C86.4197 94.5873 86.7664 94.4833 87.113 94.414V84.716H84.799C84.6257 85.7213 84.253 86.7007 83.681 87.654H82.589L82.407 83.182ZM101.862 88.148C103.561 88.148 104.887 88.4947 105.84 89.188C106.793 89.864 107.27 90.826 107.27 92.074C107.27 93.322 106.793 94.2927 105.84 94.986C104.887 95.662 103.561 96 101.862 96H95.8041L95.6481 95.194C95.8735 95.0207 96.1508 94.8647 96.4801 94.726C96.8268 94.5873 97.1735 94.4833 97.5201 94.414V84.768C97.1735 84.6987 96.8268 84.5947 96.4801 84.456C96.1508 84.3173 95.8735 84.1613 95.6481 83.988L95.8041 83.182H102.07L102.252 83.988C102.027 84.1613 101.741 84.3173 101.394 84.456C101.047 84.5947 100.709 84.6987 100.38 84.768V88.148H101.862ZM112.21 94.414C112.539 94.4833 112.877 94.5873 113.224 94.726C113.571 94.8647 113.857 95.0207 114.082 95.194L113.9 96H108.05L107.894 95.194C108.293 94.8473 108.787 94.5873 109.376 94.414V84.768C109.047 84.6987 108.709 84.5947 108.362 84.456C108.015 84.3173 107.729 84.1613 107.504 83.988L107.686 83.182H113.9L114.082 83.988C113.857 84.1613 113.571 84.3173 113.224 84.456C112.877 84.5947 112.539 84.6987 112.21 84.768V94.414ZM101.42 94.544C102.339 94.544 103.049 94.336 103.552 93.92C104.055 93.4867 104.306 92.8713 104.306 92.074C104.306 91.2767 104.055 90.6613 103.552 90.228C103.049 89.7947 102.339 89.578 101.42 89.578H100.328V94.544H101.42Z" fill="#A5D0FD"/>
<path d="M28.3486 86.432H10.3486C10.3486 95.1465 16.5912 102.609 25.1686 104.149L28.3486 86.432ZM31.5206 87.992L18.513 100.434C18.5596 100.483 18.6064 100.531 18.6536 100.579L31.5206 87.992ZM30.8446 94.674L20.3434 80.0547C20.3105 80.0783 20.2778 80.1019 20.2451 80.1257L30.8446 94.674ZM18.1826 96L0.480406 99.2609C2.05352 107.801 9.49912 114 18.1826 114V96ZM18.0006 95.012L8.01596 80.0351C2.0299 84.0258 -1.00494 91.1976 0.298405 98.2729L18.0006 95.012ZM19.8726 94.206L24.433 111.619C32.3507 109.545 37.8726 102.391 37.8726 94.206H19.8726ZM19.8726 79.594H37.8726C37.8726 71.4093 32.3507 64.255 24.433 62.1813L19.8726 79.594ZM18.0006 78.788L0.298405 75.5271C-1.00494 82.6024 2.0299 89.7742 8.01595 93.7649L18.0006 78.788ZM18.1826 77.8V59.8C9.49912 59.8 2.05352 65.9993 0.480406 74.5391L18.1826 77.8ZM30.1686 79.022L19.7273 93.6842C19.7619 93.7089 19.7967 93.7334 19.8315 93.7578L30.1686 79.022ZM30.9486 84.898L17.7348 72.6752C17.7305 72.6798 17.7263 72.6844 17.7221 72.689L30.9486 84.898ZM28.3486 86.25L24.7655 68.6102C16.3769 70.3142 10.3486 77.6901 10.3486 86.25H28.3486ZM27.8026 80.244L15.844 93.6974C15.9049 93.7515 15.9662 93.8052 16.0278 93.8585L27.8026 80.244ZM22.9406 79.412V61.412C12.9994 61.412 4.94056 69.4709 4.94056 79.412H22.9406ZM22.9406 85.782H4.94056C4.94056 95.7231 12.9994 103.782 22.9406 103.782V85.782ZM27.8026 84.95L39.5773 98.5645C39.6465 98.5047 39.7153 98.4442 39.7836 98.3833L27.8026 84.95ZM28.4266 93.478L16.7398 79.7878C16.6841 79.8354 16.6286 79.8834 16.5735 79.9316L28.4266 93.478ZM28.4266 88.252L16.5501 101.778C16.613 101.833 16.6762 101.888 16.7398 101.942L28.4266 88.252ZM22.9406 87.316V69.316C12.9994 69.316 4.94056 77.3749 4.94056 87.316H22.9406ZM22.9406 94.388H4.94056C4.94056 104.329 12.9994 112.388 22.9406 112.388V94.388ZM28.3486 86.432L25.1686 104.149C23.6998 103.885 20.9712 103.004 18.513 100.434L31.5206 87.992L44.5281 75.55C40.5446 71.3854 35.7014 69.4641 31.5285 68.7151L28.3486 86.432ZM31.5206 87.992L18.6536 100.579C17.401 99.299 16.3324 97.6995 15.6166 95.8541C14.9117 94.0372 14.6906 92.3509 14.6906 91.008H32.6906H50.6906C50.6906 85.543 48.7622 79.8766 44.3876 75.4047L31.5206 87.992ZM32.6906 91.008H14.6906C14.6906 89.3728 15.0284 87.2309 16.1522 84.9991C17.2855 82.7484 18.859 81.1209 20.3434 80.0547L30.8446 94.674L41.3458 109.293C47.4464 104.911 50.6906 98.1615 50.6906 91.008H32.6906ZM30.8446 94.674L20.2451 80.1257C21.7588 79.0229 23.1807 78.4921 24.1429 78.243C25.0737 78.002 25.6601 78 25.7226 78V96V114C30.0354 114 36.0164 113.177 41.444 109.222L30.8446 94.674ZM25.7226 96V78H18.1826V96V114H25.7226V96ZM18.1826 96L35.8847 92.7391L35.7027 91.7511L18.0006 95.012L0.298405 98.2729L0.480406 99.2609L18.1826 96ZM18.0006 95.012L27.9852 109.989C26.5452 110.949 25.2536 111.404 24.433 111.619L19.8726 94.206L15.3121 76.7933C13.0355 77.3895 10.496 78.3818 8.01596 80.0351L18.0006 95.012ZM19.8726 94.206H37.8726V79.594H19.8726H1.87256V94.206H19.8726ZM19.8726 79.594L24.433 62.1813C25.2536 62.3962 26.5452 62.8511 27.9852 63.8111L18.0006 78.788L8.01595 93.7649C10.4959 95.4182 13.0355 96.4105 15.3121 97.0067L19.8726 79.594ZM18.0006 78.788L35.7027 82.0489L35.8847 81.0609L18.1826 77.8L0.480406 74.5391L0.298405 75.5271L18.0006 78.788ZM18.1826 77.8V95.8H25.4366V77.8V59.8H18.1826V77.8ZM25.4366 77.8V95.8C25.2586 95.8 22.6918 95.7953 19.7273 93.6842L30.1686 79.022L40.6098 64.3598C35.3574 60.6194 29.6359 59.8 25.4366 59.8V77.8ZM30.1686 79.022L19.8315 93.7578C18.3746 92.7358 16.7386 91.1258 15.5277 88.8125C14.3131 86.4922 13.9106 84.198 13.9106 82.35H31.9106H49.9106C49.9106 75.0062 46.4106 68.4285 40.5056 64.2862L30.1686 79.022ZM31.9106 82.35H13.9106C13.9106 80.9133 14.1454 79.1972 14.8303 77.3831C15.5224 75.5501 16.5448 73.9617 17.7348 72.6752L30.9486 84.898L44.1624 97.1208C48.0913 92.8732 49.9106 87.5668 49.9106 82.35H31.9106ZM30.9486 84.898L17.7221 72.689C20.2037 70.0005 23.037 68.9613 24.7655 68.6102L28.3486 86.25L31.9316 103.89C35.8788 103.088 40.4454 101.147 44.175 97.107L30.9486 84.898ZM28.3486 86.25H10.3486V86.432H28.3486H46.3486V86.25H28.3486ZM28.7646 82.61H46.7646C46.7646 77.5394 44.9841 71.3056 39.5773 66.6295L27.8026 80.244L16.0278 93.8585C14.1894 92.2686 12.7554 90.2589 11.8497 88.0312C10.9775 85.8861 10.7646 83.966 10.7646 82.61H28.7646ZM27.8026 80.244L39.7611 66.7906C34.7486 62.3351 28.9708 61.412 25.1246 61.412V79.412V97.412C23.6009 97.412 19.6085 97.0436 15.844 93.6974L27.8026 80.244ZM25.1246 79.412V61.412H22.9406V79.412V97.412H25.1246V79.412ZM22.9406 79.412H4.94056V85.782H22.9406H40.9406V79.412H22.9406ZM22.9406 85.782V103.782H25.1246V85.782V67.782H22.9406V85.782ZM25.1246 85.782V103.782C29.072 103.782 34.674 102.805 39.5773 98.5645L27.8026 84.95L16.0278 71.3355C19.6485 68.2041 23.4651 67.782 25.1246 67.782V85.782ZM27.8026 84.95L39.7836 98.3833C44.845 93.8692 46.7646 87.8802 46.7646 82.61H28.7646H10.7646C10.7646 81.153 11.0043 79.2123 11.876 77.0918C12.7725 74.9113 14.1476 73.0097 15.8215 71.5167L27.8026 84.95ZM25.3846 94.388V112.388C29.157 112.388 35.101 111.556 40.2796 107.024L28.4266 93.478L16.5735 79.9316C20.3654 76.6137 24.2814 76.388 25.3846 76.388V94.388ZM28.4266 93.478L40.1133 107.168C45.7168 102.385 47.4926 95.9736 47.4926 90.852H29.4926H11.4926C11.4926 89.5803 11.6894 87.7108 12.5479 85.5961C13.4429 83.3912 14.8757 81.3792 16.7398 79.7878L28.4266 93.478ZM29.4926 90.852H47.4926C47.4926 85.6469 45.6537 79.2915 40.1133 74.5618L28.4266 88.252L16.7398 101.942C14.9114 100.381 13.4776 98.3952 12.5715 96.1854C11.7002 94.0601 11.4926 92.1665 11.4926 90.852H29.4926ZM28.4266 88.252L40.303 74.7261C35.2158 70.2592 29.3593 69.316 25.3846 69.316V87.316V105.316C24.0444 105.316 20.216 104.997 16.5501 101.778L28.4266 88.252ZM25.3846 87.316V69.316H22.9406V87.316V105.316H25.3846V87.316ZM22.9406 87.316H4.94056V94.388H22.9406H40.9406V87.316H22.9406ZM22.9406 94.388V112.388H25.3846V94.388V76.388H22.9406V94.388ZM47.28 94.258L65.0061 91.1299C63.4882 82.5284 56.0144 76.258 47.28 76.258V94.258ZM47.436 95.142L59.0937 108.857C63.9631 104.718 66.2727 98.3074 65.1621 92.0139L47.436 95.142ZM46.084 95.87L51.453 113.051C51.6145 113 51.7754 112.947 51.9355 112.892L46.084 95.87ZM42.782 95.688L24.8994 97.7401C25.5217 103.164 28.5717 108.012 33.1914 110.92L42.782 95.688ZM42.6 94.102L60.4827 92.0499C59.4398 82.9624 51.7472 76.102 42.6 76.102V94.102ZM42.444 94.102V76.102C36.8556 76.102 31.5841 78.6977 28.1768 83.1272L42.444 94.102ZM40.572 95.688L32.2199 79.743C32.1669 79.7708 32.114 79.7988 32.0613 79.8271L40.572 95.688ZM35.528 95.35L23.319 108.576C23.4362 108.685 23.5549 108.791 23.6749 108.896L35.528 95.35ZM35.996 89.994L25.7768 75.1762C25.7366 75.2039 25.6964 75.2319 25.6564 75.26L35.996 89.994ZM42.444 89.136L39.8984 106.955C45.064 107.693 50.2956 106.153 54.2376 102.734C58.1796 99.3153 60.444 94.354 60.444 89.136H42.444ZM41.794 85.132L28.1606 96.8849C28.2288 96.964 28.2976 97.0424 28.3671 97.1203L41.794 85.132ZM37.92 84.768L30.0799 68.5651C24.5811 71.2259 20.807 76.4939 20.0564 82.5563L37.92 84.768ZM37.582 87.498V105.498C46.6679 105.498 54.3292 98.7267 55.4456 89.7097L37.582 87.498ZM35.45 87.498L20.8028 97.9603C24.1816 102.691 29.6369 105.498 35.45 105.498V87.498ZM35.71 84.534L22.3078 72.5182C22.2995 72.5274 22.2913 72.5365 22.2831 72.5457L35.71 84.534ZM37.504 83.364L43.7812 100.234C43.8514 100.208 43.9214 100.181 43.9912 100.154L37.504 83.364ZM43.9 84.092L31.9908 97.5891C32.0341 97.6273 32.0776 97.6653 32.1212 97.703L43.9 84.092ZM45.252 94.258H27.252C27.252 104.199 35.3109 112.258 45.252 112.258V94.258ZM42.444 92.594L56.7917 103.463C59.1615 100.335 60.444 96.5184 60.444 92.594H42.444ZM42.444 90.332H60.444C60.444 80.3909 52.3851 72.332 42.444 72.332V90.332ZM38.128 90.904L48.2233 105.807C48.2574 105.783 48.2915 105.76 48.3255 105.737L38.128 90.904ZM37.842 93.946L25.4445 106.996C25.5503 107.097 25.6574 107.196 25.7656 107.294L37.842 93.946ZM47.28 94.258L29.5539 97.3861L29.7099 98.2701L47.436 95.142L65.1621 92.0139L65.0061 91.1299L47.28 94.258ZM47.436 95.142L35.7783 81.4271C37.5595 79.9131 39.2481 79.1861 40.2326 78.8476L46.084 95.87L51.9355 112.892C54.0293 112.173 56.6192 110.96 59.0937 108.857L47.436 95.142ZM46.084 95.87L40.7151 78.6894C41.815 78.3456 43.0686 78.13 44.42 78.13V96.13V114.13C46.8808 114.13 49.2437 113.741 51.453 113.051L46.084 95.87ZM44.42 96.13V78.13C46.7423 78.13 49.612 78.7176 52.3727 80.4558L42.782 95.688L33.1914 110.92C36.888 113.248 40.8498 114.13 44.42 114.13V96.13ZM42.782 95.688L60.6647 93.6359L60.4827 92.0499L42.6 94.102L24.7174 96.1541L24.8994 97.7401L42.782 95.688ZM42.6 94.102V76.102H42.444V94.102V112.102H42.6V94.102ZM42.444 94.102L28.1768 83.1272C29.1839 81.8179 30.5519 80.6168 32.2199 79.743L40.572 95.688L48.9241 111.633C52.0482 109.997 54.6641 107.738 56.7112 105.077L42.444 94.102ZM40.572 95.688L32.0613 79.8271C33.8123 78.8875 35.9834 78.26 38.362 78.26V96.26V114.26C42.266 114.26 45.9104 113.251 49.0827 111.549L40.572 95.688ZM38.362 96.26V78.26C40.1966 78.26 43.9146 78.7704 47.3811 81.8036L35.528 95.35L23.6749 108.896C28.5281 113.143 34.1354 114.26 38.362 114.26V96.26ZM35.528 95.35L47.7371 82.1235C49.3633 83.6247 50.6592 85.4972 51.4918 87.5894C52.2998 89.6196 52.514 91.4534 52.514 92.802H34.514H16.514C16.514 97.9769 18.3235 103.965 23.319 108.576L35.528 95.35ZM34.514 92.802H52.514C52.514 94.8026 52.0728 97.2126 50.8034 99.6177C49.5425 102.007 47.8468 103.668 46.3357 104.728L35.996 89.994L25.6564 75.26C20.0041 79.2265 16.514 85.5911 16.514 92.802H34.514ZM35.996 89.994L46.2152 104.812C43.2762 106.839 40.6575 106.954 40.026 106.954V88.954V70.954C36.0318 70.954 30.7264 71.7626 25.7768 75.1762L35.996 89.994ZM40.026 88.954V106.954C39.9307 106.954 39.8715 106.95 39.8515 106.949C39.8315 106.947 39.8464 106.948 39.8984 106.955L42.444 89.136L44.9896 71.3169C43.3996 71.0898 41.738 70.954 40.026 70.954V88.954ZM42.444 89.136H60.444V87.238H42.444H24.444V89.136H42.444ZM42.444 87.238H60.444C60.444 83.7097 59.6169 78.0672 55.2209 73.1437L41.794 85.132L28.3671 97.1203C24.8378 93.1675 24.444 88.929 24.444 87.238H42.444ZM41.794 85.132L55.4274 73.3791C50.81 68.0229 44.6763 66.378 39.922 66.378V84.378V102.378C38.4986 102.378 36.501 102.159 34.276 101.263C31.9616 100.331 29.8458 98.8397 28.1606 96.8849L41.794 85.132ZM39.922 84.378V66.378C37.2783 66.378 33.739 66.7946 30.0799 68.5651L37.92 84.768L45.7601 100.971C43.1757 102.221 40.9711 102.378 39.922 102.378V84.378ZM37.92 84.768L20.0564 82.5563L19.7184 85.2863L37.582 87.498L55.4456 89.7097L55.7836 86.9797L37.92 84.768ZM37.582 87.498V69.498H35.45V87.498V105.498H37.582V87.498ZM35.45 87.498L50.0972 77.0357C52.4271 80.2976 53.06 83.7034 53.06 86.146H35.06H17.06C17.06 89.6632 17.9529 93.9704 20.8028 97.9603L35.45 87.498ZM35.06 86.146H53.06C53.06 90.4512 51.3182 94.0792 49.1369 96.5223L35.71 84.534L22.2831 72.5457C19.2351 75.9595 17.06 80.6621 17.06 86.146H35.06ZM35.71 84.534L49.1123 96.5498C47.2973 98.5742 45.2831 99.6751 43.7812 100.234L37.504 83.364L31.2268 66.494C28.2342 67.6075 25.0241 69.4884 22.3078 72.5182L35.71 84.534ZM37.504 83.364L43.9912 100.154C42.4075 100.766 41.0168 100.922 40.052 100.922V82.922V64.922C37.2152 64.922 34.1259 65.3724 31.0168 66.5736L37.504 83.364ZM40.052 82.922V100.922C39.1971 100.922 35.5586 100.737 31.9908 97.5891L43.9 84.092L55.8092 70.5949C50.4735 65.8869 44.2696 64.922 40.052 64.922V82.922ZM43.9 84.092L32.1212 97.703C30.4123 96.2242 29.0771 94.3502 28.2376 92.2838C27.4318 90.3002 27.252 88.5659 27.252 87.42H45.252H63.252C63.252 81.9394 61.3455 75.3848 55.6788 70.481L43.9 84.092ZM45.252 87.42H27.252V94.258H45.252H63.252V87.42H45.252ZM45.252 94.258V112.258H47.28V94.258V76.258H45.252V94.258ZM39.376 94.44V112.44C43.9075 112.44 47.5897 110.945 50.1517 109.423L40.962 93.946L31.7723 78.4686C33.225 77.6061 35.8498 76.44 39.376 76.44V94.44ZM40.962 93.946L50.1517 109.423C52.9207 107.779 55.111 105.682 56.7917 103.463L42.444 92.594L28.0964 81.7246C28.9103 80.6501 30.1127 79.454 31.7723 78.4686L40.962 93.946ZM42.444 92.594H60.444V90.332H42.444H24.444V92.594H42.444ZM42.444 90.332V72.332H40.494V90.332V108.332H42.444V90.332ZM40.494 90.332V72.332C37.6011 72.332 32.6727 72.811 27.9305 76.0712L38.128 90.904L48.3255 105.737C44.6927 108.234 41.3416 108.332 40.494 108.332V90.332ZM38.128 90.904L28.0328 76.0015C22.0233 80.0724 19.322 86.5022 19.322 92.516H37.322H55.322C55.322 94.4468 54.9476 96.9811 53.6232 99.6298C52.267 102.342 50.2992 104.4 48.2233 105.807L38.128 90.904ZM37.322 92.516H19.322C19.322 96.4948 20.5178 102.316 25.4445 106.996L37.842 93.946L50.2395 80.896C54.4729 84.9178 55.322 89.7852 55.322 92.516H37.322ZM37.842 93.946L25.7656 107.294C30.4318 111.515 35.8036 112.44 39.376 112.44V94.44V76.44C41.6311 76.44 45.9803 77.0352 49.9185 80.5984L37.842 93.946ZM59.2108 94.414H41.2108C41.2108 102.994 47.267 110.382 55.6807 112.064L59.2108 94.414ZM60.2248 94.726L53.2397 111.315C53.3394 111.357 53.4394 111.398 53.5397 111.439L60.2248 94.726ZM61.0828 95.194L78.7548 98.6144C80.0493 91.9262 77.4572 85.0803 72.0576 80.9268L61.0828 95.194ZM60.9268 96V114C69.5491 114 76.9604 107.886 78.5988 99.4204L60.9268 96ZM55.0768 96L37.5188 99.9647C39.372 108.172 46.6632 114 55.0768 114V96ZM54.8948 95.194L43.6503 81.1384C38.2707 85.442 35.8194 92.4387 37.3368 99.1587L54.8948 95.194ZM56.4028 94.414L61.6229 111.64C69.2125 109.341 74.4028 102.344 74.4028 94.414H56.4028ZM56.4028 84.716H74.4028C74.4028 74.7749 66.3439 66.716 56.4028 66.716V84.716ZM52.7108 84.716V66.716C43.1925 66.716 35.3195 74.1263 34.7437 83.6271L52.7108 84.716ZM52.5028 88.148L70.4673 89.2778C70.4681 89.2642 70.469 89.2506 70.4698 89.2369L52.5028 88.148ZM51.3588 94.284L67.7895 101.635C67.8014 101.608 67.8132 101.581 67.825 101.555L51.3588 94.284ZM48.0048 96.078L54.8583 79.4338C54.6816 79.3611 54.5038 79.2911 54.325 79.2241L48.0048 96.078ZM47.3028 95.688H29.3028C29.3028 101.087 31.726 106.201 35.9045 109.619L47.3028 95.688ZM47.3028 93.426V75.426C37.3616 75.426 29.3028 83.4849 29.3028 93.426H47.3028ZM49.8768 93.426V111.426C56.6947 111.426 62.9274 107.574 65.9765 101.476L49.8768 93.426ZM50.4488 91.424L68.1367 94.7613C68.1404 94.7414 68.1442 94.7215 68.1478 94.7016L50.4488 91.424ZM50.8388 88.148L68.7955 89.395C68.7988 89.3479 68.8019 89.3007 68.8048 89.2536L50.8388 88.148ZM51.0468 84.768L69.0128 85.8736C69.5525 77.1039 63.6819 69.2261 55.124 67.2359L51.0468 84.768ZM49.1748 83.988L31.5027 80.5676C30.144 87.5877 33.0693 94.7463 38.9556 98.8058L49.1748 83.988ZM49.3308 83.182V65.182C40.7085 65.182 33.2972 71.2964 31.6587 79.7616L49.3308 83.182ZM60.9268 83.182L78.5988 79.7616C76.9604 71.2964 69.5491 65.182 60.9268 65.182V83.182ZM61.0828 83.988L72.0575 98.2552C77.4572 94.1017 80.0493 87.2558 78.7548 80.5676L61.0828 83.988ZM60.2248 84.456L53.5398 67.7434C53.4394 67.7836 53.3394 67.8246 53.2397 67.8666L60.2248 84.456ZM59.2108 84.768L55.6807 67.1175C47.267 68.8003 41.2108 76.1877 41.2108 84.768H59.2108ZM59.2108 94.414L55.6807 112.064C54.8303 111.894 54.0115 111.64 53.2397 111.315L60.2248 94.726L67.2098 78.1366C65.7794 77.5343 64.2846 77.0723 62.7409 76.7635L59.2108 94.414ZM60.2248 94.726L53.5397 111.439C52.8014 111.143 51.5292 110.554 50.108 109.461L61.0828 95.194L72.0576 80.9268C70.1857 79.4868 68.3415 78.5861 66.9098 78.0134L60.2248 94.726ZM61.0828 95.194L43.4107 91.7736L43.2547 92.5796L60.9268 96L78.5988 99.4204L78.7548 98.6144L61.0828 95.194ZM60.9268 96V78H55.0768V96V114H60.9268V96ZM55.0768 96L72.6347 92.0353L72.4527 91.2293L54.8948 95.194L37.3368 99.1587L37.5188 99.9647L55.0768 96ZM54.8948 95.194L66.1393 109.25C64.6507 110.441 63.0723 111.201 61.6229 111.64L56.4028 94.414L51.1826 77.1876C48.5893 77.9734 46.0055 79.2541 43.6503 81.1384L54.8948 95.194ZM56.4028 94.414H74.4028V84.716H56.4028H38.4028V94.414H56.4028ZM56.4028 84.716V66.716H52.7108V84.716V102.716H56.4028V84.716ZM52.7108 84.716L34.7437 83.6271L34.5357 87.0591L52.5028 88.148L70.4698 89.2369L70.6778 85.8049L52.7108 84.716ZM52.5028 88.148L34.5383 87.0182C34.5119 87.4376 34.4814 87.7671 34.4527 88.0161C34.4237 88.2672 34.3998 88.4063 34.3917 88.4499C34.3828 88.4974 34.399 88.3973 34.461 88.1813C34.4931 88.0698 34.5409 87.915 34.6088 87.7238C34.6765 87.5332 34.769 87.2929 34.8926 87.0132L51.3588 94.284L67.825 101.555C69.7298 97.2409 70.2577 92.6098 70.4673 89.2778L52.5028 88.148ZM51.3588 94.284L34.928 86.9334C35.3941 85.8917 36.5584 83.7074 39.0548 81.7104C41.8445 79.4786 45.3426 78.26 48.8888 78.26V96.26V114.26C59.6705 114.26 65.5534 106.633 67.7895 101.635L51.3588 94.284ZM48.8888 96.26V78.26C51.1309 78.26 53.1575 78.7335 54.8583 79.4338L48.0048 96.078L41.1513 112.722C43.4414 113.665 46.0573 114.26 48.8888 114.26V96.26ZM48.0048 96.078L54.325 79.2241C55.5277 79.6751 57.0979 80.4451 58.701 81.7568L47.3028 95.688L35.9045 109.619C37.889 111.243 39.9272 112.273 41.6845 112.932L48.0048 96.078ZM47.3028 95.688H65.3028V93.426H47.3028H29.3028V95.688H47.3028ZM47.3028 93.426V111.426H49.8768V93.426V75.426H47.3028V93.426ZM49.8768 93.426L65.9765 101.476C67.351 98.7267 67.8998 96.0169 68.1367 94.7613L50.4488 91.424L32.7609 88.0867C32.7439 88.1768 32.7708 88.0099 32.8683 87.6685C32.9196 87.4891 33.0058 87.207 33.137 86.8504C33.2651 86.5026 33.4703 85.9897 33.7771 85.3762L49.8768 93.426ZM50.4488 91.424L68.1478 94.7016C68.4771 92.9238 68.6753 91.1262 68.7955 89.395L50.8388 88.148L32.882 86.901C32.8289 87.6658 32.7671 88.0522 32.7497 88.1464L50.4488 91.424ZM50.8388 88.148L68.8048 89.2536L69.0128 85.8736L51.0468 84.768L33.0808 83.6624L32.8728 87.0424L50.8388 88.148ZM51.0468 84.768L55.124 67.2359C56.0421 67.4494 57.6328 67.9556 59.394 69.1702L49.1748 83.988L38.9556 98.8058C41.722 100.714 44.5608 101.74 46.9695 102.3L51.0468 84.768ZM49.1748 83.988L66.8468 87.4084L67.0028 86.6024L49.3308 83.182L31.6587 79.7616L31.5027 80.5676L49.1748 83.988ZM49.3308 83.182V101.182H60.9268V83.182V65.182H49.3308V83.182ZM60.9268 83.182L43.2547 86.6024L43.4107 87.4084L61.0828 83.988L78.7548 80.5676L78.5988 79.7616L60.9268 83.182ZM61.0828 83.988L50.108 69.7208C51.5292 68.6275 52.8014 68.0388 53.5398 67.7434L60.2248 84.456L66.9098 101.169C68.3415 100.596 70.1857 99.6952 72.0575 98.2552L61.0828 83.988ZM60.2248 84.456L53.2397 67.8666C54.0115 67.5416 54.8303 67.2876 55.6807 67.1175L59.2108 84.768L62.7409 102.418C64.2846 102.11 65.7794 101.648 67.2098 101.045L60.2248 84.456ZM59.2108 84.768H41.2108V94.414H59.2108H77.2108V84.768H59.2108ZM78.2527 83.754L69.2006 99.3123C69.2716 99.3536 69.3429 99.3944 69.4145 99.4347L78.2527 83.754ZM80.4627 86.042L64.5342 94.4254C64.5932 94.5375 64.6533 94.6489 64.7146 94.7597L80.4627 86.042ZM80.4367 93.036L64.5544 84.5654C64.5369 84.5981 64.5196 84.6309 64.5023 84.6637L80.4367 93.036ZM78.2007 95.428L87.2528 110.986C87.3227 110.946 87.3923 110.904 87.4616 110.863L78.2007 95.428ZM70.5567 94.674L58.0357 107.606C58.0696 107.638 58.1037 107.671 58.1378 107.704L70.5567 94.674ZM68.7107 90.176L86.665 88.8935C85.9921 79.4741 78.1542 72.176 68.7107 72.176V90.176ZM66.7607 90.176V72.176C56.8196 72.176 48.7607 80.2349 48.7607 90.176H66.7607ZM66.7607 94.414H48.7607C48.7607 102.344 53.9509 109.341 61.5406 111.64L66.7607 94.414ZM68.2687 95.194L85.8267 99.1587C87.3441 92.4387 84.8928 85.442 79.5132 81.1384L68.2687 95.194ZM68.0867 96V114C76.5003 114 83.7915 108.172 85.6447 99.9647L68.0867 96ZM62.2367 96L44.5647 99.4204C46.2031 107.886 53.6144 114 62.2367 114V96ZM62.0807 95.194L51.1059 80.9268C45.7063 85.0803 43.1142 91.9262 44.4087 98.6144L62.0807 95.194ZM62.9127 94.726L56.2277 78.0134C56.1273 78.0536 56.0273 78.0946 55.9277 78.1366L62.9127 94.726ZM63.9527 94.414L67.4828 112.064C75.8964 110.382 81.9527 102.994 81.9527 94.414H63.9527ZM63.9527 84.768H81.9527C81.9527 76.1877 75.8964 68.8003 67.4828 67.1175L63.9527 84.768ZM62.9127 84.456L55.9277 101.045C56.0273 101.087 56.1273 101.128 56.2277 101.169L62.9127 84.456ZM62.0807 83.988L44.4087 80.5676C43.1142 87.2558 45.7063 94.1017 51.1059 98.2552L62.0807 83.988ZM62.2367 83.182V65.182C53.6144 65.182 46.2031 71.2964 44.5647 79.7616L62.2367 83.182ZM68.0867 83.182L85.6447 79.2173C83.7915 71.0104 76.5003 65.182 68.0867 65.182V83.182ZM68.2687 83.988L79.5132 98.0436C84.8928 93.74 87.3441 86.7433 85.8267 80.0233L68.2687 83.988ZM66.7607 84.768L61.5406 67.5416C53.9509 69.8415 48.7607 76.8375 48.7607 84.768H66.7607ZM66.7607 88.616H48.7607C48.7607 98.5571 56.8196 106.616 66.7607 106.616V88.616ZM68.7367 88.616V106.616C77.9954 106.616 85.744 99.5922 86.6503 90.378L68.7367 88.616ZM69.7247 85.73L54.7017 75.8148C54.6553 75.8852 54.6093 75.956 54.5638 76.027L69.7247 85.73ZM71.9347 83.676L63.2945 67.8853C63.2521 67.9085 63.2097 67.9319 63.1675 67.9555L71.9347 83.676ZM77.3687 93.504L91.9763 104.021V104.021L77.3687 93.504ZM77.3427 85.704L62.6373 96.0843C62.6822 96.1479 62.7274 96.2111 62.7731 96.2741L77.3427 85.704ZM72.5587 85.678L57.9511 75.1605L57.9511 75.1605L72.5587 85.678ZM72.5587 93.478L57.8533 103.858C57.8982 103.922 57.9434 103.985 57.9891 104.048L72.5587 93.478ZM74.9767 82.922V100.922C73.4043 100.922 71.3045 100.536 69.2006 99.3123L78.2527 83.754L87.3048 68.1957C83.2943 65.8623 79.0105 64.922 74.9767 64.922V82.922ZM78.2527 83.754L69.4145 99.4347C67.2878 98.236 65.5921 96.4354 64.5342 94.4254L80.4627 86.042L96.3912 77.6586C94.2934 73.6726 91.1243 70.3466 87.091 68.0733L78.2527 83.754ZM80.4627 86.042L64.7146 94.7597C63.5395 92.6368 63.2687 90.6715 63.2687 89.448H81.2687H99.2687C99.2687 85.6245 98.4607 81.3886 96.2108 77.3243L80.4627 86.042ZM81.2687 89.448H63.2687C63.2687 88.2835 63.5262 86.4933 64.5544 84.5654L80.4367 93.036L96.3191 101.507C98.4566 97.4987 99.2687 93.3165 99.2687 89.448H81.2687ZM80.4367 93.036L64.5023 84.6637C65.4371 82.8847 66.9495 81.1873 68.9398 79.9931L78.2007 95.428L87.4616 110.863C91.3586 108.525 94.3617 105.233 96.3711 101.408L80.4367 93.036ZM78.2007 95.428L69.1486 79.8697C71.1738 78.6914 73.2695 78.26 74.9767 78.26V96.26V114.26C79.0759 114.26 83.321 113.274 87.2528 110.986L78.2007 95.428ZM74.9767 96.26V78.26C75.7779 78.26 77.0531 78.3758 78.573 78.9212C80.1473 79.4861 81.6735 80.4033 82.9756 81.6444L70.5567 94.674L58.1378 107.704C63.241 112.568 69.4925 114.26 74.9767 114.26V96.26ZM70.5567 94.674L83.0777 81.7425C85.9823 84.5548 86.5792 87.6929 86.665 88.8935L68.7107 90.176L50.7565 91.4584C51.1196 96.5418 52.9472 102.679 58.0357 107.606L70.5567 94.674ZM68.7107 90.176V72.176H66.7607V90.176V108.176H68.7107V90.176ZM66.7607 90.176H48.7607V94.414H66.7607H84.7607V90.176H66.7607ZM66.7607 94.414L61.5406 111.64C60.0912 111.201 58.5128 110.441 57.0242 109.25L68.2687 95.194L79.5132 81.1384C77.158 79.2541 74.5742 77.9734 71.9809 77.1876L66.7607 94.414ZM68.2687 95.194L50.7108 91.2293L50.5288 92.0353L68.0867 96L85.6447 99.9647L85.8267 99.1587L68.2687 95.194ZM68.0867 96V78H62.2367V96V114H68.0867V96ZM62.2367 96L79.9088 92.5796L79.7528 91.7736L62.0807 95.194L44.4087 98.6144L44.5647 99.4204L62.2367 96ZM62.0807 95.194L73.0555 109.461C71.7898 110.435 70.6455 111.001 69.8977 111.315L62.9127 94.726L55.9277 78.1366C54.5212 78.7288 52.8223 79.6065 51.1059 80.9268L62.0807 95.194ZM62.9127 94.726L69.5978 111.439C68.9805 111.685 68.2726 111.906 67.4828 112.064L63.9527 94.414L60.4226 76.7635C58.9395 77.0602 57.5383 77.4892 56.2277 78.0134L62.9127 94.726ZM63.9527 94.414H81.9527V84.768H63.9527H45.9527V94.414H63.9527ZM63.9527 84.768L67.4828 67.1175C68.2726 67.2755 68.9805 67.4965 69.5978 67.7434L62.9127 84.456L56.2277 101.169C57.5383 101.693 58.9395 102.122 60.4226 102.418L63.9527 84.768ZM62.9127 84.456L69.8977 67.8666C70.6455 68.1814 71.7898 68.7472 73.0555 69.7208L62.0807 83.988L51.1059 98.2552C52.8223 99.5755 54.5213 100.453 55.9277 101.045L62.9127 84.456ZM62.0807 83.988L79.7528 87.4084L79.9088 86.6024L62.2367 83.182L44.5647 79.7616L44.4087 80.5676L62.0807 83.988ZM62.2367 83.182V101.182H68.0867V83.182V65.182H62.2367V83.182ZM68.0867 83.182L50.5288 87.1467L50.7108 87.9527L68.2687 83.988L85.8267 80.0233L85.6447 79.2173L68.0867 83.182ZM68.2687 83.988L57.0242 69.9324C58.5128 68.7415 60.0912 67.9808 61.5406 67.5416L66.7607 84.768L71.9809 101.994C74.5742 101.209 77.158 99.9279 79.5132 98.0436L68.2687 83.988ZM66.7607 84.768H48.7607V88.616H66.7607H84.7607V84.768H66.7607ZM66.7607 88.616V106.616H68.7367V88.616V70.616H66.7607V88.616ZM68.7367 88.616L86.6503 90.378C86.4855 92.0526 85.913 93.8277 84.8856 95.433L69.7247 85.73L54.5638 76.027C52.4271 79.3656 51.1959 83.0647 50.8232 86.854L68.7367 88.616ZM69.7247 85.73L84.7477 95.6452C83.7402 97.1716 82.3373 98.4845 80.702 99.3965L71.9347 83.676L63.1675 67.9555C59.7295 69.8728 56.8532 72.5551 54.7017 75.8148L69.7247 85.73ZM71.9347 83.676L80.5749 99.4667C78.6866 100.5 76.702 100.922 74.9767 100.922V82.922V64.922C71.0327 64.922 67.0201 65.8467 63.2945 67.8853L71.9347 83.676ZM74.9767 94.804V112.804C82.3797 112.804 88.3639 109.039 91.9763 104.021L77.3687 93.504L62.7611 82.9865C63.7521 81.6101 65.3446 79.9479 67.7075 78.6638C70.1298 77.3473 72.6749 76.804 74.9767 76.804V94.804ZM77.3687 93.504L91.9763 104.021C95.8149 98.6902 96.3047 92.9017 96.3047 89.578H78.3047H60.3047C60.3047 89.4437 60.3108 88.7494 60.5615 87.6981C60.8137 86.6403 61.3958 84.8828 62.7611 82.9865L77.3687 93.504ZM78.3047 89.578H96.3047C96.3047 86.0503 95.7127 80.3723 91.9123 75.1339L77.3427 85.704L62.7731 96.2741C61.4746 94.4842 60.8734 92.7957 60.5948 91.6735C60.3214 90.5726 60.3047 89.8097 60.3047 89.578H78.3047ZM77.3427 85.704L92.0481 75.3237C88.578 70.4077 82.6359 66.378 74.9767 66.378V84.378V102.378C72.5457 102.378 69.9249 101.78 67.4831 100.412C65.1211 99.0879 63.5718 97.4081 62.6373 96.0843L77.3427 85.704ZM74.9767 84.378V66.378C67.6731 66.378 61.6379 70.04 57.9511 75.1605L72.5587 85.678L87.1663 96.1955C86.1474 97.6107 84.5294 99.2803 82.1548 100.557C79.7314 101.86 77.2144 102.378 74.9767 102.378V84.378ZM72.5587 85.678L57.9511 75.1605C54.1293 80.4685 53.6227 86.2247 53.6227 89.578H71.6227H89.6227C89.6227 89.7332 89.6145 90.4421 89.3597 91.5037C89.1026 92.5749 88.5174 94.319 87.1663 96.1955L72.5587 85.678ZM71.6227 89.578H53.6227C53.6227 93.0009 54.1619 98.6289 57.8533 103.858L72.5587 93.478L87.2641 83.0977C88.5377 84.9019 89.1046 86.5763 89.3597 87.6393C89.6116 88.6889 89.6227 89.3982 89.6227 89.578H71.6227ZM72.5587 93.478L57.9891 104.048C61.5277 108.926 67.4549 112.804 74.9767 112.804V94.804V76.804C77.3418 76.804 79.9 77.3742 82.2992 78.6899C84.6268 79.9663 86.1774 81.5972 87.1283 82.9079L72.5587 93.478ZM82.407 83.182V65.182C77.5061 65.182 72.8172 67.1803 69.4229 70.7155C66.0286 74.2507 64.2226 79.0171 64.4219 83.914L82.407 83.182ZM94.627 83.182L112.612 83.9139C112.811 79.0171 111.005 74.2507 107.611 70.7155C104.217 67.1803 99.5279 65.182 94.627 65.182V83.182ZM94.445 87.654V105.654C104.101 105.654 112.037 98.0344 112.43 88.3859L94.445 87.654ZM93.353 87.654L77.8157 96.7419C81.0441 102.262 86.9586 105.654 93.353 105.654V87.654ZM92.261 84.716L109.966 81.4701C108.399 72.9233 100.95 66.716 92.261 66.716V84.716ZM89.921 84.716V66.716C79.9799 66.716 71.921 74.7749 71.921 84.716H89.921ZM89.921 94.414H71.921C71.921 102.994 77.9773 110.382 86.3909 112.064L89.921 94.414ZM90.935 94.726L83.95 111.315C84.0496 111.357 84.1496 111.398 84.25 111.439L90.935 94.726ZM91.793 95.194L109.465 98.6144C110.76 91.9262 108.167 85.0803 102.768 80.9268L91.793 95.194ZM91.637 96V114C100.259 114 107.671 107.886 109.309 99.4204L91.637 96ZM85.397 96L67.725 99.4204C69.3634 107.886 76.7747 114 85.397 114V96ZM85.241 95.194L74.2662 80.9268C68.8666 85.0803 66.2745 91.9262 67.569 98.6144L85.241 95.194ZM86.073 94.726L79.388 78.0134C79.2876 78.0536 79.1876 78.0946 79.088 78.1366L86.073 94.726ZM87.113 94.414L90.6431 112.064C99.0568 110.382 105.113 102.994 105.113 94.414H87.113ZM87.113 84.716H105.113C105.113 74.7749 97.0542 66.716 87.113 66.716V84.716ZM84.799 84.716V66.716C76.0379 66.716 68.5493 73.024 67.0607 81.6577L84.799 84.716ZM83.681 87.654V105.654C90.0038 105.654 95.8629 102.337 99.1159 96.9149L83.681 87.654ZM82.589 87.654L64.6039 88.386C64.9966 98.0344 72.9326 105.654 82.589 105.654V87.654ZM82.407 83.182V101.182H94.627V83.182V65.182H82.407V83.182ZM94.627 83.182L76.6419 82.4501L76.4599 86.9221L94.445 87.654L112.43 88.3859L112.612 83.9139L94.627 83.182ZM94.445 87.654V69.654H93.353V87.654V105.654H94.445V87.654ZM93.353 87.654L108.89 78.5661C109.403 79.4418 109.777 80.4378 109.966 81.4701L92.261 84.716L74.5561 87.9619C75.1267 91.0742 76.2288 94.0288 77.8157 96.7419L93.353 87.654ZM92.261 84.716V66.716H89.921V84.716V102.716H92.261V84.716ZM89.921 84.716H71.921V94.414H89.921H107.921V84.716H89.921ZM89.921 94.414L86.3909 112.064C85.5405 111.894 84.7218 111.64 83.95 111.315L90.935 94.726L97.9201 78.1366C96.4896 77.5343 94.9949 77.0723 93.4511 76.7635L89.921 94.414ZM90.935 94.726L84.25 111.439C83.5116 111.143 82.2395 110.554 80.8182 109.461L91.793 95.194L102.768 80.9268C100.896 79.4869 99.0518 78.5861 97.6201 78.0134L90.935 94.726ZM91.793 95.194L74.121 91.7736L73.965 92.5796L91.637 96L109.309 99.4204L109.465 98.6144L91.793 95.194ZM91.637 96V78H85.397V96V114H91.637V96ZM85.397 96L103.069 92.5796L102.913 91.7736L85.241 95.194L67.569 98.6144L67.725 99.4204L85.397 96ZM85.241 95.194L96.2158 109.461C94.9502 110.435 93.8058 111.001 93.0581 111.315L86.073 94.726L79.088 78.1366C77.6816 78.7288 75.9826 79.6065 74.2662 80.9268L85.241 95.194ZM86.073 94.726L92.7581 111.439C92.1408 111.685 91.4329 111.906 90.6431 112.064L87.113 94.414L83.5829 76.7635C82.0998 77.0602 80.6986 77.4892 79.388 78.0134L86.073 94.726ZM87.113 94.414H105.113V84.716H87.113H69.113V94.414H87.113ZM87.113 84.716V66.716H84.799V84.716V102.716H87.113V84.716ZM84.799 84.716L67.0607 81.6577C67.298 80.2818 67.7768 79.1754 68.2462 78.3931L83.681 87.654L99.1159 96.9149C100.729 94.226 101.953 91.1609 102.537 87.7743L84.799 84.716ZM83.681 87.654V69.654H82.589V87.654V105.654H83.681V87.654ZM82.589 87.654L100.574 86.922L100.392 82.45L82.407 83.182L64.4219 83.914L64.6039 88.386L82.589 87.654ZM105.84 89.188L95.2531 103.745C95.3113 103.788 95.3697 103.83 95.4284 103.871L105.84 89.188ZM105.84 94.986L116.252 109.669C116.311 109.628 116.369 109.586 116.427 109.543L105.84 94.986ZM95.8041 96L78.1321 99.4204C79.7705 107.886 87.1818 114 95.8041 114V96ZM95.6481 95.194L84.6733 80.9268C79.2738 85.0803 76.6816 91.9262 77.9761 98.6144L95.6481 95.194ZM96.4801 94.726L89.7951 78.0134C89.6947 78.0536 89.5947 78.0946 89.4951 78.1366L96.4801 94.726ZM97.5201 94.414L101.05 112.064C109.464 110.382 115.52 102.994 115.52 94.414H97.5201ZM97.5201 84.768H115.52C115.52 76.1877 109.464 68.8003 101.05 67.1175L97.5201 84.768ZM96.4801 84.456L89.4951 101.045C89.5947 101.087 89.6947 101.128 89.7951 101.169L96.4801 84.456ZM95.6481 83.988L77.9761 80.5676C76.6816 87.2558 79.2738 94.1017 84.6734 98.2552L95.6481 83.988ZM95.8041 83.182V65.182C87.1818 65.182 79.7705 71.2964 78.1321 79.7616L95.8041 83.182ZM102.07 83.182L119.628 79.2173C117.775 71.0104 110.484 65.182 102.07 65.182V83.182ZM102.252 83.988L113.227 98.2552C118.786 93.9793 121.355 86.8641 119.81 80.0233L102.252 83.988ZM101.394 84.456L94.7091 67.7434L94.7091 67.7434L101.394 84.456ZM100.38 84.768L96.6719 67.1541C88.3426 68.9077 82.3801 76.256 82.3801 84.768H100.38ZM100.38 88.148H82.3801C82.3801 98.0891 90.439 106.148 100.38 106.148V88.148ZM112.21 94.414H94.2101C94.2101 102.926 100.173 110.274 108.502 112.028L112.21 94.414ZM114.082 95.194L131.64 99.1587C133.185 92.3179 130.616 85.2027 125.057 80.9268L114.082 95.194ZM113.9 96V114C122.314 114 129.605 108.172 131.458 99.9647L113.9 96ZM108.05 96L90.3781 99.4204C92.0165 107.886 99.4278 114 108.05 114V96ZM107.894 95.194L96.0829 81.6111C91.2349 85.8268 89.0013 92.3069 90.2221 98.6144L107.894 95.194ZM109.376 94.414L114.455 111.683C122.116 109.429 127.376 102.399 127.376 94.414H109.376ZM109.376 84.768H127.376C127.376 76.256 121.414 68.9077 113.084 67.1541L109.376 84.768ZM108.362 84.456L115.047 67.7434V67.7434L108.362 84.456ZM107.504 83.988L89.9462 80.0233C88.4015 86.8641 90.9706 93.9793 96.5294 98.2552L107.504 83.988ZM107.686 83.182V65.182C99.2726 65.182 91.9814 71.0104 90.1282 79.2173L107.686 83.182ZM113.9 83.182L131.458 79.2173C129.605 71.0104 122.314 65.182 113.9 65.182V83.182ZM114.082 83.988L125.057 98.2552C130.616 93.9793 133.185 86.8641 131.64 80.0233L114.082 83.988ZM113.224 84.456L106.539 67.7434L106.539 67.7434L113.224 84.456ZM112.21 84.768L108.502 67.1541C100.173 68.9077 94.2101 76.256 94.2101 84.768H112.21ZM103.552 93.92L115.028 107.787C115.121 107.71 115.214 107.632 115.305 107.553L103.552 93.92ZM103.552 90.228L91.7992 103.861L91.7992 103.861L103.552 90.228ZM100.328 89.578V71.578C90.387 71.578 82.3281 79.6369 82.3281 89.578H100.328ZM100.328 94.544H82.3281C82.3281 104.485 90.387 112.544 100.328 112.544V94.544ZM101.862 88.148V106.148C101.37 106.148 98.4653 106.081 95.2531 103.745L105.84 89.188L116.427 74.6307C111.308 70.9079 105.751 70.148 101.862 70.148V88.148ZM105.84 89.188L95.4284 103.871C93.6955 102.642 91.9832 100.828 90.784 98.4082C89.6062 96.0311 89.2701 93.7727 89.2701 92.074H107.27H125.27C125.27 85.4567 122.333 78.8166 116.252 74.5048L105.84 89.188ZM107.27 92.074H89.2701C89.2701 90.3711 89.6075 88.1419 90.7557 85.8038C91.9215 83.4296 93.5801 81.6454 95.2531 80.4288L105.84 94.986L116.427 109.543C122.35 105.236 125.27 98.6842 125.27 92.074H107.27ZM105.84 94.986L95.4284 80.3028C98.6143 78.0437 101.448 78 101.862 78V96V114C105.674 114 111.159 113.28 116.252 109.669L105.84 94.986ZM101.862 96V78H95.8041V96V114H101.862V96ZM95.8041 96L113.476 92.5796L113.32 91.7736L95.6481 95.194L77.9761 98.6144L78.1321 99.4204L95.8041 96ZM95.6481 95.194L106.623 109.461C105.357 110.435 104.213 111.001 103.465 111.315L96.4801 94.726L89.4951 78.1366C88.0887 78.7288 86.3897 79.6065 84.6733 80.9268L95.6481 95.194ZM96.4801 94.726L103.165 111.439C102.548 111.685 101.84 111.906 101.05 112.064L97.5201 94.414L93.9901 76.7635C92.5069 77.0602 91.1057 77.4892 89.7951 78.0134L96.4801 94.726ZM97.5201 94.414H115.52V84.768H97.5201H79.5201V94.414H97.5201ZM97.5201 84.768L101.05 67.1175C101.84 67.2755 102.548 67.4965 103.165 67.7434L96.4801 84.456L89.7951 101.169C91.1057 101.693 92.5069 102.122 93.99 102.418L97.5201 84.768ZM96.4801 84.456L103.465 67.8666C104.213 68.1814 105.357 68.7472 106.623 69.7208L95.6481 83.988L84.6734 98.2552C86.3897 99.5755 88.0887 100.453 89.4951 101.045L96.4801 84.456ZM95.6481 83.988L113.32 87.4084L113.476 86.6024L95.8041 83.182L78.1321 79.7616L77.9761 80.5676L95.6481 83.988ZM95.8041 83.182V101.182H102.07V83.182V65.182H95.8041V83.182ZM102.07 83.182L84.5122 87.1467L84.6942 87.9527L102.252 83.988L119.81 80.0233L119.628 79.2173L102.07 83.182ZM102.252 83.988L91.2774 69.7208C92.6986 68.6275 93.9708 68.0388 94.7091 67.7434L101.394 84.456L108.079 101.169C109.511 100.596 111.355 99.6952 113.227 98.2552L102.252 83.988ZM101.394 84.456L94.7091 67.7434C95.2236 67.5376 95.8816 67.3205 96.6719 67.1541L100.38 84.768L104.088 102.382C105.537 102.077 106.871 101.652 108.079 101.169L101.394 84.456ZM100.38 84.768H82.3801V88.148H100.38H118.38V84.768H100.38ZM100.38 88.148V106.148H101.862V88.148V70.148H100.38V88.148ZM112.21 94.414L108.502 112.028C107.712 111.862 107.054 111.644 106.539 111.439L113.224 94.726L119.909 78.0134C118.701 77.5303 117.367 77.1052 115.918 76.8001L112.21 94.414ZM113.224 94.726L106.539 111.439C105.801 111.143 104.529 110.554 103.107 109.461L114.082 95.194L125.057 80.9268C123.185 79.4869 121.341 78.5861 119.909 78.0134L113.224 94.726ZM114.082 95.194L96.5242 91.2293L96.3422 92.0353L113.9 96L131.458 99.9647L131.64 99.1587L114.082 95.194ZM113.9 96V78H108.05V96V114H113.9V96ZM108.05 96L125.722 92.5796L125.566 91.7736L107.894 95.194L90.2221 98.6144L90.3781 99.4204L108.05 96ZM107.894 95.194L119.705 108.777C117.858 110.383 115.947 111.244 114.455 111.683L109.376 94.414L104.297 77.1454C101.626 77.9309 98.7275 79.3115 96.0829 81.6111L107.894 95.194ZM109.376 94.414H127.376V84.768H109.376H91.3761V94.414H109.376ZM109.376 84.768L113.084 67.1541C113.875 67.3205 114.533 67.5376 115.047 67.7434L108.362 84.456L101.677 101.169C102.885 101.652 104.219 102.077 105.668 102.382L109.376 84.768ZM108.362 84.456L115.047 67.7434C115.786 68.0388 117.058 68.6275 118.479 69.7208L107.504 83.988L96.5294 98.2552C98.4012 99.6951 100.245 100.596 101.677 101.169L108.362 84.456ZM107.504 83.988L125.062 87.9527L125.244 87.1467L107.686 83.182L90.1282 79.2173L89.9462 80.0233L107.504 83.988ZM107.686 83.182V101.182H113.9V83.182V65.182H107.686V83.182ZM113.9 83.182L96.3422 87.1467L96.5242 87.9527L114.082 83.988L131.64 80.0233L131.458 79.2173L113.9 83.182ZM114.082 83.988L103.107 69.7208C104.529 68.6275 105.801 68.0388 106.539 67.7434L113.224 84.456L119.909 101.169C121.341 100.596 123.185 99.6951 125.057 98.2552L114.082 83.988ZM113.224 84.456L106.539 67.7434C107.054 67.5376 107.712 67.3205 108.502 67.1541L112.21 84.768L115.918 102.382C117.367 102.077 118.701 101.652 119.909 101.169L113.224 84.456ZM112.21 84.768H94.2101V94.414H112.21H130.21V84.768H112.21ZM101.42 94.544V112.544C104.844 112.544 110.202 111.781 115.028 107.787L103.552 93.92L92.0759 80.0529C95.8966 76.891 99.834 76.544 101.42 76.544V94.544ZM103.552 93.92L115.305 107.553C120.573 103.012 122.306 96.9518 122.306 92.074H104.306H86.3061C86.3061 90.5942 86.5399 88.5653 87.4541 86.3272C88.4015 84.0076 89.8941 81.929 91.7992 80.2866L103.552 93.92ZM104.306 92.074H122.306C122.306 87.1962 120.573 81.1363 115.305 76.5946L103.552 90.228L91.7992 103.861C89.8941 102.219 88.4015 100.14 87.4541 97.8208C86.5399 95.5827 86.3061 93.5538 86.3061 92.074H104.306ZM103.552 90.228L115.305 76.5946C110.469 72.4256 105 71.578 101.42 71.578V89.578V107.578C99.6779 107.578 95.63 107.164 91.7992 103.861L103.552 90.228ZM101.42 89.578V71.578H100.328V89.578V107.578H101.42V89.578ZM100.328 89.578H82.3281V94.544H100.328H118.328V89.578H100.328ZM100.328 94.544V112.544H101.42V94.544V76.544H100.328V94.544Z" fill="#373F51" mask="url(#path-1-outside-1_382_5352)"/>
<path d="M209.407 72.96C209.407 78.72 207.567 83.52 203.887 87.36C200.207 91.2 194.967 93.76 188.167 95.04V108H180.487V95.88C179.767 95.96 178.687 96 177.247 96H168.967V108H161.287V96H142.447L141.607 91.44C144.007 89.84 146.887 88.6 150.247 87.72V20.28C146.887 19.4 144.007 18.16 141.607 16.56L142.447 12H161.287V-1.43051e-06H168.967V12H175.927C178.007 12 179.527 12.04 180.487 12.12V-1.43051e-06H188.167V13.44C193.767 14.8 198.087 17.2 201.127 20.64C204.247 24 205.807 28.12 205.807 33C205.807 37.64 204.327 41.56 201.367 44.76C198.487 47.88 194.487 49.96 189.367 51V51.84C195.607 52.96 200.487 55.36 204.007 59.04C207.607 62.72 209.407 67.36 209.407 72.96ZM191.287 34.2C191.287 29.48 189.807 25.84 186.847 23.28C183.967 20.72 179.847 19.44 174.487 19.44H164.407V48.84H174.487C179.767 48.84 183.887 47.56 186.847 45C189.807 42.36 191.287 38.76 191.287 34.2ZM175.687 88.56C181.847 88.56 186.527 87.16 189.727 84.36C193.007 81.56 194.647 77.52 194.647 72.24C194.647 67.04 193.007 63.04 189.727 60.24C186.447 57.36 181.767 55.92 175.687 55.92H164.407V88.56H175.687ZM271.351 85.32C268.871 88.6 265.791 91.28 262.111 93.36C258.511 95.44 254.671 96.68 250.591 97.08V108H242.911V96.84C235.151 95.88 228.911 92.68 224.191 87.24C219.551 81.8 217.231 75.04 217.231 66.96C217.231 58.56 219.551 51.56 224.191 45.96C228.831 40.36 235.071 37.04 242.911 36V24.84H250.591V35.76C256.111 36.08 260.471 37.6 263.671 40.32C266.871 43.04 268.471 46.52 268.471 50.76C268.471 52.12 268.271 53.52 267.871 54.96C267.471 56.4 266.951 57.6 266.311 58.56H257.551L255.031 43.44C252.951 42.72 250.871 42.36 248.791 42.36C243.431 42.36 239.111 44.52 235.831 48.84C232.631 53.16 231.031 58.84 231.031 65.88C231.031 72.92 232.791 78.6 236.311 82.92C239.831 87.16 244.431 89.28 250.111 89.28C253.391 89.28 256.511 88.56 259.471 87.12C262.511 85.6 265.031 83.56 267.031 81L271.351 85.32ZM335.983 73.08C335.983 79.56 333.863 84.88 329.623 89.04C325.463 93.2 319.663 95.76 312.223 96.72V108H304.543V97.2C300.143 97.12 295.743 96.6 291.343 95.64C286.943 94.6 283.343 93.32 280.543 91.8L281.743 69.24L287.863 68.88C289.943 73.2 291.463 79.28 292.423 87.12C296.823 88.88 301.063 89.76 305.143 89.76C310.103 89.76 314.103 88.48 317.143 85.92C320.263 83.36 321.823 80 321.823 75.84C321.823 73.04 321.023 70.6 319.423 68.52C317.823 66.44 315.823 64.68 313.423 63.24C311.023 61.8 307.743 60.04 303.583 57.96C298.623 55.48 294.623 53.28 291.583 51.36C288.623 49.36 286.063 46.84 283.903 43.8C281.823 40.76 280.783 37.12 280.783 32.88C280.783 26.96 282.903 22 287.143 18C291.463 14 297.263 11.68 304.543 11.04V-1.43051e-06H312.223V10.92C315.823 11.16 319.343 11.72 322.783 12.6C326.303 13.4 329.263 14.4 331.663 15.6L330.223 38.16L324.343 38.52C321.863 34.04 320.223 27.96 319.423 20.28C316.543 18.92 313.143 18.24 309.223 18.24C304.983 18.24 301.543 19.36 298.903 21.6C296.343 23.76 295.063 26.56 295.063 30C295.063 32.48 295.823 34.68 297.343 36.6C298.863 38.44 300.743 40.08 302.983 41.52C305.303 42.88 308.423 44.52 312.343 46.44C317.383 48.92 321.463 51.2 324.583 53.28C327.783 55.36 330.463 58.04 332.623 61.32C334.863 64.52 335.983 68.44 335.983 73.08ZM418.173 69.24L418.893 92.64C416.413 94 412.773 95.12 407.973 96C403.173 96.8 398.333 97.2 393.453 97.2C386.413 97.2 380.013 95.92 374.253 93.36C368.493 90.72 363.693 87.04 359.853 82.32C356.093 77.52 353.533 71.92 352.173 65.52H343.173V58.8H351.213C351.133 58 351.093 56.8 351.093 55.2C351.093 53.12 351.213 51.12 351.453 49.2H343.173V42.48H352.533C354.933 32.8 359.773 25.12 367.053 19.44C374.333 13.68 383.133 10.8 393.453 10.8C398.333 10.8 403.253 11.28 408.213 12.24C413.173 13.12 416.933 14.24 419.493 15.6L418.173 38.16L412.293 38.52C409.653 34.12 408.013 28.16 407.373 20.64C403.453 19.04 399.053 18.24 394.173 18.24C387.373 18.24 381.653 20.4 377.013 24.72C372.373 28.96 369.253 34.88 367.653 42.48H399.813V49.2H366.813C366.653 51.28 366.573 52.88 366.573 54C366.573 55.12 366.653 56.72 366.813 58.8H399.813V65.52H367.653C369.253 73.12 372.373 79.08 377.013 83.4C381.653 87.64 387.373 89.76 394.173 89.76C399.613 89.76 404.013 89 407.373 87.48C408.333 79.48 409.893 73.28 412.053 68.88L418.173 69.24ZM455.778 61.44V70.68H482.418V77.4H455.778V87.72C457.298 88.04 458.978 88.56 460.818 89.28C462.738 89.92 464.418 90.64 465.858 91.44L465.138 96H433.578L432.738 91.44C435.138 89.84 438.018 88.6 441.378 87.72V77.4H432.738V70.68H441.378V61.44H432.738V54.12H441.378V20.28C438.018 19.4 435.138 18.16 432.738 16.56L433.578 12H466.698C476.618 12 484.098 14.24 489.138 18.72C494.258 23.12 496.818 29.08 496.818 36.6C496.818 44.12 494.258 50.16 489.138 54.72C484.098 59.2 476.618 61.44 466.698 61.44H455.778ZM455.778 19.44V54.12H465.018C470.458 54.12 474.618 52.64 477.498 49.68C480.458 46.64 481.938 42.36 481.938 36.84C481.938 31.24 480.498 26.96 477.618 24C474.738 20.96 470.538 19.44 465.018 19.44H455.778Z" fill="#EDEFF1"/>
</svg>
