<svg width="499" height="120" viewBox="0 0 499 120" fill="none" xmlns="http://www.w3.org/2000/svg">
<mask id="path-1-outside-1_382_5355" maskUnits="userSpaceOnUse" x="-0.494141" y="54.2031" width="156" height="62" fill="black">
<rect fill="white" x="-0.494141" y="54.2031" width="156" height="62"/>
<path d="M32.8459 89.4091C33.5392 89.5825 34.1545 89.8511 34.6919 90.2151L34.5359 91.2031H28.1139L27.9319 90.2151C28.5039 89.8338 29.1019 89.5651 29.7259 89.4091V74.7451H24.7599L24.6039 78.3331C24.4652 81.4531 24.2139 83.9665 23.8499 85.8731C23.4859 87.7625 22.9659 89.1665 22.2899 90.0851C21.6312 91.0038 20.7645 91.4631 19.6899 91.4631C19.3779 91.4631 19.0659 91.4111 18.7539 91.3071C18.4419 91.2205 18.1905 91.0991 17.9999 90.9431V88.2131H21.1459C21.5445 87.5371 21.8825 86.3411 22.1599 84.6251C22.4545 82.9091 22.6539 80.8118 22.7579 78.3331L22.9139 74.7971C22.2205 74.6238 21.6052 74.3551 21.0679 73.9911L21.2239 73.0031H34.5359L34.6919 73.9911C34.1545 74.3551 33.5392 74.6238 32.8459 74.7971V89.4091ZM36.2242 90.3971C36.4496 90.2238 36.7269 90.0678 37.0562 89.9291C37.4029 89.7905 37.7496 89.6865 38.0962 89.6171V79.9711C37.7496 79.9018 37.4029 79.7978 37.0562 79.6591C36.7269 79.5205 36.4496 79.3645 36.2242 79.1911L36.3802 78.3851H42.2042L42.3602 79.1911C41.9616 79.5378 41.4676 79.7978 40.8782 79.9711V86.6531H41.0342L46.4162 80.2311V79.9711C45.8442 79.7978 45.3416 79.5378 44.9082 79.1911L45.0902 78.3851H50.8882L51.0702 79.1911C50.8449 79.3645 50.5589 79.5205 50.2122 79.6591C49.8656 79.7978 49.5276 79.9018 49.1982 79.9711V89.6171C49.5276 89.6865 49.8656 89.7905 50.2122 89.9291C50.5589 90.0678 50.8449 90.2238 51.0702 90.3971L50.8882 91.2031H45.0902L44.9082 90.3971C45.3416 90.0505 45.8442 89.7905 46.4162 89.6171V82.9351H46.2342L40.8782 89.3571V89.6171C41.4676 89.7905 41.9616 90.0505 42.3602 90.3971L42.2042 91.2031H36.3802L36.2242 90.3971ZM52.2118 78.3851H63.0798L62.9238 82.8571H61.7798C61.2251 81.9038 60.8525 80.9245 60.6618 79.9191H56.7358V89.6171C57.1691 89.6865 57.5678 89.7991 57.9318 89.9551C58.2958 90.0938 58.5818 90.2411 58.7898 90.3971L58.6078 91.2031H52.2118L52.0558 90.3971C52.2811 90.2238 52.5585 90.0678 52.8878 89.9291C53.2345 89.7905 53.5811 89.6865 53.9278 89.6171V79.9711C53.5811 79.9018 53.2345 79.7978 52.8878 79.6591C52.5585 79.5205 52.2811 79.3645 52.0558 79.1911L52.2118 78.3851ZM76.9041 89.4611L77.0601 90.3451C76.7134 90.6398 76.2627 90.8825 75.7081 91.0731C75.1534 91.2465 74.5987 91.3331 74.0441 91.3331C73.4201 91.3331 72.8741 91.1858 72.4061 90.8911L72.2241 89.3051H72.0681C71.5481 89.9811 70.9241 90.5098 70.1961 90.8911C69.4854 91.2725 68.7487 91.4631 67.9861 91.4631C66.7901 91.4631 65.8454 91.1598 65.1521 90.5531C64.4761 89.9291 64.1381 89.0798 64.1381 88.0051C64.1381 86.8265 64.6321 85.8905 65.6201 85.1971C66.6254 84.5038 67.9687 84.1571 69.6501 84.1571C70.4127 84.1571 71.2187 84.2178 72.0681 84.3391V82.4411C72.0681 81.5225 71.8514 80.8205 71.4181 80.3351C70.9847 79.8325 70.3607 79.5811 69.5461 79.5811C68.7487 79.5811 68.0814 79.7111 67.5441 79.9711L67.2061 82.7011H65.0741C64.8141 82.3371 64.6841 81.8865 64.6841 81.3491C64.6841 80.7598 64.9007 80.2225 65.3341 79.7371C65.7847 79.2345 66.3827 78.8445 67.1281 78.5671C67.8907 78.2725 68.7401 78.1251 69.6761 78.1251C71.3574 78.1251 72.6401 78.5151 73.5241 79.2951C74.4254 80.0751 74.8761 81.1845 74.8761 82.6231V89.4611H76.9041ZM69.0001 89.6431C69.5027 89.6431 70.0314 89.4785 70.5861 89.1491C71.1407 88.8198 71.6347 88.3691 72.0681 87.7971V85.5351H70.1181C69.0954 85.5351 68.3067 85.7258 67.7521 86.1071C67.2147 86.4711 66.9461 87.0085 66.9461 87.7191C66.9461 88.3431 67.1194 88.8198 67.4661 89.1491C67.8301 89.4785 68.3414 89.6431 69.0001 89.6431ZM76.991 78.3851H89.211L89.029 82.8571H87.937C87.3997 81.9385 87.0357 80.9591 86.845 79.9191H84.505V89.6171C84.8517 89.6865 85.1897 89.7905 85.519 89.9291C85.8657 90.0678 86.1517 90.2238 86.377 90.3971L86.221 91.2031H79.981L79.825 90.3971C80.0503 90.2238 80.3277 90.0678 80.657 89.9291C81.0037 89.7905 81.3503 89.6865 81.697 89.6171V79.9191H79.383C79.2097 80.9245 78.837 81.9038 78.265 82.8571H77.173L76.991 78.3851ZM103.388 78.3851L103.544 79.2171C103.145 79.5638 102.695 79.8151 102.192 79.9711L97.0181 94.9211C96.6888 95.8745 96.2815 96.5765 95.7961 97.0271C95.3108 97.4778 94.6261 97.7031 93.7421 97.7031C92.9621 97.7031 92.3208 97.5558 91.8181 97.2611V95.0511H95.1721L96.5241 91.2031H95.3541L91.0121 79.9711C90.5441 79.8325 90.0935 79.5811 89.6601 79.2171L89.8161 78.3851H95.3281L95.4841 79.2171C95.1028 79.5118 94.6435 79.7631 94.1061 79.9711L97.3041 88.5771H97.4601L100.398 79.9711C99.8088 79.7285 99.3495 79.4771 99.0201 79.2171L99.1761 78.3851H103.388ZM103.186 96.6371C103.394 96.4811 103.671 96.3251 104.018 96.1691C104.382 96.0305 104.763 95.9265 105.162 95.8571V79.9711C104.815 79.9018 104.469 79.7978 104.122 79.6591C103.793 79.5205 103.515 79.3645 103.29 79.1911L103.446 78.3851H107.606L107.814 80.2831H107.97C108.403 79.6418 108.984 79.1218 109.712 78.7231C110.44 78.3245 111.194 78.1251 111.974 78.1251C113.031 78.1251 113.967 78.3851 114.782 78.9051C115.614 79.4251 116.255 80.1791 116.706 81.1671C117.174 82.1551 117.408 83.3165 117.408 84.6511C117.408 85.9858 117.157 87.1731 116.654 88.2131C116.151 89.2531 115.458 90.0591 114.574 90.6311C113.69 91.1858 112.711 91.4631 111.636 91.4631C110.891 91.4631 110.215 91.3245 109.608 91.0471C109.019 90.7698 108.533 90.3885 108.152 89.9031H107.97V95.8571C108.403 95.9265 108.802 96.0305 109.166 96.1691C109.53 96.3251 109.816 96.4811 110.024 96.6371L109.842 97.4431H103.368L103.186 96.6371ZM111.064 89.7211C112.035 89.7211 112.832 89.2878 113.456 88.4211C114.08 87.5545 114.392 86.3325 114.392 84.7551C114.392 83.1778 114.097 81.9818 113.508 81.1671C112.919 80.3525 112.087 79.9451 111.012 79.9451C110.44 79.9451 109.868 80.1358 109.296 80.5171C108.741 80.8811 108.299 81.3058 107.97 81.7911V86.4191C107.97 87.3898 108.247 88.1871 108.802 88.8111C109.374 89.4178 110.128 89.7211 111.064 89.7211ZM124.935 83.3511C126.634 83.3511 127.96 83.6978 128.913 84.3911C129.867 85.0671 130.343 86.0291 130.343 87.2771C130.343 88.5251 129.867 89.4958 128.913 90.1891C127.96 90.8651 126.634 91.2031 124.935 91.2031H118.877L118.721 90.3971C118.947 90.2238 119.224 90.0678 119.553 89.9291C119.9 89.7905 120.247 89.6865 120.593 89.6171V79.9711C120.247 79.9018 119.9 79.7978 119.553 79.6591C119.224 79.5205 118.947 79.3645 118.721 79.1911L118.877 78.3851H125.143L125.325 79.1911C125.1 79.3645 124.814 79.5205 124.467 79.6591C124.121 79.7978 123.783 79.9018 123.453 79.9711V83.3511H124.935ZM135.283 89.6171C135.613 89.6865 135.951 89.7905 136.297 89.9291C136.644 90.0678 136.93 90.2238 137.155 90.3971L136.973 91.2031H131.123L130.967 90.3971C131.366 90.0505 131.86 89.7905 132.449 89.6171V79.9711C132.12 79.9018 131.782 79.7978 131.435 79.6591C131.089 79.5205 130.803 79.3645 130.577 79.1911L130.759 78.3851H136.973L137.155 79.1911C136.93 79.3645 136.644 79.5205 136.297 79.6591C135.951 79.7978 135.613 79.9018 135.283 79.9711V89.6171ZM124.493 89.7471C125.412 89.7471 126.123 89.5391 126.625 89.1231C127.128 88.6898 127.379 88.0745 127.379 87.2771C127.379 86.4798 127.128 85.8645 126.625 85.4311C126.123 84.9978 125.412 84.7811 124.493 84.7811H123.401V89.7471H124.493Z"/>
</mask>
<path d="M32.8459 89.4091C33.5392 89.5825 34.1545 89.8511 34.6919 90.2151L34.5359 91.2031H28.1139L27.9319 90.2151C28.5039 89.8338 29.1019 89.5651 29.7259 89.4091V74.7451H24.7599L24.6039 78.3331C24.4652 81.4531 24.2139 83.9665 23.8499 85.8731C23.4859 87.7625 22.9659 89.1665 22.2899 90.0851C21.6312 91.0038 20.7645 91.4631 19.6899 91.4631C19.3779 91.4631 19.0659 91.4111 18.7539 91.3071C18.4419 91.2205 18.1905 91.0991 17.9999 90.9431V88.2131H21.1459C21.5445 87.5371 21.8825 86.3411 22.1599 84.6251C22.4545 82.9091 22.6539 80.8118 22.7579 78.3331L22.9139 74.7971C22.2205 74.6238 21.6052 74.3551 21.0679 73.9911L21.2239 73.0031H34.5359L34.6919 73.9911C34.1545 74.3551 33.5392 74.6238 32.8459 74.7971V89.4091ZM36.2242 90.3971C36.4496 90.2238 36.7269 90.0678 37.0562 89.9291C37.4029 89.7905 37.7496 89.6865 38.0962 89.6171V79.9711C37.7496 79.9018 37.4029 79.7978 37.0562 79.6591C36.7269 79.5205 36.4496 79.3645 36.2242 79.1911L36.3802 78.3851H42.2042L42.3602 79.1911C41.9616 79.5378 41.4676 79.7978 40.8782 79.9711V86.6531H41.0342L46.4162 80.2311V79.9711C45.8442 79.7978 45.3416 79.5378 44.9082 79.1911L45.0902 78.3851H50.8882L51.0702 79.1911C50.8449 79.3645 50.5589 79.5205 50.2122 79.6591C49.8656 79.7978 49.5276 79.9018 49.1982 79.9711V89.6171C49.5276 89.6865 49.8656 89.7905 50.2122 89.9291C50.5589 90.0678 50.8449 90.2238 51.0702 90.3971L50.8882 91.2031H45.0902L44.9082 90.3971C45.3416 90.0505 45.8442 89.7905 46.4162 89.6171V82.9351H46.2342L40.8782 89.3571V89.6171C41.4676 89.7905 41.9616 90.0505 42.3602 90.3971L42.2042 91.2031H36.3802L36.2242 90.3971ZM52.2118 78.3851H63.0798L62.9238 82.8571H61.7798C61.2251 81.9038 60.8525 80.9245 60.6618 79.9191H56.7358V89.6171C57.1691 89.6865 57.5678 89.7991 57.9318 89.9551C58.2958 90.0938 58.5818 90.2411 58.7898 90.3971L58.6078 91.2031H52.2118L52.0558 90.3971C52.2811 90.2238 52.5585 90.0678 52.8878 89.9291C53.2345 89.7905 53.5811 89.6865 53.9278 89.6171V79.9711C53.5811 79.9018 53.2345 79.7978 52.8878 79.6591C52.5585 79.5205 52.2811 79.3645 52.0558 79.1911L52.2118 78.3851ZM76.9041 89.4611L77.0601 90.3451C76.7134 90.6398 76.2627 90.8825 75.7081 91.0731C75.1534 91.2465 74.5987 91.3331 74.0441 91.3331C73.4201 91.3331 72.8741 91.1858 72.4061 90.8911L72.2241 89.3051H72.0681C71.5481 89.9811 70.9241 90.5098 70.1961 90.8911C69.4854 91.2725 68.7487 91.4631 67.9861 91.4631C66.7901 91.4631 65.8454 91.1598 65.1521 90.5531C64.4761 89.9291 64.1381 89.0798 64.1381 88.0051C64.1381 86.8265 64.6321 85.8905 65.6201 85.1971C66.6254 84.5038 67.9687 84.1571 69.6501 84.1571C70.4127 84.1571 71.2187 84.2178 72.0681 84.3391V82.4411C72.0681 81.5225 71.8514 80.8205 71.4181 80.3351C70.9847 79.8325 70.3607 79.5811 69.5461 79.5811C68.7487 79.5811 68.0814 79.7111 67.5441 79.9711L67.2061 82.7011H65.0741C64.8141 82.3371 64.6841 81.8865 64.6841 81.3491C64.6841 80.7598 64.9007 80.2225 65.3341 79.7371C65.7847 79.2345 66.3827 78.8445 67.1281 78.5671C67.8907 78.2725 68.7401 78.1251 69.6761 78.1251C71.3574 78.1251 72.6401 78.5151 73.5241 79.2951C74.4254 80.0751 74.8761 81.1845 74.8761 82.6231V89.4611H76.9041ZM69.0001 89.6431C69.5027 89.6431 70.0314 89.4785 70.5861 89.1491C71.1407 88.8198 71.6347 88.3691 72.0681 87.7971V85.5351H70.1181C69.0954 85.5351 68.3067 85.7258 67.7521 86.1071C67.2147 86.4711 66.9461 87.0085 66.9461 87.7191C66.9461 88.3431 67.1194 88.8198 67.4661 89.1491C67.8301 89.4785 68.3414 89.6431 69.0001 89.6431ZM76.991 78.3851H89.211L89.029 82.8571H87.937C87.3997 81.9385 87.0357 80.9591 86.845 79.9191H84.505V89.6171C84.8517 89.6865 85.1897 89.7905 85.519 89.9291C85.8657 90.0678 86.1517 90.2238 86.377 90.3971L86.221 91.2031H79.981L79.825 90.3971C80.0503 90.2238 80.3277 90.0678 80.657 89.9291C81.0037 89.7905 81.3503 89.6865 81.697 89.6171V79.9191H79.383C79.2097 80.9245 78.837 81.9038 78.265 82.8571H77.173L76.991 78.3851ZM103.388 78.3851L103.544 79.2171C103.145 79.5638 102.695 79.8151 102.192 79.9711L97.0181 94.9211C96.6888 95.8745 96.2815 96.5765 95.7961 97.0271C95.3108 97.4778 94.6261 97.7031 93.7421 97.7031C92.9621 97.7031 92.3208 97.5558 91.8181 97.2611V95.0511H95.1721L96.5241 91.2031H95.3541L91.0121 79.9711C90.5441 79.8325 90.0935 79.5811 89.6601 79.2171L89.8161 78.3851H95.3281L95.4841 79.2171C95.1028 79.5118 94.6435 79.7631 94.1061 79.9711L97.3041 88.5771H97.4601L100.398 79.9711C99.8088 79.7285 99.3495 79.4771 99.0201 79.2171L99.1761 78.3851H103.388ZM103.186 96.6371C103.394 96.4811 103.671 96.3251 104.018 96.1691C104.382 96.0305 104.763 95.9265 105.162 95.8571V79.9711C104.815 79.9018 104.469 79.7978 104.122 79.6591C103.793 79.5205 103.515 79.3645 103.29 79.1911L103.446 78.3851H107.606L107.814 80.2831H107.97C108.403 79.6418 108.984 79.1218 109.712 78.7231C110.44 78.3245 111.194 78.1251 111.974 78.1251C113.031 78.1251 113.967 78.3851 114.782 78.9051C115.614 79.4251 116.255 80.1791 116.706 81.1671C117.174 82.1551 117.408 83.3165 117.408 84.6511C117.408 85.9858 117.157 87.1731 116.654 88.2131C116.151 89.2531 115.458 90.0591 114.574 90.6311C113.69 91.1858 112.711 91.4631 111.636 91.4631C110.891 91.4631 110.215 91.3245 109.608 91.0471C109.019 90.7698 108.533 90.3885 108.152 89.9031H107.97V95.8571C108.403 95.9265 108.802 96.0305 109.166 96.1691C109.53 96.3251 109.816 96.4811 110.024 96.6371L109.842 97.4431H103.368L103.186 96.6371ZM111.064 89.7211C112.035 89.7211 112.832 89.2878 113.456 88.4211C114.08 87.5545 114.392 86.3325 114.392 84.7551C114.392 83.1778 114.097 81.9818 113.508 81.1671C112.919 80.3525 112.087 79.9451 111.012 79.9451C110.44 79.9451 109.868 80.1358 109.296 80.5171C108.741 80.8811 108.299 81.3058 107.97 81.7911V86.4191C107.97 87.3898 108.247 88.1871 108.802 88.8111C109.374 89.4178 110.128 89.7211 111.064 89.7211ZM124.935 83.3511C126.634 83.3511 127.96 83.6978 128.913 84.3911C129.867 85.0671 130.343 86.0291 130.343 87.2771C130.343 88.5251 129.867 89.4958 128.913 90.1891C127.96 90.8651 126.634 91.2031 124.935 91.2031H118.877L118.721 90.3971C118.947 90.2238 119.224 90.0678 119.553 89.9291C119.9 89.7905 120.247 89.6865 120.593 89.6171V79.9711C120.247 79.9018 119.9 79.7978 119.553 79.6591C119.224 79.5205 118.947 79.3645 118.721 79.1911L118.877 78.3851H125.143L125.325 79.1911C125.1 79.3645 124.814 79.5205 124.467 79.6591C124.121 79.7978 123.783 79.9018 123.453 79.9711V83.3511H124.935ZM135.283 89.6171C135.613 89.6865 135.951 89.7905 136.297 89.9291C136.644 90.0678 136.93 90.2238 137.155 90.3971L136.973 91.2031H131.123L130.967 90.3971C131.366 90.0505 131.86 89.7905 132.449 89.6171V79.9711C132.12 79.9018 131.782 79.7978 131.435 79.6591C131.089 79.5205 130.803 79.3645 130.577 79.1911L130.759 78.3851H136.973L137.155 79.1911C136.93 79.3645 136.644 79.5205 136.297 79.6591C135.951 79.7978 135.613 79.9018 135.283 79.9711V89.6171ZM124.493 89.7471C125.412 89.7471 126.123 89.5391 126.625 89.1231C127.128 88.6898 127.379 88.0745 127.379 87.2771C127.379 86.4798 127.128 85.8645 126.625 85.4311C126.123 84.9978 125.412 84.7811 124.493 84.7811H123.401V89.7471H124.493Z" fill="#A5D0FD"/>
<path d="M32.8459 89.4091H14.8459C14.8459 97.6687 20.4672 104.868 28.4802 106.872L32.8459 89.4091ZM34.6919 90.2151L52.4716 93.0224C53.5601 86.1286 50.5654 79.2269 44.7871 75.3126L34.6919 90.2151ZM34.5359 91.2031V109.203C43.3932 109.203 50.9342 102.759 52.3156 94.0104L34.5359 91.2031ZM28.1139 91.2031L10.4117 94.464C11.9848 103.004 19.4304 109.203 28.1139 109.203V91.2031ZM27.9319 90.2151L17.9473 75.2382C11.9612 79.2289 8.92636 86.4008 10.2297 93.476L27.9319 90.2151ZM29.7259 89.4091L34.0915 106.872C42.1045 104.868 47.7259 97.6687 47.7259 89.4091H29.7259ZM29.7259 74.7451H47.7259C47.7259 64.804 39.667 56.7451 29.7259 56.7451L29.7259 74.7451ZM24.7599 74.7451V56.7451C15.1228 56.7451 7.19546 64.3353 6.77685 73.9633L24.7599 74.7451ZM24.6039 78.3331L42.5861 79.1323C42.5864 79.1266 42.5866 79.1208 42.5869 79.115L24.6039 78.3331ZM23.8499 85.8731L41.5248 89.2784C41.5267 89.2684 41.5286 89.2585 41.5305 89.2485L23.8499 85.8731ZM22.2899 90.0851L7.79198 79.4169C7.74806 79.4766 7.70451 79.5365 7.66133 79.5967L22.2899 90.0851ZM18.7539 91.3071L24.446 74.2308C24.1568 74.1344 23.8652 74.0454 23.5714 73.9638L18.7539 91.3071ZM17.9999 90.9431H-0.000141144C-0.000141144 96.3419 2.42314 101.456 6.60158 104.874L17.9999 90.9431ZM17.9999 88.2131V70.2131C8.05873 70.2131 -0.000141144 78.272 -0.000141144 88.2131H17.9999ZM21.1459 88.2131V106.213C27.5172 106.213 33.4139 102.845 36.6504 97.3569L21.1459 88.2131ZM22.1599 84.6251L4.41951 81.5788C4.40953 81.6369 4.39984 81.6951 4.39043 81.7533L22.1599 84.6251ZM22.7579 78.3331L4.77535 77.5398C4.77478 77.5527 4.77423 77.5656 4.77368 77.5785L22.7579 78.3331ZM22.9139 74.7971L40.8964 75.5905C41.2735 67.0422 35.5806 59.4098 27.2795 57.3346L22.9139 74.7971ZM21.0679 73.9911L3.28813 71.1838C2.19963 78.0776 5.19434 84.9794 10.9726 88.8937L21.0679 73.9911ZM21.2239 73.0031V55.0031C12.3665 55.0031 4.82554 61.4469 3.44413 70.1958L21.2239 73.0031ZM34.5359 73.0031L52.3156 70.1958C50.9342 61.4469 43.3932 55.0031 34.5359 55.0031V73.0031ZM34.6919 73.9911L44.7871 88.8936C50.5654 84.9793 53.5601 78.0776 52.4716 71.1838L34.6919 73.9911ZM32.8459 74.7971L28.4802 57.3346C20.4672 59.3378 14.8459 66.5375 14.8459 74.7971H32.8459ZM32.8459 89.4091L28.4802 106.872C27.3349 106.585 25.9723 106.05 24.5966 105.118L34.6919 90.2151L44.7871 75.3126C42.3367 73.6526 39.7435 72.5796 37.2115 71.9466L32.8459 89.4091ZM34.6919 90.2151L16.9121 87.4078L16.7561 88.3958L34.5359 91.2031L52.3156 94.0104L52.4716 93.0224L34.6919 90.2151ZM34.5359 91.2031V73.2031H28.1139V91.2031V109.203H34.5359V91.2031ZM28.1139 91.2031L45.816 87.9422L45.634 86.9542L27.9319 90.2151L10.2297 93.476L10.4117 94.464L28.1139 91.2031ZM27.9319 90.2151L37.9165 105.192C36.8905 105.876 35.603 106.494 34.0915 106.872L29.7259 89.4091L25.3602 71.9466C22.6008 72.6364 20.1173 73.7916 17.9473 75.2382L27.9319 90.2151ZM29.7259 89.4091H47.7259V74.7451H29.7259H11.7259V89.4091H29.7259ZM29.7259 74.7451V56.7451H24.7599V74.7451V92.7451H29.7259V74.7451ZM24.7599 74.7451L6.77685 73.9633L6.62085 77.5513L24.6039 78.3331L42.5869 79.115L42.7429 75.527L24.7599 74.7451ZM24.6039 78.3331L6.62161 77.5339C6.50127 80.2416 6.30364 81.7934 6.16917 82.4977L23.8499 85.8731L41.5305 89.2485C42.1241 86.1395 42.4291 82.6647 42.5861 79.1323L24.6039 78.3331ZM23.8499 85.8731L6.1749 82.4679C6.12985 82.7017 6.14405 82.5325 6.30738 82.0915C6.46016 81.679 6.87897 80.6576 7.79198 79.4169L22.2899 90.0851L36.7877 100.753C39.7822 96.6839 40.9571 92.2249 41.5248 89.2784L23.8499 85.8731ZM22.2899 90.0851L7.66133 79.5967C8.70492 78.1412 10.3434 76.4721 12.7166 75.2143C15.122 73.9394 17.5754 73.4631 19.6899 73.4631V91.4631V109.463C26.912 109.463 33.0857 105.919 36.9184 100.574L22.2899 90.0851ZM19.6899 91.4631V73.4631C21.4151 73.4631 23.0224 73.7563 24.446 74.2308L18.7539 91.3071L13.0618 108.383C15.1093 109.066 17.3406 109.463 19.6899 109.463V91.4631ZM18.7539 91.3071L23.5714 73.9638C24.9449 74.3453 27.1502 75.1726 29.3981 77.0119L17.9999 90.9431L6.60158 104.874C9.23088 107.026 11.9388 108.096 13.9363 108.65L18.7539 91.3071ZM17.9999 90.9431H35.9999V88.2131H17.9999H-0.000141144V90.9431H17.9999ZM17.9999 88.2131V106.213H21.1459V88.2131V70.2131H17.9999V88.2131ZM21.1459 88.2131L36.6504 97.3569C38.9032 93.5369 39.6233 89.3901 39.9293 87.497L22.1599 84.6251L4.39043 81.7533C4.32226 82.1751 4.30033 82.1845 4.37679 81.9139C4.41856 81.7661 4.51347 81.4499 4.68373 81.0173C4.8474 80.6014 5.14721 79.9071 5.64127 79.0694L21.1459 88.2131ZM22.1599 84.6251L39.9002 87.6714C40.3668 84.9545 40.6181 82.041 40.742 79.0877L22.7579 78.3331L4.77368 77.5785C4.6896 79.5826 4.54229 80.8638 4.41951 81.5788L22.1599 84.6251ZM22.7579 78.3331L40.7404 79.1265L40.8964 75.5905L22.9139 74.7971L4.93135 74.0038L4.77535 77.5398L22.7579 78.3331ZM22.9139 74.7971L27.2795 57.3346C28.4248 57.6209 29.7874 58.1566 31.1631 59.0886L21.0679 73.9911L10.9726 88.8937C13.423 90.5536 16.0162 91.6267 18.5482 92.2597L22.9139 74.7971ZM21.0679 73.9911L38.8476 76.7984L39.0036 75.8104L21.2239 73.0031L3.44413 70.1958L3.28813 71.1838L21.0679 73.9911ZM21.2239 73.0031V91.0031H34.5359V73.0031V55.0031H21.2239V73.0031ZM34.5359 73.0031L16.7561 75.8104L16.9121 76.7984L34.6919 73.9911L52.4716 71.1838L52.3156 70.1958L34.5359 73.0031ZM34.6919 73.9911L24.5966 59.0886C25.9723 58.1566 27.3349 57.6209 28.4802 57.3346L32.8459 74.7971L37.2115 92.2597C39.7435 91.6267 42.3367 90.5536 44.7871 88.8936L34.6919 73.9911ZM32.8459 74.7971H14.8459V89.4091H32.8459H50.8459V74.7971H32.8459ZM36.2242 90.3971L25.2494 76.1299C19.8499 80.2834 17.2577 87.1293 18.5522 93.8175L36.2242 90.3971ZM37.0562 89.9291L30.3712 73.2165C30.2708 73.2567 30.1708 73.2977 30.0712 73.3397L37.0562 89.9291ZM38.0962 89.6171L41.6263 107.268C50.04 105.585 56.0962 98.1974 56.0962 89.6171H38.0962ZM38.0962 79.9711H56.0962C56.0962 71.3909 50.04 64.0034 41.6263 62.3207L38.0962 79.9711ZM37.0562 79.6591L30.0712 96.2486C30.1708 96.2905 30.2708 96.3316 30.3712 96.3717L37.0562 79.6591ZM36.2242 79.1911L18.5522 75.7707C17.2577 82.4589 19.8499 89.3048 25.2494 93.4584L36.2242 79.1911ZM36.3802 78.3851V60.3851C27.7579 60.3851 20.3466 66.4995 18.7082 74.9647L36.3802 78.3851ZM42.2042 78.3851L59.8763 74.9647C58.2378 66.4995 50.8265 60.3851 42.2042 60.3851V78.3851ZM42.3602 79.1911L54.1714 92.774C59.0195 88.5583 61.2531 82.0783 60.0323 75.7707L42.3602 79.1911ZM40.8782 79.9711L35.7992 62.7025C28.1387 64.9556 22.8782 71.9862 22.8782 79.9711H40.8782ZM40.8782 86.6531H22.8782C22.8782 96.5942 30.9371 104.653 40.8782 104.653V86.6531ZM41.0342 86.6531V104.653C46.3588 104.653 51.4101 102.296 54.8301 98.2149L41.0342 86.6531ZM46.4162 80.2311L60.2121 91.7929C62.9279 88.5523 64.4162 84.4592 64.4162 80.2311H46.4162ZM46.4162 79.9711H64.4162C64.4162 72.0407 59.226 65.0446 51.6364 62.7447L46.4162 79.9711ZM44.9082 79.1911L27.3503 75.2264C25.8329 81.9464 28.2842 88.9431 33.6637 93.2468L44.9082 79.1911ZM45.0902 78.3851V60.3851C36.6767 60.3851 29.3855 66.2135 27.5323 74.4204L45.0902 78.3851ZM50.8882 78.3851L68.4462 74.4204C66.593 66.2135 59.3018 60.3851 50.8882 60.3851V78.3851ZM51.0702 79.1911L62.045 93.4584C67.6037 89.1824 70.1729 82.0673 68.6282 75.2264L51.0702 79.1911ZM50.2122 79.6591L43.5272 62.9465L43.5272 62.9466L50.2122 79.6591ZM49.1982 79.9711L45.49 62.3572C37.1607 64.1108 31.1982 71.4592 31.1982 79.9711H49.1982ZM49.1982 89.6171H31.1982C31.1982 98.1291 37.1607 105.477 45.4901 107.231L49.1982 89.6171ZM51.0702 90.3971L68.6282 94.3618C70.1729 87.521 67.6037 80.4058 62.045 76.1299L51.0702 90.3971ZM50.8882 91.2031V109.203C59.3018 109.203 66.593 103.375 68.4462 95.1678L50.8882 91.2031ZM45.0902 91.2031L27.5323 95.1678C29.3855 103.375 36.6767 109.203 45.0902 109.203V91.2031ZM44.9082 90.3971L33.6637 76.3415C28.2842 80.6451 25.8329 87.6418 27.3503 94.3618L44.9082 90.3971ZM46.4162 89.6171L51.6364 106.844C59.226 104.544 64.4162 97.5476 64.4162 89.6171H46.4162ZM46.4162 82.9351H64.4162C64.4162 72.994 56.3574 64.9351 46.4162 64.9351V82.9351ZM46.2342 82.9351V64.9351C40.8947 64.9351 35.8308 67.3057 32.4108 71.4063L46.2342 82.9351ZM40.8782 89.3571L27.0548 77.8283C24.3562 81.064 22.8782 85.1438 22.8782 89.3571H40.8782ZM40.8782 89.6171H22.8782C22.8782 97.6021 28.1388 104.633 35.7992 106.886L40.8782 89.6171ZM42.3602 90.3971L60.0323 93.8175C61.2531 87.51 59.0195 81.0299 54.1715 76.8142L42.3602 90.3971ZM42.2042 91.2031V109.203C50.8265 109.203 58.2378 103.089 59.8763 94.6235L42.2042 91.2031ZM36.3802 91.2031L18.7082 94.6235C20.3466 103.089 27.7579 109.203 36.3802 109.203V91.2031ZM36.2242 90.3971L47.199 104.664C45.9334 105.638 44.789 106.204 44.0413 106.519L37.0562 89.9291L30.0712 73.3397C28.6648 73.9319 26.9658 74.8096 25.2494 76.1299L36.2242 90.3971ZM37.0562 89.9291L43.7413 106.642C43.124 106.889 42.4162 107.11 41.6263 107.268L38.0962 89.6171L34.5661 71.9667C33.083 72.2633 31.6818 72.6923 30.3712 73.2165L37.0562 89.9291ZM38.0962 89.6171H56.0962V79.9711H38.0962H20.0962V89.6171H38.0962ZM38.0962 79.9711L41.6263 62.3207C42.4162 62.4786 43.124 62.6996 43.7413 62.9465L37.0562 79.6591L30.3712 96.3717C31.6818 96.896 33.083 97.3249 34.5661 97.6216L38.0962 79.9711ZM37.0562 79.6591L44.0413 63.0697C44.789 63.3845 45.9334 63.9503 47.199 64.9239L36.2242 79.1911L25.2494 93.4584C26.9658 94.7786 28.6648 95.6564 30.0712 96.2486L37.0562 79.6591ZM36.2242 79.1911L53.8963 82.6115L54.0523 81.8055L36.3802 78.3851L18.7082 74.9647L18.5522 75.7707L36.2242 79.1911ZM36.3802 78.3851V96.3851H42.2042V78.3851V60.3851H36.3802V78.3851ZM42.2042 78.3851L24.5322 81.8055L24.6882 82.6115L42.3602 79.1911L60.0323 75.7707L59.8763 74.9647L42.2042 78.3851ZM42.3602 79.1911L30.549 65.6082C32.3963 64.0019 34.3071 63.1414 35.7992 62.7025L40.8782 79.9711L45.9572 97.2397C48.628 96.4542 51.5269 95.0737 54.1714 92.774L42.3602 79.1911ZM40.8782 79.9711H22.8782V86.6531H40.8782H58.8782V79.9711H40.8782ZM40.8782 86.6531V104.653H41.0342V86.6531V68.6531H40.8782V86.6531ZM41.0342 86.6531L54.8301 98.2149L60.2121 91.7929L46.4162 80.2311L32.6204 68.6694L27.2384 75.0914L41.0342 86.6531ZM46.4162 80.2311H64.4162V79.9711H46.4162H28.4162V80.2311H46.4162ZM46.4162 79.9711L51.6364 62.7447C53.0857 63.1839 54.6641 63.9446 56.1527 65.1355L44.9082 79.1911L33.6637 93.2468C36.019 95.131 38.6027 96.4117 41.1961 97.1976L46.4162 79.9711ZM44.9082 79.1911L62.4662 83.1558L62.6482 82.3498L45.0902 78.3851L27.5323 74.4204L27.3503 75.2264L44.9082 79.1911ZM45.0902 78.3851V96.3851H50.8882V78.3851V60.3851H45.0902V78.3851ZM50.8882 78.3851L33.3303 82.3498L33.5123 83.1558L51.0702 79.1911L68.6282 75.2264L68.4462 74.4204L50.8882 78.3851ZM51.0702 79.1911L40.0955 64.9239C41.5167 63.8306 42.7889 63.2419 43.5272 62.9465L50.2122 79.6591L56.8973 96.3717C58.3289 95.799 60.1731 94.8983 62.045 93.4584L51.0702 79.1911ZM50.2122 79.6591L43.5272 62.9466C44.0417 62.7407 44.6997 62.5236 45.49 62.3572L49.1982 79.9711L52.9064 97.585C54.3555 97.28 55.6894 96.8549 56.8973 96.3717L50.2122 79.6591ZM49.1982 79.9711H31.1982V89.6171H49.1982H67.1982V79.9711H49.1982ZM49.1982 89.6171L45.4901 107.231C44.6997 107.065 44.0417 106.848 43.5272 106.642L50.2122 89.9291L56.8973 73.2165C55.6894 72.7334 54.3555 72.3083 52.9064 72.0032L49.1982 89.6171ZM50.2122 89.9291L43.5272 106.642C42.7888 106.346 41.5167 105.758 40.0954 104.664L51.0702 90.3971L62.045 76.1299C60.1731 74.69 58.329 73.7892 56.8973 73.2165L50.2122 89.9291ZM51.0702 90.3971L33.5123 86.4324L33.3303 87.2384L50.8882 91.2031L68.4462 95.1678L68.6282 94.3618L51.0702 90.3971ZM50.8882 91.2031V73.2031H45.0902V91.2031V109.203H50.8882V91.2031ZM45.0902 91.2031L62.6482 87.2384L62.4662 86.4324L44.9082 90.3971L27.3503 94.3618L27.5323 95.1678L45.0902 91.2031ZM44.9082 90.3971L56.1527 104.453C54.6641 105.644 53.0857 106.404 51.6364 106.844L46.4162 89.6171L41.1961 72.3907C38.6027 73.1766 36.019 74.4573 33.6637 76.3415L44.9082 90.3971ZM46.4162 89.6171H64.4162V82.9351H46.4162H28.4162V89.6171H46.4162ZM46.4162 82.9351V64.9351H46.2342V82.9351V100.935H46.4162V82.9351ZM46.2342 82.9351L32.4108 71.4063L27.0548 77.8283L40.8782 89.3571L54.7016 100.886L60.0576 94.4639L46.2342 82.9351ZM40.8782 89.3571H22.8782V89.6171H40.8782H58.8782V89.3571H40.8782ZM40.8782 89.6171L35.7992 106.886C34.3071 106.447 32.3963 105.586 30.549 103.98L42.3602 90.3971L54.1715 76.8142C51.5269 74.5146 48.628 73.1341 45.9572 72.3485L40.8782 89.6171ZM42.3602 90.3971L24.6882 86.9767L24.5322 87.7827L42.2042 91.2031L59.8763 94.6235L60.0323 93.8175L42.3602 90.3971ZM42.2042 91.2031V73.2031H36.3802V91.2031V109.203H42.2042V91.2031ZM36.3802 91.2031L54.0523 87.7827L53.8963 86.9767L36.2242 90.3971L18.5522 93.8175L18.7082 94.6235L36.3802 91.2031ZM52.2118 78.3851V60.3851C43.5895 60.3851 36.1782 66.4995 34.5398 74.9647L52.2118 78.3851ZM63.0798 78.3851L81.0689 79.0126C81.2391 74.1329 79.4196 69.3933 76.0277 65.881C72.6358 62.3687 67.9625 60.3851 63.0798 60.3851V78.3851ZM62.9238 82.8571V100.857C72.6207 100.857 80.5748 93.1756 80.9129 83.4846L62.9238 82.8571ZM61.7798 82.8571L46.2215 91.9092C49.4447 97.4491 55.3705 100.857 61.7798 100.857V82.8571ZM60.6618 79.9191L78.3466 76.5651C76.7352 68.0688 69.3096 61.9191 60.6618 61.9191V79.9191ZM56.7358 79.9191V61.9191C46.7947 61.9191 38.7358 69.978 38.7358 79.9191H56.7358ZM56.7358 89.6171H38.7358C38.7358 98.4605 45.1597 105.994 53.892 107.391L56.7358 89.6171ZM57.9318 89.9551L50.8413 106.5C51.0669 106.596 51.2945 106.689 51.5239 106.776L57.9318 89.9551ZM58.7898 90.3971L76.3477 94.3618C77.9099 87.4435 75.2638 80.2527 69.5898 75.9971L58.7898 90.3971ZM58.6078 91.2031V109.203C67.0214 109.203 74.3126 103.375 76.1657 95.1678L58.6078 91.2031ZM52.2118 91.2031L34.5398 94.6235C36.1782 103.089 43.5895 109.203 52.2118 109.203V91.2031ZM52.0558 90.3971L41.081 76.1299C35.6814 80.2834 33.0893 87.1293 34.3838 93.8175L52.0558 90.3971ZM52.8878 89.9291L46.2028 73.2165C46.1024 73.2567 46.0024 73.2977 45.9028 73.3397L52.8878 89.9291ZM53.9278 89.6171L57.4579 107.268C65.8715 105.585 71.9278 98.1974 71.9278 89.6171H53.9278ZM53.9278 79.9711H71.9278C71.9278 71.3909 65.8715 64.0034 57.4579 62.3207L53.9278 79.9711ZM52.8878 79.6591L45.9028 96.2486C46.0024 96.2905 46.1024 96.3316 46.2028 96.3717L52.8878 79.6591ZM52.0558 79.1911L34.3838 75.7707C33.0893 82.4589 35.6814 89.3048 41.081 93.4584L52.0558 79.1911ZM52.2118 78.3851V96.3851H63.0798V78.3851V60.3851H52.2118V78.3851ZM63.0798 78.3851L45.0907 77.7576L44.9347 82.2296L62.9238 82.8571L80.9129 83.4846L81.0689 79.0126L63.0798 78.3851ZM62.9238 82.8571V64.8571H61.7798V82.8571V100.857H62.9238V82.8571ZM61.7798 82.8571L77.3381 73.805C77.7302 74.4789 78.1281 75.4134 78.3466 76.5651L60.6618 79.9191L42.977 83.2731C43.5768 86.4355 44.7201 89.3286 46.2215 91.9092L61.7798 82.8571ZM60.6618 79.9191V61.9191H56.7358V79.9191V97.9191H60.6618V79.9191ZM56.7358 79.9191H38.7358V89.6171H56.7358H74.7358V79.9191H56.7358ZM56.7358 89.6171L53.892 107.391C53.0201 107.252 51.9744 106.985 50.8413 106.5L57.9318 89.9551L65.0223 73.4105C63.1612 72.6129 61.3182 72.1214 59.5796 71.8432L56.7358 89.6171ZM57.9318 89.9551L51.5239 106.776C51.2048 106.654 50.7376 106.46 50.1761 106.171C49.6247 105.887 48.8545 105.446 47.9898 104.797L58.7898 90.3971L69.5898 75.9971C67.5484 74.4661 65.5751 73.605 64.3397 73.1343L57.9318 89.9551ZM58.7898 90.3971L41.2319 86.4324L41.0499 87.2384L58.6078 91.2031L76.1657 95.1678L76.3477 94.3618L58.7898 90.3971ZM58.6078 91.2031V73.2031H52.2118V91.2031V109.203H58.6078V91.2031ZM52.2118 91.2031L69.8838 87.7827L69.7278 86.9767L52.0558 90.3971L34.3838 93.8175L34.5398 94.6235L52.2118 91.2031ZM52.0558 90.3971L63.0306 104.664C61.7649 105.638 60.6206 106.204 59.8728 106.519L52.8878 89.9291L45.9028 73.3397C44.4963 73.9319 42.7973 74.8096 41.081 76.1299L52.0558 90.3971ZM52.8878 89.9291L59.5728 106.642C58.9555 106.889 58.2477 107.11 57.4579 107.268L53.9278 89.6171L50.3977 71.9667C48.9145 72.2633 47.5134 72.6923 46.2028 73.2165L52.8878 89.9291ZM53.9278 89.6171H71.9278V79.9711H53.9278H35.9278V89.6171H53.9278ZM53.9278 79.9711L57.4579 62.3207C58.2477 62.4786 58.9555 62.6996 59.5728 62.9465L52.8878 79.6591L46.2028 96.3717C47.5134 96.896 48.9145 97.3249 50.3977 97.6216L53.9278 79.9711ZM52.8878 79.6591L59.8728 63.0697C60.6206 63.3845 61.7649 63.9503 63.0306 64.9239L52.0558 79.1911L41.081 93.4584C42.7973 94.7786 44.4963 95.6564 45.9028 96.2486L52.8878 79.6591ZM52.0558 79.1911L69.7278 82.6115L69.8838 81.8055L52.2118 78.3851L34.5398 74.9647L34.3838 75.7707L52.0558 79.1911ZM76.9041 89.4611L94.6302 86.333C93.1123 77.7316 85.6384 71.4611 76.9041 71.4611V89.4611ZM77.0601 90.3451L88.7178 104.06C93.5871 99.9211 95.8968 93.5105 94.7862 87.217L77.0601 90.3451ZM75.7081 91.0731L81.077 108.254C81.2386 108.203 81.3994 108.151 81.5595 108.095L75.7081 91.0731ZM72.4061 90.8911L54.5234 92.9432C55.1458 98.3667 58.1958 103.215 62.8154 106.123L72.4061 90.8911ZM72.2241 89.3051L90.1067 87.253C89.0639 78.1655 81.3712 71.3051 72.2241 71.3051V89.3051ZM72.0681 89.3051V71.3051C66.4796 71.3051 61.2082 73.9008 57.8008 78.3303L72.0681 89.3051ZM70.1961 90.8911L61.8439 74.9462C61.7909 74.9739 61.7381 75.0019 61.6854 75.0302L70.1961 90.8911ZM65.1521 90.5531L52.943 103.78C53.0603 103.888 53.1789 103.994 53.299 104.1L65.1521 90.5531ZM65.6201 85.1971L55.4009 70.3793C55.3606 70.4071 55.3205 70.435 55.2804 70.4631L65.6201 85.1971ZM72.0681 84.3391L69.5225 102.158C74.6881 102.896 79.9197 101.356 83.8617 97.9373C87.8037 94.5184 90.0681 89.5572 90.0681 84.3391H72.0681ZM71.4181 80.3351L57.7847 92.088C57.8528 92.1671 57.9217 92.2456 57.9912 92.3234L71.4181 80.3351ZM67.5441 79.9711L59.704 63.7683C54.2051 66.429 50.4311 71.697 49.6805 77.7594L67.5441 79.9711ZM67.2061 82.7011V100.701C76.2919 100.701 83.9533 93.9298 85.0697 84.9128L67.2061 82.7011ZM65.0741 82.7011L50.4269 93.1634C53.8057 97.8937 59.261 100.701 65.0741 100.701V82.7011ZM65.3341 79.7371L51.9318 67.7213C51.9236 67.7305 51.9154 67.7397 51.9072 67.7488L65.3341 79.7371ZM67.1281 78.5671L73.4053 95.4371C73.4754 95.411 73.5454 95.3845 73.6153 95.3575L67.1281 78.5671ZM73.5241 79.2951L61.6149 92.7922C61.6582 92.8304 61.7016 92.8684 61.7453 92.9062L73.5241 79.2951ZM74.8761 89.4611H56.8761C56.8761 99.4023 64.935 107.461 74.8761 107.461V89.4611ZM72.0681 87.7971L86.4157 98.6666C88.7855 95.5384 90.0681 91.7215 90.0681 87.7971H72.0681ZM72.0681 85.5351H90.0681C90.0681 75.594 82.0092 67.5351 72.0681 67.5351V85.5351ZM67.7521 86.1071L77.8473 101.01C77.8815 100.987 77.9156 100.963 77.9496 100.94L67.7521 86.1071ZM67.4661 89.1491L55.0686 102.199C55.1744 102.3 55.2814 102.399 55.3896 102.497L67.4661 89.1491ZM76.9041 89.4611L59.178 92.5893L59.334 93.4733L77.0601 90.3451L94.7862 87.217L94.6302 86.333L76.9041 89.4611ZM77.0601 90.3451L65.4024 76.6302C67.1836 75.1162 68.8721 74.3892 69.8566 74.0508L75.7081 91.0731L81.5595 108.095C83.6534 107.376 86.2432 106.163 88.7178 104.06L77.0601 90.3451ZM75.7081 91.0731L70.3391 73.8925C71.439 73.5488 72.6927 73.3331 74.0441 73.3331V91.3331V109.333C76.5048 109.333 78.8678 108.944 81.077 108.254L75.7081 91.0731ZM74.0441 91.3331V73.3331C76.3663 73.3331 79.2361 73.9207 81.9967 75.6589L72.4061 90.8911L62.8154 106.123C66.5121 108.451 70.4738 109.333 74.0441 109.333V91.3331ZM72.4061 90.8911L90.2887 88.839L90.1067 87.253L72.2241 89.3051L54.3414 91.3572L54.5234 92.9432L72.4061 90.8911ZM72.2241 89.3051V71.3051H72.0681V89.3051V107.305H72.2241V89.3051ZM72.0681 89.3051L57.8008 78.3303C58.808 77.021 60.1759 75.8199 61.8439 74.9462L70.1961 90.8911L78.5482 106.836C81.6722 105.2 84.2882 102.941 86.3353 100.28L72.0681 89.3051ZM70.1961 90.8911L61.6854 75.0302C63.4364 74.0907 65.6074 73.4631 67.9861 73.4631V91.4631V109.463C71.89 109.463 75.5344 108.454 78.7068 106.752L70.1961 90.8911ZM67.9861 91.4631V73.4631C69.8207 73.4631 73.5386 73.9735 77.0052 77.0067L65.1521 90.5531L53.299 104.1C58.1522 108.346 63.7594 109.463 67.9861 109.463V91.4631ZM65.1521 90.5531L77.3611 77.3267C78.9873 78.8278 80.2833 80.7004 81.1159 82.7925C81.9238 84.8227 82.1381 86.6565 82.1381 88.0051H64.1381H46.1381C46.1381 93.18 47.9476 99.1684 52.943 103.78L65.1521 90.5531ZM64.1381 88.0051H82.1381C82.1381 90.0057 81.6968 92.4158 80.4275 94.8208C79.1665 97.21 77.4708 98.8707 75.9597 99.9311L65.6201 85.1971L55.2804 70.4631C49.6282 74.4296 46.1381 80.7942 46.1381 88.0051H64.1381ZM65.6201 85.1971L75.8393 100.015C72.9003 102.042 70.2816 102.157 69.6501 102.157V84.1571V66.1571C65.6559 66.1571 60.3505 66.9658 55.4009 70.3793L65.6201 85.1971ZM69.6501 84.1571V102.157C69.5548 102.157 69.4956 102.153 69.4756 102.152C69.4555 102.15 69.4704 102.151 69.5225 102.158L72.0681 84.3391L74.6137 66.52C73.0236 66.2929 71.3621 66.1571 69.6501 66.1571V84.1571ZM72.0681 84.3391H90.0681V82.4411H72.0681H54.0681V84.3391H72.0681ZM72.0681 82.4411H90.0681C90.0681 78.9128 89.2409 73.2703 84.845 68.3468L71.4181 80.3351L57.9912 92.3234C54.4619 88.3706 54.0681 84.1321 54.0681 82.4411H72.0681ZM71.4181 80.3351L85.0515 68.5822C80.434 63.226 74.3003 61.5811 69.5461 61.5811V79.5811V97.5811C68.1227 97.5811 66.125 97.3623 63.9001 96.4662C61.5856 95.534 59.4698 94.0428 57.7847 92.088L71.4181 80.3351ZM69.5461 79.5811V61.5811C66.9023 61.5811 63.3631 61.9977 59.704 63.7683L67.5441 79.9711L75.3842 96.174C72.7998 97.4245 70.5952 97.5811 69.5461 97.5811V79.5811ZM67.5441 79.9711L49.6805 77.7594L49.3425 80.4894L67.2061 82.7011L85.0697 84.9128L85.4077 82.1828L67.5441 79.9711ZM67.2061 82.7011V64.7011H65.0741V82.7011V100.701H67.2061V82.7011ZM65.0741 82.7011L79.7213 72.2388C82.0512 75.5007 82.6841 78.9066 82.6841 81.3491H64.6841H46.6841C46.6841 84.8664 47.5769 89.1735 50.4269 93.1634L65.0741 82.7011ZM64.6841 81.3491H82.6841C82.6841 85.6543 80.9423 89.2823 78.761 91.7254L65.3341 79.7371L51.9072 67.7488C48.8592 71.1626 46.6841 75.8652 46.6841 81.3491H64.6841ZM65.3341 79.7371L78.7363 91.7529C76.9213 93.7774 74.9072 94.8783 73.4053 95.4371L67.1281 78.5671L60.8509 61.6971C57.8583 62.8106 54.6482 64.6916 51.9318 67.7213L65.3341 79.7371ZM67.1281 78.5671L73.6153 95.3575C72.0316 95.9694 70.6409 96.1251 69.6761 96.1251V78.1251V60.1251C66.8393 60.1251 63.7499 60.5755 60.6409 61.7768L67.1281 78.5671ZM69.6761 78.1251V96.1251C68.8212 96.1251 65.1826 95.9402 61.6149 92.7922L73.5241 79.2951L85.4333 65.798C80.0975 61.09 73.8936 60.1251 69.6761 60.1251V78.1251ZM73.5241 79.2951L61.7453 92.9062C60.0364 91.4273 58.7011 89.5533 57.8617 87.4869C57.0558 85.5033 56.8761 83.7691 56.8761 82.6231H74.8761H92.8761C92.8761 77.1425 90.9695 70.588 85.3029 65.6841L73.5241 79.2951ZM74.8761 82.6231H56.8761V89.4611H74.8761H92.8761V82.6231H74.8761ZM74.8761 89.4611V107.461H76.9041V89.4611V71.4611H74.8761V89.4611ZM69.0001 89.6431V107.643C73.5316 107.643 77.2137 106.148 79.7758 104.627L70.5861 89.1491L61.3964 73.6717C62.8491 72.8092 65.4739 71.6431 69.0001 71.6431V89.6431ZM70.5861 89.1491L79.7758 104.627C82.5448 102.982 84.7351 100.885 86.4157 98.6666L72.0681 87.7971L57.7204 76.9277C58.5344 75.8533 59.7367 74.6572 61.3964 73.6717L70.5861 89.1491ZM72.0681 87.7971H90.0681V85.5351H72.0681H54.0681V87.7971H72.0681ZM72.0681 85.5351V67.5351H70.1181V85.5351V103.535H72.0681V85.5351ZM70.1181 85.5351V67.5351C67.2252 67.5351 62.2967 68.0141 57.5546 71.2744L67.7521 86.1071L77.9496 100.94C74.3168 103.437 70.9657 103.535 70.1181 103.535V85.5351ZM67.7521 86.1071L57.6568 71.2046C51.6473 75.2755 48.9461 81.7053 48.9461 87.7191H66.9461H84.9461C84.9461 89.65 84.5716 92.1842 83.2473 94.833C81.891 97.5455 79.9232 99.6034 77.8473 101.01L67.7521 86.1071ZM66.9461 87.7191H48.9461C48.9461 91.6979 50.1418 97.5187 55.0686 102.199L67.4661 89.1491L79.8636 76.0991C84.097 80.1209 84.9461 84.9884 84.9461 87.7191H66.9461ZM67.4661 89.1491L55.3896 102.497C60.0558 106.719 65.4276 107.643 69.0001 107.643V89.6431V71.6431C71.2552 71.6431 75.6043 72.2384 79.5425 75.8015L67.4661 89.1491ZM76.991 78.3851V60.3851C72.0901 60.3851 67.4011 62.3835 64.0069 65.9187C60.6126 69.4539 58.8066 74.2202 59.0059 79.1171L76.991 78.3851ZM89.211 78.3851L107.196 79.1171C107.395 74.2202 105.589 69.4539 102.195 65.9187C98.8009 62.3835 94.1119 60.3851 89.211 60.3851V78.3851ZM89.029 82.8571V100.857C98.6854 100.857 106.621 93.2375 107.014 83.5891L89.029 82.8571ZM87.937 82.8571L72.3996 91.945C75.6281 97.4647 81.5425 100.857 87.937 100.857V82.8571ZM86.845 79.9191L104.55 76.6732C102.983 68.1265 95.5342 61.9191 86.845 61.9191V79.9191ZM84.505 79.9191V61.9191C74.5639 61.9191 66.505 69.978 66.505 79.9191H84.505ZM84.505 89.6171H66.505C66.505 98.1974 72.5613 105.585 80.9749 107.268L84.505 89.6171ZM85.519 89.9291L78.534 106.519C78.6336 106.561 78.7336 106.602 78.834 106.642L85.519 89.9291ZM86.377 90.3971L104.049 93.8175C105.344 87.1293 102.751 80.2834 97.3518 76.1299L86.377 90.3971ZM86.221 91.2031V109.203C94.8433 109.203 102.255 103.089 103.893 94.6235L86.221 91.2031ZM79.981 91.2031L62.309 94.6235C63.9474 103.089 71.3587 109.203 79.981 109.203V91.2031ZM79.825 90.3971L68.8502 76.1299C63.4506 80.2834 60.8585 87.1293 62.153 93.8175L79.825 90.3971ZM80.657 89.9291L73.972 73.2165C73.8716 73.2567 73.7716 73.2977 73.672 73.3397L80.657 89.9291ZM81.697 89.6171L85.2271 107.268C93.6407 105.585 99.697 98.1974 99.697 89.6171H81.697ZM81.697 79.9191H99.697C99.697 69.978 91.6381 61.9191 81.697 61.9191V79.9191ZM79.383 79.9191V61.9191C70.6219 61.9191 63.1333 68.2271 61.6447 76.8608L79.383 79.9191ZM78.265 82.8571V100.857C84.5877 100.857 90.4469 97.5397 93.6999 92.118L78.265 82.8571ZM77.173 82.8571L59.1879 83.5891C59.5806 93.2375 67.5166 100.857 77.173 100.857V82.8571ZM76.991 78.3851V96.3851H89.211V78.3851V60.3851H76.991V78.3851ZM89.211 78.3851L71.2259 77.6532L71.0439 82.1252L89.029 82.8571L107.014 83.5891L107.196 79.1171L89.211 78.3851ZM89.029 82.8571V64.8571H87.937V82.8571V100.857H89.029V82.8571ZM87.937 82.8571L103.474 73.7692C103.987 74.645 104.361 75.6409 104.55 76.6732L86.845 79.9191L69.1401 83.165C69.7107 86.2773 70.8127 89.232 72.3996 91.945L87.937 82.8571ZM86.845 79.9191V61.9191H84.505V79.9191V97.9191H86.845V79.9191ZM84.505 79.9191H66.505V89.6171H84.505H102.505V79.9191H84.505ZM84.505 89.6171L80.9749 107.268C80.1245 107.097 79.3058 106.844 78.534 106.519L85.519 89.9291L92.504 73.3397C91.0736 72.7374 89.5788 72.2754 88.0351 71.9667L84.505 89.6171ZM85.519 89.9291L78.834 106.642C78.0956 106.346 76.8234 105.758 75.4022 104.664L86.377 90.3971L97.3518 76.1299C95.4799 74.69 93.6357 73.7892 92.204 73.2165L85.519 89.9291ZM86.377 90.3971L68.705 86.9767L68.549 87.7827L86.221 91.2031L103.893 94.6235L104.049 93.8175L86.377 90.3971ZM86.221 91.2031V73.2031H79.981V91.2031V109.203H86.221V91.2031ZM79.981 91.2031L97.6531 87.7827L97.4971 86.9767L79.825 90.3971L62.153 93.8175L62.309 94.6235L79.981 91.2031ZM79.825 90.3971L90.7998 104.664C89.5341 105.638 88.3898 106.204 87.642 106.519L80.657 89.9291L73.672 73.3397C72.2655 73.9319 70.5666 74.8096 68.8502 76.1299L79.825 90.3971ZM80.657 89.9291L87.342 106.642C86.7248 106.889 86.0169 107.11 85.2271 107.268L81.697 89.6171L78.1669 71.9667C76.6838 72.2633 75.2826 72.6923 73.972 73.2165L80.657 89.9291ZM81.697 89.6171H99.697V79.9191H81.697H63.697V89.6171H81.697ZM81.697 79.9191V61.9191H79.383V79.9191V97.9191H81.697V79.9191ZM79.383 79.9191L61.6447 76.8608C61.882 75.4849 62.3608 74.3785 62.8301 73.5962L78.265 82.8571L93.6999 92.118C95.3133 89.4291 96.5374 86.364 97.1213 82.9775L79.383 79.9191ZM78.265 82.8571V64.8571H77.173V82.8571V100.857H78.265V82.8571ZM77.173 82.8571L95.1581 82.1252L94.9761 77.6532L76.991 78.3851L59.0059 79.1171L59.1879 83.5891L77.173 82.8571ZM103.388 78.3851L121.08 75.0679C119.484 66.5544 112.05 60.3851 103.388 60.3851V78.3851ZM103.544 79.2171L115.355 92.8C120.175 88.6089 122.413 82.1776 121.236 75.8999L103.544 79.2171ZM102.192 79.9711L96.8569 62.78C91.389 64.4769 87.0545 68.6738 85.182 74.0842L102.192 79.9711ZM97.0181 94.9211L80.008 89.0342L80.0047 89.0438L97.0181 94.9211ZM95.7961 97.0271L108.044 110.217L95.7961 97.0271ZM91.8181 97.2611H73.8181C73.8181 103.649 77.204 109.559 82.7152 112.79L91.8181 97.2611ZM91.8181 95.0511V77.0511C81.877 77.0511 73.8181 85.11 73.8181 95.0511H91.8181ZM95.1721 95.0511V113.051C102.813 113.051 109.622 108.227 112.154 101.018L95.1721 95.0511ZM96.5241 91.2031L113.506 97.1699C115.441 91.6627 114.586 85.5592 111.211 80.7964C107.836 76.0337 102.361 73.2031 96.5241 73.2031V91.2031ZM95.3541 91.2031L78.5649 97.6934C81.2464 104.63 87.9174 109.203 95.3541 109.203V91.2031ZM91.0121 79.9711L107.801 73.4809C105.789 68.2757 101.476 64.2981 96.1257 62.7128L91.0121 79.9711ZM89.6601 79.2171L71.9684 75.8999C70.7711 82.2856 73.1079 88.821 78.0827 92.9998L89.6601 79.2171ZM89.8161 78.3851V60.3851C81.1543 60.3851 73.7207 66.5544 72.1244 75.0679L89.8161 78.3851ZM95.3281 78.3851L113.02 75.0679C111.424 66.5544 103.99 60.3851 95.3281 60.3851V78.3851ZM95.4841 79.2171L106.49 93.4603C111.839 89.3267 114.422 82.5444 113.176 75.8999L95.4841 79.2171ZM94.1061 79.9711L87.6082 63.1849C78.4261 66.7393 73.8038 77.0116 77.2334 86.241L94.1061 79.9711ZM97.3041 88.5771L80.4314 94.847C83.0518 101.899 89.7813 106.577 97.3041 106.577V88.5771ZM97.4601 88.5771V106.577C105.16 106.577 112.007 101.68 114.495 94.3926L97.4601 88.5771ZM100.398 79.9711L117.433 85.7866C120.506 76.786 116.046 66.9481 107.252 63.3269L100.398 79.9711ZM99.0201 79.2171L81.3284 75.8999C80.095 82.4782 82.6133 89.1977 87.8665 93.345L99.0201 79.2171ZM99.1761 78.3851V60.3851C90.5143 60.3851 83.0807 66.5544 81.4844 75.0679L99.1761 78.3851ZM103.388 78.3851L85.6964 81.7023L85.8524 82.5343L103.544 79.2171L121.236 75.8999L121.08 75.0679L103.388 78.3851ZM103.544 79.2171L91.7329 65.6342C93.2118 64.3482 94.9646 63.3672 96.8569 62.78L102.192 79.9711L107.527 97.1623C110.425 96.263 113.079 94.7793 115.355 92.8L103.544 79.2171ZM102.192 79.9711L85.182 74.0842L80.008 89.0342L97.0181 94.9211L114.028 100.808L119.202 85.8581L102.192 79.9711ZM97.0181 94.9211L80.0047 89.0438C80.1317 88.6761 80.3983 87.9878 80.8967 87.1288C81.3943 86.2713 82.2285 85.0621 83.548 83.8368L95.7961 97.0271L108.044 110.217C111.535 106.976 113.199 103.209 114.032 100.798L97.0181 94.9211ZM95.7961 97.0271L83.548 83.8368C87.3781 80.2804 91.6359 79.7031 93.7421 79.7031V97.7031V115.703C97.6164 115.703 103.244 114.675 108.044 110.217L95.7961 97.0271ZM93.7421 97.7031V79.7031C95.1145 79.7031 97.8812 79.9506 100.921 81.7326L91.8181 97.2611L82.7152 112.79C86.7604 115.161 90.8098 115.703 93.7421 115.703V97.7031ZM91.8181 97.2611H109.818V95.0511H91.8181H73.8181V97.2611H91.8181ZM91.8181 95.0511V113.051H95.1721V95.0511V77.0511H91.8181V95.0511ZM95.1721 95.0511L112.154 101.018L113.506 97.1699L96.5241 91.2031L79.5418 85.2364L78.1898 89.0844L95.1721 95.0511ZM96.5241 91.2031V73.2031H95.3541V91.2031V109.203H96.5241V91.2031ZM95.3541 91.2031L112.143 84.7129L107.801 73.4809L91.0121 79.9711L74.2229 86.4614L78.5649 97.6934L95.3541 91.2031ZM91.0121 79.9711L96.1257 62.7128C98.3761 63.3796 100.077 64.4596 101.238 65.4344L89.6601 79.2171L78.0827 92.9998C80.1099 94.7027 82.7121 96.2854 85.8985 97.2295L91.0121 79.9711ZM89.6601 79.2171L107.352 82.5343L107.508 81.7023L89.8161 78.3851L72.1244 75.0679L71.9684 75.8999L89.6601 79.2171ZM89.8161 78.3851V96.3851H95.3281V78.3851V60.3851H89.8161V78.3851ZM95.3281 78.3851L77.6364 81.7023L77.7924 82.5343L95.4841 79.2171L113.176 75.8999L113.02 75.0679L95.3281 78.3851ZM95.4841 79.2171L84.4781 64.974C85.7064 64.0248 86.8339 63.4846 87.6082 63.1849L94.1061 79.9711L100.604 96.7573C102.453 96.0416 104.499 94.9988 106.49 93.4603L95.4841 79.2171ZM94.1061 79.9711L77.2334 86.241L80.4314 94.847L97.3041 88.5771L114.177 82.3072L110.979 73.7012L94.1061 79.9711ZM97.3041 88.5771V106.577H97.4601V88.5771V70.5771H97.3041V88.5771ZM97.4601 88.5771L114.495 94.3926L117.433 85.7866L100.398 79.9711L83.3634 74.1557L80.4254 82.7617L97.4601 88.5771ZM100.398 79.9711L107.252 63.3269C107.442 63.4053 107.794 63.5593 108.252 63.8099C108.698 64.0543 109.383 64.4651 110.174 65.0892L99.0201 79.2171L87.8665 93.345C89.9966 95.0267 92.1234 96.0301 93.5446 96.6153L100.398 79.9711ZM99.0201 79.2171L116.712 82.5343L116.868 81.7023L99.1761 78.3851L81.4844 75.0679L81.3284 75.8999L99.0201 79.2171ZM99.1761 78.3851V96.3851H103.388V78.3851V60.3851H99.1761V78.3851ZM103.186 96.6371L92.386 82.2371C86.712 86.4927 84.0659 93.6835 85.6281 100.602L103.186 96.6371ZM104.018 96.1691L97.6101 79.3483C97.28 79.4741 96.9536 79.6096 96.6315 79.7545L104.018 96.1691ZM105.162 95.8571L108.246 113.591C116.868 112.091 123.162 104.608 123.162 95.8571H105.162ZM105.162 79.9711H123.162C123.162 71.3909 117.106 64.0034 108.692 62.3207L105.162 79.9711ZM104.122 79.6591L97.137 96.2486C97.2366 96.2905 97.3366 96.3316 97.437 96.3717L104.122 79.6591ZM103.29 79.1911L85.618 75.7707C84.3235 82.4589 86.9156 89.3048 92.3152 93.4584L103.29 79.1911ZM103.446 78.3851V60.3851C94.8237 60.3851 87.4124 66.4995 85.774 74.9647L103.446 78.3851ZM107.606 78.3851L125.499 76.4243C124.499 67.2967 116.788 60.3851 107.606 60.3851V78.3851ZM107.814 80.2831L89.9211 82.244C90.9214 91.3716 98.6318 98.2831 107.814 98.2831V80.2831ZM107.97 80.2831V98.2831C113.949 98.2831 119.537 95.3145 122.885 90.3606L107.97 80.2831ZM109.712 78.7231L101.066 62.9354L101.066 62.9354L109.712 78.7231ZM114.782 78.9051L105.097 94.0777C105.145 94.1084 105.194 94.1389 105.242 94.1691L114.782 78.9051ZM116.706 81.1671L100.329 88.6372C100.365 88.716 100.402 88.7945 100.439 88.8727L116.706 81.1671ZM116.654 88.2131L132.86 96.0462L132.86 96.0462L116.654 88.2131ZM114.574 90.6311L124.141 105.878C124.212 105.834 124.282 105.789 124.353 105.743L114.574 90.6311ZM109.608 91.0471L101.944 107.334C102.004 107.362 102.064 107.39 102.124 107.418L109.608 91.0471ZM108.152 89.9031L122.306 78.7823C118.893 74.4391 113.676 71.9031 108.152 71.9031V89.9031ZM107.97 89.9031V71.9031C98.0289 71.9031 89.97 79.962 89.97 89.9031H107.97ZM107.97 95.8571H89.97C89.97 104.7 96.3939 112.234 105.126 113.631L107.97 95.8571ZM109.166 96.1691L116.257 79.6245C116.031 79.5278 115.803 79.4357 115.574 79.3483L109.166 96.1691ZM110.024 96.6371L127.582 100.602C129.144 93.6835 126.498 86.4926 120.824 82.2371L110.024 96.6371ZM109.842 97.4431V115.443C118.256 115.443 125.547 109.615 127.4 101.408L109.842 97.4431ZM103.368 97.4431L85.8101 101.408C87.6633 109.615 94.9544 115.443 103.368 115.443V97.4431ZM113.456 88.4211L128.064 98.9386L128.064 98.9386L113.456 88.4211ZM113.508 81.1671L128.092 70.617V70.617L113.508 81.1671ZM109.296 80.5171L119.172 95.566C119.208 95.5421 119.244 95.5181 119.281 95.494L109.296 80.5171ZM107.97 81.7911L93.0754 71.6841C91.0518 74.6663 89.97 78.1872 89.97 81.7911H107.97ZM108.802 88.8111L95.3486 100.77C95.4657 100.901 95.5846 101.031 95.7054 101.159L108.802 88.8111ZM103.186 96.6371L113.986 111.037C113.34 111.522 112.776 111.866 112.375 112.091C111.966 112.322 111.63 112.482 111.405 112.584L104.018 96.1691L96.6315 79.7545C95.577 80.2291 94.0181 81.0131 92.386 82.2371L103.186 96.6371ZM104.018 96.1691L110.426 112.99C109.673 113.277 108.938 113.471 108.246 113.591L105.162 95.8571L102.078 78.1233C100.589 78.3823 99.0912 78.7841 97.6101 79.3483L104.018 96.1691ZM105.162 95.8571H123.162V79.9711H105.162H87.162V95.8571H105.162ZM105.162 79.9711L108.692 62.3207C109.482 62.4786 110.19 62.6996 110.807 62.9465L104.122 79.6591L97.437 96.3717C98.7476 96.896 100.149 97.3249 101.632 97.6216L105.162 79.9711ZM104.122 79.6591L111.107 63.0697C111.855 63.3845 112.999 63.9503 114.265 64.9239L103.29 79.1911L92.3152 93.4584C94.0316 94.7786 95.7306 95.6564 97.137 96.2486L104.122 79.6591ZM103.29 79.1911L120.962 82.6115L121.118 81.8055L103.446 78.3851L85.774 74.9647L85.618 75.7707L103.29 79.1911ZM103.446 78.3851V96.3851H107.606V78.3851V60.3851H103.446V78.3851ZM107.606 78.3851L89.7131 80.346L89.9211 82.244L107.814 80.2831L125.707 78.3223L125.499 76.4243L107.606 78.3851ZM107.814 80.2831V98.2831H107.97V80.2831V62.2831H107.814V80.2831ZM107.97 80.2831L122.885 90.3606C121.598 92.2649 119.958 93.6346 118.358 94.5109L109.712 78.7231L101.066 62.9354C98.0103 64.609 95.2088 67.0187 93.0554 70.2057L107.97 80.2831ZM109.712 78.7231L118.358 94.5109C116.611 95.4676 114.41 96.1251 111.974 96.1251V78.1251V60.1251C107.978 60.1251 104.269 61.1813 101.066 62.9354L109.712 78.7231ZM111.974 78.1251V96.1251C109.935 96.1251 107.445 95.5765 105.097 94.0777L114.782 78.9051L124.467 63.7325C120.489 61.1938 116.128 60.1251 111.974 60.1251V78.1251ZM114.782 78.9051L105.242 94.1691C102.764 92.6205 101.181 90.505 100.329 88.6372L116.706 81.1671L133.083 73.697C131.329 69.8532 128.464 66.2297 124.322 63.6412L114.782 78.9051ZM116.706 81.1671L100.439 88.8727C99.5421 86.9798 99.408 85.4043 99.408 84.6511H117.408H135.408C135.408 81.2286 134.806 77.3304 132.973 73.4616L116.706 81.1671ZM117.408 84.6511H99.408C99.408 83.6942 99.5993 82.1354 100.448 80.3801L116.654 88.2131L132.86 96.0462C134.714 92.2108 135.408 88.2774 135.408 84.6511H117.408ZM116.654 88.2131L100.448 80.3801C101.236 78.7483 102.645 76.91 104.795 75.5189L114.574 90.6311L124.353 105.743C128.271 103.208 131.066 99.758 132.86 96.0462L116.654 88.2131ZM114.574 90.6311L105.007 75.384C107.079 74.0843 109.433 73.4631 111.636 73.4631V91.4631V109.463C115.989 109.463 120.302 108.287 124.141 105.878L114.574 90.6311ZM111.636 91.4631V73.4631C113.169 73.4631 115.087 73.7604 117.092 74.6766L109.608 91.0471L102.124 107.418C105.342 108.889 108.613 109.463 111.636 109.463V91.4631ZM109.608 91.0471L117.272 74.7604C119.075 75.6086 120.86 76.9422 122.306 78.7823L108.152 89.9031L93.9983 101.024C96.2068 103.835 98.9625 105.931 101.944 107.334L109.608 91.0471ZM108.152 89.9031V71.9031H107.97V89.9031V107.903H108.152V89.9031ZM107.97 89.9031H89.97V95.8571H107.97H125.97V89.9031H107.97ZM107.97 95.8571L105.126 113.631C104.492 113.53 103.681 113.341 102.758 112.99L109.166 96.1691L115.574 79.3483C113.923 78.7196 112.314 78.3233 110.814 78.0832L107.97 95.8571ZM109.166 96.1691L102.075 112.714C101.843 112.614 101.481 112.449 101.034 112.205C100.598 111.968 99.9596 111.589 99.224 111.037L110.024 96.6371L120.824 82.2371C119.039 80.8981 117.329 80.084 116.257 79.6245L109.166 96.1691ZM110.024 96.6371L92.4661 92.6724L92.2841 93.4784L109.842 97.4431L127.4 101.408L127.582 100.602L110.024 96.6371ZM109.842 97.4431V79.4431H103.368V97.4431V115.443H109.842V97.4431ZM103.368 97.4431L120.926 93.4784L120.744 92.6724L103.186 96.6371L85.6281 100.602L85.8101 101.408L103.368 97.4431ZM111.064 89.7211V107.721C118.467 107.721 124.451 103.956 128.064 98.9386L113.456 88.4211L98.8484 77.9036C99.8394 76.5272 101.432 74.865 103.795 73.5809C106.217 72.2644 108.762 71.7211 111.064 71.7211V89.7211ZM113.456 88.4211L128.064 98.9386C131.719 93.8619 132.392 88.3936 132.392 84.7551H114.392H96.392C96.392 84.2713 96.4412 81.247 98.8484 77.9036L113.456 88.4211ZM114.392 84.7551H132.392C132.392 81.3925 131.842 75.8011 128.092 70.617L113.508 81.1671L98.924 91.7173C97.5936 89.8783 96.9792 88.14 96.6936 86.9811C96.4128 85.8412 96.392 85.0345 96.392 84.7551H114.392ZM113.508 81.1671L128.092 70.617C123.854 64.7585 117.396 61.9451 111.012 61.9451V79.9451V97.9451C109.244 97.9451 106.941 97.5989 104.527 96.4171C102.071 95.2146 100.207 93.4912 98.924 91.7173L113.508 81.1671ZM111.012 79.9451V61.9451C106.222 61.9451 102.235 63.5913 99.3114 65.5402L109.296 80.5171L119.281 95.494C117.501 96.6803 114.658 97.9451 111.012 97.9451V79.9451ZM109.296 80.5171L99.4202 65.4683C97.1424 66.9631 94.8994 68.9961 93.0754 71.6841L107.97 81.7911L122.865 91.8981C121.699 93.6155 120.34 94.7992 119.172 95.566L109.296 80.5171ZM107.97 81.7911H89.97V86.4191H107.97H125.97V81.7911H107.97ZM107.97 86.4191H89.97C89.97 91.0368 91.396 96.3229 95.3486 100.77L108.802 88.8111L122.255 76.8526C125.099 80.0514 125.97 83.7428 125.97 86.4191H107.97ZM108.802 88.8111L95.7054 101.159C100.112 105.833 105.84 107.721 111.064 107.721V89.7211V71.7211C112.553 71.7211 114.457 71.9667 116.515 72.7943C118.617 73.6402 120.446 74.9221 121.899 76.4629L108.802 88.8111ZM128.913 84.3911L118.326 98.9484C118.385 98.9907 118.443 99.0327 118.502 99.0743L128.913 84.3911ZM128.913 90.1891L139.325 104.872C139.384 104.831 139.442 104.789 139.501 104.746L128.913 90.1891ZM118.877 91.2031L101.205 94.6235C102.844 103.089 110.255 109.203 118.877 109.203V91.2031ZM118.721 90.3971L107.747 76.1299C102.347 80.2834 99.7549 87.1293 101.049 93.8175L118.721 90.3971ZM119.553 89.9291L112.868 73.2165C112.768 73.2567 112.668 73.2977 112.568 73.3397L119.553 89.9291ZM120.593 89.6171L124.124 107.268C132.537 105.585 138.593 98.1974 138.593 89.6171H120.593ZM120.593 79.9711H138.593C138.593 71.3909 132.537 64.0034 124.124 62.3207L120.593 79.9711ZM119.553 79.6591L112.568 96.2486C112.668 96.2905 112.768 96.3316 112.868 96.3717L119.553 79.6591ZM118.721 79.1911L101.049 75.7707C99.7549 82.4589 102.347 89.3048 107.747 93.4584L118.721 79.1911ZM118.877 78.3851V60.3851C110.255 60.3851 102.844 66.4995 101.205 74.9647L118.877 78.3851ZM125.143 78.3851L142.701 74.4204C140.848 66.2135 133.557 60.3851 125.143 60.3851V78.3851ZM125.325 79.1911L136.3 93.4584C141.859 89.1824 144.428 82.0673 142.883 75.2264L125.325 79.1911ZM124.467 79.6591L117.782 62.9465L117.782 62.9465L124.467 79.6591ZM123.453 79.9711L119.745 62.3572C111.416 64.1108 105.453 71.4592 105.453 79.9711H123.453ZM123.453 83.3511H105.453C105.453 93.2922 113.512 101.351 123.453 101.351V83.3511ZM135.283 89.6171H117.283C117.283 98.1291 123.246 105.477 131.575 107.231L135.283 89.6171ZM137.155 90.3971L154.713 94.3618C156.258 87.521 153.689 80.4058 148.13 76.1299L137.155 90.3971ZM136.973 91.2031V109.203C145.387 109.203 152.678 103.375 154.531 95.1678L136.973 91.2031ZM131.123 91.2031L113.451 94.6235C115.09 103.089 122.501 109.203 131.123 109.203V91.2031ZM130.967 90.3971L119.156 76.8142C114.308 81.0299 112.075 87.51 113.295 93.8175L130.967 90.3971ZM132.449 89.6171L137.528 106.886C145.189 104.633 150.449 97.6021 150.449 89.6171H132.449ZM132.449 79.9711H150.449C150.449 71.4592 144.487 64.1108 136.158 62.3572L132.449 79.9711ZM131.435 79.6591L138.12 62.9465V62.9465L131.435 79.6591ZM130.577 79.1911L113.019 75.2264C111.475 82.0673 114.044 89.1824 119.603 93.4584L130.577 79.1911ZM130.759 78.3851V60.3851C122.346 60.3851 115.055 66.2135 113.201 74.4204L130.759 78.3851ZM136.973 78.3851L154.531 74.4204C152.678 66.2135 145.387 60.3851 136.973 60.3851V78.3851ZM137.155 79.1911L148.13 93.4584C153.689 89.1824 156.258 82.0673 154.713 75.2264L137.155 79.1911ZM136.297 79.6591L129.612 62.9465L129.612 62.9466L136.297 79.6591ZM135.283 79.9711L131.575 62.3572C123.246 64.1108 117.283 71.4592 117.283 79.9711H135.283ZM126.625 89.1231L138.102 102.99C138.195 102.913 138.287 102.835 138.378 102.757L126.625 89.1231ZM126.625 85.4311L114.873 99.0645L114.873 99.0645L126.625 85.4311ZM123.401 84.7811V66.7811C113.46 66.7811 105.401 74.84 105.401 84.7811H123.401ZM123.401 89.7471H105.401C105.401 99.6882 113.46 107.747 123.401 107.747V89.7471ZM124.935 83.3511V101.351C124.444 101.351 121.539 101.285 118.326 98.9484L128.913 84.3911L139.501 69.8339C134.382 66.111 128.825 65.3511 124.935 65.3511V83.3511ZM128.913 84.3911L118.502 99.0743C116.769 97.8455 115.056 96.0315 113.857 93.6113C112.679 91.2342 112.343 88.9758 112.343 87.2771H130.343H148.343C148.343 80.6598 145.406 74.0198 139.325 69.7079L128.913 84.3911ZM130.343 87.2771H112.343C112.343 85.5742 112.681 83.345 113.829 81.0069C114.995 78.6327 116.653 76.8486 118.326 75.6319L128.913 90.1891L139.501 104.746C145.423 100.439 148.343 93.8873 148.343 87.2771H130.343ZM128.913 90.1891L118.502 75.5059C121.688 73.2468 124.521 73.2031 124.935 73.2031V91.2031V109.203C128.747 109.203 134.233 108.483 139.325 104.872L128.913 90.1891ZM124.935 91.2031V73.2031H118.877V91.2031V109.203H124.935V91.2031ZM118.877 91.2031L136.549 87.7827L136.393 86.9767L118.721 90.3971L101.049 93.8175L101.205 94.6235L118.877 91.2031ZM118.721 90.3971L129.696 104.664C128.431 105.638 127.286 106.204 126.538 106.519L119.553 89.9291L112.568 73.3397C111.162 73.9319 109.463 74.8096 107.747 76.1299L118.721 90.3971ZM119.553 89.9291L126.238 106.642C125.621 106.889 124.913 107.11 124.124 107.268L120.593 89.6171L117.063 71.9667C115.58 72.2633 114.179 72.6923 112.868 73.2165L119.553 89.9291ZM120.593 89.6171H138.593V79.9711H120.593H102.593V89.6171H120.593ZM120.593 79.9711L124.124 62.3207C124.913 62.4786 125.621 62.6996 126.238 62.9465L119.553 79.6591L112.868 96.3717C114.179 96.896 115.58 97.3249 117.063 97.6216L120.593 79.9711ZM119.553 79.6591L126.538 63.0697C127.286 63.3845 128.431 63.9503 129.696 64.9239L118.721 79.1911L107.747 93.4584C109.463 94.7786 111.162 95.6564 112.568 96.2486L119.553 79.6591ZM118.721 79.1911L136.393 82.6115L136.549 81.8055L118.877 78.3851L101.205 74.9647L101.049 75.7707L118.721 79.1911ZM118.877 78.3851V96.3851H125.143V78.3851V60.3851H118.877V78.3851ZM125.143 78.3851L107.585 82.3498L107.767 83.1558L125.325 79.1911L142.883 75.2264L142.701 74.4204L125.143 78.3851ZM125.325 79.1911L114.351 64.9239C115.772 63.8306 117.044 63.2419 117.782 62.9465L124.467 79.6591L131.152 96.3717C132.584 95.799 134.428 94.8983 136.3 93.4584L125.325 79.1911ZM124.467 79.6591L117.782 62.9465C118.297 62.7407 118.955 62.5236 119.745 62.3572L123.453 79.9711L127.162 97.585C128.611 97.28 129.945 96.8549 131.152 96.3717L124.467 79.6591ZM123.453 79.9711H105.453V83.3511H123.453H141.453V79.9711H123.453ZM123.453 83.3511V101.351H124.935V83.3511V65.3511H123.453V83.3511ZM135.283 89.6171L131.575 107.231C130.785 107.065 130.127 106.848 129.612 106.642L136.297 89.9291L142.982 73.2165C141.775 72.7334 140.441 72.3083 138.992 72.0032L135.283 89.6171ZM136.297 89.9291L129.612 106.642C128.874 106.346 127.602 105.758 126.181 104.664L137.155 90.3971L148.13 76.1299C146.258 74.69 144.414 73.7892 142.982 73.2165L136.297 89.9291ZM137.155 90.3971L119.597 86.4324L119.415 87.2384L136.973 91.2031L154.531 95.1678L154.713 94.3618L137.155 90.3971ZM136.973 91.2031V73.2031H131.123V91.2031V109.203H136.973V91.2031ZM131.123 91.2031L148.795 87.7827L148.639 86.9767L130.967 90.3971L113.295 93.8175L113.451 94.6235L131.123 91.2031ZM130.967 90.3971L142.779 103.98C140.931 105.586 139.021 106.447 137.528 106.886L132.449 89.6171L127.37 72.3485C124.7 73.1341 121.801 74.5146 119.156 76.8142L130.967 90.3971ZM132.449 89.6171H150.449V79.9711H132.449H114.449V89.6171H132.449ZM132.449 79.9711L136.158 62.3572C136.948 62.5236 137.606 62.7407 138.12 62.9465L131.435 79.6591L124.75 96.3717C125.958 96.8549 127.292 97.28 128.741 97.585L132.449 79.9711ZM131.435 79.6591L138.12 62.9465C138.859 63.2419 140.131 63.8306 141.552 64.9239L130.577 79.1911L119.603 93.4584C121.475 94.8983 123.319 95.799 124.75 96.3717L131.435 79.6591ZM130.577 79.1911L148.135 83.1558L148.317 82.3498L130.759 78.3851L113.201 74.4204L113.019 75.2264L130.577 79.1911ZM130.759 78.3851V96.3851H136.973V78.3851V60.3851H130.759V78.3851ZM136.973 78.3851L119.415 82.3498L119.597 83.1558L137.155 79.1911L154.713 75.2264L154.531 74.4204L136.973 78.3851ZM137.155 79.1911L126.181 64.9239C127.602 63.8306 128.874 63.2419 129.612 62.9465L136.297 79.6591L142.982 96.3717C144.414 95.799 146.258 94.8983 148.13 93.4584L137.155 79.1911ZM136.297 79.6591L129.612 62.9466C130.127 62.7407 130.785 62.5236 131.575 62.3572L135.283 79.9711L138.992 97.585C140.441 97.28 141.775 96.8549 142.982 96.3717L136.297 79.6591ZM135.283 79.9711H117.283V89.6171H135.283H153.283V79.9711H135.283ZM124.493 89.7471V107.747C127.917 107.747 133.276 106.984 138.102 102.99L126.625 89.1231L115.149 75.256C118.97 72.0941 122.907 71.7471 124.493 71.7471V89.7471ZM126.625 89.1231L138.378 102.757C143.647 98.2148 145.379 92.155 145.379 87.2771H127.379H109.379C109.379 85.7973 109.613 83.7684 110.527 81.5304C111.475 79.2107 112.967 77.1321 114.873 75.4897L126.625 89.1231ZM127.379 87.2771H145.379C145.379 82.3993 143.647 76.3394 138.378 71.7977L126.625 85.4311L114.873 99.0645C112.967 97.4222 111.475 95.3435 110.527 93.0239C109.613 90.7859 109.379 88.757 109.379 87.2771H127.379ZM126.625 85.4311L138.378 71.7977C133.542 67.6287 128.073 66.7811 124.493 66.7811V84.7811V102.781C122.751 102.781 118.703 102.367 114.873 99.0645L126.625 85.4311ZM124.493 84.7811V66.7811H123.401V84.7811V102.781H124.493V84.7811ZM123.401 84.7811H105.401V89.7471H123.401H141.401V84.7811H123.401ZM123.401 89.7471V107.747H124.493V89.7471V71.7471H123.401V89.7471Z" fill="#373F51" mask="url(#path-1-outside-1_382_5355)"/>
<path d="M267.106 84.4831C264.786 86.8831 262.026 88.8031 258.826 90.2431C255.626 91.6831 252.226 92.4031 248.626 92.4031C244.066 92.4031 240.466 91.1631 237.826 88.6831C235.186 86.1231 233.866 82.7231 233.866 78.4831V39.4831H224.626L223.546 35.0431C224.746 34.0831 226.306 33.2031 228.226 32.4031C230.226 31.5231 232.146 31.0431 233.986 30.9631C235.586 27.9231 236.386 24.7231 236.386 21.3631C236.386 17.3631 235.146 14.1231 232.666 11.6431C230.186 9.16312 226.786 7.92312 222.466 7.92312C218.306 7.92312 214.826 9.20312 212.026 11.7631C209.306 14.2431 207.946 17.4431 207.946 21.3631C207.946 23.5231 208.266 25.7631 208.906 28.0831C209.546 30.3231 210.586 33.1231 212.026 36.4831C213.786 40.4831 214.666 43.6431 214.666 45.9631C214.666 47.3231 214.466 48.7231 214.066 50.1631C213.666 51.6031 213.146 52.8031 212.506 53.7631H203.746L201.106 38.5231C199.506 37.8831 197.466 37.5631 194.986 37.5631C189.626 37.5631 185.306 39.7231 182.026 44.0431C178.826 48.3631 177.226 54.0431 177.226 61.0831C177.226 68.1231 178.986 73.8031 182.506 78.1231C186.026 82.3631 190.626 84.4831 196.306 84.4831C199.586 84.4831 202.706 83.7631 205.666 82.3231C208.706 80.8031 211.226 78.7631 213.226 76.2031L217.546 80.5231C214.746 84.2031 211.226 87.1231 206.986 89.2831C202.826 91.3631 198.466 92.4031 193.906 92.4031C187.906 92.4031 182.586 91.1231 177.946 88.5631C173.386 86.0031 169.826 82.4431 167.266 77.8831C164.706 73.3231 163.426 68.0831 163.426 62.1631C163.426 56.0031 164.706 50.5631 167.266 45.8431C169.826 41.1231 173.426 37.4431 178.066 34.8031C182.706 32.1631 188.066 30.8431 194.146 30.8431C198.066 30.8431 201.506 31.4031 204.466 32.5231C201.826 28.9231 200.506 24.8031 200.506 20.1631C200.506 16.5631 201.426 13.2431 203.266 10.2031C205.186 7.08312 207.906 4.60312 211.426 2.76312C215.026 0.923119 219.226 0.00311899 224.026 0.00311899C228.906 0.00311899 233.226 0.88312 236.986 2.64312C240.746 4.32312 243.666 6.68312 245.746 9.72312C247.826 12.7631 248.866 16.1231 248.866 19.8031C248.866 23.8031 247.706 27.8831 245.386 32.0431H262.306V39.4831H246.946V76.6831C246.946 79.0031 247.506 80.8031 248.626 82.0831C249.826 83.3631 251.506 84.0031 253.666 84.0031C257.266 84.0031 260.666 82.5231 263.866 79.5631L267.106 84.4831ZM365.388 30.8431C370.268 30.8431 374.588 32.0431 378.348 34.4431C382.108 36.8431 385.028 40.3231 387.108 44.8831C389.268 49.4431 390.348 54.8031 390.348 60.9631C390.348 67.1231 389.188 72.6031 386.868 77.4031C384.548 82.1231 381.348 85.8031 377.268 88.4431C373.268 91.0831 368.788 92.4031 363.828 92.4031C360.388 92.4031 357.268 91.7631 354.468 90.4831C351.748 89.2031 349.508 87.4431 347.748 85.2031H346.908V112.683C348.828 113.003 350.628 113.483 352.308 114.123C354.068 114.843 355.428 115.563 356.388 116.283L355.548 120.003H325.668L324.828 116.283C325.708 115.563 326.948 114.843 328.548 114.123C330.228 113.483 331.988 113.003 333.828 112.683V32.0431C334.788 29.8831 335.468 28.0031 335.868 26.4031C336.268 24.8031 336.468 23.0431 336.468 21.1231C336.468 17.1231 335.348 13.9231 333.108 11.5231C330.948 9.12312 327.908 7.92312 323.988 7.92312C320.148 7.92312 316.868 9.16312 314.148 11.6431C311.428 14.1231 310.068 17.2831 310.068 21.1231C310.068 25.4431 311.988 30.0831 315.828 35.0431L314.028 51.6031H308.748C306.508 46.8031 305.108 42.5631 304.548 38.8831C301.748 38.0031 298.908 37.5631 296.028 37.5631C292.748 37.5631 290.268 38.2431 288.588 39.6031C286.988 40.8831 286.188 42.6031 286.188 44.7631C286.188 47.0031 287.268 48.8831 289.428 50.4031C291.588 51.8431 294.948 53.5231 299.508 55.4431C303.588 57.1231 306.948 58.6831 309.588 60.1231C312.228 61.5631 314.468 63.4831 316.308 65.8831C318.148 68.2031 319.068 71.0431 319.068 74.4031C319.068 79.6831 316.908 84.0031 312.588 87.3631C308.348 90.7231 302.548 92.4031 295.188 92.4031C291.428 92.4031 287.508 91.9631 283.428 91.0831C279.428 90.2031 276.068 89.0431 273.348 87.6031L275.148 70.5631H280.428C282.908 75.2831 284.508 79.6831 285.228 83.7631C287.868 85.0431 291.028 85.6831 294.708 85.6831C298.388 85.6831 301.188 84.9231 303.108 83.4031C305.028 81.8031 305.988 79.6431 305.988 76.9231C305.988 74.3631 304.828 72.3231 302.508 70.8031C300.268 69.2031 296.788 67.4431 292.068 65.5231C287.988 63.8431 284.668 62.3231 282.108 60.9631C279.628 59.6031 277.508 57.8031 275.748 55.5631C273.988 53.2431 273.108 50.4831 273.108 47.2831C273.108 44.3231 273.988 41.6031 275.748 39.1231C277.508 36.6431 280.108 34.6431 283.548 33.1231C286.988 31.6031 291.108 30.8431 295.908 30.8431C299.668 30.8431 303.428 31.2831 307.188 32.1631C304.068 28.4031 302.508 24.4031 302.508 20.1631C302.508 16.5631 303.428 13.2431 305.268 10.2031C307.188 7.08312 309.868 4.60312 313.308 2.76312C316.748 0.923119 320.788 0.00311899 325.428 0.00311899C330.068 0.00311899 334.148 0.88312 337.668 2.64312C341.268 4.32312 344.028 6.68312 345.948 9.72312C347.948 12.7631 348.948 16.1231 348.948 19.8031C348.948 23.5631 347.628 27.6431 344.988 32.0431L346.188 40.8031H346.908C348.908 37.8431 351.588 35.4431 354.948 33.6031C358.308 31.7631 361.788 30.8431 365.388 30.8431ZM361.188 84.3631C365.668 84.3631 369.348 82.3631 372.228 78.3631C375.108 74.3631 376.548 68.7231 376.548 61.4431C376.548 54.1631 375.188 48.6431 372.468 44.8831C369.748 41.1231 365.908 39.2431 360.948 39.2431C358.308 39.2431 355.668 40.1231 353.028 41.8831C350.468 43.5631 348.428 45.5231 346.908 47.7631V69.1231C346.908 73.6031 348.188 77.2831 350.748 80.1631C353.388 82.9631 356.868 84.3631 361.188 84.3631ZM495.971 84.4831C493.731 86.8831 490.971 88.8031 487.691 90.2431C484.491 91.6831 481.131 92.4031 477.611 92.4031C472.971 92.4031 469.331 91.1631 466.691 88.6831C464.051 86.1231 462.731 82.7231 462.731 78.4831V39.4831H453.491L452.531 35.0431C453.651 34.1631 455.171 33.3231 457.091 32.5231C459.091 31.6431 461.051 31.1231 462.971 30.9631C464.731 28.2431 465.611 25.0431 465.611 21.3631C465.611 17.3631 464.331 14.1231 461.771 11.6431C459.211 9.16312 455.771 7.92312 451.451 7.92312C447.291 7.92312 443.811 9.20312 441.011 11.7631C438.211 14.2431 436.811 17.4431 436.811 21.3631C436.811 25.7631 438.691 30.3231 442.451 35.0431L440.651 51.6031H435.371C433.131 46.8031 431.731 42.5631 431.171 38.8831C428.371 38.0031 425.531 37.5631 422.651 37.5631C419.371 37.5631 416.891 38.2431 415.211 39.6031C413.611 40.8831 412.811 42.6031 412.811 44.7631C412.811 47.0031 413.891 48.8831 416.051 50.4031C418.211 51.8431 421.571 53.5231 426.131 55.4431C430.211 57.1231 433.571 58.6831 436.211 60.1231C438.851 61.5631 441.091 63.4831 442.931 65.8831C444.771 68.2031 445.691 71.0431 445.691 74.4031C445.691 79.6831 443.531 84.0031 439.211 87.3631C434.971 90.7231 429.171 92.4031 421.811 92.4031C418.051 92.4031 414.131 91.9631 410.051 91.0831C406.051 90.2031 402.691 89.0431 399.971 87.6031L401.771 70.5631H407.051C409.531 75.2831 411.131 79.6831 411.851 83.7631C414.491 85.0431 417.651 85.6831 421.331 85.6831C425.011 85.6831 427.811 84.9231 429.731 83.4031C431.651 81.8031 432.611 79.6431 432.611 76.9231C432.611 74.3631 431.451 72.3231 429.131 70.8031C426.891 69.2031 423.411 67.4431 418.691 65.5231C414.611 63.8431 411.291 62.3231 408.731 60.9631C406.251 59.6031 404.131 57.8031 402.371 55.5631C400.611 53.2431 399.731 50.4831 399.731 47.2831C399.731 44.3231 400.611 41.6031 402.371 39.1231C404.131 36.6431 406.731 34.6431 410.171 33.1231C413.611 31.6031 417.771 30.8431 422.651 30.8431C426.411 30.8431 430.171 31.3231 433.931 32.2831C430.891 28.3631 429.371 24.3231 429.371 20.1631C429.371 16.5631 430.291 13.2431 432.131 10.2031C434.051 7.08312 436.771 4.60312 440.291 2.76312C443.891 0.923119 448.091 0.00311899 452.891 0.00311899C457.851 0.00311899 462.211 0.88312 465.971 2.64312C469.731 4.32312 472.611 6.68312 474.611 9.72312C476.691 12.7631 477.731 16.1231 477.731 19.8031C477.731 24.1231 476.611 28.2031 474.371 32.0431H491.291V39.4831H475.811V76.6831C475.811 79.0031 476.411 80.8031 477.611 82.0831C478.811 83.3631 480.451 84.0031 482.531 84.0031C486.211 84.0031 489.651 82.5231 492.851 79.5631L495.971 84.4831Z" fill="#EDEFF1"/>
</svg>
