<svg width="561" height="126" viewBox="0 0 561 126" fill="none" xmlns="http://www.w3.org/2000/svg">
<mask id="path-1-outside-1_382_5337" maskUnits="userSpaceOnUse" x="-0.533203" y="58.5234" width="90" height="56" fill="black">
<rect fill="white" x="-0.533203" y="58.5234" width="90" height="56"/>
<path d="M20.8348 85.4614C20.8348 85.9468 21.0688 86.3541 21.5368 86.6834C22.0048 86.9954 22.7328 87.3594 23.7208 87.7754C24.6048 88.1394 25.3328 88.4774 25.9048 88.7894C26.4768 89.1014 26.9621 89.5174 27.3608 90.0374C27.7595 90.5401 27.9588 91.1554 27.9588 91.8834C27.9588 93.0274 27.4908 93.9634 26.5548 94.6914C25.6361 95.4194 24.3795 95.7834 22.7848 95.7834C21.9701 95.7834 21.1208 95.6881 20.2368 95.4974C19.3701 95.3068 18.6421 95.0554 18.0528 94.7434L18.4428 91.0514H19.5868C20.1241 92.0741 20.4708 93.0274 20.6268 93.9114C21.1988 94.1888 21.8835 94.3274 22.6808 94.3274C23.4781 94.3274 24.0848 94.1628 24.5008 93.8334C24.9168 93.4868 25.1248 93.0188 25.1248 92.4294C25.1248 91.8748 24.8735 91.4328 24.3708 91.1034C23.8855 90.7568 23.1315 90.3754 22.1088 89.9594C21.2248 89.5954 20.5055 89.2661 19.9508 88.9714C19.4135 88.6768 18.9541 88.2868 18.5728 87.8014C18.1915 87.2988 18.0008 86.7008 18.0008 86.0074C18.0008 85.3661 18.1915 84.7768 18.5728 84.2394C18.9541 83.7021 19.5175 83.2688 20.2628 82.9394C21.0081 82.6101 21.9008 82.4454 22.9408 82.4454C23.6688 82.4454 24.4141 82.5321 25.1768 82.7054C25.9568 82.8614 26.6501 83.0781 27.2568 83.3554L26.8668 86.9434H25.7228C25.2375 85.9034 24.9341 84.9848 24.8128 84.1874C24.2061 83.9968 23.5908 83.9014 22.9668 83.9014C22.2561 83.9014 21.7188 84.0488 21.3548 84.3434C21.0081 84.6208 20.8348 84.9934 20.8348 85.4614ZM32.7308 85.4614C32.7308 85.9468 32.9648 86.3541 33.4328 86.6834C33.9008 86.9954 34.6288 87.3594 35.6168 87.7754C36.5008 88.1394 37.2288 88.4774 37.8008 88.7894C38.3728 89.1014 38.8581 89.5174 39.2568 90.0374C39.6555 90.5401 39.8548 91.1554 39.8548 91.8834C39.8548 93.0274 39.3868 93.9634 38.4508 94.6914C37.5321 95.4194 36.2755 95.7834 34.6808 95.7834C33.8661 95.7834 33.0168 95.6881 32.1328 95.4974C31.2661 95.3068 30.5381 95.0554 29.9488 94.7434L30.3388 91.0514H31.4828C32.0201 92.0741 32.3668 93.0274 32.5228 93.9114C33.0948 94.1888 33.7795 94.3274 34.5768 94.3274C35.3741 94.3274 35.9808 94.1628 36.3968 93.8334C36.8128 93.4868 37.0208 93.0188 37.0208 92.4294C37.0208 91.8748 36.7695 91.4328 36.2668 91.1034C35.7815 90.7568 35.0275 90.3754 34.0048 89.9594C33.1208 89.5954 32.4015 89.2661 31.8468 88.9714C31.3095 88.6768 30.8501 88.2868 30.4688 87.8014C30.0875 87.2988 29.8968 86.7008 29.8968 86.0074C29.8968 85.3661 30.0875 84.7768 30.4688 84.2394C30.8501 83.7021 31.4135 83.2688 32.1588 82.9394C32.9041 82.6101 33.7968 82.4454 34.8368 82.4454C35.5648 82.4454 36.3101 82.5321 37.0728 82.7054C37.8528 82.8614 38.5461 83.0781 39.1528 83.3554L38.7628 86.9434H37.6188C37.1335 85.9034 36.8301 84.9848 36.7088 84.1874C36.1021 83.9968 35.4868 83.9014 34.8628 83.9014C34.1521 83.9014 33.6148 84.0488 33.2508 84.3434C32.9041 84.6208 32.7308 84.9934 32.7308 85.4614ZM49.1206 95.7834C47.6472 95.7834 46.3559 95.4194 45.2466 94.6914C44.1372 93.9461 43.2792 92.8888 42.6726 91.5194C42.0659 90.1501 41.7626 88.5294 41.7626 86.6574C41.7626 84.7854 42.0746 83.1214 42.6986 81.6654C43.3399 80.2094 44.2152 79.0828 45.3246 78.2854C46.4512 77.4708 47.7166 77.0634 49.1206 77.0634C50.5939 77.0634 51.8852 77.4361 52.9946 78.1814C54.1039 78.9268 54.9619 79.9841 55.5686 81.3534C56.1752 82.7228 56.4786 84.3348 56.4786 86.1894C56.4786 88.0961 56.1579 89.7774 55.5166 91.2334C54.8752 92.6721 53.9912 93.7901 52.8646 94.5874C51.7552 95.3848 50.5072 95.7834 49.1206 95.7834ZM49.1206 94.1714C49.9352 94.1714 50.6459 93.8681 51.2526 93.2614C51.8766 92.6548 52.3532 91.7708 52.6826 90.6094C53.0292 89.4481 53.2026 88.0528 53.2026 86.4234C53.2026 84.7941 53.0292 83.3988 52.6826 82.2374C52.3532 81.0761 51.8766 80.1921 51.2526 79.5854C50.6459 78.9788 49.9352 78.6754 49.1206 78.6754C48.3059 78.6754 47.5866 78.9788 46.9626 79.5854C46.3559 80.1921 45.8792 81.0761 45.5326 82.2374C45.2032 83.3988 45.0386 84.7941 45.0386 86.4234C45.0386 88.0528 45.2032 89.4481 45.5326 90.6094C45.8792 91.7708 46.3559 92.6548 46.9626 93.2614C47.5866 93.8681 48.3059 94.1714 49.1206 94.1714ZM65.166 95.7834C63.866 95.7834 62.7133 95.4628 61.708 94.8214C60.7027 94.1801 59.914 93.2528 59.342 92.0394C58.7873 90.8088 58.51 89.3441 58.51 87.6454C58.51 85.4961 58.848 83.6241 59.524 82.0294C60.2173 80.4348 61.188 79.2128 62.436 78.3634C63.7013 77.4968 65.1833 77.0634 66.882 77.0634C68.13 77.0634 69.248 77.2628 70.236 77.6614L69.846 79.3774C69.0313 78.9961 68.1387 78.8054 67.168 78.8054C65.608 78.8054 64.3513 79.4208 63.398 80.6514C62.4447 81.8648 61.8813 83.6154 61.708 85.9034H61.89C62.2887 85.3141 62.852 84.8374 63.58 84.4734C64.308 84.1094 65.0967 83.9274 65.946 83.9274C67.5753 83.9274 68.884 84.4214 69.872 85.4094C70.8773 86.3974 71.38 87.7841 71.38 89.5694C71.38 90.7134 71.1113 91.7621 70.574 92.7154C70.0367 93.6514 69.2913 94.3968 68.338 94.9514C67.402 95.5061 66.3447 95.7834 65.166 95.7834ZM65.218 94.1714C66.1193 94.1714 66.8387 93.7814 67.376 93.0014C67.9133 92.2041 68.182 91.1381 68.182 89.8034C68.182 88.5034 67.9047 87.4981 67.35 86.7874C66.7953 86.0594 66.0673 85.6954 65.166 85.6954C64.4033 85.6954 63.736 85.9034 63.164 86.3194C62.6093 86.7354 62.1587 87.2988 61.812 88.0094C61.812 89.9854 62.124 91.5108 62.748 92.5854C63.372 93.6428 64.1953 94.1714 65.218 94.1714Z"/>
</mask>
<path d="M20.8348 85.4614C20.8348 85.9468 21.0688 86.3541 21.5368 86.6834C22.0048 86.9954 22.7328 87.3594 23.7208 87.7754C24.6048 88.1394 25.3328 88.4774 25.9048 88.7894C26.4768 89.1014 26.9621 89.5174 27.3608 90.0374C27.7595 90.5401 27.9588 91.1554 27.9588 91.8834C27.9588 93.0274 27.4908 93.9634 26.5548 94.6914C25.6361 95.4194 24.3795 95.7834 22.7848 95.7834C21.9701 95.7834 21.1208 95.6881 20.2368 95.4974C19.3701 95.3068 18.6421 95.0554 18.0528 94.7434L18.4428 91.0514H19.5868C20.1241 92.0741 20.4708 93.0274 20.6268 93.9114C21.1988 94.1888 21.8835 94.3274 22.6808 94.3274C23.4781 94.3274 24.0848 94.1628 24.5008 93.8334C24.9168 93.4868 25.1248 93.0188 25.1248 92.4294C25.1248 91.8748 24.8735 91.4328 24.3708 91.1034C23.8855 90.7568 23.1315 90.3754 22.1088 89.9594C21.2248 89.5954 20.5055 89.2661 19.9508 88.9714C19.4135 88.6768 18.9541 88.2868 18.5728 87.8014C18.1915 87.2988 18.0008 86.7008 18.0008 86.0074C18.0008 85.3661 18.1915 84.7768 18.5728 84.2394C18.9541 83.7021 19.5175 83.2688 20.2628 82.9394C21.0081 82.6101 21.9008 82.4454 22.9408 82.4454C23.6688 82.4454 24.4141 82.5321 25.1768 82.7054C25.9568 82.8614 26.6501 83.0781 27.2568 83.3554L26.8668 86.9434H25.7228C25.2375 85.9034 24.9341 84.9848 24.8128 84.1874C24.2061 83.9968 23.5908 83.9014 22.9668 83.9014C22.2561 83.9014 21.7188 84.0488 21.3548 84.3434C21.0081 84.6208 20.8348 84.9934 20.8348 85.4614ZM32.7308 85.4614C32.7308 85.9468 32.9648 86.3541 33.4328 86.6834C33.9008 86.9954 34.6288 87.3594 35.6168 87.7754C36.5008 88.1394 37.2288 88.4774 37.8008 88.7894C38.3728 89.1014 38.8581 89.5174 39.2568 90.0374C39.6555 90.5401 39.8548 91.1554 39.8548 91.8834C39.8548 93.0274 39.3868 93.9634 38.4508 94.6914C37.5321 95.4194 36.2755 95.7834 34.6808 95.7834C33.8661 95.7834 33.0168 95.6881 32.1328 95.4974C31.2661 95.3068 30.5381 95.0554 29.9488 94.7434L30.3388 91.0514H31.4828C32.0201 92.0741 32.3668 93.0274 32.5228 93.9114C33.0948 94.1888 33.7795 94.3274 34.5768 94.3274C35.3741 94.3274 35.9808 94.1628 36.3968 93.8334C36.8128 93.4868 37.0208 93.0188 37.0208 92.4294C37.0208 91.8748 36.7695 91.4328 36.2668 91.1034C35.7815 90.7568 35.0275 90.3754 34.0048 89.9594C33.1208 89.5954 32.4015 89.2661 31.8468 88.9714C31.3095 88.6768 30.8501 88.2868 30.4688 87.8014C30.0875 87.2988 29.8968 86.7008 29.8968 86.0074C29.8968 85.3661 30.0875 84.7768 30.4688 84.2394C30.8501 83.7021 31.4135 83.2688 32.1588 82.9394C32.9041 82.6101 33.7968 82.4454 34.8368 82.4454C35.5648 82.4454 36.3101 82.5321 37.0728 82.7054C37.8528 82.8614 38.5461 83.0781 39.1528 83.3554L38.7628 86.9434H37.6188C37.1335 85.9034 36.8301 84.9848 36.7088 84.1874C36.1021 83.9968 35.4868 83.9014 34.8628 83.9014C34.1521 83.9014 33.6148 84.0488 33.2508 84.3434C32.9041 84.6208 32.7308 84.9934 32.7308 85.4614ZM49.1206 95.7834C47.6472 95.7834 46.3559 95.4194 45.2466 94.6914C44.1372 93.9461 43.2792 92.8888 42.6726 91.5194C42.0659 90.1501 41.7626 88.5294 41.7626 86.6574C41.7626 84.7854 42.0746 83.1214 42.6986 81.6654C43.3399 80.2094 44.2152 79.0828 45.3246 78.2854C46.4512 77.4708 47.7166 77.0634 49.1206 77.0634C50.5939 77.0634 51.8852 77.4361 52.9946 78.1814C54.1039 78.9268 54.9619 79.9841 55.5686 81.3534C56.1752 82.7228 56.4786 84.3348 56.4786 86.1894C56.4786 88.0961 56.1579 89.7774 55.5166 91.2334C54.8752 92.6721 53.9912 93.7901 52.8646 94.5874C51.7552 95.3848 50.5072 95.7834 49.1206 95.7834ZM49.1206 94.1714C49.9352 94.1714 50.6459 93.8681 51.2526 93.2614C51.8766 92.6548 52.3532 91.7708 52.6826 90.6094C53.0292 89.4481 53.2026 88.0528 53.2026 86.4234C53.2026 84.7941 53.0292 83.3988 52.6826 82.2374C52.3532 81.0761 51.8766 80.1921 51.2526 79.5854C50.6459 78.9788 49.9352 78.6754 49.1206 78.6754C48.3059 78.6754 47.5866 78.9788 46.9626 79.5854C46.3559 80.1921 45.8792 81.0761 45.5326 82.2374C45.2032 83.3988 45.0386 84.7941 45.0386 86.4234C45.0386 88.0528 45.2032 89.4481 45.5326 90.6094C45.8792 91.7708 46.3559 92.6548 46.9626 93.2614C47.5866 93.8681 48.3059 94.1714 49.1206 94.1714ZM65.166 95.7834C63.866 95.7834 62.7133 95.4628 61.708 94.8214C60.7027 94.1801 59.914 93.2528 59.342 92.0394C58.7873 90.8088 58.51 89.3441 58.51 87.6454C58.51 85.4961 58.848 83.6241 59.524 82.0294C60.2173 80.4348 61.188 79.2128 62.436 78.3634C63.7013 77.4968 65.1833 77.0634 66.882 77.0634C68.13 77.0634 69.248 77.2628 70.236 77.6614L69.846 79.3774C69.0313 78.9961 68.1387 78.8054 67.168 78.8054C65.608 78.8054 64.3513 79.4208 63.398 80.6514C62.4447 81.8648 61.8813 83.6154 61.708 85.9034H61.89C62.2887 85.3141 62.852 84.8374 63.58 84.4734C64.308 84.1094 65.0967 83.9274 65.946 83.9274C67.5753 83.9274 68.884 84.4214 69.872 85.4094C70.8773 86.3974 71.38 87.7841 71.38 89.5694C71.38 90.7134 71.1113 91.7621 70.574 92.7154C70.0367 93.6514 69.2913 94.3968 68.338 94.9514C67.402 95.5061 66.3447 95.7834 65.166 95.7834ZM65.218 94.1714C66.1193 94.1714 66.8387 93.7814 67.376 93.0014C67.9133 92.2041 68.182 91.1381 68.182 89.8034C68.182 88.5034 67.9047 87.4981 67.35 86.7874C66.7953 86.0594 66.0673 85.6954 65.166 85.6954C64.4033 85.6954 63.736 85.9034 63.164 86.3194C62.6093 86.7354 62.1587 87.2988 61.812 88.0094C61.812 89.9854 62.124 91.5108 62.748 92.5854C63.372 93.6428 64.1953 94.1714 65.218 94.1714Z" fill="#A5D0FD"/>
<path d="M21.5368 86.6834L11.1779 101.404C11.3016 101.491 11.4264 101.576 11.5522 101.66L21.5368 86.6834ZM23.7208 87.7754L16.7358 104.365C16.7795 104.383 16.8234 104.402 16.8673 104.42L23.7208 87.7754ZM25.9048 88.7894L17.2855 104.592L17.2855 104.592L25.9048 88.7894ZM27.3608 90.0374L13.0759 100.989C13.1359 101.067 13.1965 101.145 13.2578 101.223L27.3608 90.0374ZM26.5548 94.6914L15.5039 80.4831C15.4609 80.5165 15.418 80.5502 15.3753 80.584L26.5548 94.6914ZM20.2368 95.4974L16.3693 113.077C16.3934 113.082 16.4176 113.088 16.4417 113.093L20.2368 95.4974ZM18.0528 94.7434L0.152391 92.8525C-0.62001 100.165 3.13256 107.211 9.63082 110.652L18.0528 94.7434ZM18.4428 91.0514V73.0514C9.23367 73.0514 1.5098 80.0024 0.542391 89.1605L18.4428 91.0514ZM19.5868 91.0514L35.5212 82.6791C32.4106 76.759 26.2743 73.0514 19.5868 73.0514V91.0514ZM20.6268 93.9114L2.90069 97.0396C3.90444 102.727 7.57672 107.588 12.7739 110.108L20.6268 93.9114ZM24.5008 93.8334L35.6735 107.946C35.7915 107.853 35.9084 107.758 36.0241 107.661L24.5008 93.8334ZM24.3708 91.1034L13.9085 105.751C14.105 105.891 14.3043 106.027 14.5063 106.16L24.3708 91.1034ZM22.1088 89.9594L15.2553 106.604C15.279 106.613 15.3027 106.623 15.3264 106.633L22.1088 89.9594ZM19.9508 88.9714L11.2958 104.754C11.3656 104.792 11.4357 104.83 11.506 104.868L19.9508 88.9714ZM18.5728 87.8014L4.23236 98.6804C4.29391 98.7615 4.35615 98.8421 4.41907 98.9222L18.5728 87.8014ZM18.5728 84.2394L33.2519 94.6569L33.2519 94.6569L18.5728 84.2394ZM20.2628 82.9394L27.5377 99.4038H27.5377L20.2628 82.9394ZM25.1768 82.7054L21.1876 100.258C21.3402 100.293 21.4933 100.325 21.6467 100.356L25.1768 82.7054ZM27.2568 83.3554L45.1514 85.3005C45.9895 77.5899 41.7943 70.2095 34.7405 66.9849L27.2568 83.3554ZM26.8668 86.9434V104.943C36.0551 104.943 43.7685 98.023 44.7614 88.8885L26.8668 86.9434ZM25.7228 86.9434L9.4115 94.5554C12.3689 100.893 18.7294 104.943 25.7228 104.943V86.9434ZM24.8128 84.1874L42.6079 81.4795C41.5743 74.6871 36.7642 69.0755 30.2097 67.0156L24.8128 84.1874ZM21.3548 84.3434L32.5993 98.3991C32.6264 98.3774 32.6534 98.3557 32.6804 98.3338L21.3548 84.3434ZM20.8348 85.4614H2.8348C2.8348 92.91 6.90069 98.394 11.1779 101.404L21.5368 86.6834L31.8957 71.9629C33.3507 72.9868 35.1727 74.6485 36.6182 77.1647C38.1219 79.7823 38.8348 82.6666 38.8348 85.4614H20.8348ZM21.5368 86.6834L11.5522 101.66C13.4682 102.938 15.4596 103.828 16.7358 104.365L23.7208 87.7754L30.7058 71.186C30.4666 71.0853 30.4089 71.0534 30.4836 71.0907C30.5262 71.112 30.6347 71.1672 30.7936 71.2571C30.9479 71.3443 31.2016 71.4933 31.5214 71.7065L21.5368 86.6834ZM23.7208 87.7754L16.8673 104.42C17.1093 104.519 17.2656 104.589 17.3498 104.628C17.4388 104.669 17.4073 104.658 17.2855 104.592L25.9048 88.7894L34.5241 72.9873C33.1823 72.2554 31.811 71.6405 30.5743 71.1312L23.7208 87.7754ZM25.9048 88.7894L17.2855 104.592C15.6382 103.693 14.1975 102.452 13.0759 100.989L27.3608 90.0374L41.6457 79.0857C39.7268 76.5827 37.3154 74.5098 34.5241 72.9873L25.9048 88.7894ZM27.3608 90.0374L13.2578 101.223C10.7967 98.1193 9.9588 94.6404 9.9588 91.8834H27.9588H45.9588C45.9588 87.6705 44.7223 82.9609 41.4638 78.8523L27.3608 90.0374ZM27.9588 91.8834H9.9588C9.9588 89.9259 10.3791 87.6516 11.5081 85.3936C12.627 83.1557 14.1338 81.5487 15.5039 80.4831L26.5548 94.6914L37.6057 108.9C42.7397 104.907 45.9588 98.8143 45.9588 91.8834H27.9588ZM26.5548 94.6914L15.3753 80.584C18.6146 78.0171 21.773 77.7834 22.7848 77.7834V95.7834V113.783C26.9859 113.783 32.6577 112.822 37.7343 108.799L26.5548 94.6914ZM22.7848 95.7834V77.7834C23.3766 77.7834 23.8034 77.8528 24.0319 77.9021L20.2368 95.4974L16.4417 113.093C18.4382 113.523 20.5636 113.783 22.7848 113.783V95.7834ZM20.2368 95.4974L24.1043 77.9178C24.3354 77.9687 25.2446 78.184 26.4748 78.8353L18.0528 94.7434L9.63082 110.652C12.0397 111.927 14.4049 112.645 16.3693 113.077L20.2368 95.4974ZM18.0528 94.7434L35.9532 96.6343L36.3432 92.9423L18.4428 91.0514L0.542391 89.1605L0.152391 92.8525L18.0528 94.7434ZM18.4428 91.0514V109.051H19.5868V91.0514V73.0514H18.4428V91.0514ZM19.5868 91.0514L3.65241 99.4237C3.56004 99.2479 3.14497 98.4238 2.90069 97.0396L20.6268 93.9114L38.3529 90.7833C37.7966 87.6311 36.6882 84.9003 35.5212 82.6791L19.5868 91.0514ZM20.6268 93.9114L12.7739 110.108C16.335 111.835 19.8368 112.327 22.6808 112.327V94.3274V76.3274C23.9301 76.3274 26.0626 76.5428 28.4797 77.7148L20.6268 93.9114ZM22.6808 94.3274V112.327C25.5845 112.327 30.8278 111.782 35.6735 107.946L24.5008 93.8334L13.3281 79.7206C17.3418 76.5431 21.3717 76.3274 22.6808 76.3274V94.3274ZM24.5008 93.8334L36.0241 107.661C40.9386 103.566 43.1248 97.8249 43.1248 92.4294H25.1248H7.1248C7.1248 90.5832 7.45833 88.3011 8.52019 85.9119C9.60084 83.4805 11.1906 81.4945 12.9775 80.0055L24.5008 93.8334ZM25.1248 92.4294H43.1248C43.1248 85.227 39.3112 79.3728 34.2353 76.0471L24.3708 91.1034L14.5063 106.16C12.8016 105.043 10.8104 103.255 9.28907 100.579C7.73477 97.8459 7.1248 94.9802 7.1248 92.4294H25.1248ZM24.3708 91.1034L34.8331 76.4562C32.618 74.874 30.3137 73.8648 28.8912 73.2861L22.1088 89.9594L15.3264 106.633C15.5118 106.708 15.4882 106.706 15.3177 106.62C15.2261 106.574 15.0604 106.487 14.8395 106.357C14.6231 106.23 14.2997 106.03 13.9085 105.751L24.3708 91.1034ZM22.1088 89.9594L28.9623 73.3152C28.6927 73.2042 28.5096 73.1237 28.3993 73.0732C28.2832 73.02 28.2926 73.0206 28.3956 73.0754L19.9508 88.9714L11.506 104.868C12.7712 105.54 14.0772 106.119 15.2553 106.604L22.1088 89.9594ZM19.9508 88.9714L28.6058 73.1888C30.2126 74.07 31.6191 75.2712 32.7265 76.6806L18.5728 87.8014L4.41907 98.9222C6.28913 101.302 8.61429 103.284 11.2958 104.754L19.9508 88.9714ZM18.5728 87.8014L32.9132 76.9225C35.143 79.8618 36.0008 83.183 36.0008 86.0074H18.0008H0.000797272C0.000797272 90.2186 1.23988 94.7358 4.23236 98.6804L18.5728 87.8014ZM18.0008 86.0074H36.0008C36.0008 89.2066 34.9678 92.2391 33.2519 94.6569L18.5728 84.2394L3.89367 73.822C1.41517 77.3144 0.000797272 81.5256 0.000797272 86.0074H18.0008ZM18.5728 84.2394L33.2519 94.6569C31.3578 97.3259 29.0619 98.7303 27.5377 99.4038L20.2628 82.9394L12.9879 66.4751C9.97304 67.8072 6.55047 70.0783 3.89367 73.822L18.5728 84.2394ZM20.2628 82.9394L27.5377 99.4038C25.4516 100.326 23.7398 100.445 22.9408 100.445V82.4454V64.4454C20.0618 64.4454 16.5647 64.8946 12.9878 66.4751L20.2628 82.9394ZM22.9408 82.4454V100.445C22.2312 100.445 21.6374 100.36 21.1876 100.258L25.1768 82.7054L29.166 65.153C27.1908 64.7041 25.1064 64.4454 22.9408 64.4454V82.4454ZM25.1768 82.7054L21.6467 100.356C21.3162 100.29 20.6448 100.124 19.7731 99.726L27.2568 83.3554L34.7405 66.9849C32.6554 66.0317 30.5974 65.4331 28.7069 65.055L25.1768 82.7054ZM27.2568 83.3554L9.3622 81.4104L8.9722 84.9984L26.8668 86.9434L44.7614 88.8885L45.1514 85.3005L27.2568 83.3554ZM26.8668 86.9434V68.9434H25.7228V86.9434V104.943H26.8668V86.9434ZM25.7228 86.9434L42.0341 79.3315C42.037 79.3376 42.1176 79.5095 42.2237 79.8307C42.3278 80.1461 42.4906 80.7081 42.6079 81.4795L24.8128 84.1874L7.01766 86.8954C7.48079 89.9388 8.48001 92.5593 9.4115 94.5554L25.7228 86.9434ZM24.8128 84.1874L30.2097 67.0156C27.8904 66.2866 25.4565 65.9014 22.9668 65.9014V83.9014V101.901C21.7251 101.901 20.5218 101.707 19.4159 101.359L24.8128 84.1874ZM22.9668 83.9014V65.9014C20.1707 65.9014 14.8866 66.4209 10.0292 70.353L21.3548 84.3434L32.6804 98.3338C28.551 101.677 24.3416 101.901 22.9668 101.901V83.9014ZM21.3548 84.3434L10.1103 70.2878C5.23369 74.1891 2.8348 79.8673 2.8348 85.4614H20.8348H38.8348C38.8348 87.486 38.4489 89.9213 37.2858 92.4221C36.1094 94.9514 34.4168 96.9451 32.5993 98.3991L21.3548 84.3434ZM33.4328 86.6834L23.0739 101.404C23.1976 101.491 23.3224 101.576 23.4482 101.66L33.4328 86.6834ZM35.6168 87.7754L28.6318 104.365C28.6756 104.383 28.7194 104.402 28.7633 104.42L35.6168 87.7754ZM37.8008 88.7894L29.1815 104.592L29.1815 104.592L37.8008 88.7894ZM39.2568 90.0374L24.9719 100.989C25.0319 101.067 25.0926 101.145 25.1539 101.223L39.2568 90.0374ZM38.4508 94.6914L27.3999 80.4831C27.3569 80.5165 27.314 80.5502 27.2713 80.584L38.4508 94.6914ZM32.1328 95.4974L28.2653 113.077C28.2894 113.082 28.3136 113.088 28.3377 113.093L32.1328 95.4974ZM29.9488 94.7434L12.0484 92.8525C11.276 100.165 15.0286 107.211 21.5268 110.652L29.9488 94.7434ZM30.3388 91.0514V73.0514C21.1297 73.0514 13.4058 80.0024 12.4384 89.1605L30.3388 91.0514ZM31.4828 91.0514L47.4172 82.6791C44.3066 76.759 38.1704 73.0514 31.4828 73.0514V91.0514ZM32.5228 93.9114L14.7967 97.0396C15.8005 102.727 19.4727 107.588 24.6699 110.108L32.5228 93.9114ZM36.3968 93.8334L47.5695 107.946C47.6875 107.853 47.8044 107.758 47.9201 107.661L36.3968 93.8334ZM36.2668 91.1034L25.8045 105.751C26.001 105.891 26.2003 106.027 26.4023 106.16L36.2668 91.1034ZM34.0048 89.9594L27.1513 106.604C27.175 106.613 27.1987 106.623 27.2224 106.633L34.0048 89.9594ZM31.8468 88.9714L23.1918 104.754C23.2616 104.792 23.3317 104.83 23.402 104.868L31.8468 88.9714ZM30.4688 87.8014L16.1284 98.6804C16.1899 98.7615 16.2522 98.8421 16.3151 98.9222L30.4688 87.8014ZM30.4688 84.2394L45.1479 94.6569L45.1479 94.6569L30.4688 84.2394ZM32.1588 82.9394L39.4338 99.4038L32.1588 82.9394ZM37.0728 82.7054L33.0836 100.258C33.2362 100.293 33.3893 100.325 33.5427 100.356L37.0728 82.7054ZM39.1528 83.3554L57.0474 85.3005C57.8855 77.5899 53.6904 70.2095 46.6365 66.9849L39.1528 83.3554ZM38.7628 86.9434V104.943C47.9511 104.943 55.6645 98.023 56.6574 88.8885L38.7628 86.9434ZM37.6188 86.9434L21.3075 94.5554C24.2649 100.893 30.6254 104.943 37.6188 104.943V86.9434ZM36.7088 84.1874L54.504 81.4795C53.4703 74.6871 48.6602 69.0755 42.1057 67.0156L36.7088 84.1874ZM33.2508 84.3434L44.4953 98.3991C44.5224 98.3774 44.5494 98.3557 44.5764 98.3338L33.2508 84.3434ZM32.7308 85.4614H14.7308C14.7308 92.91 18.7967 98.394 23.0739 101.404L33.4328 86.6834L43.7917 71.9629C45.2467 72.9868 47.0687 74.6485 48.5142 77.1647C50.0179 79.7823 50.7308 82.6666 50.7308 85.4614H32.7308ZM33.4328 86.6834L23.4482 101.66C25.3643 102.938 27.3557 103.828 28.6318 104.365L35.6168 87.7754L42.6018 71.186C42.3626 71.0853 42.3049 71.0534 42.3797 71.0907C42.4222 71.112 42.5307 71.1672 42.6896 71.2571C42.8439 71.3443 43.0976 71.4933 43.4174 71.7065L33.4328 86.6834ZM35.6168 87.7754L28.7633 104.42C29.0054 104.519 29.1616 104.589 29.2458 104.628C29.3348 104.669 29.3033 104.658 29.1815 104.592L37.8008 88.7894L46.4202 72.9873C45.0784 72.2554 43.707 71.6405 42.4703 71.1312L35.6168 87.7754ZM37.8008 88.7894L29.1815 104.592C27.5342 103.693 26.0935 102.452 24.9719 100.989L39.2568 90.0374L53.5417 79.0857C51.6228 76.5827 49.2114 74.5098 46.4201 72.9873L37.8008 88.7894ZM39.2568 90.0374L25.1539 101.223C22.6927 98.1193 21.8548 94.6404 21.8548 91.8834H39.8548H57.8548C57.8548 87.6705 56.6183 82.9609 53.3598 78.8523L39.2568 90.0374ZM39.8548 91.8834H21.8548C21.8548 89.9259 22.2751 87.6516 23.4041 85.3936C24.5231 83.1557 26.0298 81.5487 27.3999 80.4831L38.4508 94.6914L49.5017 108.9C54.6357 104.907 57.8548 98.8143 57.8548 91.8834H39.8548ZM38.4508 94.6914L27.2713 80.584C30.5106 78.0171 33.669 77.7834 34.6808 77.7834V95.7834V113.783C38.8819 113.783 44.5537 112.822 49.6303 108.799L38.4508 94.6914ZM34.6808 95.7834V77.7834C35.2727 77.7834 35.6994 77.8528 35.9279 77.9021L32.1328 95.4974L28.3377 113.093C30.3342 113.523 32.4596 113.783 34.6808 113.783V95.7834ZM32.1328 95.4974L36.0003 77.9178C36.2314 77.9687 37.1406 78.184 38.3708 78.8353L29.9488 94.7434L21.5268 110.652C23.9357 111.927 26.3009 112.645 28.2653 113.077L32.1328 95.4974ZM29.9488 94.7434L47.8492 96.6343L48.2392 92.9423L30.3388 91.0514L12.4384 89.1605L12.0484 92.8525L29.9488 94.7434ZM30.3388 91.0514V109.051H31.4828V91.0514V73.0514H30.3388V91.0514ZM31.4828 91.0514L15.5484 99.4237C15.4561 99.2479 15.041 98.4238 14.7967 97.0396L32.5228 93.9114L50.2489 90.7833C49.6926 87.6311 48.5842 84.9003 47.4172 82.6791L31.4828 91.0514ZM32.5228 93.9114L24.6699 110.108C28.2311 111.835 31.7328 112.327 34.5768 112.327V94.3274V76.3274C35.8261 76.3274 37.9586 76.5428 40.3757 77.7148L32.5228 93.9114ZM34.5768 94.3274V112.327C37.4805 112.327 42.7238 111.782 47.5695 107.946L36.3968 93.8334L25.2242 79.7206C29.2378 76.5431 33.2677 76.3274 34.5768 76.3274V94.3274ZM36.3968 93.8334L47.9201 107.661C52.8347 103.566 55.0208 97.8249 55.0208 92.4294H37.0208H19.0208C19.0208 90.5832 19.3543 88.3011 20.4162 85.9119C21.4969 83.4805 23.0866 81.4945 24.8735 80.0055L36.3968 93.8334ZM37.0208 92.4294H55.0208C55.0208 85.227 51.2073 79.3728 46.1313 76.0471L36.2668 91.1034L26.4023 106.16C24.6976 105.043 22.7064 103.255 21.1851 100.579C19.6308 97.8459 19.0208 94.9802 19.0208 92.4294H37.0208ZM36.2668 91.1034L46.7291 76.4562C44.514 74.874 42.2097 73.8648 40.7872 73.2861L34.0048 89.9594L27.2224 106.633C27.4078 106.708 27.3842 106.706 27.2137 106.62C27.1221 106.574 26.9564 106.487 26.7356 106.357C26.5191 106.23 26.1957 106.03 25.8045 105.751L36.2668 91.1034ZM34.0048 89.9594L40.8583 73.3152C40.5888 73.2042 40.4056 73.1237 40.2953 73.0732C40.1792 73.02 40.1886 73.0206 40.2916 73.0754L31.8468 88.9714L23.402 104.868C24.6672 105.54 25.9732 106.119 27.1513 106.604L34.0048 89.9594ZM31.8468 88.9714L40.5018 73.1888C42.1087 74.07 43.5151 75.2712 44.6225 76.6806L30.4688 87.8014L16.3151 98.9222C18.1851 101.302 20.5103 103.284 23.1918 104.754L31.8468 88.9714ZM30.4688 87.8014L44.8093 76.9225C47.0391 79.8618 47.8968 83.183 47.8968 86.0074H29.8968H11.8968C11.8968 90.2186 13.1359 94.7358 16.1284 98.6804L30.4688 87.8014ZM29.8968 86.0074H47.8968C47.8968 89.2066 46.8638 92.2391 45.1479 94.6569L30.4688 84.2394L15.7897 73.822C13.3112 77.3144 11.8968 81.5256 11.8968 86.0074H29.8968ZM30.4688 84.2394L45.1479 94.6569C43.2538 97.3259 40.9579 98.7303 39.4338 99.4038L32.1588 82.9394L24.8839 66.4751C21.8691 67.8072 18.4465 70.0783 15.7897 73.822L30.4688 84.2394ZM32.1588 82.9394L39.4338 99.4038C37.3476 100.326 35.6358 100.445 34.8368 100.445V82.4454V64.4454C31.9578 64.4454 28.4607 64.8946 24.8839 66.4751L32.1588 82.9394ZM34.8368 82.4454V100.445C34.1272 100.445 33.5335 100.36 33.0836 100.258L37.0728 82.7054L41.062 65.153C39.0868 64.7041 37.0024 64.4454 34.8368 64.4454V82.4454ZM37.0728 82.7054L33.5427 100.356C33.2122 100.29 32.5408 100.124 31.6691 99.726L39.1528 83.3554L46.6365 66.9849C44.5515 66.0317 42.4934 65.4331 40.6029 65.055L37.0728 82.7054ZM39.1528 83.3554L21.2582 81.4104L20.8682 84.9984L38.7628 86.9434L56.6574 88.8885L57.0474 85.3005L39.1528 83.3554ZM38.7628 86.9434V68.9434H37.6188V86.9434V104.943H38.7628V86.9434ZM37.6188 86.9434L53.9301 79.3315C53.933 79.3376 54.0136 79.5095 54.1197 79.8307C54.2238 80.1461 54.3866 80.7081 54.504 81.4795L36.7088 84.1874L18.9137 86.8954C19.3768 89.9388 20.376 92.5593 21.3075 94.5554L37.6188 86.9434ZM36.7088 84.1874L42.1057 67.0156C39.7864 66.2866 37.3525 65.9014 34.8628 65.9014V83.9014V101.901C33.6211 101.901 32.4179 101.707 31.3119 101.359L36.7088 84.1874ZM34.8628 83.9014V65.9014C32.0667 65.9014 26.7826 66.4209 21.9252 70.353L33.2508 84.3434L44.5764 98.3338C40.447 101.677 36.2376 101.901 34.8628 101.901V83.9014ZM33.2508 84.3434L22.0063 70.2878C17.1297 74.1891 14.7308 79.8673 14.7308 85.4614H32.7308H50.7308C50.7308 87.486 50.3449 89.9213 49.1818 92.4221C48.0054 94.9514 46.3128 96.9451 44.4953 98.3991L33.2508 84.3434ZM45.2466 94.6914L35.2081 109.632C35.2622 109.669 35.3164 109.705 35.3707 109.74L45.2466 94.6914ZM42.6726 91.5194L59.1297 84.2283L42.6726 91.5194ZM42.6986 81.6654L26.2258 74.4096C26.2016 74.4646 26.1776 74.5197 26.154 74.5749L42.6986 81.6654ZM45.3246 78.2854L55.83 92.9017C55.8439 92.8917 55.8577 92.8818 55.8716 92.8717L45.3246 78.2854ZM52.9946 78.1814L63.033 63.2405L63.033 63.2405L52.9946 78.1814ZM55.5686 81.3534L39.1114 88.6446L39.1114 88.6446L55.5686 81.3534ZM55.5166 91.2334L71.957 98.5623C71.9678 98.538 71.9786 98.5137 71.9893 98.4893L55.5166 91.2334ZM52.8646 94.5874L42.4665 79.8946C42.4306 79.92 42.3948 79.9455 42.3591 79.9712L52.8646 94.5874ZM51.2526 93.2614L38.7052 80.3555C38.6446 80.4144 38.5844 80.4738 38.5246 80.5335L51.2526 93.2614ZM52.6826 90.6094L35.4346 85.4608C35.411 85.5399 35.3879 85.6192 35.3654 85.6986L52.6826 90.6094ZM52.6826 82.2374L35.3654 87.1483C35.3879 87.2277 35.411 87.307 35.4346 87.3861L52.6826 82.2374ZM51.2526 79.5854L38.5246 92.3134C38.5844 92.3731 38.6446 92.4324 38.7051 92.4913L51.2526 79.5854ZM46.9626 79.5854L34.4152 66.6795C34.3546 66.7384 34.2944 66.7978 34.2346 66.8575L46.9626 79.5854ZM45.5326 82.2374L28.2846 77.0888C28.261 77.1679 28.2379 77.2472 28.2154 77.3266L45.5326 82.2374ZM45.5326 90.6094L28.2154 95.5203C28.2379 95.5997 28.261 95.679 28.2846 95.7581L45.5326 90.6094ZM46.9626 93.2614L34.2346 105.989C34.2944 106.049 34.3546 106.108 34.4151 106.167L46.9626 93.2614ZM49.1206 95.7834V77.7834C50.7548 77.7834 52.9791 78.2361 55.1224 79.6426L45.2466 94.6914L35.3707 109.74C39.7327 112.603 44.5397 113.783 49.1206 113.783V95.7834ZM45.2466 94.6914L55.285 79.7505C57.3247 81.121 58.532 82.8791 59.1297 84.2283L42.6726 91.5194L26.2154 98.8106C28.0264 102.898 30.9497 106.771 35.2081 109.632L45.2466 94.6914ZM42.6726 91.5194L59.1297 84.2283C59.7609 85.6528 59.7626 86.6265 59.7626 86.6574H41.7626H23.7626C23.7626 90.4324 24.3709 94.6474 26.2154 98.8106L42.6726 91.5194ZM41.7626 86.6574H59.7626C59.7626 86.7868 59.7376 87.6024 59.2432 88.756L42.6986 81.6654L26.154 74.5749C24.4116 78.6405 23.7626 82.7841 23.7626 86.6574H41.7626ZM42.6986 81.6654L59.1713 88.9213C58.7325 89.9176 57.7345 91.5329 55.83 92.9017L45.3246 78.2854L34.8191 63.6692C30.696 66.6327 27.9473 70.5013 26.2258 74.4096L42.6986 81.6654ZM45.3246 78.2854L55.8716 92.8717C54.973 93.5215 53.8836 94.1008 52.6343 94.503C51.3867 94.9046 50.1853 95.0634 49.1206 95.0634V77.0634V59.0634C43.9693 59.0634 39.0055 60.642 34.7775 63.6991L45.3246 78.2854ZM49.1206 77.0634V95.0634C47.3997 95.0634 45.1164 94.5738 42.9562 93.1223L52.9946 78.1814L63.033 63.2405C58.654 60.2985 53.7881 59.0634 49.1206 59.0634V77.0634ZM52.9946 78.1814L42.9561 93.1223C40.9164 91.7519 39.7091 89.9938 39.1114 88.6446L55.5686 81.3534L72.0258 74.0623C70.2147 69.9745 67.2914 66.1017 63.033 63.2405L52.9946 78.1814ZM55.5686 81.3534L39.1114 88.6446C38.4888 87.2395 38.4786 86.2642 38.4786 86.1894H56.4786H74.4786C74.4786 82.4054 73.8616 78.2061 72.0257 74.0623L55.5686 81.3534ZM56.4786 86.1894H38.4786C38.4786 86.0846 38.4987 85.2151 39.0438 83.9776L55.5166 91.2334L71.9893 98.4893C73.8171 94.3398 74.4786 90.1077 74.4786 86.1894H56.4786ZM55.5166 91.2334L39.0761 83.9046C39.5617 82.8152 40.5989 81.2162 42.4665 79.8946L52.8646 94.5874L63.2626 109.28C67.3835 106.364 70.1887 102.529 71.957 98.5623L55.5166 91.2334ZM52.8646 94.5874L42.3591 79.9712C44.3598 78.5331 46.7982 77.7834 49.1206 77.7834V95.7834V113.783C54.2162 113.783 59.1506 112.236 63.37 109.204L52.8646 94.5874ZM49.1206 94.1714V112.171C54.984 112.171 60.1976 109.772 63.9805 105.989L51.2526 93.2614L38.5246 80.5335C39.6676 79.3906 41.2181 78.2342 43.1984 77.3889C45.197 76.5358 47.2333 76.1714 49.1206 76.1714V94.1714ZM51.2526 93.2614L63.8 106.167C67.3974 102.67 69.1269 98.5983 69.9997 95.5203L52.6826 90.6094L35.3654 85.6986C35.5796 84.9433 36.3557 82.6397 38.7052 80.3555L51.2526 93.2614ZM52.6826 90.6094L69.9305 95.7581C70.9138 92.4641 71.2026 89.2378 71.2026 86.4234H53.2026H35.2026C35.2026 86.6098 35.1921 86.616 35.2099 86.473C35.2274 86.332 35.281 85.9754 35.4346 85.4608L52.6826 90.6094ZM53.2026 86.4234H71.2026C71.2026 83.609 70.9138 80.3828 69.9305 77.0888L52.6826 82.2374L35.4346 87.3861C35.281 86.8715 35.2274 86.5149 35.2099 86.3739C35.1921 86.2308 35.2026 86.2371 35.2026 86.4234H53.2026ZM52.6826 82.2374L69.9997 77.3266C69.1269 74.2486 67.3974 70.177 63.8 66.6795L51.2526 79.5854L38.7051 92.4913C36.3557 90.2072 35.5796 87.9036 35.3654 87.1483L52.6826 82.2374ZM51.2526 79.5854L63.9805 66.8575C60.1976 63.0746 54.984 60.6754 49.1206 60.6754V78.6754V96.6754C47.2333 96.6754 45.1971 96.3111 43.1984 95.458C41.2181 94.6127 39.6676 93.4563 38.5246 92.3134L51.2526 79.5854ZM49.1206 78.6754V60.6754C43.2783 60.6754 38.146 63.0523 34.4152 66.6795L46.9626 79.5854L59.51 92.4913C58.3998 93.5707 56.8921 94.6756 54.964 95.4886C53.0139 96.3109 51.0089 96.6754 49.1206 96.6754V78.6754ZM46.9626 79.5854L34.2346 66.8575C30.8241 70.268 29.1537 74.1775 28.2846 77.0888L45.5326 82.2374L62.7805 87.3861C62.6048 87.9747 61.8877 90.1162 59.6905 92.3134L46.9626 79.5854ZM45.5326 82.2374L28.2154 77.3266C27.3064 80.532 27.0386 83.6722 27.0386 86.4234H45.0386H63.0386C63.0386 86.2054 63.0501 86.1621 63.038 86.2645C63.0262 86.3643 62.9833 86.6771 62.8497 87.1483L45.5326 82.2374ZM45.0386 86.4234H27.0386C27.0386 89.1747 27.3064 92.3148 28.2154 95.5203L45.5326 90.6094L62.8497 85.6986C62.9833 86.1698 63.0262 86.4826 63.038 86.5824C63.0501 86.6848 63.0386 86.6415 63.0386 86.4234H45.0386ZM45.5326 90.6094L28.2846 95.7581C29.1537 98.6693 30.8241 102.579 34.2346 105.989L46.9626 93.2614L59.6905 80.5335C61.8877 82.7307 62.6048 84.8722 62.7805 85.4608L45.5326 90.6094ZM46.9626 93.2614L34.4151 106.167C38.146 109.795 43.2783 112.171 49.1206 112.171V94.1714V76.1714C51.0089 76.1714 53.0139 76.5359 54.964 77.3583C56.8921 78.1713 58.3998 79.2762 59.51 80.3555L46.9626 93.2614ZM61.708 94.8214L52.0273 109.997V109.997L61.708 94.8214ZM59.342 92.0394L42.9318 99.4356C42.9739 99.5291 43.0168 99.6222 43.0606 99.715L59.342 92.0394ZM59.524 82.0294L43.0168 74.8524C42.9948 74.9029 42.9731 74.9535 42.9516 75.0042L59.524 82.0294ZM62.436 78.3634L72.5633 93.2443C72.5781 93.2342 72.5928 93.2241 72.6076 93.214L62.436 78.3634ZM70.236 77.6614L87.7884 81.6506C89.7462 73.0365 85.1636 64.2747 76.9715 60.9691L70.236 77.6614ZM69.846 79.3774L62.2151 95.6799C67.1475 97.9886 72.86 97.9402 77.7525 95.548C82.645 93.1558 86.1915 88.6772 87.3984 83.3666L69.846 79.3774ZM63.398 80.6514L77.5517 91.7722C77.5772 91.7398 77.6026 91.7072 77.6279 91.6746L63.398 80.6514ZM61.708 85.9034L43.7594 84.5437C43.381 89.5395 45.1018 94.4671 48.5081 98.1412C51.9144 101.815 56.6979 103.903 61.708 103.903V85.9034ZM61.89 85.9034V103.903C67.8653 103.903 73.4511 100.938 76.7991 95.989L61.89 85.9034ZM69.872 85.4094L57.1441 98.1374C57.181 98.1743 57.218 98.211 57.2552 98.2475L69.872 85.4094ZM70.574 92.7154L86.1846 101.677C86.2081 101.636 86.2315 101.595 86.2548 101.554L70.574 92.7154ZM68.338 94.9514L59.2859 79.3932C59.2444 79.4173 59.2029 79.4417 59.1616 79.4662L68.338 94.9514ZM67.376 93.0014L82.1992 103.213C82.234 103.162 82.2685 103.112 82.3028 103.061L67.376 93.0014ZM67.35 86.7874L53.0322 97.6962C53.0746 97.7518 53.1173 97.8072 53.1603 97.8623L67.35 86.7874ZM63.164 86.3194L52.5769 71.7622C52.5056 71.8141 52.4346 71.8665 52.364 71.9194L63.164 86.3194ZM61.812 88.0094L45.6342 80.1178C44.4352 82.5758 43.812 85.2746 43.812 88.0094H61.812ZM62.748 92.5854L47.1818 101.624C47.2032 101.661 47.2247 101.697 47.2463 101.734L62.748 92.5854ZM65.166 95.7834V77.7834C66.9747 77.7834 69.2426 78.2773 71.3887 79.6463L61.708 94.8214L52.0273 109.997C56.1841 112.648 60.7574 113.783 65.166 113.783V95.7834ZM61.708 94.8214L71.3887 79.6463C73.5942 81.0533 74.9331 82.8994 75.6235 84.3639L59.342 92.0394L43.0606 99.715C44.8949 103.606 47.8112 107.307 52.0273 109.997L61.708 94.8214ZM59.342 92.0394L75.7523 84.6433C76.4793 86.2563 76.51 87.4319 76.51 87.6454H58.51H40.51C40.51 91.2563 41.0954 95.3613 42.9318 99.4356L59.342 92.0394ZM58.51 87.6454H76.51C76.51 87.3462 76.5601 87.961 76.0965 89.0547L59.524 82.0294L42.9516 75.0042C41.1359 79.2872 40.51 83.646 40.51 87.6454H58.51ZM59.524 82.0294L76.0313 89.2065C75.579 90.2468 74.5337 91.9032 72.5633 93.2443L62.436 78.3634L52.3088 63.4826C47.8423 66.5223 44.8557 70.6227 43.0168 74.8524L59.524 82.0294ZM62.436 78.3634L72.6076 93.214C70.5584 94.6175 68.4068 95.0634 66.882 95.0634V77.0634V59.0634C61.9599 59.0634 56.8443 60.376 52.2644 63.5129L62.436 78.3634ZM66.882 77.0634V95.0634C66.2112 95.0634 64.9868 94.9535 63.5005 94.3537L70.236 77.6614L76.9715 60.9691C73.5093 59.5721 70.0489 59.0634 66.882 59.0634V77.0634ZM70.236 77.6614L52.6836 73.6723L52.2936 75.3883L69.846 79.3774L87.3984 83.3666L87.7884 81.6506L70.236 77.6614ZM69.846 79.3774L77.4769 63.075C74.0888 61.4891 70.5639 60.8054 67.168 60.8054V78.8054V96.8054C65.7135 96.8054 63.9739 96.5031 62.2151 95.6799L69.846 79.3774ZM67.168 78.8054V60.8054C60.0548 60.8054 53.5391 63.9857 49.1681 69.6283L63.398 80.6514L77.6279 91.6746C76.612 92.986 75.0794 94.4007 72.9713 95.433C70.8644 96.4646 68.8134 96.8054 67.168 96.8054V78.8054ZM63.398 80.6514L49.2443 69.5306C45.2555 74.6073 44.0787 80.33 43.7594 84.5437L61.708 85.9034L79.6566 87.2632C79.6614 87.1993 79.6386 87.632 79.3953 88.3881C79.1457 89.1638 78.6191 90.4138 77.5517 91.7722L63.398 80.6514ZM61.708 85.9034V103.903H61.89V85.9034V67.9034H61.708V85.9034ZM61.89 85.9034L76.7991 95.989C75.2295 98.3093 73.2635 99.7563 71.6299 100.573L63.58 84.4734L55.5302 68.3737C52.4406 69.9185 49.3479 72.3189 46.9809 75.8179L61.89 85.9034ZM63.58 84.4734L71.6299 100.573C69.7488 101.514 67.7659 101.927 65.946 101.927V83.9274V65.9274C62.4275 65.9274 58.8672 66.7052 55.5302 68.3737L63.58 84.4734ZM65.946 83.9274V101.927C64.9408 101.927 63.4749 101.773 61.7926 101.138C60.0581 100.483 58.4598 99.453 57.1441 98.1374L69.872 85.4094L82.5999 72.6815C77.6755 67.757 71.4929 65.9274 65.946 65.9274V83.9274ZM69.872 85.4094L57.2552 98.2475C55.7506 96.7689 54.702 95.0392 54.0806 93.3248C53.4868 91.6867 53.38 90.3418 53.38 89.5694H71.38H89.38C89.38 84.3133 87.7983 77.7893 82.4888 72.5713L69.872 85.4094ZM71.38 89.5694H53.38C53.38 87.763 53.84 85.7459 54.8933 83.8772L70.574 92.7154L86.2548 101.554C88.3827 97.7783 89.38 93.6639 89.38 89.5694H71.38ZM70.574 92.7154L54.9635 83.7538C56.0322 81.8921 57.5755 80.3883 59.2859 79.3932L68.338 94.9514L77.3901 110.51C81.0071 108.405 84.0411 105.411 86.1846 101.677L70.574 92.7154ZM68.338 94.9514L59.1616 79.4662C61.2334 78.2384 63.3939 77.7834 65.166 77.7834V95.7834V113.783C69.2955 113.783 73.5706 112.774 77.5145 110.437L68.338 94.9514ZM65.218 94.1714V112.171C72.3895 112.171 78.5055 108.575 82.1992 103.213L67.376 93.0014L52.5529 82.7899C53.6399 81.212 55.3533 79.411 57.8543 78.055C60.3889 76.6808 62.9831 76.1714 65.218 76.1714V94.1714ZM67.376 93.0014L82.3028 103.061C85.4822 98.3429 86.182 93.3769 86.182 89.8034H68.182H50.182C50.182 88.8993 50.3445 86.0653 52.4492 82.9421L67.376 93.0014ZM68.182 89.8034H86.182C86.182 86.2105 85.4464 80.7181 81.5397 75.7126L67.35 86.7874L53.1603 97.8623C50.3629 94.2781 50.182 90.7964 50.182 89.8034H68.182ZM67.35 86.7874L81.6678 75.8787C77.7703 70.7632 71.7861 67.6954 65.166 67.6954V85.6954V103.695C63.1264 103.695 60.7321 103.265 58.3382 102.068C55.9532 100.876 54.2116 99.2441 53.0322 97.6962L67.35 86.7874ZM65.166 85.6954V67.6954C60.9142 67.6954 56.4708 68.9302 52.5769 71.7622L63.164 86.3194L73.7511 100.877C71.0012 102.877 67.8925 103.695 65.166 103.695V85.6954ZM63.164 86.3194L52.364 71.9194C49.2238 74.2746 47.0552 77.2048 45.6342 80.1178L61.812 88.0094L77.9898 95.9011C77.2622 97.3928 75.9949 99.1962 73.964 100.719L63.164 86.3194ZM61.812 88.0094H43.812C43.812 91.465 44.2864 96.6374 47.1818 101.624L62.748 92.5854L78.3142 83.547C79.193 85.0605 79.5406 86.3424 79.6809 87.0283C79.8223 87.7196 79.812 88.0926 79.812 88.0094H61.812ZM62.748 92.5854L47.2463 101.734C50.3444 106.984 56.4553 112.171 65.218 112.171V94.1714V76.1714C67.991 76.1714 70.9342 76.9431 73.5591 78.6285C76.0411 80.2223 77.4873 82.145 78.2497 83.4369L62.748 92.5854Z" fill="#373F51" mask="url(#path-1-outside-1_382_5337)"/>
<path d="M173.547 87.0034H182.427V114.723H175.827C174.547 111.763 173.347 108.483 172.227 104.883C171.107 101.363 170.267 98.2434 169.707 95.5234H113.307C112.747 98.2434 111.907 101.363 110.787 104.883C109.667 108.483 108.467 111.763 107.187 114.723H100.587V87.0034H108.987L134.907 11.5234H147.507L173.547 87.0034ZM138.627 28.2034H137.787L118.107 87.0034H158.307L138.627 28.2034ZM183.783 90.9634C186.183 89.2034 188.983 87.9634 192.183 87.2434L219.063 11.5234H231.543L258.783 87.2434C261.983 87.9634 264.783 89.2034 267.183 90.9634L266.463 95.5234H236.343L235.503 90.9634C237.983 89.2034 240.503 87.9634 243.063 87.2434L222.663 28.2034H221.943L201.783 87.2434C204.343 87.9634 206.863 89.2034 209.343 90.9634L208.503 95.5234H184.503L183.783 90.9634ZM360.154 52.3234C360.154 60.6434 358.514 68.0034 355.234 74.4034C351.954 80.7234 347.394 85.7234 341.554 89.4034C335.714 93.0034 328.994 94.9634 321.394 95.2834V98.7634C322.834 99.0834 324.314 99.6034 325.834 100.323C327.434 101.043 328.794 101.763 329.914 102.483L329.194 107.043H299.434L298.594 102.483C301.314 100.723 304.194 99.4834 307.234 98.7634V95.2834C299.714 94.9634 292.994 93.0834 287.074 89.6434C281.234 86.2034 276.674 81.4834 273.394 75.4834C270.114 69.4034 268.474 62.4834 268.474 54.7234C268.474 46.4034 270.114 39.0434 273.394 32.6434C276.674 26.2434 281.234 21.2434 287.074 17.6434C292.914 14.0434 299.634 12.0834 307.234 11.7634V8.28343C304.194 7.56343 301.314 6.32343 298.594 4.56344L299.434 0.00342989H329.194L329.914 4.56344C328.794 5.28344 327.434 6.00344 325.834 6.72344C324.314 7.44344 322.834 7.96343 321.394 8.28343V11.7634C328.994 12.0834 335.714 13.9634 341.554 17.4034C347.394 20.8434 351.954 25.5634 355.234 31.5634C358.514 37.5634 360.154 44.4834 360.154 52.3234ZM345.394 53.5234C345.394 43.1234 343.154 34.9234 338.674 28.9234C334.194 22.8434 328.234 19.6034 320.794 19.2034V87.8434C328.234 87.4434 334.194 84.2434 338.674 78.2434C343.154 72.1634 345.394 63.9234 345.394 53.5234ZM283.234 53.5234C283.234 63.8434 285.434 72.0434 289.834 78.1234C294.314 84.2034 300.274 87.4434 307.714 87.8434V19.2034C302.914 19.5234 298.634 21.0834 294.874 23.8834C291.194 26.6034 288.314 30.4834 286.234 35.5234C284.234 40.5634 283.234 46.5634 283.234 53.5234ZM411.9 48.7234C418.3 49.8434 423.06 52.4434 426.18 56.5234C429.38 60.5234 430.98 65.5634 430.98 71.6434C430.98 79.1634 428.38 85.2434 423.18 89.8834C418.06 94.4434 410.58 96.7234 400.74 96.7234C390.5 96.7234 382.06 95.1234 375.42 91.9234V32.1634C375.42 23.3634 377.78 16.5234 382.5 11.6434C387.22 6.76343 393.54 4.32343 401.46 4.32343C406.66 4.32343 411.14 5.36343 414.9 7.44343C418.74 9.52344 421.66 12.3234 423.66 15.8434C425.66 19.2834 426.66 23.0834 426.66 27.2434C426.66 32.5234 425.5 36.8834 423.18 40.3234C420.86 43.6834 417.1 46.2034 411.9 47.8834V48.7234ZM388.38 45.6034H400.38C409.42 45.6034 413.94 39.8834 413.94 28.4434C413.94 23.8034 412.78 19.9634 410.46 16.9234C408.22 13.8834 405.26 12.3634 401.58 12.3634C397.58 12.3634 394.38 13.9634 391.98 17.1634C389.58 20.2834 388.38 24.9234 388.38 31.0834V45.6034ZM400.5 88.6834C406.1 88.6834 410.26 87.1634 412.98 84.1234C415.78 81.0034 417.18 76.6834 417.18 71.1634C417.18 65.5634 415.74 61.1634 412.86 57.9634C410.06 54.6834 406.06 53.0434 400.86 53.0434H388.38V85.9234C391.98 87.7634 396.02 88.6834 400.5 88.6834ZM487.456 85.9234C484.496 89.5234 480.856 92.2434 476.536 94.0834C472.216 95.8434 467.576 96.7234 462.616 96.7234C455.816 96.7234 450.216 95.3634 445.816 92.6434C441.416 89.9234 439.216 86.0834 439.216 81.1234C439.216 77.6834 440.016 74.8434 441.616 72.6034C443.216 70.3634 445.176 68.6034 447.496 67.3234C449.816 66.0434 452.896 64.6434 456.736 63.1234C460.016 61.8434 462.616 60.7234 464.536 59.7634C466.536 58.7234 468.176 57.4034 469.456 55.8034C470.736 54.2034 471.376 52.2034 471.376 49.8034C471.376 47.3234 470.576 45.4034 468.976 44.0434C467.376 42.6034 464.896 41.8834 461.536 41.8834C458.496 41.8834 455.576 42.2834 452.776 43.0834C452.216 46.7634 450.816 51.0434 448.576 55.9234H443.296L441.496 39.3634C444.216 38.1634 447.496 37.1634 451.336 36.3634C455.176 35.5634 458.896 35.1634 462.496 35.1634C469.936 35.1634 475.576 36.5234 479.416 39.2434C483.256 41.8834 485.176 45.4834 485.176 50.0434C485.176 53.4034 484.336 56.2434 482.656 58.5634C481.056 60.8034 479.096 62.6034 476.776 63.9634C474.456 65.3234 471.376 66.8034 467.536 68.4034C464.336 69.7634 461.776 70.9634 459.856 72.0034C458.016 73.0434 456.456 74.3634 455.176 75.9634C453.896 77.5634 453.256 79.4834 453.256 81.7234C453.256 84.4434 454.296 86.5234 456.376 87.9634C458.536 89.3234 461.216 90.0034 464.416 90.0034C468.096 90.0034 471.576 89.3234 474.856 87.9634C478.216 86.6034 481.016 84.6034 483.256 81.9634L487.456 85.9234ZM542.952 36.3634H550.152V94.0834C550.152 100.643 548.952 106.283 546.552 111.003C544.152 115.723 540.792 119.323 536.472 121.803C532.152 124.283 527.152 125.523 521.472 125.523C516.512 125.523 512.232 124.843 508.632 123.483C505.032 122.123 502.312 120.323 500.472 118.083C498.632 115.843 497.712 113.403 497.712 110.763C497.712 109.563 497.872 108.243 498.192 106.803C498.592 105.443 499.072 104.283 499.632 103.323H508.272L510.552 116.043C513.512 117.883 516.872 118.803 520.632 118.803C525.752 118.803 529.752 116.963 532.632 113.283C535.592 109.603 537.072 103.923 537.072 96.2434V87.9634H536.352C534.432 90.6034 531.872 92.7234 528.672 94.3234C525.552 95.9234 522.232 96.7234 518.712 96.7234C513.992 96.7234 509.712 95.5234 505.872 93.1234C502.112 90.7234 499.112 87.2434 496.872 82.6834C494.712 78.1234 493.632 72.7234 493.632 66.4834C493.632 60.3234 494.832 54.8834 497.232 50.1634C499.632 45.3634 502.872 41.6834 506.952 39.1234C511.112 36.4834 515.712 35.1634 520.752 35.1634C523.952 35.1634 527.112 35.9234 530.232 37.4434C533.432 38.8834 535.992 40.8034 537.912 43.2034H538.632L542.952 36.3634ZM537.072 63.0034C537.072 56.8434 535.712 52.0034 532.992 48.4834C530.352 44.9634 526.992 43.2034 522.912 43.2034C520.112 43.2034 517.512 44.0834 515.112 45.8434C512.792 47.6034 510.952 50.2034 509.592 53.6434C508.232 57.0834 507.552 61.2434 507.552 66.1234C507.552 73.4034 508.952 78.9234 511.752 82.6834C514.552 86.4434 518.352 88.3234 523.152 88.3234C525.712 88.3234 528.232 87.6434 530.712 86.2834C533.272 84.8434 535.392 82.9634 537.072 80.6434V63.0034Z" fill="#EDEFF1"/>
</svg>
