<svg width="841" height="230" viewBox="0 0 841 230" fill="none" xmlns="http://www.w3.org/2000/svg">
<mask id="path-1-outside-1_382_5330" maskUnits="userSpaceOnUse" x="-0.148438" y="0" width="842" height="230" fill="black">
<rect fill="white" x="-0.148438" width="842" height="230"/>
<path d="M130.852 66V167C133.252 167.667 135.785 168.667 138.452 170C141.252 171.2 143.718 172.533 145.852 174L143.852 185H73.8516L71.8516 174C73.9849 172.533 76.3849 171.2 79.0516 170C81.8516 168.667 84.4516 167.667 86.8516 167V66H72.8516C69.7849 76.1333 65.4516 84.8 59.8516 92L43.8516 90L44.8516 45H172.852L173.852 90L157.852 92C152.252 84.8 147.918 76.1333 144.852 66H130.852ZM308.938 167C312.938 168.467 316.938 170.8 320.938 174L318.938 185H272.338L244.338 131H237.938V167C242.871 168.733 247.204 171.067 250.938 174L248.938 185H180.938L178.938 174C181.071 172.533 183.471 171.2 186.138 170C188.938 168.667 191.538 167.667 193.938 167V63C191.538 62.4667 188.938 61.5333 186.138 60.2C183.471 58.8667 181.071 57.4667 178.938 56L180.938 45H248.338C260.338 45 270.804 46.7333 279.738 50.2C288.804 53.5333 295.738 58.2667 300.538 64.4C305.471 70.5333 307.938 77.7333 307.938 86C307.938 94 305.471 101.067 300.538 107.2C295.604 113.333 288.804 117.867 280.138 120.8L308.938 167ZM240.138 113C247.071 113 252.738 110.667 257.138 106C261.671 101.2 263.938 95.2 263.938 88C263.938 80.8 261.671 74.8667 257.138 70.2C252.738 65.4 247.071 63 240.138 63H237.938V113H240.138ZM323.008 174C325.141 172.533 327.541 171.2 330.208 170C333.008 168.667 335.608 167.667 338.008 167V63C335.608 62.3333 333.008 61.4 330.208 60.2C327.541 58.8667 325.141 57.4667 323.008 56L325.008 45H395.008L397.008 56C394.874 57.4667 392.408 58.8667 389.608 60.2C386.941 61.5333 384.408 62.4667 382.008 63V167C384.408 167.533 386.941 168.467 389.608 169.8C392.408 171.133 394.874 172.533 397.008 174L395.008 185H325.008L323.008 174ZM526.945 137L528.945 178C523.479 180.667 516.412 182.867 507.745 184.6C499.212 186.2 490.945 187 482.945 187C466.945 187 453.079 184.2 441.345 178.6C429.612 173 420.612 164.933 414.345 154.4C408.079 143.867 404.945 131.4 404.945 117C404.945 102.2 408.145 89.2 414.545 78C420.945 66.8 430.012 58.2 441.745 52.2C453.612 46.0667 467.345 43 482.945 43C491.212 43 499.745 43.9333 508.545 45.8C517.479 47.6667 524.612 50.0667 529.945 53L526.945 92L510.945 92.6C505.479 84.0667 502.145 74.5333 500.945 64C496.812 62 492.145 61 486.945 61C476.012 61 467.412 65.8 461.145 75.4C455.012 85 451.945 98.2 451.945 115C451.945 131.933 455.012 145.2 461.145 154.8C467.412 164.267 476.079 169 487.145 169C492.345 169 496.945 168 500.945 166C502.145 155.467 505.479 145.6 510.945 136.4L526.945 137ZM675.961 167C680.228 168.333 684.561 170.667 688.961 174L686.961 185H638.961C633.894 178.2 628.361 169 622.361 157.4C616.494 145.667 612.028 135.2 608.961 126H599.961V167C604.894 168.733 609.228 171.067 612.961 174L610.961 185H542.961L540.961 174C543.094 172.533 545.494 171.2 548.161 170C550.961 168.667 553.561 167.667 555.961 167V63C553.561 62.4667 550.961 61.5333 548.161 60.2C545.494 58.8667 543.094 57.4667 540.961 56L542.961 45H610.961L612.961 56C609.228 58.9333 604.894 61.2667 599.961 63V104L614.961 102L641.961 63C639.961 62.3333 637.628 61.3333 634.961 60C632.294 58.6667 629.961 57.3333 627.961 56L629.961 45H679.361L681.361 56C677.228 59.3333 673.228 61.6667 669.361 63L638.161 104C643.361 114.533 649.428 125.667 656.361 137.4C663.428 149.133 669.961 159 675.961 167ZM730.859 75C730.859 79.5333 732.859 83.3333 736.859 86.4C740.993 89.3333 747.459 92.8667 756.259 97C765.059 101 772.193 104.733 777.659 108.2C783.126 111.667 787.859 116.267 791.859 122C795.859 127.733 797.859 134.733 797.859 143C797.859 151.8 795.393 159.533 790.459 166.2C785.526 172.733 778.459 177.867 769.259 181.6C760.059 185.2 749.259 187 736.859 187C727.926 187 719.193 186.2 710.659 184.6C702.126 183 694.859 180.8 688.859 178L690.859 137L706.859 136.4C712.326 145.6 715.659 155.467 716.859 166C722.593 168 728.259 169 733.859 169C740.526 169 745.659 167.6 749.259 164.8C752.993 161.867 754.859 158.267 754.859 154C754.859 149.467 752.793 145.733 748.659 142.8C744.659 139.733 738.259 136.133 729.459 132C720.659 128 713.526 124.267 708.059 120.8C702.593 117.333 697.859 112.733 693.859 107C689.859 101.267 687.859 94.2667 687.859 86C687.859 77.8667 689.993 70.5333 694.259 64C698.526 57.4667 704.859 52.3333 713.259 48.6C721.793 44.8667 732.126 43 744.259 43C751.726 43 759.593 43.9333 767.859 45.8C776.259 47.5333 783.593 49.9333 789.859 53L786.859 92L770.859 92.6C765.393 84.2 762.059 74.6667 760.859 64C756.593 62 751.926 61 746.859 61C741.926 61 737.993 62.3333 735.059 65C732.259 67.5333 730.859 70.8667 730.859 75Z"/>
</mask>
<path d="M130.852 66V23H87.8516V66H130.852ZM130.852 167H87.8516V199.684L119.343 208.431L130.852 167ZM138.452 170L119.221 208.46L120.352 209.025L121.513 209.523L138.452 170ZM145.852 174L188.158 181.692L193.134 154.325L170.212 138.566L145.852 174ZM143.852 185V228H179.738L186.158 192.692L143.852 185ZM73.8516 185L31.5452 192.692L37.9648 228H73.8516V185ZM71.8516 174L47.4908 138.566L24.5693 154.325L29.5452 181.692L71.8516 174ZM79.0516 170L96.6973 209.213L97.1201 209.022L97.5387 208.823L79.0516 170ZM86.8516 167L98.3603 208.431L129.852 199.684V167H86.8516ZM86.8516 66H129.852V23H86.8516V66ZM72.8516 66V23H40.9388L31.695 53.5447L72.8516 66ZM59.8516 92L54.5181 134.668L78.7815 137.701L93.7937 118.399L59.8516 92ZM43.8516 90L0.862175 89.0447L-0.000232697 127.853L38.5181 132.668L43.8516 90ZM44.8516 45V1.99999H2.7965L1.86217 44.0447L44.8516 45ZM172.852 45L215.841 44.0447L214.907 1.99999H172.852V45ZM173.852 90L179.185 132.668L217.703 127.853L216.841 89.0447L173.852 90ZM157.852 92L123.909 118.399L138.922 137.701L163.185 134.668L157.852 92ZM144.852 66L186.008 53.5447L176.764 23H144.852V66ZM130.852 66H87.8516V167H130.852H173.852V66H130.852ZM130.852 167L119.343 208.431C119.152 208.378 119.009 208.333 118.914 208.3C118.819 208.268 118.768 208.249 118.763 208.247C118.758 208.245 118.795 208.259 118.873 208.294C118.951 208.329 119.067 208.383 119.221 208.46L138.452 170L157.682 131.54C153.009 129.203 147.883 127.103 142.36 125.569L130.852 167ZM138.452 170L121.513 209.523C121.665 209.588 121.776 209.64 121.85 209.675C121.924 209.711 121.957 209.729 121.954 209.727C121.951 209.726 121.909 209.703 121.831 209.656C121.754 209.608 121.639 209.535 121.491 209.434L145.852 174L170.212 138.566C165.379 135.244 160.35 132.602 155.39 130.477L138.452 170ZM145.852 174L103.545 166.308L101.545 177.308L143.852 185L186.158 192.692L188.158 181.692L145.852 174ZM143.852 185V142H73.8516V185V228H143.852V185ZM73.8516 185L116.158 177.308L114.158 166.308L71.8516 174L29.5452 181.692L31.5452 192.692L73.8516 185ZM71.8516 174L96.2123 209.434C95.9732 209.598 96.0815 209.49 96.6973 209.213L79.0516 170L61.4059 130.787C56.6883 132.91 51.9966 135.468 47.4908 138.566L71.8516 174ZM79.0516 170L97.5387 208.823C98.0491 208.58 98.3791 208.445 98.5377 208.384C98.6982 208.322 98.6341 208.355 98.3603 208.431L86.8516 167L75.3429 125.569C70.0481 127.039 65.0907 129.022 60.5644 131.177L79.0516 170ZM86.8516 167H129.852V66H86.8516H43.8516V167H86.8516ZM86.8516 66V23H72.8516V66V109H86.8516V66ZM72.8516 66L31.695 53.5447C29.9151 59.426 27.7933 63.1784 25.9094 65.6006L59.8516 92L93.7937 118.399C103.11 106.422 109.655 92.8407 114.008 78.4553L72.8516 66ZM59.8516 92L65.1851 49.332L49.1851 47.332L43.8516 90L38.5181 132.668L54.5181 134.668L59.8516 92ZM43.8516 90L86.841 90.9553L87.841 45.9553L44.8516 45L1.86217 44.0447L0.862175 89.0447L43.8516 90ZM44.8516 45V88H172.852V45V1.99999H44.8516V45ZM172.852 45L129.862 45.9553L130.862 90.9553L173.852 90L216.841 89.0447L215.841 44.0447L172.852 45ZM173.852 90L168.518 47.332L152.518 49.332L157.852 92L163.185 134.668L179.185 132.668L173.852 90ZM157.852 92L191.794 65.6006C189.91 63.1784 187.788 59.426 186.008 53.5447L144.852 66L103.695 78.4553C108.048 92.8407 114.593 106.422 123.909 118.399L157.852 92ZM144.852 66V23H130.852V66V109H144.852V66ZM308.938 167L272.447 189.747L280.263 202.285L294.135 207.372L308.938 167ZM320.938 174L363.244 181.692L367.833 156.45L347.799 140.423L320.938 174ZM318.938 185V228H354.824L361.244 192.692L318.938 185ZM272.338 185L234.164 204.794L246.197 228H272.338V185ZM244.338 131L282.511 111.206L270.478 88H244.338V131ZM237.938 131V88H194.938V131H237.938ZM237.938 167H194.938V197.469L223.684 207.569L237.938 167ZM250.938 174L293.244 181.692L297.879 156.198L277.504 140.188L250.938 174ZM248.938 185V228H284.824L291.244 192.692L248.938 185ZM180.938 185L138.631 192.692L145.051 228H180.938V185ZM178.938 174L154.577 138.566L131.655 154.325L136.631 181.692L178.938 174ZM186.137 170L203.783 209.213L204.206 209.022L204.625 208.823L186.137 170ZM193.938 167L205.446 208.431L236.938 199.684V167H193.938ZM193.938 63H236.938V28.5066L203.266 21.024L193.938 63ZM186.137 60.2L166.907 98.6604L167.277 98.8453L167.65 99.023L186.137 60.2ZM178.938 56L136.631 48.3079L131.655 75.6752L154.577 91.4338L178.938 56ZM180.938 45V1.99999H145.051L138.631 37.3079L180.938 45ZM279.738 50.2L264.181 90.2874L264.539 90.4264L264.9 90.5589L279.738 50.2ZM300.538 64.4L266.675 90.9013L266.852 91.1271L267.031 91.3506L300.538 64.4ZM280.137 120.8L266.352 80.0697L214.927 97.4752L243.647 143.547L280.137 120.8ZM257.137 106L225.876 76.4752L225.864 76.4883L225.851 76.5014L257.137 106ZM257.137 70.2L225.44 99.2561L225.861 99.7152L226.295 100.162L257.137 70.2ZM237.938 63V20H194.938V63H237.938ZM237.938 113H194.938V156H237.938V113ZM308.938 167L294.135 207.372C293.561 207.161 293.272 206.993 293.271 206.992C293.271 206.992 293.34 207.033 293.477 207.127C293.614 207.222 293.814 207.368 294.076 207.577L320.938 174L347.799 140.423C340.884 134.89 332.88 129.98 323.74 126.628L308.938 167ZM320.938 174L278.631 166.308L276.631 177.308L318.938 185L361.244 192.692L363.244 181.692L320.938 174ZM318.938 185V142H272.338V185V228H318.938V185ZM272.338 185L310.511 165.206L282.511 111.206L244.338 131L206.164 150.794L234.164 204.794L272.338 185ZM244.338 131V88H237.938V131V174H244.338V131ZM237.938 131H194.938V167H237.938H280.938V131H237.938ZM237.938 167L223.684 207.569C224.169 207.739 224.423 207.868 224.501 207.91C224.575 207.95 224.514 207.924 224.371 207.812L250.938 174L277.504 140.188C269.708 134.063 261.123 129.569 252.191 126.431L237.938 167ZM250.938 174L208.631 166.308L206.631 177.308L248.938 185L291.244 192.692L293.244 181.692L250.938 174ZM248.938 185V142H180.938V185V228H248.938V185ZM180.938 185L223.244 177.308L221.244 166.308L178.938 174L136.631 181.692L138.631 192.692L180.938 185ZM178.938 174L203.298 209.434C203.059 209.598 203.167 209.49 203.783 209.213L186.137 170L168.492 130.787C163.774 132.91 159.083 135.468 154.577 138.566L178.938 174ZM186.137 170L204.625 208.823C205.135 208.58 205.465 208.445 205.624 208.384C205.784 208.322 205.72 208.355 205.446 208.431L193.938 167L182.429 125.569C177.134 127.039 172.177 129.022 167.65 131.177L186.137 170ZM193.938 167H236.938V63H193.938H150.938V167H193.938ZM193.938 63L203.266 21.024C204.029 21.1935 204.52 21.3583 204.716 21.4286C204.913 21.4996 204.887 21.502 204.625 21.377L186.137 60.2L167.65 99.023C172.653 101.405 178.352 103.585 184.609 104.976L193.938 63ZM186.137 60.2L205.368 21.7396C204.219 21.1652 203.57 20.7529 203.298 20.5662L178.938 56L154.577 91.4338C158.572 94.1804 162.723 96.5682 166.907 98.6604L186.137 60.2ZM178.938 56L221.244 63.6921L223.244 52.6921L180.938 45L138.631 37.3079L136.631 48.3079L178.938 56ZM180.938 45V88H248.338V45V1.99999H180.938V45ZM248.338 45V88C256.308 88 261.285 89.1634 264.181 90.2874L279.738 50.2L295.294 10.1126C280.324 4.30322 264.367 1.99999 248.338 1.99999V45ZM279.738 50.2L264.9 90.5589C266.597 91.183 267.35 91.666 267.493 91.7633C267.593 91.8318 267.203 91.5757 266.675 90.9013L300.538 64.4L334.4 37.8987C323.61 24.1113 309.351 15.2732 294.575 9.84111L279.738 50.2ZM300.538 64.4L267.031 91.3506C266.478 90.6633 265.848 89.6189 265.409 88.3363C264.978 87.0802 264.938 86.2002 264.938 86H307.938H350.938C350.938 68.4614 345.446 51.6253 334.044 37.4494L300.538 64.4ZM307.938 86H264.938C264.938 85.5084 265.027 84.4556 265.49 83.1291C265.956 81.7937 266.582 80.8075 267.031 80.2494L300.538 107.2L334.044 134.151C345.23 120.244 350.938 103.629 350.938 86H307.938ZM300.538 107.2L267.031 80.2494C267.207 80.0314 267.39 79.8392 267.563 79.6826C267.734 79.5271 267.853 79.4436 267.885 79.4218C267.957 79.374 267.546 79.6656 266.352 80.0697L280.137 120.8L293.923 161.53C309.056 156.408 323.194 147.64 334.044 134.151L300.538 107.2ZM280.137 120.8L243.647 143.547L272.447 189.747L308.938 167L345.428 144.253L316.628 98.0527L280.137 120.8ZM240.138 113V156C257.845 156 275.194 149.53 288.424 135.499L257.137 106L225.851 76.5014C227.638 74.6059 230.142 72.7541 233.215 71.4888C236.214 70.254 238.722 70 240.138 70V113ZM257.137 106L288.399 135.525C301.184 121.987 306.938 105.094 306.938 88H263.938H220.938C220.938 87.0408 221.1 85.1184 222.012 82.7038C222.949 80.224 224.354 78.0871 225.876 76.4752L257.137 106ZM263.938 88H306.938C306.938 70.9144 301.173 53.8186 287.98 40.2382L257.137 70.2L226.295 100.162C224.594 98.4112 223.071 96.1179 222.069 93.4953C221.098 90.953 220.938 88.9505 220.938 88H263.938ZM257.137 70.2L288.835 41.1439C275.716 26.8316 258.246 20 240.138 20V63V106C238.571 106 235.922 105.71 232.818 104.395C229.651 103.054 227.156 101.129 225.44 99.2561L257.137 70.2ZM240.138 63V20H237.938V63V106H240.138V63ZM237.938 63H194.938V113H237.938H280.938V63H237.938ZM237.938 113V156H240.138V113V70H237.938V113ZM323.008 174L298.647 138.566L275.726 154.325L280.701 181.692L323.008 174ZM330.208 170L347.854 209.213L348.276 209.022L348.695 208.823L330.208 170ZM338.008 167L349.517 208.431L381.008 199.684V167H338.008ZM338.008 63H381.008V30.3163L349.516 21.5687L338.008 63ZM330.208 60.2L310.978 98.6604L312.108 99.2255L313.269 99.7232L330.208 60.2ZM323.008 56L280.701 48.3079L275.726 75.6752L298.647 91.4338L323.008 56ZM325.008 45V1.99999H289.121L282.701 37.3079L325.008 45ZM395.008 45L437.314 37.3079L430.895 1.99999H395.008V45ZM397.008 56L421.369 91.4338L444.29 75.6752L439.314 48.3079L397.008 56ZM389.608 60.2L371.121 21.377L370.747 21.5547L370.378 21.7396L389.608 60.2ZM382.008 63L372.68 21.024L339.008 28.5066V63H382.008ZM382.008 167H339.008V201.493L372.68 208.976L382.008 167ZM389.608 169.8L370.378 208.26L370.747 208.445L371.121 208.623L389.608 169.8ZM397.008 174L439.314 181.692L444.29 154.325L421.369 138.566L397.008 174ZM395.008 185V228H430.895L437.314 192.692L395.008 185ZM325.008 185L282.701 192.692L289.121 228H325.008V185ZM323.008 174L347.369 209.434C347.129 209.598 347.238 209.49 347.854 209.213L330.208 170L312.562 130.787C307.845 132.91 303.153 135.468 298.647 138.566L323.008 174ZM330.208 170L348.695 208.823C349.205 208.58 349.535 208.445 349.694 208.384C349.854 208.322 349.79 208.355 349.517 208.431L338.008 167L326.499 125.569C321.204 127.039 316.247 129.022 311.721 131.177L330.208 170ZM338.008 167H381.008V63H338.008H295.008V167H338.008ZM338.008 63L349.516 21.5687C349.321 21.5144 348.554 21.2801 347.146 20.6768L330.208 60.2L313.269 99.7232C317.461 101.52 321.895 103.152 326.499 104.431L338.008 63ZM330.208 60.2L349.438 21.7396C348.289 21.1652 347.64 20.7529 347.369 20.5662L323.008 56L298.647 91.4338C302.642 94.1804 306.793 96.5682 310.978 98.6604L330.208 60.2ZM323.008 56L365.314 63.6921L367.314 52.6921L325.008 45L282.701 37.3079L280.701 48.3079L323.008 56ZM325.008 45V88H395.008V45V1.99999H325.008V45ZM395.008 45L352.701 52.6921L354.701 63.6921L397.008 56L439.314 48.3079L437.314 37.3079L395.008 45ZM397.008 56L372.647 20.5662C372.702 20.5287 372.263 20.833 371.121 21.377L389.608 60.2L408.095 99.023C412.552 96.9004 417.047 94.4047 421.369 91.4338L397.008 56ZM389.608 60.2L370.378 21.7396C370.215 21.821 371.013 21.3944 372.68 21.024L382.008 63L391.336 104.976C397.803 103.539 403.667 101.246 408.838 98.6604L389.608 60.2ZM382.008 63H339.008V167H382.008H425.008V63H382.008ZM382.008 167L372.68 208.976C371.013 208.606 370.215 208.179 370.378 208.26L389.608 169.8L408.838 131.34C403.667 128.754 397.803 126.461 391.336 125.024L382.008 167ZM389.608 169.8L371.121 208.623C372.263 209.167 372.702 209.471 372.647 209.434L397.008 174L421.369 138.566C417.047 135.595 412.552 133.1 408.095 130.977L389.608 169.8ZM397.008 174L354.701 166.308L352.701 177.308L395.008 185L437.314 192.692L439.314 181.692L397.008 174ZM395.008 185V142H325.008V185V228H395.008V185ZM325.008 185L367.314 177.308L365.314 166.308L323.008 174L280.701 181.692L282.701 192.692L325.008 185ZM526.945 137L569.894 134.905L567.972 95.5083L528.557 94.0302L526.945 137ZM528.945 178L547.798 216.647L573.275 204.219L571.894 175.905L528.945 178ZM507.745 184.6L515.67 226.864L515.924 226.816L516.178 226.765L507.745 184.6ZM441.345 178.6L459.867 139.793L441.345 178.6ZM414.345 154.4L451.3 132.414V132.414L414.345 154.4ZM441.745 52.2L461.323 90.4848L461.406 90.4423L461.489 90.3994L441.745 52.2ZM508.545 45.8L499.623 87.8641L499.686 87.8776L499.75 87.8909L508.545 45.8ZM529.945 53L572.819 56.2979L574.944 28.6744L550.668 15.3227L529.945 53ZM526.945 92L528.557 134.97L566.878 133.533L569.819 95.2979L526.945 92ZM510.945 92.6L474.738 115.795L487.996 136.491L512.557 135.57L510.945 92.6ZM500.945 64L543.669 59.1327L540.989 35.6065L519.674 25.2931L500.945 64ZM461.145 75.4L425.138 51.8952L425.023 52.0717L424.909 52.2493L461.145 75.4ZM461.145 154.8L424.909 177.951L425.097 178.245L425.29 178.535L461.145 154.8ZM500.945 166L520.176 204.46L541.03 194.033L543.669 170.867L500.945 166ZM510.945 136.4L512.557 93.4302L487.029 92.4729L473.979 114.434L510.945 136.4ZM526.945 137L483.996 139.095L485.996 180.095L528.945 178L571.894 175.905L569.894 134.905L526.945 137ZM528.945 178L510.093 139.353C509.057 139.858 505.844 141.129 499.312 142.435L507.745 184.6L516.178 226.765C526.98 224.605 537.9 221.475 547.798 216.647L528.945 178ZM507.745 184.6L499.821 142.336C493.681 143.488 488.072 144 482.945 144V187V230C493.818 230 504.743 228.912 515.67 226.864L507.745 184.6ZM482.945 187V144C471.908 144 464.638 142.071 459.867 139.793L441.345 178.6L422.824 217.407C441.519 226.329 461.983 230 482.945 230V187ZM441.345 178.6L459.867 139.793C455.315 137.621 452.95 135.188 451.3 132.414L414.345 154.4L377.391 176.386C388.274 194.678 403.909 208.379 422.824 217.407L441.345 178.6ZM414.345 154.4L451.3 132.414C449.635 129.616 447.945 125.028 447.945 117H404.945H361.945C361.945 137.772 366.522 158.117 377.391 176.386L414.345 154.4ZM404.945 117H447.945C447.945 108.565 449.71 103.131 451.88 99.334L414.545 78L377.211 56.666C366.58 75.2693 361.945 95.8345 361.945 117H404.945ZM414.545 78L451.88 99.334C454.04 95.5542 456.859 92.7672 461.323 90.4848L441.745 52.2L422.168 13.9152C403.165 23.6328 387.851 38.0458 377.211 56.666L414.545 78ZM441.745 52.2L461.489 90.3994C466.304 87.9107 473.062 86 482.945 86V43V-7.62939e-06C461.629 -7.62939e-06 440.92 4.22263 422.002 14.0006L441.745 52.2ZM482.945 43V86C487.963 86 493.501 86.5655 499.623 87.8641L508.545 45.8L517.468 3.73592C505.99 1.30113 494.461 -7.62939e-06 482.945 -7.62939e-06V43ZM508.545 45.8L499.75 87.8909C502.889 88.5468 505.223 89.1966 506.883 89.7551C508.569 90.3223 509.248 90.6913 509.223 90.6773L529.945 53L550.668 15.3227C540.234 9.58418 528.583 6.05819 517.34 3.70907L508.545 45.8ZM529.945 53L487.072 49.702L484.072 88.702L526.945 92L569.819 95.2979L572.819 56.2979L529.945 53ZM526.945 92L525.334 49.0302L509.334 49.6302L510.945 92.6L512.557 135.57L528.557 134.97L526.945 92ZM510.945 92.6L547.153 69.4047C545.394 66.6591 544.161 63.4486 543.669 59.1327L500.945 64L458.222 68.8672C460.13 85.618 465.563 101.474 474.738 115.795L510.945 92.6ZM500.945 64L519.674 25.2931C508.971 20.1143 497.769 18 486.945 18V61V104C486.522 104 484.653 103.886 482.216 102.707L500.945 64ZM486.945 61V18C460.66 18 438.881 30.8416 425.138 51.8952L461.145 75.4L497.153 98.9048C497.155 98.9005 496.871 99.3362 496.2 99.9865C495.51 100.655 494.527 101.436 493.252 102.148C490.462 103.705 487.99 104 486.945 104V61ZM461.145 75.4L424.909 52.2493C412.732 71.3096 408.945 93.6586 408.945 115H451.945H494.945C494.945 102.741 497.292 98.6904 497.381 98.5507L461.145 75.4ZM451.945 115H408.945C408.945 136.396 412.703 158.845 424.909 177.951L461.145 154.8L497.381 131.649C497.414 131.701 496.779 130.728 496.141 127.966C495.494 125.167 494.945 120.961 494.945 115H451.945ZM461.145 154.8L425.29 178.535C439.272 199.657 461.208 212 487.145 212V169V126C487.931 126 490.236 126.226 492.956 127.712C495.633 129.173 496.851 130.838 497.001 131.065L461.145 154.8ZM487.145 169V212C497.935 212 509.304 209.896 520.176 204.46L500.945 166L481.715 127.54C484.587 126.104 486.755 126 487.145 126V169ZM500.945 166L543.669 170.867C544.174 166.435 545.521 162.388 547.912 158.366L510.945 136.4L473.979 114.434C465.436 128.812 460.117 144.498 458.222 161.133L500.945 166ZM510.945 136.4L509.334 179.37L525.334 179.97L526.945 137L528.557 94.0302L512.557 93.4302L510.945 136.4ZM675.961 167L641.561 192.8L649.888 203.903L663.135 208.043L675.961 167ZM688.961 174L731.267 181.692L735.996 155.686L714.927 139.725L688.961 174ZM686.961 185V228H722.848L729.267 192.692L686.961 185ZM638.961 185L604.48 210.692L617.376 228H638.961V185ZM622.361 157.4L583.901 176.63L584.032 176.894L584.168 177.155L622.361 157.4ZM608.961 126L649.754 112.402L639.954 83H608.961V126ZM599.961 126V83H556.961V126H599.961ZM599.961 167H556.961V197.469L585.707 207.569L599.961 167ZM612.961 174L655.267 181.692L659.903 156.198L639.527 140.188L612.961 174ZM610.961 185V228H646.848L653.267 192.692L610.961 185ZM542.961 185L500.655 192.692L507.074 228H542.961V185ZM540.961 174L516.6 138.566L493.679 154.325L498.655 181.692L540.961 174ZM548.161 170L565.807 209.213L566.229 209.022L566.648 208.823L548.161 170ZM555.961 167L567.47 208.431L598.961 199.684V167H555.961ZM555.961 63H598.961V28.5066L565.289 21.024L555.961 63ZM548.161 60.2L528.931 98.6604L529.301 98.8453L529.674 99.023L548.161 60.2ZM540.961 56L498.655 48.3079L493.679 75.6752L516.6 91.4338L540.961 56ZM542.961 45V1.99999H507.074L500.655 37.3079L542.961 45ZM610.961 45L653.267 37.3079L646.848 1.99999H610.961V45ZM612.961 56L639.527 89.8117L659.903 73.8024L655.267 48.3079L612.961 56ZM599.961 63L585.707 22.4312L556.961 32.5312V63H599.961ZM599.961 104H556.961V153.114L605.644 146.623L599.961 104ZM614.961 102L620.644 144.623L639.492 142.11L650.315 126.476L614.961 102ZM641.961 63L677.315 87.476L709.95 40.337L655.559 22.2066L641.961 63ZM634.961 60L615.731 98.4603L615.731 98.4604L634.961 60ZM627.961 56L585.655 48.3079L580.6 76.1059L604.109 91.7782L627.961 56ZM629.961 45V1.99999H594.074L587.655 37.3079L629.961 45ZM679.361 45L721.667 37.3079L715.248 1.99999H679.361V45ZM681.361 56L708.354 89.4717L728.236 73.4378L723.667 48.3079L681.361 56ZM669.361 63L655.343 22.349L643.03 26.595L635.142 36.9603L669.361 63ZM638.161 104L603.942 77.9603L587.814 99.1539L599.603 123.035L638.161 104ZM656.361 137.4L619.341 159.275L619.433 159.43L619.526 159.585L656.361 137.4ZM675.961 167L663.135 208.043C662.406 207.815 662.032 207.614 662.025 207.61C662.021 207.608 662.102 207.652 662.268 207.759C662.434 207.867 662.677 208.034 662.995 208.275L688.961 174L714.927 139.725C707.465 134.072 698.756 129.073 688.787 125.957L675.961 167ZM688.961 174L646.655 166.308L644.655 177.308L686.961 185L729.267 192.692L731.267 181.692L688.961 174ZM686.961 185V142H638.961V185V228H686.961V185ZM638.961 185L673.442 159.308C670.305 155.099 665.988 148.15 660.554 137.645L622.361 157.4L584.168 177.155C590.734 189.85 597.483 201.301 604.48 210.692L638.961 185ZM622.361 157.4L660.821 138.17C655.57 127.668 651.998 119.135 649.754 112.402L608.961 126L568.168 139.598C572.057 151.265 577.418 163.666 583.901 176.63L622.361 157.4ZM608.961 126V83H599.961V126V169H608.961V126ZM599.961 126H556.961V167H599.961H642.961V126H599.961ZM599.961 167L585.707 207.569C586.193 207.739 586.447 207.868 586.525 207.91C586.598 207.95 586.537 207.924 586.395 207.812L612.961 174L639.527 140.188C631.732 134.063 623.147 129.569 614.215 126.431L599.961 167ZM612.961 174L570.655 166.308L568.655 177.308L610.961 185L653.267 192.692L655.267 181.692L612.961 174ZM610.961 185V142H542.961V185V228H610.961V185ZM542.961 185L585.267 177.308L583.267 166.308L540.961 174L498.655 181.692L500.655 192.692L542.961 185ZM540.961 174L565.322 209.434C565.083 209.598 565.191 209.49 565.807 209.213L548.161 170L530.515 130.787C525.798 132.91 521.106 135.468 516.6 138.566L540.961 174ZM548.161 170L566.648 208.823C567.159 208.58 567.489 208.445 567.647 208.384C567.808 208.322 567.743 208.355 567.47 208.431L555.961 167L544.452 125.569C539.157 127.039 534.2 129.022 529.674 131.177L548.161 170ZM555.961 167H598.961V63H555.961H512.961V167H555.961ZM555.961 63L565.289 21.024C566.052 21.1935 566.543 21.3583 566.739 21.4286C566.937 21.4996 566.91 21.502 566.648 21.377L548.161 60.2L529.674 99.023C534.676 101.405 540.375 103.585 546.633 104.976L555.961 63ZM548.161 60.2L567.391 21.7396C566.242 21.1652 565.593 20.7529 565.322 20.5662L540.961 56L516.6 91.4338C520.595 94.1804 524.746 96.5682 528.931 98.6604L548.161 60.2ZM540.961 56L583.267 63.6921L585.267 52.6921L542.961 45L500.655 37.3079L498.655 48.3079L540.961 56ZM542.961 45V88H610.961V45V1.99999H542.961V45ZM610.961 45L568.655 52.6921L570.655 63.6921L612.961 56L655.267 48.3079L653.267 37.3079L610.961 45ZM612.961 56L586.395 22.1883C586.537 22.0761 586.598 22.0502 586.525 22.0897C586.447 22.1318 586.193 22.2606 585.707 22.4312L599.961 63L614.215 103.569C623.147 100.431 631.732 95.9366 639.527 89.8117L612.961 56ZM599.961 63H556.961V104H599.961H642.961V63H599.961ZM599.961 104L605.644 146.623L620.644 144.623L614.961 102L609.278 59.3772L594.278 61.3772L599.961 104ZM614.961 102L650.315 126.476L677.315 87.476L641.961 63L606.607 38.524L579.607 77.524L614.961 102ZM641.961 63L655.559 22.2066C655.889 22.3169 655.933 22.3484 655.649 22.2268C655.376 22.1097 654.897 21.8925 654.191 21.5396L634.961 60L615.731 98.4604C619.537 100.363 623.825 102.281 628.363 103.793L641.961 63ZM634.961 60L654.191 21.5397C652.758 20.8229 652.027 20.3647 651.813 20.2218L627.961 56L604.109 91.7782C607.894 94.3019 611.831 96.5104 615.731 98.4603L634.961 60ZM627.961 56L670.267 63.6921L672.267 52.6921L629.961 45L587.655 37.3079L585.655 48.3079L627.961 56ZM629.961 45V88H679.361V45V1.99999H629.961V45ZM679.361 45L637.055 52.6921L639.055 63.6921L681.361 56L723.667 48.3079L721.667 37.3079L679.361 45ZM681.361 56L654.368 22.5282C653.743 23.0317 653.482 23.1731 653.594 23.1075C653.711 23.0398 654.297 22.7099 655.343 22.349L669.361 63L683.379 103.651C693.122 100.291 701.44 95.0479 708.354 89.4717L681.361 56ZM669.361 63L635.142 36.9603L603.942 77.9603L638.161 104L672.38 130.04L703.58 89.0397L669.361 63ZM638.161 104L599.603 123.035C605.348 134.672 611.944 146.758 619.341 159.275L656.361 137.4L693.381 115.525C686.911 104.576 681.373 94.3947 676.718 84.9653L638.161 104ZM656.361 137.4L619.526 159.585C627.09 172.144 634.437 183.302 641.561 192.8L675.961 167L710.361 141.2C705.485 134.698 699.766 126.123 693.196 115.215L656.361 137.4ZM736.859 86.4L710.697 120.525L711.326 121.008L711.973 121.467L736.859 86.4ZM756.259 97L737.979 135.921L738.221 136.035L738.466 136.146L756.259 97ZM777.659 108.2L754.631 144.514L754.631 144.514L777.659 108.2ZM791.859 122L827.125 97.3962L827.125 97.3962L791.859 122ZM790.459 166.2L824.775 192.112L824.901 191.946L825.025 191.778L790.459 166.2ZM769.259 181.6L784.929 221.643L785.179 221.545L785.428 221.444L769.259 181.6ZM710.659 184.6L702.735 226.864L710.659 184.6ZM688.859 178L645.91 175.905L644.503 204.752L670.675 216.966L688.859 178ZM690.859 137L689.248 94.0302L649.832 95.5083L647.91 134.905L690.859 137ZM706.859 136.4L743.826 114.434L730.776 92.4729L705.248 93.4302L706.859 136.4ZM716.859 166L674.136 170.867L677.193 197.704L702.696 206.601L716.859 166ZM749.259 164.8L775.659 198.742L775.742 198.677L775.826 198.612L749.259 164.8ZM748.659 142.8L722.497 176.925L723.126 177.408L723.773 177.867L748.659 142.8ZM729.459 132L747.74 93.0794L747.497 92.9653L747.253 92.8542L729.459 132ZM708.059 120.8L731.088 84.4861V84.4861L708.059 120.8ZM693.859 107L729.125 82.3962L693.859 107ZM694.259 64L730.262 87.5119V87.5119L694.259 64ZM713.259 48.6L696.024 9.20522L695.91 9.25533L695.795 9.3061L713.259 48.6ZM767.859 45.8L758.388 87.744L758.778 87.832L759.169 87.9128L767.859 45.8ZM789.859 53L832.733 56.2979L834.971 27.2032L808.76 14.3767L789.859 53ZM786.859 92L788.471 134.97L826.792 133.533L829.733 95.2979L786.859 92ZM770.859 92.6L734.819 116.055L748.114 136.483L772.471 135.57L770.859 92.6ZM760.859 64L803.59 59.1928L800.9 35.2791L779.11 25.0653L760.859 64ZM735.059 65L763.909 96.886L763.947 96.8518L763.984 96.8174L735.059 65ZM730.859 75H687.859C687.859 94.5335 697.443 110.364 710.697 120.525L736.859 86.4L763.022 52.2749C765.108 53.8741 768.054 56.7441 770.411 61.2229C772.843 65.8432 773.859 70.689 773.859 75H730.859ZM736.859 86.4L711.973 121.467C719.3 126.667 728.56 131.497 737.979 135.921L756.259 97L774.54 58.0794C766.359 54.2367 762.685 52 761.746 51.3332L736.859 86.4ZM756.259 97L738.466 136.146C746.247 139.682 751.442 142.492 754.631 144.514L777.659 108.2L800.688 71.8861C792.943 66.9751 783.872 62.3175 774.053 57.8542L756.259 97ZM777.659 108.2L754.631 144.514C754.909 144.69 755.593 145.169 756.594 146.604L791.859 122L827.125 97.3962C820.126 87.3643 811.343 78.6434 800.688 71.8861L777.659 108.2ZM791.859 122L756.594 146.604C755.763 145.412 755.265 144.242 755.014 143.363C754.779 142.542 754.859 142.331 754.859 143H797.859H840.859C840.859 127.579 837.026 111.587 827.125 97.3962L791.859 122ZM797.859 143H754.859C754.859 143.337 754.82 143.031 755.043 142.333C755.274 141.608 755.617 140.996 755.894 140.622L790.459 166.2L825.025 191.778C835.782 177.242 840.859 160.411 840.859 143H797.859ZM790.459 166.2L756.144 140.288C756.402 139.946 756.514 139.923 756.188 140.16C755.826 140.423 754.894 141.024 753.091 141.756L769.259 181.6L785.428 221.444C800.292 215.413 814.257 206.042 824.775 192.112L790.459 166.2ZM769.259 181.6L753.59 141.557C750.477 142.775 745.213 144 736.859 144V187V230C753.305 230 769.641 227.625 784.929 221.643L769.259 181.6ZM736.859 187V144C730.508 144 724.43 143.433 718.584 142.336L710.659 184.6L702.735 226.864C713.956 228.967 725.344 230 736.859 230V187ZM710.659 184.6L718.584 142.336C712.564 141.208 708.945 139.921 707.043 139.034L688.859 178L670.675 216.966C680.774 221.679 691.688 224.792 702.735 226.864L710.659 184.6ZM688.859 178L731.808 180.095L733.808 139.095L690.859 137L647.91 134.905L645.91 175.905L688.859 178ZM690.859 137L692.471 179.97L708.471 179.37L706.859 136.4L705.248 93.4302L689.248 94.0302L690.859 137ZM706.859 136.4L669.893 158.366C672.283 162.388 673.631 166.435 674.136 170.867L716.859 166L759.583 161.133C757.688 144.498 752.369 128.812 743.826 114.434L706.859 136.4ZM716.859 166L702.696 206.601C712.599 210.055 723.047 212 733.859 212V169V126C733.472 126 732.586 125.945 731.022 125.399L716.859 166ZM733.859 169V212C745.831 212 761.726 209.579 775.659 198.742L749.259 164.8L722.86 130.858C729.593 125.621 735.222 126 733.859 126V169ZM749.259 164.8L775.826 198.612C788.6 188.575 797.859 173.071 797.859 154H754.859H711.859C711.859 149.614 712.882 144.743 715.286 140.106C717.619 135.607 720.552 132.671 722.693 130.988L749.259 164.8ZM754.859 154H797.859C797.859 133.728 787.485 117.626 773.545 107.733L748.659 142.8L723.773 177.867C721.559 176.295 718.312 173.363 715.689 168.626C712.973 163.72 711.859 158.549 711.859 154H754.859ZM748.659 142.8L774.822 108.675C767.057 102.722 757.264 97.5526 747.74 93.0794L729.459 132L711.179 170.921C714.912 172.674 717.731 174.126 719.778 175.278C721.93 176.488 722.655 177.046 722.497 176.925L748.659 142.8ZM729.459 132L747.253 92.8542C739.472 89.3175 734.277 86.5084 731.088 84.4861L708.059 120.8L685.031 157.114C692.775 162.025 701.847 166.682 711.666 171.146L729.459 132ZM708.059 120.8L731.088 84.4861C730.81 84.3101 730.126 83.831 729.125 82.3962L693.859 107L658.594 131.604C665.593 141.636 674.375 150.357 685.031 157.114L708.059 120.8ZM693.859 107L729.125 82.3962C729.956 83.5875 730.454 84.7577 730.705 85.637C730.939 86.4577 730.859 86.6687 730.859 86H687.859H644.859C644.859 101.421 648.693 117.413 658.594 131.604L693.859 107ZM687.859 86H730.859C730.859 85.7342 730.888 85.9298 730.748 86.4112C730.683 86.6334 730.599 86.8585 730.502 87.0695C730.405 87.2797 730.316 87.4293 730.262 87.5119L694.259 64L658.257 40.4881C649.225 54.3186 644.859 69.8889 644.859 86H687.859ZM694.259 64L730.262 87.5119C730.069 87.8069 729.866 88.066 729.673 88.2784C729.481 88.4891 729.339 88.6117 729.285 88.6551C729.175 88.7446 729.54 88.4197 730.723 87.8939L713.259 48.6L695.795 9.3061C681.196 15.7948 667.81 25.8601 658.257 40.4881L694.259 64ZM713.259 48.6L730.495 87.9948C732.215 87.242 736.343 86 744.259 86V43V-7.62939e-06C727.909 -7.62939e-06 711.37 2.49128 696.024 9.20522L713.259 48.6ZM744.259 43V86C748.146 86 752.82 86.4867 758.388 87.744L767.859 45.8L777.331 3.85603C766.365 1.37994 755.306 -7.62939e-06 744.259 -7.62939e-06V43ZM767.859 45.8L759.169 87.9128C764.807 89.0761 768.576 90.4574 770.959 91.6233L789.859 53L808.76 14.3767C798.609 9.40923 787.712 5.99058 776.549 3.68723L767.859 45.8ZM789.859 53L746.986 49.702L743.986 88.702L786.859 92L829.733 95.2979L832.733 56.2979L789.859 53ZM786.859 92L785.248 49.0302L769.248 49.6302L770.859 92.6L772.471 135.57L788.471 134.97L786.859 92ZM770.859 92.6L806.899 69.1454C805.34 66.7497 804.096 63.6911 803.59 59.1928L760.859 64L718.129 68.8072C720.023 85.6423 725.445 101.65 734.819 116.055L770.859 92.6ZM760.859 64L779.11 25.0653C768.71 20.1902 757.751 18 746.859 18V61V104C746.549 104 745.953 103.968 745.15 103.796C744.336 103.621 743.466 103.336 742.609 102.935L760.859 64ZM746.859 61V18C733.956 18 718.792 21.6756 706.134 33.1825L735.059 65L763.984 96.8174C757.193 102.991 749.896 104 746.859 104V61ZM735.059 65L706.21 33.114C693.489 44.624 687.859 60.0021 687.859 75H730.859H773.859C773.859 77.8376 773.364 81.7438 771.555 86.051C769.707 90.4509 766.967 94.1189 763.909 96.886L735.059 65Z" fill="white" mask="url(#path-1-outside-1_382_5330)"/>
</svg>
